<svg preserveAspectRatio="none" width="100%" height="100%" overflow="visible" style="display: block;" viewBox="0 0 75 75" fill="none" xmlns="http://www.w3.org/2000/svg">
<g id="Group 1000005669">
<circle id="Ellipse 12" cx="37.5" cy="37.5" r="37.5" fill="url(#paint0_linear_0_240)"/>
<g id="basil:award-solid">
<path id="Vector" d="M34.6458 33.7083C34.6458 32.8188 34.9992 31.9656 35.6282 31.3366C36.2573 30.7076 37.1104 30.3542 38 30.3542C38.8896 30.3542 39.7427 30.7076 40.3718 31.3366C41.0008 31.9656 41.3542 32.8188 41.3542 33.7083C41.3542 34.5979 41.0008 35.4511 40.3718 36.0801C39.7427 36.7091 38.8896 37.0625 38 37.0625C37.1104 37.0625 36.2573 36.7091 35.6282 36.0801C34.9992 35.4511 34.6458 34.5979 34.6458 33.7083Z" fill="var(--fill-0, white)"/>
<path id="Vector_2" fill-rule="evenodd" clip-rule="evenodd" d="M24.5833 33.7083C24.584 31.6288 25.0681 29.5778 25.9974 27.7174C26.9266 25.857 28.2757 24.2381 29.9379 22.9885C31.6002 21.7389 33.5301 20.8928 35.5755 20.517C37.6208 20.1412 39.7255 20.246 41.7234 20.8231C43.7213 21.4002 45.5576 22.4339 47.0875 23.8424C48.6174 25.251 49.7989 26.9959 50.5388 28.9394C51.2787 30.8829 51.5566 32.9718 51.3507 35.0411C51.1448 37.1105 50.4607 39.1036 49.3524 40.8633L54.5792 49.9138C54.717 50.153 54.783 50.427 54.7693 50.7028C54.7556 50.9786 54.6627 51.2446 54.5017 51.469C54.3408 51.6934 54.1186 51.8667 53.8618 51.9682C53.605 52.0697 53.3244 52.0951 53.0535 52.0412L48.0395 51.0446L46.395 55.8861C46.3063 56.1479 46.144 56.3785 45.9275 56.5504C45.711 56.7223 45.4496 56.8282 45.1745 56.8553C44.8994 56.8824 44.6224 56.8296 44.3765 56.7033C44.1307 56.5769 43.9264 56.3824 43.7883 56.1429L38.575 47.1135C38.1918 47.1299 37.8082 47.1299 37.425 47.1135L32.2117 56.1429C32.0739 56.3824 31.87 56.5772 31.6243 56.7038C31.3787 56.8304 31.1018 56.8836 30.8268 56.8569C30.5517 56.8302 30.2902 56.7248 30.0735 56.5533C29.8568 56.3818 29.6942 56.1515 29.605 55.8899L27.9547 51.0599L22.9446 52.0432C22.6739 52.0965 22.3935 52.0708 22.137 51.9691C21.8805 51.8675 21.6587 51.6941 21.498 51.4698C21.3373 51.2455 21.2446 50.9797 21.231 50.7041C21.2173 50.4285 21.2832 50.1548 21.4208 49.9157L26.6476 40.8633C25.2952 38.7221 24.5793 36.2408 24.5833 33.7083ZM28.5815 43.2629C30.1988 44.8593 32.1952 46.0187 34.3832 46.6324L31.3032 51.9665L30.2682 48.9401C30.1556 48.6114 29.9278 48.3345 29.6269 48.1608C29.3259 47.9871 28.9723 47.9282 28.6313 47.9952L25.4937 48.6123L28.5815 43.2629ZM41.6167 46.6324L44.693 51.9588L45.7222 48.9286C45.8342 48.5984 46.0623 48.3201 46.3641 48.1455C46.6659 47.971 47.0209 47.9121 47.3629 47.9798L50.5024 48.6047L47.4185 43.2629C45.8012 44.8593 43.8048 46.0187 41.6167 46.6324ZM38 27.4792C36.3479 27.4792 34.7635 28.1355 33.5953 29.3036C32.4271 30.4718 31.7708 32.0563 31.7708 33.7083C31.7708 35.3604 32.4271 36.9448 33.5953 38.113C34.7635 39.2812 36.3479 39.9375 38 39.9375C39.6521 39.9375 41.2365 39.2812 42.4047 38.113C43.5729 36.9448 44.2292 35.3604 44.2292 33.7083C44.2292 32.0563 43.5729 30.4718 42.4047 29.3036C41.2365 28.1355 39.6521 27.4792 38 27.4792Z" fill="var(--fill-0, white)"/>
</g>
</g>
<defs>
<linearGradient id="paint0_linear_0_240" x1="37.5" y1="0" x2="37.5" y2="75" gradientUnits="userSpaceOnUse">
<stop stop-color="#1863DA"/>
<stop offset="1" stop-color="#4DD6C4"/>
</linearGradient>
</defs>
</svg>
