<svg preserveAspectRatio="none" width="100%" height="100%" overflow="visible" style="display: block;" viewBox="0 0 75 75" fill="none" xmlns="http://www.w3.org/2000/svg">
<g id="Group 1000005669">
<circle id="Ellipse 12" cx="37.5" cy="37.5" r="37.5" fill="url(#paint0_linear_0_251)"/>
<path id="Vector" d="M36.6667 16.5V21.8333H39.3333V16.5H36.6667ZM26.944 26.2227L22.944 22.2227L21.056 24.1107L25.056 28.1107L26.944 26.2227ZM50.944 28.1107L54.944 24.1107L53.056 22.2227L49.056 26.2227L50.944 28.1107ZM38 24.5C35.4581 24.5001 33.0016 25.4171 31.0814 27.0826C29.1612 28.7481 27.9061 31.0503 27.5467 33.5667L27.52 33.7533C27.3171 35.1553 27.3991 36.5838 27.7611 37.9533C28.1231 39.3229 28.7576 40.6053 29.6267 41.724C30.648 43.044 31.3333 44.3053 31.3333 45.5693V49.8333C31.3333 50.187 31.4738 50.5261 31.7239 50.7761C31.9739 51.0262 32.313 51.1667 32.6667 51.1667H43.3333C43.687 51.1667 44.0261 51.0262 44.2761 50.7761C44.5262 50.5261 44.6667 50.187 44.6667 49.8333V45.5693C44.6667 44.3053 45.352 43.044 46.3733 41.724C48.0533 39.5533 48.9013 36.724 48.48 33.7507L48.4533 33.564C48.0933 31.0482 46.838 28.7466 44.9178 27.0816C42.9977 25.4166 40.5415 24.5 38 24.5ZM18 37.8333H23.3333V35.1667H18V37.8333ZM52.6667 37.8333H58V35.1667H52.6667V37.8333ZM34 56.5H42V53.8333H34V56.5Z" fill="var(--fill-0, white)"/>
</g>
<defs>
<linearGradient id="paint0_linear_0_251" x1="37.5" y1="0" x2="37.5" y2="75" gradientUnits="userSpaceOnUse">
<stop stop-color="#1863DA"/>
<stop offset="1" stop-color="#4DD6C4"/>
</linearGradient>
</defs>
</svg>
