<svg preserveAspectRatio="none" width="100%" height="100%" overflow="visible" style="display: block;" viewBox="0 0 75 75" fill="none" xmlns="http://www.w3.org/2000/svg">
<g id="Group 1000005669">
<circle id="Ellipse 12" cx="37.5" cy="37.5" r="37.5" fill="url(#paint0_linear_0_245)"/>
<g id="streamline-sharp:user-collaborate-group-solid">
<path id="Vector" fill-rule="evenodd" clip-rule="evenodd" d="M32.5 21.9167C32.5 23.1322 32.0171 24.298 31.1576 25.1576C30.298 26.0171 29.1322 26.5 27.9167 26.5C26.7011 26.5 25.5353 26.0171 24.6758 25.1576C23.8162 24.298 23.3333 23.1322 23.3333 21.9167C23.3333 20.7011 23.8162 19.5353 24.6758 18.6758C25.5353 17.8162 26.7011 17.3333 27.9167 17.3333C29.1322 17.3333 30.298 17.8162 31.1576 18.6758C32.0171 19.5353 32.5 20.7011 32.5 21.9167ZM48.0833 49.4167C49.2989 49.4167 50.4647 48.9338 51.3242 48.0742C52.1838 47.2147 52.6667 46.0489 52.6667 44.8333C52.6667 43.6178 52.1838 42.452 51.3242 41.5924C50.4647 40.7329 49.2989 40.25 48.0833 40.25C46.8678 40.25 45.702 40.7329 44.8424 41.5924C43.9829 42.452 43.5 43.6178 43.5 44.8333C43.5 46.0489 43.9829 47.2147 44.8424 48.0742C45.702 48.9338 46.8678 49.4167 48.0833 49.4167ZM39.8333 57.6667V54C39.8333 54 42.5833 51.25 48.0833 51.25C53.5833 51.25 56.3333 54 56.3333 54V57.6667H39.8333ZM19.6667 34.75V31.0833C19.6667 31.0833 22.4167 28.3333 27.9167 28.3333C33.4167 28.3333 36.1667 31.0833 36.1667 31.0833V34.75H19.6667ZM49 24.6667H40.75V21H52.6667V32.9167H49V24.6667ZM23.3333 42.0833V54H35.25V50.3333H27V42.0833H23.3333Z" fill="var(--fill-0, white)"/>
</g>
</g>
<defs>
<linearGradient id="paint0_linear_0_245" x1="37.5" y1="0" x2="37.5" y2="75" gradientUnits="userSpaceOnUse">
<stop stop-color="#1863DA"/>
<stop offset="1" stop-color="#4DD6C4"/>
</linearGradient>
</defs>
</svg>
