<svg preserveAspectRatio="none" width="100%" height="100%" overflow="visible" style="display: block;" viewBox="0 0 75 75" fill="none" xmlns="http://www.w3.org/2000/svg">
<g id="Group 1000005669">
<circle id="Ellipse 12" cx="37.5" cy="37.5" r="37.5" fill="url(#paint0_linear_0_150)"/>
<g id="ri:focus-3-fill">
<path id="Vector" d="M39.8333 17.3333L39.8352 22.947C43.0659 23.3555 46.069 24.827 48.3715 27.1298C50.6739 29.4326 52.145 32.4359 52.553 35.6667H58.1667V39.3333L52.553 39.3352C52.1446 42.5656 50.6734 45.5685 48.3709 47.8709C46.0685 50.1734 43.0656 51.6446 39.8352 52.053L39.8333 57.6667H36.1667V52.053C32.9359 51.645 29.9326 50.1739 27.6298 47.8715C25.327 45.569 23.8555 42.5659 23.447 39.3352L17.8333 39.3333V35.6667H23.447C23.8551 32.4356 25.3264 29.4321 27.6293 27.1293C29.9321 24.8264 32.9356 23.3551 36.1667 22.947V17.3333H39.8333ZM38 33.8333C37.0275 33.8333 36.0949 34.2196 35.4073 34.9073C34.7196 35.5949 34.3333 36.5275 34.3333 37.5C34.3333 38.4725 34.7196 39.4051 35.4073 40.0927C36.0949 40.7804 37.0275 41.1667 38 41.1667C38.9725 41.1667 39.9051 40.7804 40.5927 40.0927C41.2804 39.4051 41.6667 38.4725 41.6667 37.5C41.6667 36.5275 41.2804 35.5949 40.5927 34.9073C39.9051 34.2196 38.9725 33.8333 38 33.8333Z" fill="var(--fill-0, white)"/>
</g>
</g>
<defs>
<linearGradient id="paint0_linear_0_150" x1="37.5" y1="0" x2="37.5" y2="75" gradientUnits="userSpaceOnUse">
<stop stop-color="#1863DA"/>
<stop offset="1" stop-color="#4DD6C4"/>
</linearGradient>
</defs>
</svg>
