<svg width="402" height="278" viewBox="0 0 402 278" fill="none" xmlns="http://www.w3.org/2000/svg">
<rect y="5.11328" width="402" height="268" fill="black"/>
<g opacity="0.72">
<g opacity="0.6">
<path d="M101.294 57.1367H88V70.1433M101.294 57.1367V70.1433M101.294 57.1367H114.588M101.294 70.1433H88M101.294 70.1433H114.588M101.294 70.1433V83.1499M88 70.1433V83.1499M114.588 57.1367V70.1433M114.588 57.1367H127.882M114.588 70.1433H127.882M114.588 70.1433V83.1499M127.882 57.1367V70.1433M127.882 57.1367H141.176M127.882 70.1433H141.176M127.882 70.1433V83.1499M141.176 57.1367V70.1433M141.176 57.1367H154.471M141.176 70.1433H154.471M141.176 70.1433V83.1499M154.471 57.1367V70.1433M154.471 57.1367H167.765M154.471 70.1433H167.765M154.471 70.1433V83.1499M167.765 57.1367V70.1433M167.765 57.1367H181.059M167.765 70.1433H181.059M167.765 70.1433V83.1499M181.059 57.1367V70.1433M181.059 57.1367H194.353M181.059 70.1433H194.353M181.059 70.1433V83.1499M194.353 57.1367V70.1433M194.353 57.1367H207.647M194.353 70.1433H207.647M194.353 70.1433V83.1499M207.647 57.1367V70.1433M207.647 57.1367H220.941M207.647 70.1433H220.941M207.647 70.1433V83.1499M220.941 57.1367V70.1433M220.941 57.1367H234.235M220.941 70.1433H234.235M220.941 70.1433V83.1499M234.235 57.1367V70.1433M234.235 57.1367H247.529M234.235 70.1433H247.529M234.235 70.1433V83.1499M247.529 57.1367V70.1433M247.529 57.1367H260.824M247.529 70.1433H260.824M247.529 70.1433V83.1499M260.824 57.1367V70.1433M260.824 57.1367H274.118M260.824 70.1433H274.118M260.824 70.1433V83.1499M274.118 57.1367V70.1433M274.118 57.1367H287.412M274.118 70.1433H287.412M274.118 70.1433V83.1499M287.412 57.1367V70.1433M287.412 57.1367H300.706M287.412 70.1433H300.706M287.412 70.1433V83.1499M300.706 57.1367V70.1433M300.706 57.1367H314V70.1433M300.706 70.1433H314M300.706 70.1433V83.1499M314 70.1433V83.1499M101.294 83.1499H88M101.294 83.1499H114.588M101.294 83.1499V96.1564M88 83.1499V96.1564M114.588 83.1499H127.882M114.588 83.1499V96.1564M127.882 83.1499H141.176M127.882 83.1499V96.1564M141.176 83.1499H154.471M141.176 83.1499V96.1564M154.471 83.1499H167.765M154.471 83.1499V96.1564M167.765 83.1499H181.059M167.765 83.1499V96.1564M181.059 83.1499H194.353M181.059 83.1499V96.1564M194.353 83.1499H207.647M194.353 83.1499V96.1564M207.647 83.1499H220.941M207.647 83.1499V96.1564M220.941 83.1499H234.235M220.941 83.1499V96.1564M234.235 83.1499H247.529M234.235 83.1499V96.1564M247.529 83.1499H260.824M247.529 83.1499V96.1564M260.824 83.1499H274.118M260.824 83.1499V96.1564M274.118 83.1499H287.412M274.118 83.1499V96.1564M287.412 83.1499H300.706M287.412 83.1499V96.1564M300.706 83.1499H314M300.706 83.1499V96.1564M314 83.1499V96.1564M101.294 96.1564H88M101.294 96.1564H114.588M101.294 96.1564V109.163M88 96.1564V109.163M114.588 96.1564H127.882M114.588 96.1564V109.163M127.882 96.1564H141.176M127.882 96.1564V109.163M141.176 96.1564H154.471M141.176 96.1564V109.163M154.471 96.1564H167.765M154.471 96.1564V109.163M167.765 96.1564H181.059M167.765 96.1564V109.163M181.059 96.1564H194.353M181.059 96.1564V109.163M194.353 96.1564H207.647M194.353 96.1564V109.163M207.647 96.1564H220.941M207.647 96.1564V109.163M220.941 96.1564H234.235M220.941 96.1564V109.163M234.235 96.1564H247.529M234.235 96.1564V109.163M247.529 96.1564H260.824M247.529 96.1564V109.163M260.824 96.1564H274.118M260.824 96.1564V109.163M274.118 96.1564H287.412M274.118 96.1564V109.163M287.412 96.1564H300.706M287.412 96.1564V109.163M300.706 96.1564H314M300.706 96.1564V109.163M314 96.1564V109.163M101.294 109.163H88M101.294 109.163H114.588M101.294 109.163V122.17M88 109.163V122.17M114.588 109.163H127.882M114.588 109.163V122.17M127.882 109.163H141.176M127.882 109.163V122.17M141.176 109.163H154.471M141.176 109.163V122.17M154.471 109.163H167.765M154.471 109.163V122.17M167.765 109.163H181.059M167.765 109.163V122.17M181.059 109.163H194.353M181.059 109.163V122.17M194.353 109.163H207.647M194.353 109.163V122.17M207.647 109.163H220.941M207.647 109.163V122.17M220.941 109.163H234.235M220.941 109.163V122.17M234.235 109.163H247.529M234.235 109.163V122.17M247.529 109.163H260.824M247.529 109.163V122.17M260.824 109.163H274.118M260.824 109.163V122.17M274.118 109.163H287.412M274.118 109.163V122.17M287.412 109.163H300.706M287.412 109.163V122.17M300.706 109.163H314M300.706 109.163V122.17M314 109.163V122.17M101.294 122.17H88M101.294 122.17H114.588M101.294 122.17V135.176M88 122.17V135.176M114.588 122.17H127.882M114.588 122.17V135.176M127.882 122.17H141.176M127.882 122.17V135.176M141.176 122.17H154.471M141.176 122.17V135.176M154.471 122.17H167.765M154.471 122.17V135.176M167.765 122.17H181.059M167.765 122.17V135.176M181.059 122.17H194.353M181.059 122.17V135.176M194.353 122.17H207.647M194.353 122.17V135.176M207.647 122.17H220.941M207.647 122.17V135.176M220.941 122.17H234.235M220.941 122.17V135.176M234.235 122.17H247.529M234.235 122.17V135.176M247.529 122.17H260.824M247.529 122.17V135.176M260.824 122.17H274.118M260.824 122.17V135.176M274.118 122.17H287.412M274.118 122.17V135.176M287.412 122.17H300.706M287.412 122.17V135.176M300.706 122.17H314M300.706 122.17V135.176M314 122.17V135.176M101.294 135.176H88M101.294 135.176H114.588M101.294 135.176V148.183M88 135.176V148.183M114.588 135.176H127.882M114.588 135.176V148.183M127.882 135.176H141.176M127.882 135.176V148.183M141.176 135.176H154.471M141.176 135.176V148.183M154.471 135.176H167.765M154.471 135.176V148.183M167.765 135.176H181.059M167.765 135.176V148.183M181.059 135.176H194.353M181.059 135.176V148.183M194.353 135.176H207.647M194.353 135.176V148.183M207.647 135.176H220.941M207.647 135.176V148.183M220.941 135.176H234.235M220.941 135.176V148.183M234.235 135.176H247.529M234.235 135.176V148.183M247.529 135.176H260.824M247.529 135.176V148.183M260.824 135.176H274.118M260.824 135.176V148.183M274.118 135.176H287.412M274.118 135.176V148.183M287.412 135.176H300.706M287.412 135.176V148.183M300.706 135.176H314M300.706 135.176V148.183M314 135.176V148.183M101.294 148.183H88M101.294 148.183H114.588M101.294 148.183V161.189M88 148.183V161.189M114.588 148.183H127.882M114.588 148.183V161.189M127.882 148.183H141.176M127.882 148.183V161.189M141.176 148.183H154.471M141.176 148.183V161.189M154.471 148.183H167.765M154.471 148.183V161.189M167.765 148.183H181.059M167.765 148.183V161.189M181.059 148.183H194.353M181.059 148.183V161.189M194.353 148.183H207.647M194.353 148.183V161.189M207.647 148.183H220.941M207.647 148.183V161.189M220.941 148.183H234.235M220.941 148.183V161.189M234.235 148.183H247.529M234.235 148.183V161.189M247.529 148.183H260.824M247.529 148.183V161.189M260.824 148.183H274.118M260.824 148.183V161.189M274.118 148.183H287.412M274.118 148.183V161.189M287.412 148.183H300.706M287.412 148.183V161.189M300.706 148.183H314M300.706 148.183V161.189M314 148.183V161.189M101.294 161.189H88M101.294 161.189H114.588M101.294 161.189V174.196M88 161.189V174.196M114.588 161.189H127.882M114.588 161.189V174.196M127.882 161.189H141.176M127.882 161.189V174.196M141.176 161.189H154.471M141.176 161.189V174.196M154.471 161.189H167.765M154.471 161.189V174.196M167.765 161.189H181.059M167.765 161.189V174.196M181.059 161.189H194.353M181.059 161.189V174.196M194.353 161.189H207.647M194.353 161.189V174.196M207.647 161.189H220.941M207.647 161.189V174.196M220.941 161.189H234.235M220.941 161.189V174.196M234.235 161.189H247.529M234.235 161.189V174.196M247.529 161.189H260.824M247.529 161.189V174.196M260.824 161.189H274.118M260.824 161.189V174.196M274.118 161.189H287.412M274.118 161.189V174.196M287.412 161.189H300.706M287.412 161.189V174.196M300.706 161.189H314M300.706 161.189V174.196M314 161.189V174.196M101.294 174.196H88M101.294 174.196H114.588M101.294 174.196V187.202M88 174.196V187.202M114.588 174.196H127.882M114.588 174.196V187.202M127.882 174.196H141.176M127.882 174.196V187.202M141.176 174.196H154.471M141.176 174.196V187.202M154.471 174.196H167.765M154.471 174.196V187.202M167.765 174.196H181.059M167.765 174.196V187.202M181.059 174.196H194.353M181.059 174.196V187.202M194.353 174.196H207.647M194.353 174.196V187.202M207.647 174.196H220.941M207.647 174.196V187.202M220.941 174.196H234.235M220.941 174.196V187.202M234.235 174.196H247.529M234.235 174.196V187.202M247.529 174.196H260.824M247.529 174.196V187.202M260.824 174.196H274.118M260.824 174.196V187.202M274.118 174.196H287.412M274.118 174.196V187.202M287.412 174.196H300.706M287.412 174.196V187.202M300.706 174.196H314M300.706 174.196V187.202M314 174.196V187.202M101.294 187.202H88M101.294 187.202H114.588M101.294 187.202V200.209M88 187.202V200.209M114.588 187.202H127.882M114.588 187.202V200.209M127.882 187.202H141.176M127.882 187.202V200.209M141.176 187.202H154.471M141.176 187.202V200.209M154.471 187.202H167.765M154.471 187.202V200.209M167.765 187.202H181.059M167.765 187.202V200.209M181.059 187.202H194.353M181.059 187.202V200.209M194.353 187.202H207.647M194.353 187.202V200.209M207.647 187.202H220.941M207.647 187.202V200.209M220.941 187.202H234.235M220.941 187.202V200.209M234.235 187.202H247.529M234.235 187.202V200.209M247.529 187.202H260.824M247.529 187.202V200.209M260.824 187.202H274.118M260.824 187.202V200.209M274.118 187.202H287.412M274.118 187.202V200.209M287.412 187.202H300.706M287.412 187.202V200.209M300.706 187.202H314M300.706 187.202V200.209M314 187.202V200.209M101.294 200.209H88M101.294 200.209H114.588M101.294 200.209V213.216M88 200.209V213.216H101.294M114.588 200.209H127.882M114.588 200.209V213.216M127.882 200.209H141.176M127.882 200.209V213.216M141.176 200.209H154.471M141.176 200.209V213.216M154.471 200.209H167.765M154.471 200.209V213.216M167.765 200.209H181.059M167.765 200.209V213.216M181.059 200.209H194.353M181.059 200.209V213.216M194.353 200.209H207.647M194.353 200.209V213.216M207.647 200.209H220.941M207.647 200.209V213.216M220.941 200.209H234.235M220.941 200.209V213.216M234.235 200.209H247.529M234.235 200.209V213.216M247.529 200.209H260.824M247.529 200.209V213.216M260.824 200.209H274.118M260.824 200.209V213.216M274.118 200.209H287.412M274.118 200.209V213.216M287.412 200.209H300.706M287.412 200.209V213.216M300.706 200.209H314M300.706 200.209V213.216M314 200.209V213.216H300.706M101.294 213.216H114.588M114.588 213.216H127.882M127.882 213.216H141.176M141.176 213.216H154.471M154.471 213.216H167.765M167.765 213.216H181.059M181.059 213.216H194.353M194.353 213.216H207.647M207.647 213.216H220.941M220.941 213.216H234.235M234.235 213.216H247.529M247.529 213.216H260.824M260.824 213.216H274.118M274.118 213.216H287.412M287.412 213.216H300.706" stroke="url(#paint0_radial_3309_3682)" style="mix-blend-mode:luminosity" stroke-width="0.267927"/>
</g>
<g opacity="0.4" filter="url(#filter0_f_3309_3682)">
<circle cx="195.894" cy="138.744" r="76.1075" transform="rotate(-45 195.894 138.744)" fill="#4DD6C4"/>
</g>
</g>
<path d="M52.7995 119.747H63.6155V122.113H50.2775V103.913H63.4595V106.253H52.7995V111.739H62.9915V114.053H52.7995V119.747ZM73.5304 109.035C76.8584 109.035 79.0424 111.349 79.0424 114.989V122.113H76.6244V115.145C76.6244 112.675 75.3504 111.271 73.1664 111.271C70.8264 111.271 69.1884 112.961 69.1884 115.275V122.113H66.7704V109.269H68.9284L68.9544 111.063C70.0464 109.737 71.6584 109.035 73.5304 109.035ZM95.4322 115.431C95.4322 117.849 94.1582 119.669 91.9222 120.553C94.1062 121.281 95.3282 122.737 95.3282 124.661C95.3282 127.807 92.6762 129.861 88.5942 129.861C84.5122 129.861 81.8082 127.599 81.9382 124.271H84.3302C84.2522 126.273 85.9942 127.625 88.5942 127.625C91.1942 127.625 92.9102 126.455 92.9102 124.661C92.9102 122.919 91.2722 121.801 88.6462 121.801C84.4342 121.801 81.7562 119.331 81.7562 115.431C81.7562 111.739 84.6422 109.035 88.5682 109.035C89.9982 109.035 91.2722 109.347 92.2082 109.945L93.8722 107.943L95.6142 109.295L93.8462 111.375C94.9902 112.727 95.4322 113.897 95.4322 115.431ZM88.5942 119.591C91.1942 119.591 93.0142 117.875 93.0142 115.431C93.0142 112.935 91.2722 111.271 88.5942 111.271C85.9682 111.271 84.1742 112.961 84.1742 115.431C84.1742 117.927 85.9422 119.591 88.5942 119.591ZM99.7053 107.059C98.7693 107.059 98.0673 106.383 98.0673 105.473C98.0673 104.537 98.7693 103.861 99.7053 103.861C100.667 103.861 101.343 104.537 101.343 105.473C101.343 106.383 100.667 107.059 99.7053 107.059ZM98.4833 122.113V109.269H100.901V122.113H98.4833ZM111.413 109.035C114.741 109.035 116.925 111.349 116.925 114.989V122.113H114.507V115.145C114.507 112.675 113.233 111.271 111.049 111.271C108.709 111.271 107.071 112.961 107.071 115.275V122.113H104.653V109.269H106.811L106.837 111.063C107.929 109.737 109.541 109.035 111.413 109.035ZM126.217 109.009C130.637 109.009 133.133 111.921 132.769 116.653H122.135C122.369 118.863 124.059 120.215 126.529 120.215C128.089 120.215 129.675 119.617 130.429 118.707L131.989 120.189C130.767 121.593 128.687 122.451 126.477 122.451C122.343 122.451 119.639 119.773 119.639 115.691C119.639 111.739 122.291 109.009 126.217 109.009ZM126.295 111.167C124.033 111.167 122.551 112.441 122.161 114.599H130.481C130.273 112.519 128.687 111.167 126.295 111.167ZM141.299 109.009C145.719 109.009 148.215 111.921 147.851 116.653H137.217C137.451 118.863 139.141 120.215 141.611 120.215C143.171 120.215 144.757 119.617 145.511 118.707L147.071 120.189C145.849 121.593 143.769 122.451 141.559 122.451C137.425 122.451 134.721 119.773 134.721 115.691C134.721 111.739 137.373 109.009 141.299 109.009ZM141.377 111.167C139.115 111.167 137.633 112.441 137.243 114.599H145.563C145.355 112.519 143.769 111.167 141.377 111.167ZM156.875 109.035C158.097 109.035 159.267 109.425 160.021 110.049L158.929 112.077C158.201 111.609 157.525 111.401 156.745 111.401C154.535 111.401 153.079 113.143 153.079 115.795V122.113H150.661V109.269H152.819L152.845 111.427C153.859 109.815 155.159 109.035 156.875 109.035ZM163.131 107.059C162.195 107.059 161.493 106.383 161.493 105.473C161.493 104.537 162.195 103.861 163.131 103.861C164.093 103.861 164.769 104.537 164.769 105.473C164.769 106.383 164.093 107.059 163.131 107.059ZM161.909 122.113V109.269H164.327V122.113H161.909ZM174.839 109.035C178.167 109.035 180.351 111.349 180.351 114.989V122.113H177.933V115.145C177.933 112.675 176.659 111.271 174.475 111.271C172.135 111.271 170.497 112.961 170.497 115.275V122.113H168.079V109.269H170.237L170.263 111.063C171.355 109.737 172.967 109.035 174.839 109.035ZM196.741 115.431C196.741 117.849 195.467 119.669 193.231 120.553C195.415 121.281 196.637 122.737 196.637 124.661C196.637 127.807 193.985 129.861 189.903 129.861C185.821 129.861 183.117 127.599 183.247 124.271H185.639C185.561 126.273 187.303 127.625 189.903 127.625C192.503 127.625 194.219 126.455 194.219 124.661C194.219 122.919 192.581 121.801 189.955 121.801C185.743 121.801 183.065 119.331 183.065 115.431C183.065 111.739 185.951 109.035 189.877 109.035C191.307 109.035 192.581 109.347 193.517 109.945L195.181 107.943L196.923 109.295L195.155 111.375C196.299 112.727 196.741 113.897 196.741 115.431ZM189.903 119.591C192.503 119.591 194.323 117.875 194.323 115.431C194.323 112.935 192.581 111.271 189.903 111.271C187.277 111.271 185.483 112.961 185.483 115.431C185.483 117.927 187.251 119.591 189.903 119.591ZM107.097 145.747H117.913V148.113H104.575V129.913H117.757V132.253H107.097V137.739H117.289V140.053H107.097V145.747ZM121.271 148.113V129.913H123.689V148.113H121.271ZM133.161 135.009C137.581 135.009 140.077 137.921 139.713 142.653H129.079C129.313 144.863 131.003 146.215 133.473 146.215C135.033 146.215 136.619 145.617 137.373 144.707L138.933 146.189C137.711 147.593 135.631 148.451 133.421 148.451C129.287 148.451 126.583 145.773 126.583 141.691C126.583 137.739 129.235 135.009 133.161 135.009ZM133.239 137.167C130.977 137.167 129.495 138.441 129.105 140.599H137.425C137.217 138.519 135.631 137.167 133.239 137.167ZM148.451 148.399C144.421 148.399 141.665 145.721 141.665 141.691C141.665 137.713 144.447 134.983 148.425 134.983C150.271 134.983 151.857 135.633 153.235 136.959L151.727 138.571C150.869 137.687 149.699 137.219 148.451 137.219C145.929 137.219 144.083 139.013 144.083 141.691C144.083 144.369 145.903 146.163 148.451 146.163C149.777 146.163 150.999 145.643 151.857 144.733L153.365 146.397C151.961 147.775 150.401 148.399 148.451 148.399ZM163.47 145.695L164.172 147.697C163.236 148.113 162.404 148.295 161.442 148.295C158.738 148.295 157.386 146.735 157.386 143.849V137.375H154.864V135.269H157.386V131.811L159.778 131.551V135.269H163.678V137.375H159.778V143.849C159.778 145.279 160.324 146.111 161.728 146.111C162.274 146.111 162.924 145.929 163.47 145.695ZM172.681 135.035C173.903 135.035 175.073 135.425 175.827 136.049L174.735 138.077C174.007 137.609 173.331 137.401 172.551 137.401C170.341 137.401 168.885 139.143 168.885 141.795V148.113H166.467V135.269H168.625L168.651 137.427C169.665 135.815 170.965 135.035 172.681 135.035ZM178.937 133.059C178.001 133.059 177.299 132.383 177.299 131.473C177.299 130.537 178.001 129.861 178.937 129.861C179.899 129.861 180.575 130.537 180.575 131.473C180.575 132.383 179.899 133.059 178.937 133.059ZM177.715 148.113V135.269H180.133V148.113H177.715ZM189.813 148.399C185.783 148.399 183.027 145.721 183.027 141.691C183.027 137.713 185.809 134.983 189.787 134.983C191.633 134.983 193.219 135.633 194.597 136.959L193.089 138.571C192.231 137.687 191.061 137.219 189.813 137.219C187.291 137.219 185.445 139.013 185.445 141.691C185.445 144.369 187.265 146.163 189.813 146.163C191.139 146.163 192.361 145.643 193.219 144.733L194.727 146.397C193.323 147.775 191.763 148.399 189.813 148.399ZM221.028 129.913H223.342V148.113H220.846V134.229L214.112 142.939H213.54L206.832 134.229V148.113H204.31V129.913H206.624L213.826 139.273L221.028 129.913ZM233.205 148.399C229.097 148.399 226.419 145.513 226.419 141.691C226.419 137.869 229.097 134.983 233.205 134.983C237.287 134.983 239.965 137.869 239.965 141.691C239.965 145.513 237.287 148.399 233.205 148.399ZM233.205 146.163C235.831 146.163 237.547 144.135 237.547 141.691C237.547 139.247 235.831 137.219 233.205 137.219C230.553 137.219 228.837 139.247 228.837 141.691C228.837 144.135 230.553 146.163 233.205 146.163ZM249.94 134.983C253.632 134.983 256.31 137.635 256.31 141.691C256.31 145.747 253.632 148.399 249.94 148.399C247.808 148.399 246.014 147.567 245.026 146.215L245 148.113H242.842V129.913H245.26V136.881C246.274 135.685 247.964 134.983 249.94 134.983ZM249.576 146.163C252.124 146.163 253.892 144.317 253.892 141.691C253.892 139.065 252.124 137.219 249.576 137.219C247.054 137.219 245.26 139.065 245.26 141.691C245.26 144.317 247.054 146.163 249.576 146.163ZM260.441 133.059C259.505 133.059 258.803 132.383 258.803 131.473C258.803 130.537 259.505 129.861 260.441 129.861C261.403 129.861 262.079 130.537 262.079 131.473C262.079 132.383 261.403 133.059 260.441 133.059ZM259.219 148.113V135.269H261.637V148.113H259.219ZM265.389 148.113V129.913H267.807V148.113H265.389ZM272.781 133.059C271.845 133.059 271.143 132.383 271.143 131.473C271.143 130.537 271.845 129.861 272.781 129.861C273.743 129.861 274.419 130.537 274.419 131.473C274.419 132.383 273.743 133.059 272.781 133.059ZM271.559 148.113V135.269H273.977V148.113H271.559ZM285.268 145.695L285.97 147.697C285.034 148.113 284.202 148.295 283.24 148.295C280.536 148.295 279.184 146.735 279.184 143.849V137.375H276.662V135.269H279.184V131.811L281.576 131.551V135.269H285.476V137.375H281.576V143.849C281.576 145.279 282.122 146.111 283.526 146.111C284.072 146.111 284.722 145.929 285.268 145.695ZM297.6 135.269H300.2L292.088 154.145H289.436L292.062 148.035L286.94 135.269H289.54L292.036 141.665L293.414 145.357L294.922 141.665L297.6 135.269Z" fill="white"/>
<path d="M219.057 122.113L213.467 115.717H209.333V122.113H206.811V103.913H215.183C219.005 103.913 221.527 106.253 221.527 109.815C221.527 112.935 219.577 115.119 216.535 115.613L222.281 122.113H219.057ZM215.235 106.279H209.333V113.351H215.235C217.575 113.351 219.005 111.999 219.005 109.815C219.005 107.657 217.575 106.279 215.235 106.279ZM230.039 109.009C234.459 109.009 236.955 111.921 236.591 116.653H225.957C226.191 118.863 227.881 120.215 230.351 120.215C231.911 120.215 233.497 119.617 234.251 118.707L235.811 120.189C234.589 121.593 232.509 122.451 230.299 122.451C226.165 122.451 223.461 119.773 223.461 115.691C223.461 111.739 226.113 109.009 230.039 109.009ZM230.117 111.167C227.855 111.167 226.373 112.441 225.983 114.599H234.303C234.095 112.519 232.509 111.167 230.117 111.167ZM249.879 109.269H252.011V122.113H249.879L249.853 120.215C248.839 121.567 247.071 122.399 244.965 122.399C241.195 122.399 238.543 119.643 238.543 115.691C238.543 111.739 241.195 108.983 244.965 108.983C247.071 108.983 248.839 109.815 249.853 111.167L249.879 109.269ZM245.277 120.163C247.825 120.163 249.593 118.317 249.593 115.691C249.593 113.065 247.825 111.219 245.277 111.219C242.755 111.219 240.961 113.065 240.961 115.691C240.961 118.317 242.755 120.163 245.277 120.163ZM255.778 122.113V103.913H258.196V122.113H255.778ZM261.818 115.691V113.507H271.204V115.691H261.818ZM297.405 103.913H300.083L293.947 122.113H291.061L288.851 115.275L286.433 107.917L284.015 115.275L281.779 122.113H278.971L272.757 103.913H275.435L278.399 113.143L280.349 119.045L285.185 103.913H287.655L292.517 119.019L294.441 113.143L297.405 103.913ZM306.952 122.399C302.844 122.399 300.166 119.513 300.166 115.691C300.166 111.869 302.844 108.983 306.952 108.983C311.034 108.983 313.712 111.869 313.712 115.691C313.712 119.513 311.034 122.399 306.952 122.399ZM306.952 120.163C309.578 120.163 311.294 118.135 311.294 115.691C311.294 113.247 309.578 111.219 306.952 111.219C304.3 111.219 302.584 113.247 302.584 115.691C302.584 118.135 304.3 120.163 306.952 120.163ZM322.803 109.035C324.025 109.035 325.195 109.425 325.949 110.049L324.857 112.077C324.129 111.609 323.453 111.401 322.673 111.401C320.463 111.401 319.007 113.143 319.007 115.795V122.113H316.589V109.269H318.747L318.773 111.427C319.787 109.815 321.087 109.035 322.803 109.035ZM327.837 122.113V103.913H330.255V122.113H327.837ZM344.225 103.913H346.643V122.113H344.485L344.459 120.215C343.471 121.567 341.677 122.399 339.545 122.399C335.853 122.399 333.175 119.747 333.175 115.691C333.175 111.635 335.853 108.983 339.545 108.983C341.521 108.983 343.211 109.685 344.225 110.881V103.913ZM339.909 120.163C342.431 120.163 344.225 118.317 344.225 115.691C344.225 113.065 342.431 111.219 339.909 111.219C337.387 111.219 335.593 113.065 335.593 115.691C335.593 118.317 337.387 120.163 339.909 120.163Z" fill="#4DD6C4"/>
<path d="M95.3139 175.373H99.0639V176.113H94.5339V169.243H95.3139V175.373ZM100.505 170.003C100.225 170.003 100.005 169.773 100.005 169.503C100.005 169.243 100.225 169.013 100.505 169.013C100.775 169.013 100.995 169.243 100.995 169.503C100.995 169.773 100.775 170.003 100.505 170.003ZM100.125 176.113V170.943H100.875V176.113H100.125ZM106.069 170.943H106.819V175.563C106.819 176.893 105.769 177.833 104.279 177.833C103.439 177.833 102.659 177.543 102.189 177.143L102.519 176.553C102.919 176.933 103.539 177.163 104.179 177.163C105.369 177.163 106.069 176.573 106.069 175.563V174.723C105.669 175.353 105.009 175.733 104.189 175.733C102.799 175.733 101.809 174.713 101.809 173.273C101.809 171.833 102.799 170.823 104.189 170.823C105.009 170.823 105.669 171.203 106.069 171.833V170.943ZM104.329 175.063C105.349 175.063 106.069 174.323 106.069 173.273C106.069 172.233 105.349 171.493 104.329 171.493C103.319 171.493 102.599 172.233 102.599 173.273C102.599 174.323 103.319 175.063 104.329 175.063ZM110.427 170.823C111.577 170.823 112.367 171.633 112.367 172.823V176.113H111.617V172.923C111.617 172.073 111.087 171.493 110.327 171.493C109.447 171.493 108.727 172.093 108.727 172.823V176.113H107.977V169.123H108.727V171.763C109.027 171.213 109.687 170.823 110.427 170.823ZM115.728 175.353L116.098 175.903C115.828 176.113 115.488 176.233 115.138 176.233C114.398 176.233 113.878 175.683 113.878 174.913V171.613H113.068V170.943H113.878V169.523H114.628V170.943H115.898V171.613H114.628V174.913C114.628 175.293 114.888 175.563 115.188 175.563C115.418 175.563 115.618 175.473 115.728 175.353ZM119.058 175.563C119.668 175.563 120.368 175.293 120.688 174.943L121.148 175.433C120.698 175.923 119.788 176.233 119.068 176.233C117.688 176.233 116.448 175.103 116.448 173.513C116.448 171.973 117.608 170.823 118.998 170.823C120.558 170.823 121.448 172.003 121.448 173.813H117.218C117.328 174.823 118.038 175.563 119.058 175.563ZM119.028 171.493C118.108 171.493 117.368 172.143 117.228 173.143H120.708C120.608 172.213 120.058 171.493 119.028 171.493ZM123.091 171.953C123.401 171.263 124.141 170.823 125.091 170.823V171.493C123.921 171.493 123.091 172.213 123.091 173.223V176.113H122.341V170.943H123.091V171.953ZM125.202 177.443L124.832 177.163C125.102 176.853 125.272 176.543 125.352 176.233C125.052 176.233 124.812 175.983 124.812 175.683C124.812 175.403 125.042 175.153 125.362 175.153C125.742 175.153 125.972 175.493 125.972 175.953C125.972 176.353 125.802 176.693 125.202 177.443ZM132.491 176.223C131.361 176.223 130.471 175.813 129.781 175.133L130.271 174.523C130.851 175.103 131.561 175.513 132.521 175.513C133.581 175.513 134.121 174.933 134.121 174.313C134.121 173.583 133.471 173.293 132.271 173.013C130.891 172.693 130.021 172.263 130.021 171.073C130.021 169.973 131.001 169.113 132.321 169.113C133.341 169.113 134.101 169.513 134.731 170.093L134.251 170.703C133.681 170.153 133.001 169.823 132.281 169.823C131.431 169.823 130.811 170.383 130.811 171.013C130.811 171.723 131.491 171.973 132.661 172.253C133.971 172.563 134.911 173.033 134.911 174.243C134.911 175.333 134.091 176.223 132.491 176.223ZM137.798 175.353L138.168 175.903C137.898 176.113 137.558 176.233 137.208 176.233C136.468 176.233 135.948 175.683 135.948 174.913V171.613H135.138V170.943H135.948V169.523H136.698V170.943H137.968V171.613H136.698V174.913C136.698 175.293 136.958 175.563 137.258 175.563C137.488 175.563 137.688 175.473 137.798 175.353ZM139.781 171.953C140.091 171.263 140.831 170.823 141.781 170.823V171.493C140.611 171.493 139.781 172.213 139.781 173.223V176.113H139.031V170.943H139.781V171.953ZM144.704 176.233C143.234 176.233 142.034 175.013 142.034 173.523C142.034 172.033 143.234 170.823 144.704 170.823C146.164 170.823 147.364 172.033 147.364 173.523C147.364 175.013 146.164 176.233 144.704 176.233ZM144.704 175.563C145.734 175.563 146.584 174.643 146.584 173.523C146.584 172.403 145.734 171.493 144.704 171.493C143.664 171.493 142.814 172.403 142.814 173.523C142.814 174.643 143.664 175.563 144.704 175.563ZM150.729 170.823C151.879 170.823 152.669 171.633 152.669 172.823V176.113H151.919V172.923C151.919 172.073 151.389 171.493 150.629 171.493C149.749 171.493 149.029 172.093 149.029 172.823V176.113H148.279V170.943H149.029V171.763C149.329 171.213 149.989 170.823 150.729 170.823ZM157.788 170.943H158.538V175.563C158.538 176.893 157.488 177.833 155.998 177.833C155.158 177.833 154.378 177.543 153.908 177.143L154.238 176.553C154.638 176.933 155.258 177.163 155.898 177.163C157.088 177.163 157.788 176.573 157.788 175.563V174.723C157.388 175.353 156.728 175.733 155.908 175.733C154.518 175.733 153.528 174.713 153.528 173.273C153.528 171.833 154.518 170.823 155.908 170.823C156.728 170.823 157.388 171.203 157.788 171.833V170.943ZM156.048 175.063C157.068 175.063 157.788 174.323 157.788 173.273C157.788 172.233 157.068 171.493 156.048 171.493C155.038 171.493 154.318 172.233 154.318 173.273C154.318 174.323 155.038 175.063 156.048 175.063ZM162.075 175.563C162.685 175.563 163.385 175.293 163.705 174.943L164.165 175.433C163.715 175.923 162.805 176.233 162.085 176.233C160.705 176.233 159.465 175.103 159.465 173.513C159.465 171.973 160.625 170.823 162.015 170.823C163.575 170.823 164.465 172.003 164.465 173.813H160.235C160.345 174.823 161.055 175.563 162.075 175.563ZM162.045 171.493C161.125 171.493 160.385 172.143 160.245 173.143H163.725C163.625 172.213 163.075 171.493 162.045 171.493ZM166.109 171.953C166.419 171.263 167.159 170.823 168.109 170.823V171.493C166.939 171.493 166.109 172.213 166.109 173.223V176.113H165.359V170.943H166.109V171.953ZM168.22 177.443L167.85 177.163C168.12 176.853 168.29 176.543 168.37 176.233C168.07 176.233 167.83 175.983 167.83 175.683C167.83 175.403 168.06 175.153 168.38 175.153C168.76 175.153 168.99 175.493 168.99 175.953C168.99 176.353 168.82 176.693 168.22 177.443ZM175.508 176.223C174.378 176.223 173.488 175.813 172.798 175.133L173.288 174.523C173.868 175.103 174.578 175.513 175.538 175.513C176.598 175.513 177.138 174.933 177.138 174.313C177.138 173.583 176.488 173.293 175.288 173.013C173.908 172.693 173.038 172.263 173.038 171.073C173.038 169.973 174.018 169.113 175.338 169.113C176.358 169.113 177.118 169.513 177.748 170.093L177.268 170.703C176.698 170.153 176.018 169.823 175.298 169.823C174.448 169.823 173.828 170.383 173.828 171.013C173.828 171.723 174.508 171.973 175.678 172.253C176.988 172.563 177.928 173.033 177.928 174.243C177.928 175.333 177.108 176.223 175.508 176.223ZM184.611 170.823C185.691 170.823 186.451 171.653 186.451 172.823V176.113H185.701V172.923C185.701 172.083 185.211 171.493 184.511 171.493C183.691 171.493 183.111 172.043 183.111 172.823V176.113H182.361V172.923C182.361 172.083 181.871 171.493 181.171 171.493C180.351 171.493 179.771 172.043 179.771 172.823V176.113H179.021V170.943H179.771V171.703C180.031 171.163 180.591 170.823 181.271 170.823C181.941 170.823 182.491 171.143 182.811 171.673C183.201 171.143 183.841 170.823 184.611 170.823ZM189.637 170.823C191.047 170.823 191.737 171.713 191.737 172.963V176.113H190.987V175.303C190.617 175.913 189.847 176.233 189.167 176.233C188.077 176.233 187.277 175.603 187.277 174.583C187.277 173.553 188.197 172.863 189.307 172.863C189.867 172.863 190.457 172.983 190.987 173.153V172.963C190.987 172.263 190.707 171.463 189.587 171.463C189.067 171.463 188.547 171.693 188.077 171.933L187.777 171.323C188.517 170.953 189.137 170.823 189.637 170.823ZM189.297 175.573C189.977 175.573 190.787 175.223 190.987 174.493V173.703C190.517 173.573 189.987 173.493 189.427 173.493C188.657 173.493 188.007 173.933 188.007 174.553C188.007 175.193 188.567 175.573 189.297 175.573ZM193.56 171.953C193.87 171.263 194.61 170.823 195.56 170.823V171.493C194.39 171.493 193.56 172.213 193.56 173.223V176.113H192.81V170.943H193.56V171.953ZM198.823 175.353L199.193 175.903C198.923 176.113 198.583 176.233 198.233 176.233C197.493 176.233 196.973 175.683 196.973 174.913V171.613H196.163V170.943H196.973V169.523H197.723V170.943H198.993V171.613H197.723V174.913C197.723 175.293 197.983 175.563 198.283 175.563C198.513 175.563 198.713 175.473 198.823 175.353ZM202.154 175.563C202.764 175.563 203.464 175.293 203.784 174.943L204.244 175.433C203.794 175.923 202.884 176.233 202.164 176.233C200.784 176.233 199.544 175.103 199.544 173.513C199.544 171.973 200.704 170.823 202.094 170.823C203.654 170.823 204.544 172.003 204.544 173.813H200.314C200.424 174.823 201.134 175.563 202.154 175.563ZM202.124 171.493C201.204 171.493 200.464 172.143 200.324 173.143H203.804C203.704 172.213 203.154 171.493 202.124 171.493ZM206.187 171.953C206.497 171.263 207.237 170.823 208.187 170.823V171.493C207.017 171.493 206.187 172.213 206.187 173.223V176.113H205.437V170.943H206.187V171.953ZM212.024 176.113V169.243H212.804L215.354 174.033L217.904 169.243H218.684V176.113H217.904V170.923L215.354 175.713L212.804 170.923V176.113H212.024ZM222.487 176.233C221.017 176.233 219.817 175.013 219.817 173.523C219.817 172.033 221.017 170.823 222.487 170.823C223.947 170.823 225.147 172.033 225.147 173.523C225.147 175.013 223.947 176.233 222.487 176.233ZM222.487 175.563C223.517 175.563 224.367 174.643 224.367 173.523C224.367 172.403 223.517 171.493 222.487 171.493C221.447 171.493 220.597 172.403 220.597 173.523C220.597 174.643 221.447 175.563 222.487 175.563ZM228.101 175.353L228.471 175.903C228.201 176.113 227.861 176.233 227.511 176.233C226.771 176.233 226.251 175.683 226.251 174.913V171.613H225.441V170.943H226.251V169.523H227.001V170.943H228.271V171.613H227.001V174.913C227.001 175.293 227.261 175.563 227.561 175.563C227.791 175.563 227.991 175.473 228.101 175.353ZM231.432 176.233C229.962 176.233 228.762 175.013 228.762 173.523C228.762 172.033 229.962 170.823 231.432 170.823C232.892 170.823 234.092 172.033 234.092 173.523C234.092 175.013 232.892 176.233 231.432 176.233ZM231.432 175.563C232.462 175.563 233.312 174.643 233.312 173.523C233.312 172.403 232.462 171.493 231.432 171.493C230.392 171.493 229.542 172.403 229.542 173.523C229.542 174.643 230.392 175.563 231.432 175.563ZM235.757 171.953C236.068 171.263 236.808 170.823 237.758 170.823V171.493C236.588 171.493 235.757 172.213 235.757 173.223V176.113H235.008V170.943H235.757V171.953ZM240.237 176.233C239.517 176.233 238.717 175.963 238.097 175.463L238.487 174.913C239.077 175.343 239.667 175.563 240.237 175.563C240.917 175.563 241.377 175.243 241.377 174.753C241.377 174.193 240.777 174.013 240.077 173.813C238.827 173.453 238.347 173.083 238.347 172.343C238.347 171.403 239.127 170.823 240.157 170.823C240.797 170.823 241.457 171.043 242.007 171.403L241.647 171.983C241.127 171.653 240.617 171.493 240.157 171.493C239.577 171.493 239.097 171.753 239.097 172.253C239.097 172.703 239.477 172.843 240.437 173.153C241.267 173.413 242.127 173.693 242.127 174.673C242.127 175.623 241.307 176.233 240.237 176.233ZM247.069 170.233V170.943H248.339V171.613H247.069V176.113H246.319V171.613H245.509V170.943H246.319V170.233C246.319 169.463 246.839 168.913 247.579 168.913C247.929 168.913 248.269 169.033 248.539 169.243L248.169 169.793C248.059 169.673 247.859 169.583 247.629 169.583C247.329 169.583 247.069 169.853 247.069 170.233ZM251.315 176.233C249.845 176.233 248.645 175.013 248.645 173.523C248.645 172.033 249.845 170.823 251.315 170.823C252.775 170.823 253.975 172.033 253.975 173.523C253.975 175.013 252.775 176.233 251.315 176.233ZM251.315 175.563C252.345 175.563 253.195 174.643 253.195 173.523C253.195 172.403 252.345 171.493 251.315 171.493C250.275 171.493 249.425 172.403 249.425 173.523C249.425 174.643 250.275 175.563 251.315 175.563ZM255.64 171.953C255.95 171.263 256.69 170.823 257.64 170.823V171.493C256.47 171.493 255.64 172.213 255.64 173.223V176.113H254.89V170.943H255.64V171.953ZM263.657 175.353L264.027 175.903C263.757 176.113 263.417 176.233 263.067 176.233C262.327 176.233 261.807 175.683 261.807 174.913V171.613H260.997V170.943H261.807V169.523H262.557V170.943H263.827V171.613H262.557V174.913C262.557 175.293 262.817 175.563 263.117 175.563C263.347 175.563 263.547 175.473 263.657 175.353ZM267.36 170.823C268.51 170.823 269.3 171.633 269.3 172.823V176.113H268.55V172.923C268.55 172.073 268.02 171.493 267.26 171.493C266.38 171.493 265.66 172.093 265.66 172.823V176.113H264.91V169.123H265.66V171.763C265.96 171.213 266.62 170.823 267.36 170.823ZM272.769 175.563C273.379 175.563 274.079 175.293 274.399 174.943L274.859 175.433C274.409 175.923 273.499 176.233 272.779 176.233C271.399 176.233 270.159 175.103 270.159 173.513C270.159 171.973 271.319 170.823 272.709 170.823C274.269 170.823 275.159 172.003 275.159 173.813H270.929C271.039 174.823 271.749 175.563 272.769 175.563ZM272.739 171.493C271.819 171.493 271.079 172.143 270.939 173.143H274.419C274.319 172.213 273.769 171.493 272.739 171.493ZM283.946 169.983H279.806V172.243H283.536V172.983H279.806V176.113H279.016V169.243H283.946V169.983ZM288.578 170.943H289.328V176.113H288.578V175.293C288.278 175.843 287.618 176.233 286.878 176.233C285.728 176.233 284.938 175.423 284.938 174.233V170.943H285.688V174.133C285.688 174.983 286.218 175.563 286.978 175.563C287.858 175.563 288.578 174.963 288.578 174.233V170.943ZM292.856 175.353L293.226 175.903C292.956 176.113 292.616 176.233 292.266 176.233C291.526 176.233 291.006 175.683 291.006 174.913V171.613H290.196V170.943H291.006V169.523H291.756V170.943H293.026V171.613H291.756V174.913C291.756 175.293 292.016 175.563 292.316 175.563C292.546 175.563 292.746 175.473 292.856 175.353ZM297.66 170.943H298.41V176.113H297.66V175.293C297.36 175.843 296.7 176.233 295.96 176.233C294.81 176.233 294.02 175.423 294.02 174.233V170.943H294.77V174.133C294.77 174.983 295.3 175.563 296.06 175.563C296.94 175.563 297.66 174.963 297.66 174.233V170.943ZM300.299 171.953C300.609 171.263 301.349 170.823 302.299 170.823V171.493C301.129 171.493 300.299 172.213 300.299 173.223V176.113H299.549V170.943H300.299V171.953ZM305.22 175.563C305.83 175.563 306.53 175.293 306.85 174.943L307.31 175.433C306.86 175.923 305.95 176.233 305.23 176.233C303.85 176.233 302.61 175.103 302.61 173.513C302.61 171.973 303.77 170.823 305.16 170.823C306.72 170.823 307.61 172.003 307.61 173.813H303.38C303.49 174.823 304.2 175.563 305.22 175.563ZM305.19 171.493C304.27 171.493 303.53 172.143 303.39 173.143H306.87C306.77 172.213 306.22 171.493 305.19 171.493ZM309.064 176.233C308.754 176.233 308.514 175.983 308.514 175.683C308.514 175.403 308.754 175.153 309.064 175.153C309.354 175.153 309.594 175.403 309.594 175.683C309.594 175.983 309.354 176.233 309.064 176.233Z" fill="white"/>
<g opacity="0.7">
<mask id="mask0_3309_3682" style="mask-type:luminance" maskUnits="userSpaceOnUse" x="156" y="96" width="120" height="117">
<path d="M265.404 164.278L225.436 153.567C230.143 145.409 228.288 137.69 221.276 136.296C214.275 134.902 204.755 140.348 199.984 148.486C195.214 156.623 196.993 164.396 203.951 165.864C210.909 167.333 220.451 161.951 225.275 153.825L264.814 165.275C246.16 196.687 209.333 217.486 182.423 211.804C155.524 206.122 148.663 176.103 167.092 144.648C185.511 113.192 222.284 92.1254 249.344 97.5288C276.404 102.932 283.587 132.769 265.393 164.278H265.404Z" fill="white"/>
</mask>
<g mask="url(#mask0_3309_3682)">
<path d="M265.404 164.273L225.436 153.563C230.143 145.404 228.288 137.685 221.276 136.292L249.344 97.5352C276.404 102.939 283.587 132.775 265.393 164.284L265.404 164.273Z" stroke="white" stroke-width="0.104948" stroke-miterlimit="10"/>
<path d="M275.332 134.174L227.999 145.774" stroke="white" stroke-width="0.104948" stroke-miterlimit="10"/>
<path d="M269.582 110.23L226.516 139.574" stroke="white" stroke-width="0.104948" stroke-miterlimit="10"/>
<path d="M249.352 97.5239L221.284 136.28C214.283 134.887 204.763 140.333 199.992 148.47L167.1 144.632C185.519 113.177 222.292 92.1098 249.352 97.5132V97.5239Z" stroke="white" stroke-width="0.104948" stroke-miterlimit="10"/>
<path d="M220.09 100.346L213.7 137.022" stroke="white" stroke-width="0.104948" stroke-miterlimit="10"/>
<path d="M190.589 117.242L206.07 141.386" stroke="white" stroke-width="0.104948" stroke-miterlimit="10"/>
<path d="M167.094 144.646L199.986 148.485C195.216 156.622 196.995 164.395 203.953 165.863L182.425 211.803C155.526 206.121 148.665 176.102 167.094 144.646Z" stroke="white" stroke-width="0.104948" stroke-miterlimit="10"/>
<path d="M156.901 174.775L197.352 156.281" stroke="white" stroke-width="0.104948" stroke-miterlimit="10"/>
<path d="M162.405 198.853L198.781 162.52" stroke="white" stroke-width="0.104948" stroke-miterlimit="10"/>
<path d="M182.433 211.801L203.961 165.862C210.919 167.331 220.461 161.949 225.285 153.822L264.824 165.272C246.17 196.685 209.343 217.484 182.433 211.801Z" stroke="white" stroke-width="0.104948" stroke-miterlimit="10"/>
<path d="M211.602 209.239L211.505 165.197" stroke="white" stroke-width="0.104948" stroke-miterlimit="10"/>
<path d="M241.145 192.555L219.156 160.885" stroke="white" stroke-width="0.104948" stroke-miterlimit="10"/>
<path d="M265.404 164.274L225.436 153.564C230.143 145.405 228.288 137.686 221.276 136.292C214.275 134.898 204.755 140.345 199.984 148.482C195.214 156.619 196.993 164.392 203.951 165.861C210.909 167.329 220.451 161.947 225.275 153.821L264.814 165.271C246.16 196.683 209.333 217.482 182.423 211.8C155.524 206.118 148.663 176.099 167.092 144.644C185.511 113.188 222.284 92.1215 249.344 97.5249C276.404 102.928 283.587 132.765 265.393 164.274H265.404Z" stroke="white" stroke-width="0.104948" stroke-miterlimit="10"/>
</g>
<path d="M265.404 164.274L225.436 153.564C230.143 145.405 228.288 137.686 221.276 136.292C214.275 134.898 204.755 140.345 199.984 148.482C195.214 156.619 196.993 164.392 203.951 165.861C210.909 167.329 220.451 161.947 225.275 153.821L264.814 165.271C246.16 196.683 209.333 217.482 182.423 211.8C155.524 206.118 148.663 176.099 167.092 144.644C185.511 113.188 222.284 92.1215 249.344 97.5249C276.404 102.928 283.587 132.765 265.393 164.274H265.404Z" stroke="white" stroke-width="0.104948" stroke-miterlimit="10"/>
<mask id="mask1_3309_3682" style="mask-type:luminance" maskUnits="userSpaceOnUse" x="165" y="103" width="63" height="63">
<path d="M227.195 140.787C226.059 139.104 224.279 137.913 221.921 137.442C214.92 136.048 205.4 141.494 200.629 149.632C196.791 156.182 197.187 162.497 201.122 165.477L169.559 141.58C164.199 137.528 163.652 128.929 168.884 119.999C175.37 108.913 188.332 101.494 197.873 103.392C201.09 104.035 203.513 105.654 205.056 107.948C212.432 118.894 219.819 129.83 227.195 140.776V140.787Z" fill="white"/>
</mask>
<g mask="url(#mask1_3309_3682)">
<path d="M226.074 154.713L203.528 126.924C209.939 115.817 207.409 105.311 197.867 103.402L221.914 137.442C228.915 138.835 230.78 146.565 226.074 154.713Z" stroke="white" stroke-width="0.104948" stroke-miterlimit="10"/>
<path d="M227.156 140.722L204.996 107.873" stroke="white" stroke-width="0.104948" stroke-miterlimit="10"/>
<path d="M221.922 137.428L197.875 103.389C188.333 101.48 175.382 108.91 168.885 119.996L200.63 149.628C205.401 141.491 214.91 136.034 221.922 137.439V137.428Z" stroke="white" stroke-width="0.104948" stroke-miterlimit="10"/>
<path d="M214.348 138.156L187.567 104.385" stroke="white" stroke-width="0.104948" stroke-miterlimit="10"/>
<path d="M206.711 142.529L177.164 110.334" stroke="white" stroke-width="0.104948" stroke-miterlimit="10"/>
<path d="M200.635 149.631L168.89 119.998C162.393 131.084 164.816 141.665 174.293 143.659L204.602 167.01C197.644 165.541 195.864 157.768 200.635 149.631Z" stroke="white" stroke-width="0.104948" stroke-miterlimit="10"/>
<path d="M197.996 157.419L165.297 130.605" stroke="white" stroke-width="0.104948" stroke-miterlimit="10"/>
<path d="M199.422 163.655L167.237 139.104" stroke="white" stroke-width="0.104948" stroke-miterlimit="10"/>
<path d="M227.195 140.787C226.059 139.103 224.279 137.913 221.921 137.442C214.92 136.048 205.4 141.494 200.629 149.632C196.791 156.182 197.187 162.497 201.122 165.477L169.559 141.58C164.199 137.528 163.652 128.929 168.884 119.999C175.37 108.913 188.332 101.494 197.873 103.392C201.09 104.035 203.513 105.654 205.056 107.948C212.432 118.894 219.819 129.83 227.195 140.776V140.787Z" stroke="white" stroke-width="0.104948" stroke-miterlimit="10"/>
</g>
<path d="M227.195 140.783C226.059 139.1 224.279 137.91 221.921 137.438C214.92 136.044 205.4 141.49 200.629 149.628C196.791 156.178 197.187 162.493 201.122 165.473L169.559 141.576C164.199 137.524 163.652 128.925 168.884 119.995C175.37 108.909 188.332 101.49 197.873 103.388C201.09 104.031 203.513 105.65 205.056 107.944C212.432 118.891 219.819 129.826 227.195 140.772V140.783Z" stroke="white" stroke-width="0.104948" stroke-miterlimit="10"/>
<mask id="mask2_3309_3682" style="mask-type:luminance" maskUnits="userSpaceOnUse" x="203" y="107" width="26" height="48">
<path d="M205.057 107.955C212.433 118.901 219.82 129.837 227.196 140.783C229.426 144.096 229.19 149.306 226.07 154.709L203.524 126.921C207.77 119.566 208.091 112.469 205.057 107.966V107.955Z" fill="white"/>
</mask>
<g mask="url(#mask2_3309_3682)">
<path d="M226.074 154.709L203.528 126.92C209.939 115.813 207.409 105.307 197.867 103.398L221.914 137.438C228.915 138.831 230.78 146.561 226.074 154.709Z" stroke="white" stroke-width="0.104948" stroke-miterlimit="10"/>
<path d="M228.648 146.915L207.024 116.307" stroke="white" stroke-width="0.104948" stroke-miterlimit="10"/>
<path d="M205.057 107.955C212.433 118.901 219.82 129.837 227.196 140.783C229.426 144.096 229.19 149.306 226.07 154.709L203.524 126.921C207.77 119.566 208.091 112.469 205.057 107.966V107.955Z" stroke="white" stroke-width="0.104948" stroke-miterlimit="10"/>
</g>
<path d="M205.057 107.955C212.433 118.901 219.82 129.837 227.196 140.783C229.426 144.096 229.19 149.306 226.07 154.709L203.524 126.921C207.77 119.566 208.091 112.469 205.057 107.966V107.955Z" stroke="white" stroke-width="0.104948" stroke-miterlimit="10"/>
<mask id="mask3_3309_3682" style="mask-type:luminance" maskUnits="userSpaceOnUse" x="169" y="127" width="57" height="41">
<path d="M201.128 165.476L169.565 141.579C170.863 142.565 172.439 143.273 174.293 143.67C183.771 145.675 196.754 138.341 203.326 127.277L225.926 154.98C221.101 163.107 211.57 168.489 204.602 167.02C203.24 166.731 202.082 166.205 201.128 165.487V165.476Z" fill="white"/>
</mask>
<g mask="url(#mask3_3309_3682)">
<path d="M200.635 149.631L168.89 119.998C162.393 131.084 164.816 141.665 174.293 143.659L204.602 167.01C197.644 165.541 195.864 157.768 200.635 149.631Z" stroke="white" stroke-width="0.104948" stroke-miterlimit="10"/>
<path d="M204.602 167.01L174.293 143.66C183.771 145.665 196.754 138.332 203.326 127.268L225.926 154.971C221.101 163.097 211.57 168.479 204.602 167.01Z" stroke="white" stroke-width="0.104948" stroke-miterlimit="10"/>
<path d="M212.145 166.342L184.57 142.756" stroke="white" stroke-width="0.104948" stroke-miterlimit="10"/>
<path d="M219.801 162.022L194.982 136.881" stroke="white" stroke-width="0.104948" stroke-miterlimit="10"/>
<path d="M201.128 165.476L169.565 141.579C170.863 142.565 172.439 143.273 174.293 143.67C183.771 145.675 196.754 138.341 203.326 127.277L225.926 154.98C221.101 163.107 211.57 168.489 204.602 167.02C203.24 166.731 202.082 166.205 201.128 165.487V165.476Z" stroke="white" stroke-width="0.104948" stroke-miterlimit="10"/>
</g>
<path d="M201.128 165.476L169.565 141.579C170.863 142.565 172.439 143.273 174.293 143.67C183.771 145.675 196.754 138.341 203.326 127.277L225.926 154.98C221.101 163.107 211.57 168.489 204.602 167.02C203.24 166.731 202.082 166.205 201.128 165.487V165.476Z" stroke="white" stroke-width="0.104948" stroke-miterlimit="10"/>
<path d="M203.528 126.905L243.496 137.616C263.384 103.158 255.536 70.5342 225.935 64.627L197.868 103.383C207.409 105.292 209.929 115.798 203.528 126.905Z" stroke="white" stroke-width="0.104948" stroke-miterlimit="10"/>
<path d="M207.026 116.302L254.359 104.691" stroke="white" stroke-width="0.104948" stroke-miterlimit="10"/>
<path d="M205 107.865L248.066 78.5215" stroke="white" stroke-width="0.104948" stroke-miterlimit="10"/>
<path d="M197.87 103.38L225.938 64.6233C196.337 58.716 156.133 81.7447 135.988 116.148L168.88 119.987C175.367 108.901 188.328 101.482 197.87 103.38Z" stroke="white" stroke-width="0.104948" stroke-miterlimit="10"/>
<path d="M187.562 104.375L193.941 67.709" stroke="white" stroke-width="0.104948" stroke-miterlimit="10"/>
<path d="M177.168 110.327L161.687 86.1836" stroke="white" stroke-width="0.104948" stroke-miterlimit="10"/>
<path d="M168.89 119.983L135.998 116.145C115.853 150.548 123.347 183.376 152.765 189.583L174.293 143.644C164.816 141.639 162.393 131.068 168.89 119.983Z" stroke="white" stroke-width="0.104948" stroke-miterlimit="10"/>
<path d="M165.305 130.602L124.854 149.095" stroke="white" stroke-width="0.104948" stroke-miterlimit="10"/>
<path d="M167.242 139.09L130.866 175.434" stroke="white" stroke-width="0.104948" stroke-miterlimit="10"/>
<path d="M174.292 143.644L152.764 189.584C182.182 195.791 222.461 173.052 242.863 138.702L203.324 127.252C196.752 138.316 183.769 145.649 174.292 143.644Z" stroke="white" stroke-width="0.104948" stroke-miterlimit="10"/>
<path d="M184.578 142.746L184.664 186.788" stroke="white" stroke-width="0.104948" stroke-miterlimit="10"/>
<path d="M194.988 136.869L216.977 168.539" stroke="white" stroke-width="0.104948" stroke-miterlimit="10"/>
<path d="M203.528 126.902C209.939 115.795 207.409 105.288 197.868 103.38C188.326 101.471 175.375 108.901 168.878 119.987C162.381 131.072 164.804 141.654 174.281 143.648C183.759 145.653 196.742 138.319 203.314 127.255L242.853 138.705C222.451 173.055 182.172 195.795 152.754 189.587C123.335 183.38 115.841 150.552 135.986 116.148C156.131 81.7447 196.345 58.716 225.935 64.6233C255.536 70.5306 263.384 103.165 243.496 137.612C231.51 134.396 215.514 130.118 203.528 126.902Z" stroke="white" stroke-width="0.104948" stroke-miterlimit="10"/>
<mask id="mask4_3309_3682" style="mask-type:luminance" maskUnits="userSpaceOnUse" x="124" y="63" width="147" height="144">
<path d="M248.252 77.5207C255.628 88.4668 263.015 99.4022 270.391 110.348C265.995 103.83 259.134 99.2307 249.999 97.4081C222.939 92.0047 186.166 113.061 167.748 144.527C152.921 169.85 154.464 195.237 169.678 206.752V205.754C159.16 197.789 148.632 190.82 138.115 182.844C121.487 170.257 119.793 143.841 136.014 116.148C156.158 81.7447 196.373 58.716 225.963 64.6233C235.955 66.6174 243.459 70.4019 248.262 77.5207H248.252Z" fill="white"/>
</mask>
<g mask="url(#mask4_3309_3682)">
<path d="M243.488 136.353L266.035 164.142C284.217 132.633 277.045 102.796 249.985 97.3927L225.938 63.3535C255.539 69.2608 263.387 101.896 243.499 136.342L243.488 136.353Z" stroke="white" stroke-width="0.104948" stroke-miterlimit="10"/>
<path d="M248.062 77.2578L270.223 110.107" stroke="white" stroke-width="0.104948" stroke-miterlimit="10"/>
<path d="M225.933 63.3616L249.98 97.4007C222.921 91.9974 186.148 113.053 167.729 144.52L135.984 114.887C156.129 80.483 196.343 57.4543 225.933 63.3616Z" stroke="white" stroke-width="0.104948" stroke-miterlimit="10"/>
<path d="M193.943 66.4512L220.734 100.222" stroke="white" stroke-width="0.104948" stroke-miterlimit="10"/>
<path d="M161.683 84.9277L191.23 117.123" stroke="white" stroke-width="0.104948" stroke-miterlimit="10"/>
<path d="M135.987 114.891L167.731 144.523C149.313 175.979 156.164 205.998 183.062 211.68L152.754 188.329C123.336 182.122 115.842 149.294 135.987 114.891Z" stroke="white" stroke-width="0.104948" stroke-miterlimit="10"/>
<path d="M124.848 147.836L157.547 174.649" stroke="white" stroke-width="0.104948" stroke-miterlimit="10"/>
<path d="M130.862 174.178L163.047 198.729" stroke="white" stroke-width="0.104948" stroke-miterlimit="10"/>
<path d="M248.252 77.5133C255.628 88.4594 263.015 99.3948 270.391 110.341C265.995 103.823 259.134 99.2233 249.999 97.4007C222.939 91.9974 186.166 113.053 167.748 144.52C152.921 169.843 154.464 194.233 169.678 205.747C159.16 197.781 148.632 189.816 138.115 181.85C121.487 169.264 119.793 142.59 136.014 114.887C156.158 80.483 196.373 57.4543 225.963 63.3616C235.955 65.3557 243.459 70.3946 248.262 77.5133H248.252Z" stroke="white" stroke-width="0.104948" stroke-miterlimit="10"/>
</g>
<path d="M248.252 77.5207C255.628 88.4668 263.015 99.4022 270.391 110.348C265.995 103.83 259.134 99.2307 249.999 97.4081C222.939 92.0047 186.166 113.061 167.748 144.527C152.921 169.85 154.464 195.237 169.678 206.752V205.754C159.16 197.789 148.632 190.82 138.115 182.844C121.487 170.257 119.793 143.841 136.014 116.148C156.158 81.7447 196.373 58.716 225.963 64.6233C235.955 66.6174 243.459 70.4019 248.262 77.5207H248.252Z" stroke="white" stroke-width="0.104948" stroke-miterlimit="10"/>
<mask id="mask5_3309_3682" style="mask-type:luminance" maskUnits="userSpaceOnUse" x="243" y="78" width="33" height="88">
<path d="M270.224 110.111C278.855 122.902 278.093 144.279 266.043 165.153L243.497 137.364C256.673 114.539 257.67 92.5075 248.246 78.5273C255.622 89.4735 262.848 99.176 270.224 110.122V110.111Z" fill="white"/>
</mask>
<g mask="url(#mask5_3309_3682)">
<path d="M243.496 137.357L266.042 165.146C284.225 133.637 277.053 102.803 249.993 97.3995L225.946 64.3574C255.547 70.2647 263.394 102.899 243.507 137.346L243.496 137.357Z" stroke="white" stroke-width="0.104948" stroke-miterlimit="10"/>
<path d="M254.364 104.432L275.988 135.051" stroke="white" stroke-width="0.104948" stroke-miterlimit="10"/>
<path d="M270.38 111.344C279.01 124.134 278.088 144.279 266.038 165.153L243.491 137.364C256.667 114.539 257.664 92.5075 248.241 78.5273C255.617 89.4735 263.003 100.409 270.38 111.355V111.344Z" stroke="white" stroke-width="0.104948" stroke-miterlimit="10"/>
</g>
<path d="M270.224 110.111C278.855 122.902 278.093 144.279 266.043 165.153L243.497 137.364C256.673 114.539 257.67 92.5075 248.246 78.5273C255.622 89.4735 262.848 99.176 270.224 110.122V110.111Z" stroke="white" stroke-width="0.104948" stroke-miterlimit="10"/>
<mask id="mask6_3309_3682" style="mask-type:luminance" maskUnits="userSpaceOnUse" x="138" y="138" width="128" height="76">
<path d="M138.099 182.841C142.13 185.886 147.03 188.116 152.766 189.327C182.184 195.535 222.463 172.795 242.865 138.445L265.465 166.148C246.81 197.561 209.984 218.36 183.074 212.677C177.831 211.573 173.35 209.536 169.662 206.749C159.145 198.783 148.617 190.817 138.099 182.852V182.841Z" fill="white"/>
</mask>
<g mask="url(#mask6_3309_3682)">
<path d="M135.994 115.895L167.739 145.527C149.321 176.983 156.171 207.002 183.07 212.684L152.762 189.333C123.344 183.126 115.85 150.298 135.994 115.895Z" stroke="white" stroke-width="0.104948" stroke-miterlimit="10"/>
<path d="M152.766 189.327L183.074 212.678C209.973 218.36 246.8 197.561 265.465 166.148L242.865 138.445C222.463 172.795 182.184 195.535 152.766 189.327Z" stroke="white" stroke-width="0.104948" stroke-miterlimit="10"/>
<path d="M184.661 186.531L212.246 210.117" stroke="white" stroke-width="0.104948" stroke-miterlimit="10"/>
<path d="M216.978 168.283L241.797 193.435" stroke="white" stroke-width="0.104948" stroke-miterlimit="10"/>
<path d="M138.099 182.841C142.13 185.886 147.03 188.116 152.766 189.327C182.184 195.535 222.463 172.795 242.865 138.445L265.465 166.148C246.81 197.561 209.984 218.36 183.074 212.678C177.831 211.573 173.35 209.536 169.662 206.749C159.145 198.783 148.617 190.817 138.099 182.852V182.841Z" stroke="white" stroke-width="0.104948" stroke-miterlimit="10"/>
</g>
<path d="M138.099 182.841C142.13 185.886 147.03 188.116 152.766 189.327C182.184 195.535 222.463 172.795 242.865 138.445L265.465 166.148C246.81 197.561 209.984 218.36 183.074 212.678C177.831 211.573 173.35 209.536 169.662 206.749C159.145 198.783 148.617 190.817 138.099 182.852V182.841Z" stroke="white" stroke-width="0.104948" stroke-miterlimit="10"/>
</g>
<defs>
<filter id="filter0_f_3309_3682" x="57.1494" y="0.000953674" width="277.486" height="277.486" filterUnits="userSpaceOnUse" color-interpolation-filters="sRGB">
<feFlood flood-opacity="0" result="BackgroundImageFix"/>
<feBlend mode="normal" in="SourceGraphic" in2="BackgroundImageFix" result="shape"/>
<feGaussianBlur stdDeviation="31.3179" result="effect1_foregroundBlur_3309_3682"/>
</filter>
<radialGradient id="paint0_radial_3309_3682" cx="0" cy="0" r="1" gradientUnits="userSpaceOnUse" gradientTransform="translate(201 139.345) rotate(90) scale(73.7039 113.17)">
<stop stop-color="#444444"/>
<stop offset="1" stop-color="#444444" stop-opacity="0"/>
</radialGradient>
</defs>
</svg>
