<svg width="402" height="315" viewBox="0 0 402 315" fill="none" xmlns="http://www.w3.org/2000/svg">
<rect y="13.9863" width="402" height="268" fill="black"/>
<g opacity="0.6">
<path d="M81.9614 60.0547H66.0898V75.583M81.9614 60.0547V75.583M81.9614 60.0547H97.833M81.9614 75.583H66.0898M81.9614 75.583H97.833M81.9614 75.583V91.1113M66.0898 75.583V91.1113M97.833 60.0547V75.583M97.833 60.0547H113.705M97.833 75.583H113.705M97.833 75.583V91.1113M113.705 60.0547V75.583M113.705 60.0547H129.576M113.705 75.583H129.576M113.705 75.583V91.1113M129.576 60.0547V75.583M129.576 60.0547H145.448M129.576 75.583H145.448M129.576 75.583V91.1113M145.448 60.0547V75.583M145.448 60.0547H161.319M145.448 75.583H161.319M145.448 75.583V91.1113M161.319 60.0547V75.583M161.319 60.0547H177.191M161.319 75.583H177.191M161.319 75.583V91.1113M177.191 60.0547V75.583M177.191 60.0547H193.063M177.191 75.583H193.063M177.191 75.583V91.1113M193.063 60.0547V75.583M193.063 60.0547H208.934M193.063 75.583H208.934M193.063 75.583V91.1113M208.934 60.0547V75.583M208.934 60.0547H224.806M208.934 75.583H224.806M208.934 75.583V91.1113M224.806 60.0547V75.583M224.806 60.0547H240.677M224.806 75.583H240.677M224.806 75.583V91.1113M240.677 60.0547V75.583M240.677 60.0547H256.549M240.677 75.583H256.549M240.677 75.583V91.1113M256.549 60.0547V75.583M256.549 60.0547H272.421M256.549 75.583H272.421M256.549 75.583V91.1113M272.421 60.0547V75.583M272.421 60.0547H288.292M272.421 75.583H288.292M272.421 75.583V91.1113M288.292 60.0547V75.583M288.292 60.0547H304.164M288.292 75.583H304.164M288.292 75.583V91.1113M304.164 60.0547V75.583M304.164 60.0547H320.035M304.164 75.583H320.035M304.164 75.583V91.1113M320.035 60.0547V75.583M320.035 60.0547H335.907V75.583M320.035 75.583H335.907M320.035 75.583V91.1113M335.907 75.583V91.1113M81.9614 91.1113H66.0898M81.9614 91.1113H97.833M81.9614 91.1113V106.64M66.0898 91.1113V106.64M97.833 91.1113H113.705M97.833 91.1113V106.64M113.705 91.1113H129.576M113.705 91.1113V106.64M129.576 91.1113H145.448M129.576 91.1113V106.64M145.448 91.1113H161.319M145.448 91.1113V106.64M161.319 91.1113H177.191M161.319 91.1113V106.64M177.191 91.1113H193.063M177.191 91.1113V106.64M193.063 91.1113H208.934M193.063 91.1113V106.64M208.934 91.1113H224.806M208.934 91.1113V106.64M224.806 91.1113H240.677M224.806 91.1113V106.64M240.677 91.1113H256.549M240.677 91.1113V106.64M256.549 91.1113H272.421M256.549 91.1113V106.64M272.421 91.1113H288.292M272.421 91.1113V106.64M288.292 91.1113H304.164M288.292 91.1113V106.64M304.164 91.1113H320.035M304.164 91.1113V106.64M320.035 91.1113H335.907M320.035 91.1113V106.64M335.907 91.1113V106.64M81.9614 106.64H66.0898M81.9614 106.64H97.833M81.9614 106.64V122.168M66.0898 106.64V122.168M97.833 106.64H113.705M97.833 106.64V122.168M113.705 106.64H129.576M113.705 106.64V122.168M129.576 106.64H145.448M129.576 106.64V122.168M145.448 106.64H161.319M145.448 106.64V122.168M161.319 106.64H177.191M161.319 106.64V122.168M177.191 106.64H193.063M177.191 106.64V122.168M193.063 106.64H208.934M193.063 106.64V122.168M208.934 106.64H224.806M208.934 106.64V122.168M224.806 106.64H240.677M224.806 106.64V122.168M240.677 106.64H256.549M240.677 106.64V122.168M256.549 106.64H272.421M256.549 106.64V122.168M272.421 106.64H288.292M272.421 106.64V122.168M288.292 106.64H304.164M288.292 106.64V122.168M304.164 106.64H320.035M304.164 106.64V122.168M320.035 106.64H335.907M320.035 106.64V122.168M335.907 106.64V122.168M81.9614 122.168H66.0898M81.9614 122.168H97.833M81.9614 122.168V137.696M66.0898 122.168V137.696M97.833 122.168H113.705M97.833 122.168V137.696M113.705 122.168H129.576M113.705 122.168V137.696M129.576 122.168H145.448M129.576 122.168V137.696M145.448 122.168H161.319M145.448 122.168V137.696M161.319 122.168H177.191M161.319 122.168V137.696M177.191 122.168H193.063M177.191 122.168V137.696M193.063 122.168H208.934M193.063 122.168V137.696M208.934 122.168H224.806M208.934 122.168V137.696M224.806 122.168H240.677M224.806 122.168V137.696M240.677 122.168H256.549M240.677 122.168V137.696M256.549 122.168H272.421M256.549 122.168V137.696M272.421 122.168H288.292M272.421 122.168V137.696M288.292 122.168H304.164M288.292 122.168V137.696M304.164 122.168H320.035M304.164 122.168V137.696M320.035 122.168H335.907M320.035 122.168V137.696M335.907 122.168V137.696M81.9614 137.696H66.0898M81.9614 137.696H97.833M81.9614 137.696V153.224M66.0898 137.696V153.224M97.833 137.696H113.705M97.833 137.696V153.224M113.705 137.696H129.576M113.705 137.696V153.224M129.576 137.696H145.448M129.576 137.696V153.224M145.448 137.696H161.319M145.448 137.696V153.224M161.319 137.696H177.191M161.319 137.696V153.224M177.191 137.696H193.063M177.191 137.696V153.224M193.063 137.696H208.934M193.063 137.696V153.224M208.934 137.696H224.806M208.934 137.696V153.224M224.806 137.696H240.677M224.806 137.696V153.224M240.677 137.696H256.549M240.677 137.696V153.224M256.549 137.696H272.421M256.549 137.696V153.224M272.421 137.696H288.292M272.421 137.696V153.224M288.292 137.696H304.164M288.292 137.696V153.224M304.164 137.696H320.035M304.164 137.696V153.224M320.035 137.696H335.907M320.035 137.696V153.224M335.907 137.696V153.224M81.9614 153.224H66.0898M81.9614 153.224H97.833M81.9614 153.224V168.753M66.0898 153.224V168.753M97.833 153.224H113.705M97.833 153.224V168.753M113.705 153.224H129.576M113.705 153.224V168.753M129.576 153.224H145.448M129.576 153.224V168.753M145.448 153.224H161.319M145.448 153.224V168.753M161.319 153.224H177.191M161.319 153.224V168.753M177.191 153.224H193.063M177.191 153.224V168.753M193.063 153.224H208.934M193.063 153.224V168.753M208.934 153.224H224.806M208.934 153.224V168.753M224.806 153.224H240.677M224.806 153.224V168.753M240.677 153.224H256.549M240.677 153.224V168.753M256.549 153.224H272.421M256.549 153.224V168.753M272.421 153.224H288.292M272.421 153.224V168.753M288.292 153.224H304.164M288.292 153.224V168.753M304.164 153.224H320.035M304.164 153.224V168.753M320.035 153.224H335.907M320.035 153.224V168.753M335.907 153.224V168.753M81.9614 168.753H66.0898M81.9614 168.753H97.833M81.9614 168.753V184.281M66.0898 168.753V184.281M97.833 168.753H113.705M97.833 168.753V184.281M113.705 168.753H129.576M113.705 168.753V184.281M129.576 168.753H145.448M129.576 168.753V184.281M145.448 168.753H161.319M145.448 168.753V184.281M161.319 168.753H177.191M161.319 168.753V184.281M177.191 168.753H193.063M177.191 168.753V184.281M193.063 168.753H208.934M193.063 168.753V184.281M208.934 168.753H224.806M208.934 168.753V184.281M224.806 168.753H240.677M224.806 168.753V184.281M240.677 168.753H256.549M240.677 168.753V184.281M256.549 168.753H272.421M256.549 168.753V184.281M272.421 168.753H288.292M272.421 168.753V184.281M288.292 168.753H304.164M288.292 168.753V184.281M304.164 168.753H320.035M304.164 168.753V184.281M320.035 168.753H335.907M320.035 168.753V184.281M335.907 168.753V184.281M81.9614 184.281H66.0898M81.9614 184.281H97.833M81.9614 184.281V199.809M66.0898 184.281V199.809M97.833 184.281H113.705M97.833 184.281V199.809M113.705 184.281H129.576M113.705 184.281V199.809M129.576 184.281H145.448M129.576 184.281V199.809M145.448 184.281H161.319M145.448 184.281V199.809M161.319 184.281H177.191M161.319 184.281V199.809M177.191 184.281H193.063M177.191 184.281V199.809M193.063 184.281H208.934M193.063 184.281V199.809M208.934 184.281H224.806M208.934 184.281V199.809M224.806 184.281H240.677M224.806 184.281V199.809M240.677 184.281H256.549M240.677 184.281V199.809M256.549 184.281H272.421M256.549 184.281V199.809M272.421 184.281H288.292M272.421 184.281V199.809M288.292 184.281H304.164M288.292 184.281V199.809M304.164 184.281H320.035M304.164 184.281V199.809M320.035 184.281H335.907M320.035 184.281V199.809M335.907 184.281V199.809M81.9614 199.809H66.0898M81.9614 199.809H97.833M81.9614 199.809V215.338M66.0898 199.809V215.338M97.833 199.809H113.705M97.833 199.809V215.338M113.705 199.809H129.576M113.705 199.809V215.338M129.576 199.809H145.448M129.576 199.809V215.338M145.448 199.809H161.319M145.448 199.809V215.338M161.319 199.809H177.191M161.319 199.809V215.338M177.191 199.809H193.063M177.191 199.809V215.338M193.063 199.809H208.934M193.063 199.809V215.338M208.934 199.809H224.806M208.934 199.809V215.338M224.806 199.809H240.677M224.806 199.809V215.338M240.677 199.809H256.549M240.677 199.809V215.338M256.549 199.809H272.421M256.549 199.809V215.338M272.421 199.809H288.292M272.421 199.809V215.338M288.292 199.809H304.164M288.292 199.809V215.338M304.164 199.809H320.035M304.164 199.809V215.338M320.035 199.809H335.907M320.035 199.809V215.338M335.907 199.809V215.338M81.9614 215.338H66.0898M81.9614 215.338H97.833M81.9614 215.338V230.866M66.0898 215.338V230.866M97.833 215.338H113.705M97.833 215.338V230.866M113.705 215.338H129.576M113.705 215.338V230.866M129.576 215.338H145.448M129.576 215.338V230.866M145.448 215.338H161.319M145.448 215.338V230.866M161.319 215.338H177.191M161.319 215.338V230.866M177.191 215.338H193.063M177.191 215.338V230.866M193.063 215.338H208.934M193.063 215.338V230.866M208.934 215.338H224.806M208.934 215.338V230.866M224.806 215.338H240.677M224.806 215.338V230.866M240.677 215.338H256.549M240.677 215.338V230.866M256.549 215.338H272.421M256.549 215.338V230.866M272.421 215.338H288.292M272.421 215.338V230.866M288.292 215.338H304.164M288.292 215.338V230.866M304.164 215.338H320.035M304.164 215.338V230.866M320.035 215.338H335.907M320.035 215.338V230.866M335.907 215.338V230.866M81.9614 230.866H66.0898M81.9614 230.866H97.833M81.9614 230.866V246.394M66.0898 230.866V246.394H81.9614M97.833 230.866H113.705M97.833 230.866V246.394M113.705 230.866H129.576M113.705 230.866V246.394M129.576 230.866H145.448M129.576 230.866V246.394M145.448 230.866H161.319M145.448 230.866V246.394M161.319 230.866H177.191M161.319 230.866V246.394M177.191 230.866H193.063M177.191 230.866V246.394M193.063 230.866H208.934M193.063 230.866V246.394M208.934 230.866H224.806M208.934 230.866V246.394M224.806 230.866H240.677M224.806 230.866V246.394M240.677 230.866H256.549M240.677 230.866V246.394M256.549 230.866H272.421M256.549 230.866V246.394M272.421 230.866H288.292M272.421 230.866V246.394M288.292 230.866H304.164M288.292 230.866V246.394M304.164 230.866H320.035M304.164 230.866V246.394M320.035 230.866H335.907M320.035 230.866V246.394M335.907 230.866V246.394H320.035M81.9614 246.394H97.833M97.833 246.394H113.705M113.705 246.394H129.576M129.576 246.394H145.448M145.448 246.394H161.319M161.319 246.394H177.191M177.191 246.394H193.063M193.063 246.394H208.934M208.934 246.394H224.806M224.806 246.394H240.677M240.677 246.394H256.549M256.549 246.394H272.421M272.421 246.394H288.292M288.292 246.394H304.164M304.164 246.394H320.035" stroke="url(#paint0_radial_3309_3744)" style="mix-blend-mode:luminosity" stroke-width="0.284986"/>
</g>
<g opacity="0.2" filter="url(#filter0_f_3309_3744)">
<circle cx="194.902" cy="157.486" r="90.8632" transform="rotate(-45 194.902 157.486)" fill="#4DD6C4"/>
</g>
<path d="M168.29 93.1303C166.01 93.1303 164.066 91.1743 164.066 88.8583C164.066 86.5423 166.01 84.5983 168.29 84.5983C169.43 84.5983 170.486 85.0783 171.254 85.8583L170.618 86.5063C170.018 85.8703 169.19 85.4623 168.29 85.4623C166.514 85.4623 165.014 87.0223 165.014 88.8583C165.014 90.7063 166.514 92.2663 168.29 92.2663C169.19 92.2663 170.018 91.8583 170.618 91.2223L171.254 91.8703C170.486 92.6383 169.43 93.1303 168.29 93.1303ZM179.492 92.9863L178.664 91.1143H174.068L173.24 92.9863H172.22L175.856 84.7423H176.876L180.512 92.9863H179.492ZM174.452 90.2263H178.28L176.372 85.8943L174.452 90.2263ZM184.543 93.1183C183.187 93.1183 182.119 92.6263 181.291 91.8103L181.879 91.0783C182.575 91.7743 183.427 92.2663 184.579 92.2663C185.851 92.2663 186.499 91.5703 186.499 90.8263C186.499 89.9503 185.719 89.6023 184.279 89.2663C182.623 88.8823 181.579 88.3663 181.579 86.9383C181.579 85.6183 182.755 84.5863 184.339 84.5863C185.563 84.5863 186.475 85.0663 187.231 85.7623L186.655 86.4943C185.971 85.8343 185.155 85.4383 184.291 85.4383C183.271 85.4383 182.527 86.1103 182.527 86.8663C182.527 87.7183 183.343 88.0183 184.747 88.3543C186.319 88.7263 187.447 89.2903 187.447 90.7423C187.447 92.0503 186.463 93.1183 184.543 93.1183ZM194.926 85.6303H189.958V88.3423H194.434V89.2303H189.958V92.0983H194.926V92.9863H189.01V84.7423H194.926V85.6303ZM202.707 93.1183C201.351 93.1183 200.283 92.6263 199.455 91.8103L200.043 91.0783C200.739 91.7743 201.591 92.2663 202.743 92.2663C204.015 92.2663 204.663 91.5703 204.663 90.8263C204.663 89.9503 203.883 89.6023 202.443 89.2663C200.787 88.8823 199.743 88.3663 199.743 86.9383C199.743 85.6183 200.919 84.5863 202.503 84.5863C203.727 84.5863 204.639 85.0663 205.395 85.7623L204.819 86.4943C204.135 85.8343 203.319 85.4383 202.455 85.4383C201.435 85.4383 200.691 86.1103 200.691 86.8663C200.691 87.7183 201.507 88.0183 202.911 88.3543C204.483 88.7263 205.611 89.2903 205.611 90.7423C205.611 92.0503 204.627 93.1183 202.707 93.1183ZM209.118 92.9863V85.6303H206.346V84.7423H212.826V85.6303H210.054V92.9863H209.118ZM217.67 93.1303C215.654 93.1303 214.226 91.6543 214.226 89.5663V84.7423H215.162V89.5663C215.162 91.1503 216.206 92.2783 217.67 92.2783C219.134 92.2783 220.178 91.1503 220.178 89.5663V84.7423H221.114V89.5663C221.114 91.6543 219.686 93.1303 217.67 93.1303ZM222.866 92.9863V84.7423H225.65C228.266 84.7423 230.114 86.4463 230.114 88.8583C230.114 91.2703 228.266 92.9863 225.65 92.9863H222.866ZM223.802 92.1343H225.65C227.714 92.1343 229.166 90.7783 229.166 88.8583C229.166 86.9503 227.714 85.5943 225.65 85.5943H223.802V92.1343ZM233.739 92.9863V89.6263L230.415 84.7423H231.579L234.231 88.7383L236.907 84.7423H238.035L234.723 89.6263V92.9863H233.739Z" fill="#4DD6C4"/>
<path d="M88.5832 120.626C90.2732 121.198 91.5472 123.018 91.5472 124.994C91.5472 128.192 89.2332 129.986 85.1252 129.986H76.6232V111.786H85.1252C88.7392 111.786 90.9492 113.58 90.9492 116.57C90.9492 118.416 90.0652 119.872 88.5832 120.626ZM85.2292 114.1H79.1452V119.508H85.2292C87.2572 119.508 88.4792 118.52 88.4792 116.83C88.4792 115.114 87.2312 114.1 85.2292 114.1ZM85.4372 127.646C87.6472 127.646 89.0252 126.528 89.0252 124.682C89.0252 122.862 87.6732 121.77 85.4372 121.77H79.1452V127.646H85.4372ZM100.491 130.272C96.3834 130.272 93.7054 127.386 93.7054 123.564C93.7054 119.742 96.3834 116.856 100.491 116.856C104.573 116.856 107.251 119.742 107.251 123.564C107.251 127.386 104.573 130.272 100.491 130.272ZM100.491 128.036C103.117 128.036 104.833 126.008 104.833 123.564C104.833 121.12 103.117 119.092 100.491 119.092C97.8394 119.092 96.1234 121.12 96.1234 123.564C96.1234 126.008 97.8394 128.036 100.491 128.036ZM116.056 130.272C111.948 130.272 109.27 127.386 109.27 123.564C109.27 119.742 111.948 116.856 116.056 116.856C120.138 116.856 122.816 119.742 122.816 123.564C122.816 127.386 120.138 130.272 116.056 130.272ZM116.056 128.036C118.682 128.036 120.398 126.008 120.398 123.564C120.398 121.12 118.682 119.092 116.056 119.092C113.404 119.092 111.688 121.12 111.688 123.564C111.688 126.008 113.404 128.036 116.056 128.036ZM130.349 130.272C128.165 130.272 126.241 129.596 124.577 128.296L125.799 126.502C126.917 127.49 128.607 128.088 130.401 128.088C132.247 128.088 133.391 127.438 133.391 126.346C133.391 125.306 132.481 124.812 130.167 124.526C126.709 124.11 124.993 122.836 124.993 120.678C124.993 118.39 127.177 116.856 130.453 116.856C132.403 116.856 134.041 117.35 135.497 118.39L134.379 120.158C133.209 119.326 131.961 118.962 130.557 118.962C128.477 118.962 127.359 119.56 127.359 120.652C127.359 121.614 128.191 122.108 130.375 122.394C134.197 122.888 135.783 124.032 135.783 126.372C135.783 128.686 133.599 130.272 130.349 130.272ZM146.105 127.568L146.807 129.57C145.871 129.986 145.039 130.168 144.077 130.168C141.373 130.168 140.021 128.608 140.021 125.722V119.248H137.499V117.142H140.021V113.684L142.413 113.424V117.142H146.313V119.248H142.413V125.722C142.413 127.152 142.959 127.984 144.363 127.984C144.909 127.984 145.559 127.802 146.105 127.568ZM150.324 114.932C149.388 114.932 148.686 114.256 148.686 113.346C148.686 112.41 149.388 111.734 150.324 111.734C151.286 111.734 151.962 112.41 151.962 113.346C151.962 114.256 151.286 114.932 150.324 114.932ZM149.102 129.986V117.142H151.52V129.986H149.102ZM162.032 116.908C165.36 116.908 167.544 119.222 167.544 122.862V129.986H165.126V123.018C165.126 120.548 163.852 119.144 161.668 119.144C159.328 119.144 157.69 120.834 157.69 123.148V129.986H155.272V117.142H157.43L157.456 118.936C158.548 117.61 160.16 116.908 162.032 116.908ZM183.934 123.304C183.934 125.722 182.66 127.542 180.424 128.426C182.608 129.154 183.83 130.61 183.83 132.534C183.83 135.68 181.178 137.734 177.096 137.734C173.014 137.734 170.31 135.472 170.44 132.144H172.832C172.754 134.146 174.496 135.498 177.096 135.498C179.696 135.498 181.412 134.328 181.412 132.534C181.412 130.792 179.774 129.674 177.148 129.674C172.936 129.674 170.258 127.204 170.258 123.304C170.258 119.612 173.144 116.908 177.07 116.908C178.5 116.908 179.774 117.22 180.71 117.818L182.374 115.816L184.116 117.168L182.348 119.248C183.492 120.6 183.934 121.77 183.934 123.304ZM177.096 127.464C179.696 127.464 181.516 125.748 181.516 123.304C181.516 120.808 179.774 119.144 177.096 119.144C174.47 119.144 172.676 120.834 172.676 123.304C172.676 125.8 174.444 127.464 177.096 127.464ZM202.298 111.786C206.224 111.786 208.746 114.308 208.746 118.026C208.746 121.77 206.224 124.292 202.298 124.292H196.526V129.986H194.004V111.786H202.298ZM202.168 121.952C204.664 121.952 206.25 120.392 206.25 118.026C206.25 115.66 204.664 114.126 202.168 114.126H196.526V121.952H202.168ZM216.984 130.272C212.876 130.272 210.198 127.386 210.198 123.564C210.198 119.742 212.876 116.856 216.984 116.856C221.066 116.856 223.744 119.742 223.744 123.564C223.744 127.386 221.066 130.272 216.984 130.272ZM216.984 128.036C219.61 128.036 221.326 126.008 221.326 123.564C221.326 121.12 219.61 119.092 216.984 119.092C214.332 119.092 212.616 121.12 212.616 123.564C212.616 126.008 214.332 128.036 216.984 128.036ZM242.623 117.142H245.171L240.881 129.986H238.229L236.981 126.242L234.953 120.6L232.925 126.242L231.651 129.986H228.999L224.683 117.142H227.257L228.817 122.082L230.351 127.204L233.861 117.142H236.019L239.477 127.282L242.623 117.142ZM252.729 116.882C257.149 116.882 259.645 119.794 259.281 124.526H248.647C248.881 126.736 250.571 128.088 253.041 128.088C254.601 128.088 256.187 127.49 256.941 126.58L258.501 128.062C257.279 129.466 255.199 130.324 252.989 130.324C248.855 130.324 246.151 127.646 246.151 123.564C246.151 119.612 248.803 116.882 252.729 116.882ZM252.807 119.04C250.545 119.04 249.063 120.314 248.673 122.472H256.993C256.785 120.392 255.199 119.04 252.807 119.04ZM268.305 116.908C269.527 116.908 270.697 117.298 271.451 117.922L270.359 119.95C269.631 119.482 268.955 119.274 268.175 119.274C265.965 119.274 264.509 121.016 264.509 123.668V129.986H262.091V117.142H264.249L264.275 119.3C265.289 117.688 266.589 116.908 268.305 116.908ZM291.804 111.786V114.152H285.694V129.986H283.198V114.152H277.088V111.786H291.804ZM297.218 130.272C293.11 130.272 290.432 127.386 290.432 123.564C290.432 119.742 293.11 116.856 297.218 116.856C301.3 116.856 303.978 119.742 303.978 123.564C303.978 127.386 301.3 130.272 297.218 130.272ZM297.218 128.036C299.844 128.036 301.56 126.008 301.56 123.564C301.56 121.12 299.844 119.092 297.218 119.092C294.566 119.092 292.85 121.12 292.85 123.564C292.85 126.008 294.566 128.036 297.218 128.036ZM312.782 130.272C308.674 130.272 305.996 127.386 305.996 123.564C305.996 119.742 308.674 116.856 312.782 116.856C316.864 116.856 319.542 119.742 319.542 123.564C319.542 127.386 316.864 130.272 312.782 130.272ZM312.782 128.036C315.408 128.036 317.124 126.008 317.124 123.564C317.124 121.12 315.408 119.092 312.782 119.092C310.13 119.092 308.414 121.12 308.414 123.564C308.414 126.008 310.13 128.036 312.782 128.036ZM322.419 129.986V111.786H324.837V129.986H322.419ZM40.9533 138.786C44.8793 138.786 47.4013 141.308 47.4013 145.026C47.4013 148.77 44.8793 151.292 40.9533 151.292H35.1813V156.986H32.6593V138.786H40.9533ZM40.8233 148.952C43.3193 148.952 44.9053 147.392 44.9053 145.026C44.9053 142.66 43.3193 141.126 40.8233 141.126H35.1813V148.952H40.8233ZM55.4309 143.882C59.8509 143.882 62.3469 146.794 61.9829 151.526H51.3489C51.5829 153.736 53.2729 155.088 55.7429 155.088C57.3029 155.088 58.8889 154.49 59.6429 153.58L61.2029 155.062C59.9809 156.466 57.9009 157.324 55.6909 157.324C51.5569 157.324 48.8529 154.646 48.8529 150.564C48.8529 146.612 51.5049 143.882 55.4309 143.882ZM55.5089 146.04C53.2469 146.04 51.7649 147.314 51.3749 149.472H59.6949C59.4869 147.392 57.9009 146.04 55.5089 146.04ZM71.0069 143.908C72.2289 143.908 73.3989 144.298 74.1529 144.922L73.0609 146.95C72.3329 146.482 71.6569 146.274 70.8769 146.274C68.6669 146.274 67.2109 148.016 67.2109 150.668V156.986H64.7929V144.142H66.9509L66.9769 146.3C67.9909 144.688 69.2909 143.908 71.0069 143.908ZM81.9949 140.58C80.6949 140.58 79.8109 141.36 79.8109 143.232V144.142H83.7629V146.274H79.8109V156.986H77.3929V146.274H74.9229V144.142H77.3929V143.232C77.3929 140.164 79.2129 138.474 81.8649 138.474C82.9569 138.474 83.9189 138.786 84.9329 139.514L83.9449 141.256C83.2689 140.788 82.6969 140.58 81.9949 140.58ZM91.6428 157.272C87.5348 157.272 84.8568 154.386 84.8568 150.564C84.8568 146.742 87.5348 143.856 91.6428 143.856C95.7248 143.856 98.4028 146.742 98.4028 150.564C98.4028 154.386 95.7248 157.272 91.6428 157.272ZM91.6428 155.036C94.2688 155.036 95.9848 153.008 95.9848 150.564C95.9848 148.12 94.2688 146.092 91.6428 146.092C88.9908 146.092 87.2748 148.12 87.2748 150.564C87.2748 153.008 88.9908 155.036 91.6428 155.036ZM107.493 143.908C108.715 143.908 109.885 144.298 110.639 144.922L109.547 146.95C108.819 146.482 108.143 146.274 107.363 146.274C105.153 146.274 103.697 148.016 103.697 150.668V156.986H101.279V144.142H103.437L103.463 146.3C104.477 144.688 105.777 143.908 107.493 143.908ZM127.555 143.908C130.857 143.908 132.885 146.014 132.885 149.524V156.986H130.467V149.68C130.467 147.392 129.401 146.144 127.451 146.144C125.345 146.144 123.915 147.652 123.915 149.836V156.986H121.497V149.68C121.497 147.392 120.431 146.144 118.481 146.144C116.401 146.144 114.945 147.652 114.945 149.836V156.986H112.527V144.142H114.685L114.711 145.806C115.673 144.532 116.973 143.908 118.611 143.908C120.561 143.908 122.147 144.818 122.901 146.352C123.915 144.74 125.527 143.908 127.555 143.908ZM146.898 144.142H149.03V156.986H146.898L146.872 155.088C145.858 156.44 144.09 157.272 141.984 157.272C138.214 157.272 135.562 154.516 135.562 150.564C135.562 146.612 138.214 143.856 141.984 143.856C144.09 143.856 145.858 144.688 146.872 146.04L146.898 144.142ZM142.296 155.036C144.844 155.036 146.612 153.19 146.612 150.564C146.612 147.938 144.844 146.092 142.296 146.092C139.774 146.092 137.98 147.938 137.98 150.564C137.98 153.19 139.774 155.036 142.296 155.036ZM159.557 143.908C162.885 143.908 165.069 146.222 165.069 149.862V156.986H162.651V150.018C162.651 147.548 161.377 146.144 159.193 146.144C156.853 146.144 155.215 147.834 155.215 150.148V156.986H152.797V144.142H154.955L154.981 145.936C156.073 144.61 157.685 143.908 159.557 143.908ZM174.569 157.272C170.539 157.272 167.783 154.594 167.783 150.564C167.783 146.586 170.565 143.856 174.543 143.856C176.389 143.856 177.975 144.506 179.353 145.832L177.845 147.444C176.987 146.56 175.817 146.092 174.569 146.092C172.047 146.092 170.201 147.886 170.201 150.564C170.201 153.242 172.021 155.036 174.569 155.036C175.895 155.036 177.117 154.516 177.975 153.606L179.483 155.27C178.079 156.648 176.519 157.272 174.569 157.272ZM187.462 143.882C191.882 143.882 194.378 146.794 194.014 151.526H183.38C183.614 153.736 185.304 155.088 187.774 155.088C189.334 155.088 190.92 154.49 191.674 153.58L193.234 155.062C192.012 156.466 189.932 157.324 187.722 157.324C183.588 157.324 180.884 154.646 180.884 150.564C180.884 146.612 183.536 143.882 187.462 143.882ZM187.54 146.04C185.278 146.04 183.796 147.314 183.406 149.472H191.726C191.518 147.392 189.932 146.04 187.54 146.04ZM225.832 138.786H228.51L222.374 156.986H219.488L217.278 150.148L214.86 142.79L212.442 150.148L210.206 156.986H207.398L201.184 138.786H203.862L206.826 148.016L208.776 153.918L213.612 138.786H216.082L220.944 153.892L222.868 148.016L225.832 138.786ZM231.79 141.932C230.854 141.932 230.152 141.256 230.152 140.346C230.152 139.41 230.854 138.734 231.79 138.734C232.752 138.734 233.428 139.41 233.428 140.346C233.428 141.256 232.752 141.932 231.79 141.932ZM230.568 156.986V144.142H232.986V156.986H230.568ZM244.278 154.568L244.98 156.57C244.044 156.986 243.212 157.168 242.25 157.168C239.546 157.168 238.194 155.608 238.194 152.722V146.248H235.672V144.142H238.194V140.684L240.586 140.424V144.142H244.486V146.248H240.586V152.722C240.586 154.152 241.132 154.984 242.536 154.984C243.082 154.984 243.732 154.802 244.278 154.568ZM254.035 143.908C257.415 143.908 259.547 146.222 259.547 149.862V156.986H257.129V150.018C257.129 147.548 255.855 146.144 253.671 146.144C251.331 146.144 249.693 147.834 249.693 150.148V156.986H247.275V138.786H249.693V145.806C250.759 144.558 252.241 143.908 254.035 143.908ZM282.904 138.786H285.426V156.986H283.112L272.66 143.102V156.986H270.138V138.786H272.452L282.904 152.644V138.786ZM299.8 144.142H301.932V156.986H299.8L299.774 155.088C298.76 156.44 296.992 157.272 294.886 157.272C291.116 157.272 288.464 154.516 288.464 150.564C288.464 146.612 291.116 143.856 294.886 143.856C296.992 143.856 298.76 144.688 299.774 146.04L299.8 144.142ZM295.198 155.036C297.746 155.036 299.514 153.19 299.514 150.564C299.514 147.938 297.746 146.092 295.198 146.092C292.676 146.092 290.882 147.938 290.882 150.564C290.882 153.19 292.676 155.036 295.198 155.036ZM311.965 150.304L316.697 156.986H313.785L310.431 152.046L306.973 156.986H304.113L308.845 150.33L304.425 144.142H307.337L309.261 146.898L310.405 148.666L311.601 146.898L313.525 144.142H316.411L311.965 150.304ZM328.898 144.142H331.03V156.986H328.898L328.872 155.088C327.858 156.44 326.09 157.272 323.984 157.272C320.214 157.272 317.562 154.516 317.562 150.564C317.562 146.612 320.214 143.856 323.984 143.856C326.09 143.856 327.858 144.688 328.872 146.04L328.898 144.142ZM324.296 155.036C326.844 155.036 328.612 153.19 328.612 150.564C328.612 147.938 326.844 146.092 324.296 146.092C321.774 146.092 319.98 147.938 319.98 150.564C319.98 153.19 321.774 155.036 324.296 155.036ZM342.337 154.568L343.039 156.57C342.103 156.986 341.271 157.168 340.309 157.168C337.605 157.168 336.253 155.608 336.253 152.722V146.248H333.731V144.142H336.253V140.684L338.645 140.424V144.142H342.545V146.248H338.645V152.722C338.645 154.152 339.191 154.984 340.595 154.984C341.141 154.984 341.791 154.802 342.337 154.568ZM351.548 143.908C352.77 143.908 353.94 144.298 354.694 144.922L353.602 146.95C352.874 146.482 352.198 146.274 351.418 146.274C349.208 146.274 347.752 148.016 347.752 150.668V156.986H345.334V144.142H347.492L347.518 146.3C348.532 144.688 349.832 143.908 351.548 143.908ZM366.654 144.142H368.786V156.986H366.654L366.628 155.088C365.614 156.44 363.846 157.272 361.74 157.272C357.97 157.272 355.318 154.516 355.318 150.564C355.318 146.612 357.97 143.856 361.74 143.856C363.846 143.856 365.614 144.688 366.628 146.04L366.654 144.142ZM362.052 155.036C364.6 155.036 366.368 153.19 366.368 150.564C366.368 147.938 364.6 146.092 362.052 146.092C359.53 146.092 357.736 147.938 357.736 150.564C357.736 153.19 359.53 155.036 362.052 155.036ZM64.3976 183.986V165.786H66.9196V181.62H76.7476V183.986H64.3976ZM89.3119 171.142H91.4439V183.986H89.3119L89.2859 182.088C88.2719 183.44 86.5039 184.272 84.3979 184.272C80.6279 184.272 77.9759 181.516 77.9759 177.564C77.9759 173.612 80.6279 170.856 84.3979 170.856C86.5039 170.856 88.2719 171.688 89.2859 173.04L89.3119 171.142ZM84.7099 182.036C87.2579 182.036 89.0259 180.19 89.0259 177.564C89.0259 174.938 87.2579 173.092 84.7099 173.092C82.1879 173.092 80.3939 174.938 80.3939 177.564C80.3939 180.19 82.1879 182.036 84.7099 182.036ZM102.309 170.856C106.001 170.856 108.679 173.508 108.679 177.564C108.679 181.62 106.001 184.272 102.309 184.272C100.177 184.272 98.3829 183.44 97.3949 182.088L97.3689 183.986H95.2109V165.786H97.6289V172.754C98.6429 171.558 100.333 170.856 102.309 170.856ZM101.945 182.036C104.493 182.036 106.261 180.19 106.261 177.564C106.261 174.938 104.493 173.092 101.945 173.092C99.4229 173.092 97.6289 174.938 97.6289 177.564C97.6289 180.19 99.4229 182.036 101.945 182.036ZM116.245 184.272C114.061 184.272 112.137 183.596 110.473 182.296L111.695 180.502C112.813 181.49 114.503 182.088 116.297 182.088C118.143 182.088 119.287 181.438 119.287 180.346C119.287 179.306 118.377 178.812 116.063 178.526C112.605 178.11 110.889 176.836 110.889 174.678C110.889 172.39 113.073 170.856 116.349 170.856C118.299 170.856 119.937 171.35 121.393 172.39L120.275 174.158C119.105 173.326 117.857 172.962 116.453 172.962C114.373 172.962 113.255 173.56 113.255 174.652C113.255 175.614 114.087 176.108 116.271 176.394C120.093 176.888 121.679 178.032 121.679 180.372C121.679 182.686 119.495 184.272 116.245 184.272ZM125.969 165.578C126.801 165.578 127.373 166.176 127.373 166.982C127.373 167.736 127.139 168.49 126.125 170.908H124.773L125.449 168.204C124.903 168.048 124.539 167.58 124.539 166.982C124.539 166.176 125.137 165.578 125.969 165.578ZM151.063 183.986L149.321 180.008H139.129L137.387 183.986H134.631L142.795 165.786H145.655L153.819 183.986H151.063ZM144.225 168.412L140.169 177.668H148.281L144.225 168.412ZM165.782 165.786H168.2V183.986H166.042L166.016 182.088C165.028 183.44 163.234 184.272 161.102 184.272C157.41 184.272 154.732 181.62 154.732 177.564C154.732 173.508 157.41 170.856 161.102 170.856C163.078 170.856 164.768 171.558 165.782 172.754V165.786ZM161.466 182.036C163.988 182.036 165.782 180.19 165.782 177.564C165.782 174.938 163.988 173.092 161.466 173.092C158.944 173.092 157.15 174.938 157.15 177.564C157.15 180.19 158.944 182.036 161.466 182.036ZM181.561 171.142H184.135L178.701 183.986H176.075L170.641 171.142H173.293L175.191 175.848L177.401 181.49L179.611 175.848L181.561 171.142ZM196.511 171.142H198.643V183.986H196.511L196.485 182.088C195.471 183.44 193.703 184.272 191.597 184.272C187.827 184.272 185.175 181.516 185.175 177.564C185.175 173.612 187.827 170.856 191.597 170.856C193.703 170.856 195.471 171.688 196.485 173.04L196.511 171.142ZM191.909 182.036C194.457 182.036 196.225 180.19 196.225 177.564C196.225 174.938 194.457 173.092 191.909 173.092C189.387 173.092 187.593 174.938 187.593 177.564C187.593 180.19 189.387 182.036 191.909 182.036ZM209.17 170.908C212.498 170.908 214.682 173.222 214.682 176.862V183.986H212.264V177.018C212.264 174.548 210.99 173.144 208.806 173.144C206.466 173.144 204.828 174.834 204.828 177.148V183.986H202.41V171.142H204.568L204.594 172.936C205.686 171.61 207.298 170.908 209.17 170.908ZM224.182 184.272C220.152 184.272 217.396 181.594 217.396 177.564C217.396 173.586 220.178 170.856 224.156 170.856C226.002 170.856 227.588 171.506 228.966 172.832L227.458 174.444C226.6 173.56 225.43 173.092 224.182 173.092C221.66 173.092 219.814 174.886 219.814 177.564C219.814 180.242 221.634 182.036 224.182 182.036C225.508 182.036 226.73 181.516 227.588 180.606L229.096 182.27C227.692 183.648 226.132 184.272 224.182 184.272ZM237.075 170.882C241.495 170.882 243.991 173.794 243.627 178.526H232.993C233.227 180.736 234.917 182.088 237.387 182.088C238.947 182.088 240.533 181.49 241.287 180.58L242.847 182.062C241.625 183.466 239.545 184.324 237.335 184.324C233.201 184.324 230.497 181.646 230.497 177.564C230.497 173.612 233.149 170.882 237.075 170.882ZM237.153 173.04C234.891 173.04 233.409 174.314 233.019 176.472H241.339C241.131 174.392 239.545 173.04 237.153 173.04ZM256.655 165.786H259.073V183.986H256.915L256.889 182.088C255.901 183.44 254.107 184.272 251.975 184.272C248.283 184.272 245.605 181.62 245.605 177.564C245.605 173.508 248.283 170.856 251.975 170.856C253.951 170.856 255.641 171.558 256.655 172.754V165.786ZM252.339 182.036C254.861 182.036 256.655 180.19 256.655 177.564C256.655 174.938 254.861 173.092 252.339 173.092C249.817 173.092 248.023 174.938 248.023 177.564C248.023 180.19 249.817 182.036 252.339 182.036ZM281.793 174.626C283.483 175.198 284.757 177.018 284.757 178.994C284.757 182.192 282.443 183.986 278.335 183.986H269.833V165.786H278.335C281.949 165.786 284.159 167.58 284.159 170.57C284.159 172.416 283.275 173.872 281.793 174.626ZM278.439 168.1H272.355V173.508H278.439C280.467 173.508 281.689 172.52 281.689 170.83C281.689 169.114 280.441 168.1 278.439 168.1ZM278.647 181.646C280.857 181.646 282.235 180.528 282.235 178.682C282.235 176.862 280.883 175.77 278.647 175.77H272.355V181.646H278.647ZM288.343 183.986V165.786H290.865V181.62H300.693V183.986H288.343ZM310.261 165.786C315.695 165.786 319.413 169.452 319.413 174.886C319.413 180.32 315.695 183.986 310.261 183.986H303.501V165.786H310.261ZM310.261 181.62C314.161 181.62 316.839 178.864 316.839 174.886C316.839 170.908 314.135 168.152 310.261 168.152H306.023V181.62H310.261ZM331.296 184.35C325.732 184.35 321.832 180.424 321.832 174.886C321.832 169.348 325.732 165.422 331.296 165.422C333.896 165.422 336.21 166.384 338.004 168.23L336.262 169.79C334.988 168.464 333.324 167.788 331.374 167.788C327.24 167.788 324.38 170.674 324.38 174.886C324.38 179.098 327.24 181.984 331.374 181.984C333.272 181.984 335.118 181.256 336.444 179.956L338.108 181.646C336.314 183.414 334 184.35 331.296 184.35ZM127.25 192.786H129.564V210.986H127.068V197.102L120.334 205.812H119.762L113.054 197.102V210.986H110.532V192.786H112.846L120.048 202.146L127.25 192.786ZM139.428 211.272C135.32 211.272 132.642 208.386 132.642 204.564C132.642 200.742 135.32 197.856 139.428 197.856C143.51 197.856 146.188 200.742 146.188 204.564C146.188 208.386 143.51 211.272 139.428 211.272ZM139.428 209.036C142.054 209.036 143.77 207.008 143.77 204.564C143.77 202.12 142.054 200.092 139.428 200.092C136.776 200.092 135.06 202.12 135.06 204.564C135.06 207.008 136.776 209.036 139.428 209.036ZM156.401 208.568L157.103 210.57C156.167 210.986 155.335 211.168 154.373 211.168C151.669 211.168 150.317 209.608 150.317 206.722V200.248H147.795V198.142H150.317V194.684L152.709 194.424V198.142H156.609V200.248H152.709V206.722C152.709 208.152 153.255 208.984 154.659 208.984C155.205 208.984 155.855 208.802 156.401 208.568ZM165.276 211.272C161.168 211.272 158.49 208.386 158.49 204.564C158.49 200.742 161.168 197.856 165.276 197.856C169.358 197.856 172.036 200.742 172.036 204.564C172.036 208.386 169.358 211.272 165.276 211.272ZM165.276 209.036C167.902 209.036 169.618 207.008 169.618 204.564C169.618 202.12 167.902 200.092 165.276 200.092C162.624 200.092 160.908 202.12 160.908 204.564C160.908 207.008 162.624 209.036 165.276 209.036ZM181.126 197.908C182.348 197.908 183.518 198.298 184.272 198.922L183.18 200.95C182.452 200.482 181.776 200.274 180.996 200.274C178.786 200.274 177.33 202.016 177.33 204.668V210.986H174.912V198.142H177.07L177.096 200.3C178.11 198.688 179.41 197.908 181.126 197.908ZM198.966 211.324C196.184 211.324 193.402 210.362 191.374 208.646L192.726 206.722C194.182 208.1 196.626 208.984 198.966 208.984C201.878 208.984 203.75 207.814 203.75 205.994C203.75 204.33 202.294 203.446 198.784 202.926C193.844 202.198 191.79 200.612 191.79 197.492C191.79 194.554 194.65 192.448 198.732 192.448C201.202 192.448 203.594 193.306 205.414 194.788L204.088 196.582C202.606 195.36 200.656 194.684 198.758 194.684C196.132 194.684 194.312 195.88 194.312 197.544C194.312 199.156 195.664 200.04 199.044 200.586C204.27 201.418 206.298 202.874 206.298 205.916C206.298 209.192 203.412 211.324 198.966 211.324ZM215.092 211.272C210.984 211.272 208.306 208.386 208.306 204.564C208.306 200.742 210.984 197.856 215.092 197.856C219.174 197.856 221.852 200.742 221.852 204.564C221.852 208.386 219.174 211.272 215.092 211.272ZM215.092 209.036C217.718 209.036 219.434 207.008 219.434 204.564C219.434 202.12 217.718 200.092 215.092 200.092C212.44 200.092 210.724 202.12 210.724 204.564C210.724 207.008 212.44 209.036 215.092 209.036ZM224.728 210.986V192.786H227.146V210.986H224.728ZM240.414 198.142H242.832V210.986H240.674L240.648 209.166C239.556 210.518 237.97 211.22 236.15 211.22C232.848 211.22 230.716 208.906 230.716 205.266V198.142H233.134V205.11C233.134 207.58 234.382 208.984 236.488 208.984C238.828 208.984 240.414 207.294 240.414 204.98V198.142ZM254.104 208.568L254.806 210.57C253.87 210.986 253.038 211.168 252.076 211.168C249.372 211.168 248.02 209.608 248.02 206.722V200.248H245.498V198.142H248.02V194.684L250.412 194.424V198.142H254.312V200.248H250.412V206.722C250.412 208.152 250.958 208.984 252.362 208.984C252.908 208.984 253.558 208.802 254.104 208.568ZM258.323 195.932C257.387 195.932 256.685 195.256 256.685 194.346C256.685 193.41 257.387 192.734 258.323 192.734C259.285 192.734 259.961 193.41 259.961 194.346C259.961 195.256 259.285 195.932 258.323 195.932ZM257.101 210.986V198.142H259.519V210.986H257.101ZM269.199 211.272C265.091 211.272 262.413 208.386 262.413 204.564C262.413 200.742 265.091 197.856 269.199 197.856C273.281 197.856 275.959 200.742 275.959 204.564C275.959 208.386 273.281 211.272 269.199 211.272ZM269.199 209.036C271.825 209.036 273.541 207.008 273.541 204.564C273.541 202.12 271.825 200.092 269.199 200.092C266.547 200.092 264.831 202.12 264.831 204.564C264.831 207.008 266.547 209.036 269.199 209.036ZM285.596 197.908C288.924 197.908 291.108 200.222 291.108 203.862V210.986H288.69V204.018C288.69 201.548 287.416 200.144 285.232 200.144C282.892 200.144 281.254 201.834 281.254 204.148V210.986H278.836V198.142H280.994L281.02 199.936C282.112 198.61 283.724 197.908 285.596 197.908Z" fill="white"/>
<g opacity="0.7">
<path d="M201.116 164.262C208.831 164.262 215.084 158.008 215.084 150.294C215.084 142.58 208.831 136.326 201.116 136.326C193.402 136.326 187.148 142.58 187.148 150.294C187.148 158.008 193.402 164.262 201.116 164.262Z" stroke="white" stroke-width="0.0558149" stroke-miterlimit="10"/>
<path d="M201.068 167.155C210.202 167.155 217.606 159.751 217.606 150.617C217.606 141.484 210.202 134.08 201.068 134.08C191.935 134.08 184.531 141.484 184.531 150.617C184.531 159.751 191.935 167.155 201.068 167.155Z" stroke="white" stroke-width="0.167445" stroke-miterlimit="10"/>
<path d="M200.964 166.037C209.56 166.037 216.529 159.068 216.529 150.471C216.529 141.875 209.56 134.906 200.964 134.906C192.367 134.906 185.398 141.875 185.398 150.471C185.398 159.068 192.367 166.037 200.964 166.037Z" stroke="white" stroke-width="0.11163" stroke-miterlimit="10"/>
<path d="M201.09 167.763C210.601 167.763 218.312 160.052 218.312 150.541C218.312 141.029 210.601 133.318 201.09 133.318C191.578 133.318 183.867 141.029 183.867 150.541C183.867 160.052 191.578 167.763 201.09 167.763Z" stroke="white" stroke-width="0.0558149" stroke-miterlimit="10"/>
<path d="M200.97 169.537C211.595 169.537 220.209 160.923 220.209 150.298C220.209 139.672 211.595 131.059 200.97 131.059C190.344 131.059 181.73 139.672 181.73 150.298C181.73 160.923 190.344 169.537 200.97 169.537Z" stroke="white" stroke-width="0.0558149" stroke-miterlimit="10"/>
<path d="M201.022 170.438C212.049 170.438 220.989 161.499 220.989 150.471C220.989 139.443 212.049 130.504 201.022 130.504C189.994 130.504 181.055 139.443 181.055 150.471C181.055 161.499 189.994 170.438 201.022 170.438Z" stroke="white" stroke-width="0.0558149" stroke-miterlimit="10"/>
<path d="M201.007 172.202C213.123 172.202 222.944 162.38 222.944 150.265C222.944 138.15 213.123 128.328 201.007 128.328C188.892 128.328 179.07 138.15 179.07 150.265C179.07 162.38 188.892 172.202 201.007 172.202Z" stroke="white" stroke-width="0.22326" stroke-miterlimit="10"/>
<path d="M200.898 183.571C219.209 183.571 234.054 168.727 234.054 150.416C234.054 132.104 219.209 117.26 200.898 117.26C182.587 117.26 167.742 132.104 167.742 150.416C167.742 168.727 182.587 183.571 200.898 183.571Z" stroke="white" stroke-width="0.22326" stroke-miterlimit="10"/>
<path d="M176.238 89.1711C171.741 90.8667 165.109 95.3543 162.736 97.0115C162.227 97.3669 161.542 97.3498 161.126 96.9729L153.821 90.2715C153.41 89.8947 153.401 89.2781 153.838 88.8542C155.731 87.0258 161.349 82.2213 171.806 78.0549C182.198 73.9142 188.604 73.8928 190.874 74.0726C191.426 74.1154 191.777 74.5436 191.739 75.0532L191.041 85.0303C191.002 85.5998 190.497 86.088 189.876 86.1736C187.277 86.5205 180.631 87.5182 176.238 89.1753V89.1711Z" stroke="white" stroke-width="0.167445"/>
<path d="M140.991 124.375C139.069 128.97 137.72 137.166 137.275 140.133C137.18 140.767 136.679 141.276 136.101 141.319L125.901 142.073C125.328 142.116 124.857 141.683 124.852 141.054C124.831 138.33 125.225 130.678 129.528 119.828C133.806 109.045 138.341 104.194 140.084 102.614C140.507 102.228 141.077 102.267 141.432 102.657L148.399 110.266C148.797 110.698 148.806 111.426 148.425 111.957C146.841 114.167 142.867 119.892 140.991 124.379V124.375Z" stroke="white" stroke-width="0.167445"/>
<path d="M176.447 89.6648C171.784 91.4161 164.954 96.182 162.509 97.9419C161.987 98.3188 161.267 98.2845 160.826 97.8606L153.02 90.3285C152.579 89.9046 152.558 89.228 153.007 88.7698C154.943 86.8129 160.702 81.6745 171.544 77.3539C182.386 73.0333 189.019 73.1961 191.396 73.4487C191.974 73.5087 192.351 73.9882 192.325 74.5449L191.837 85.4727C191.807 86.0978 191.297 86.6202 190.642 86.6973C187.932 87.0142 180.999 87.952 176.447 89.6605V89.6648Z" stroke="white" stroke-width="0.0558149"/>
<path d="M176.004 88.5919C171.683 90.2277 165.264 94.454 162.965 96.0084C162.473 96.3424 161.817 96.3424 161.432 96.0084L154.602 90.0521C154.217 89.7138 154.221 89.1529 154.649 88.7589C156.491 87.0547 161.946 82.5671 172.004 78.5591C181.999 74.5768 188.113 74.427 190.272 74.5469C190.798 74.5768 191.124 74.9579 191.077 75.4247L190.207 84.524C190.156 85.0421 189.668 85.5003 189.073 85.5859C186.585 85.9542 180.226 86.999 176.004 88.5962V88.5919Z" stroke="white" stroke-width="0.0558149"/>
<path d="M141.441 124.596C139.45 129.336 138.161 137.84 137.737 140.919C137.647 141.578 137.116 142.096 136.491 142.126L125.426 142.692C124.801 142.722 124.283 142.263 124.266 141.604C124.18 138.769 124.446 130.813 128.89 119.611C133.335 108.41 138.131 103.528 139.989 101.918C140.443 101.528 141.06 101.58 141.458 101.991L149.192 110.058C149.633 110.521 149.658 111.274 149.256 111.818C147.581 114.083 143.389 119.958 141.445 124.591L141.441 124.596Z" stroke="white" stroke-width="0.0558149"/>
<path d="M140.449 124.249C138.608 128.664 137.203 136.492 136.732 139.322C136.63 139.93 136.171 140.422 135.649 140.478L126.421 141.429C125.899 141.484 125.488 141.082 125.496 140.482C125.539 137.892 126.066 130.604 130.202 120.186C134.313 109.832 138.518 105.113 140.128 103.567C140.522 103.19 141.031 103.216 141.344 103.576L147.463 110.654C147.814 111.056 147.806 111.75 147.446 112.26C145.964 114.396 142.248 119.933 140.449 124.245V124.249Z" stroke="white" stroke-width="0.0558149"/>
<path d="M140.195 175.346C141.938 179.933 146.558 186.685 148.258 189.1C148.622 189.618 148.609 190.321 148.215 190.745L141.317 198.251C140.927 198.675 140.293 198.688 139.857 198.243C137.977 196.32 133.035 190.608 128.749 179.941C124.493 169.343 124.471 162.792 124.66 160.475C124.707 159.91 125.144 159.55 125.67 159.584L135.934 160.235C136.521 160.274 137.022 160.783 137.108 161.421C137.463 164.076 138.491 170.867 140.191 175.342L140.195 175.346Z" stroke="white" stroke-width="0.167445"/>
<path d="M139.598 175.381C141.259 179.74 145.537 186.206 147.113 188.522C147.451 189.019 147.455 189.678 147.113 190.068L141.156 196.966C140.822 197.356 140.257 197.352 139.859 196.919C138.142 195.065 133.603 189.567 129.526 179.423C125.476 169.347 125.3 163.181 125.407 161.002C125.433 160.471 125.818 160.141 126.285 160.188L135.436 161.053C135.958 161.104 136.416 161.597 136.51 162.196C136.891 164.706 137.971 171.12 139.598 175.372V175.381Z" stroke="white" stroke-width="0.0558149"/>
<path d="M141.014 175.107C142.855 179.98 147.904 187.093 149.771 189.636C150.169 190.18 150.131 190.934 149.672 191.405L141.596 199.678C141.143 200.145 140.419 200.179 139.935 199.712C137.858 197.704 132.407 191.717 127.86 180.396C123.338 169.143 123.513 162.107 123.8 159.611C123.869 159.003 124.383 158.604 124.978 158.622L136.634 159.011C137.297 159.033 137.854 159.568 137.935 160.249C138.261 163.088 139.22 170.35 141.018 175.107H141.014Z" stroke="white" stroke-width="0.0558149"/>
<path d="M175.281 210.588C179.756 212.519 187.725 214.013 190.607 214.514C191.223 214.621 191.72 215.101 191.767 215.645L192.559 225.211C192.602 225.75 192.187 226.174 191.574 226.161C188.928 226.106 181.494 225.519 170.931 221.181C160.431 216.869 155.695 212.489 154.145 210.815C153.768 210.408 153.802 209.877 154.179 209.551L161.527 203.248C161.947 202.889 162.653 202.901 163.167 203.274C165.321 204.82 170.905 208.699 175.277 210.588H175.281Z" stroke="white" stroke-width="0.167445"/>
<path d="M175.014 211.115C179.3 212.956 186.888 214.498 189.633 215.02C190.219 215.131 190.703 215.577 190.759 216.065L191.748 224.663C191.804 225.147 191.418 225.519 190.836 225.494C188.327 225.378 181.27 224.667 171.151 220.514C161.097 216.386 156.498 212.339 154.991 210.794C154.623 210.417 154.644 209.941 154.991 209.663L161.795 204.195C162.185 203.882 162.853 203.912 163.349 204.259C165.43 205.702 170.817 209.321 175.005 211.119L175.014 211.115Z" stroke="white" stroke-width="0.0558149"/>
<path d="M175.512 209.937C180.201 211.967 188.606 213.402 191.651 213.877C192.302 213.98 192.815 214.502 192.845 215.11L193.389 225.837C193.419 226.44 192.965 226.933 192.314 226.937C189.51 226.959 181.639 226.53 170.566 221.983C159.561 217.465 154.671 212.687 153.082 210.85C152.697 210.404 152.748 209.805 153.159 209.432L161.154 202.118C161.612 201.699 162.357 201.695 162.897 202.093C165.132 203.763 170.938 207.951 175.516 209.933L175.512 209.937Z" stroke="white" stroke-width="0.11163"/>
<path d="M225.164 211.403C229.697 209.52 236.354 204.824 238.737 203.095C239.246 202.723 239.941 202.701 240.368 203.044L247.867 209.109C248.29 209.451 248.307 210.046 247.867 210.478C245.976 212.344 240.351 217.288 229.814 221.885C219.341 226.451 212.848 226.824 210.547 226.777C209.986 226.764 209.628 226.37 209.654 225.878L210.219 216.214C210.249 215.661 210.754 215.161 211.385 215.049C214.014 214.57 220.739 213.243 225.164 211.403Z" stroke="white" stroke-width="0.167445"/>
<path d="M226.84 211.713C222.682 213.687 215.291 215.537 212.615 216.175C212.041 216.312 211.579 216.758 211.536 217.224L210.761 225.467C210.718 225.934 211.104 226.268 211.673 226.212C214.127 225.977 221.021 224.941 230.831 220.47C240.581 216.03 244.987 211.936 246.43 210.39C246.782 210.013 246.752 209.564 246.405 209.311L239.618 204.442C239.228 204.164 238.577 204.224 238.093 204.579C236.089 206.057 230.899 209.778 226.84 211.705V211.713Z" stroke="white" stroke-width="0.0558149"/>
<path d="M226.563 209.876C221.878 212.055 213.404 213.691 210.334 214.235C209.674 214.351 209.173 214.903 209.165 215.528L208.981 226.571C208.972 227.197 209.447 227.689 210.111 227.681C212.959 227.646 220.923 227.055 231.992 222.165C242.997 217.305 247.793 212.299 249.339 210.381C249.716 209.914 249.643 209.302 249.215 208.925L240.86 201.56C240.385 201.14 239.623 201.145 239.092 201.569C236.882 203.333 231.136 207.748 226.563 209.876Z" stroke="white" stroke-width="0.11163"/>
<path d="M262.1 174.986C260.357 179.572 255.737 186.325 254.037 188.74C253.673 189.258 253.686 189.961 254.079 190.384L260.978 197.891C261.367 198.315 262.965 197.681 263.401 197.236C265.281 195.313 269.82 190.132 274.106 179.465C278.363 168.867 278.363 162.192 278.174 159.875C278.127 159.31 277.151 159.19 276.624 159.224L266.36 159.875C265.774 159.914 265.273 160.423 265.187 161.061C264.832 163.716 263.804 170.507 262.104 174.982L262.1 174.986Z" stroke="white" stroke-width="0.167445"/>
<path d="M261.57 174.492C259.729 179.365 254.68 186.478 252.813 189.021C252.415 189.565 252.453 190.319 252.912 190.79L260.987 199.063C261.441 199.529 262.165 199.564 262.649 199.097C264.726 197.089 270.177 191.102 274.724 179.781C279.246 168.527 279.07 161.492 278.784 158.996C278.715 158.387 278.201 157.989 277.606 158.006L265.95 158.396C265.287 158.417 264.73 158.953 264.649 159.634C264.323 162.473 263.364 169.735 261.566 174.492H261.57Z" stroke="white" stroke-width="0.0558149"/>
<path d="M262.95 175.381C261.289 179.74 257.011 186.206 255.435 188.522C255.097 189.019 255.092 189.678 255.435 190.068L261.391 196.966C261.725 197.356 262.291 197.352 262.689 196.919C264.406 195.065 268.945 189.567 273.021 179.423C277.072 169.347 277.248 163.181 277.141 161.002C277.115 160.471 276.73 160.141 276.263 160.188L267.112 161.053C266.59 161.104 266.132 161.597 266.037 162.196C265.656 164.706 264.577 171.12 262.95 175.372V175.381Z" stroke="white" stroke-width="0.0558149"/>
<path d="M260.662 124.531C262.585 129.126 263.934 137.322 264.379 140.289C264.473 140.923 264.974 141.433 265.552 141.475L275.752 142.229C276.326 142.272 276.797 141.839 276.801 141.21C276.823 138.486 276.429 130.834 272.125 119.984C267.848 109.202 263.313 104.35 261.57 102.77C261.146 102.385 260.577 102.423 260.221 102.813L253.254 110.422C252.856 110.855 252.848 111.582 253.229 112.113C254.813 114.323 258.787 120.048 260.662 124.536V124.531Z" stroke="white" stroke-width="0.167445"/>
<path d="M261.281 124.177C263.084 128.506 264.463 136.175 264.925 138.954C265.024 139.55 265.478 140.033 265.987 140.085L275.031 141.018C275.541 141.07 275.947 140.68 275.935 140.089C275.896 137.55 275.374 130.407 271.323 120.195C267.293 110.046 263.174 105.422 261.594 103.906C261.209 103.538 260.708 103.559 260.399 103.914L254.405 110.851C254.062 111.25 254.071 111.926 254.417 112.427C255.869 114.521 259.513 119.951 261.277 124.177H261.281Z" stroke="white" stroke-width="0.0558149"/>
<path d="M260.33 124.596C262.321 129.336 263.61 137.84 264.034 140.919C264.124 141.578 264.655 142.096 265.28 142.126L276.345 142.692C276.97 142.722 277.488 142.263 277.506 141.604C277.591 138.769 277.326 130.813 272.881 119.611C268.462 108.478 263.64 103.528 261.782 101.918C261.328 101.528 260.711 101.58 260.313 101.991L252.58 110.058C252.139 110.521 252.113 111.274 252.516 111.818C254.19 114.083 258.382 119.958 260.326 124.591L260.33 124.596Z" stroke="white" stroke-width="0.0558149"/>
<path d="M225.324 89.3018C229.82 90.9975 236.453 95.4851 238.825 97.1422C239.335 97.4977 240.02 97.4805 240.435 97.1037L247.741 90.4023C248.152 90.0255 248.16 89.4089 247.723 88.985C245.831 87.1565 240.213 82.3521 229.756 78.1857C219.299 74.0192 212.958 74.0235 210.688 74.2034C210.136 74.2462 209.785 74.6744 209.823 75.184L210.521 85.1611C210.56 85.7306 211.065 86.2188 211.686 86.3044C214.285 86.6513 220.931 87.649 225.324 89.3061V89.3018Z" stroke="white" stroke-width="0.167445"/>
<path d="M225.632 88.9797C229.953 90.6154 236.371 94.8418 238.671 96.3962C239.163 96.7302 239.818 96.7302 240.204 96.3962L247.034 90.4399C247.419 90.1016 247.415 89.5406 246.986 89.1467C245.145 87.4424 239.69 82.9549 229.631 78.9469C219.573 74.9389 213.522 74.8147 211.364 74.9346C210.838 74.9646 210.512 75.3457 210.559 75.8124L211.428 84.9118C211.48 85.4299 211.968 85.8881 212.563 85.9737C215.051 86.342 221.41 87.3868 225.632 88.984V88.9797Z" stroke="white" stroke-width="0.0558149"/>
<path d="M224.996 89.6634C229.659 91.4147 236.489 96.1806 238.934 97.9406C239.457 98.3174 240.176 98.2831 240.617 97.8592L248.423 90.3271C248.864 89.9032 248.886 89.2266 248.436 88.7684C246.501 86.8115 240.741 81.6731 229.899 77.3525C219.13 73.0619 212.424 73.1947 210.048 73.4473C209.47 73.5073 209.093 73.9868 209.118 74.5435L209.607 85.4713C209.637 86.0964 210.146 86.6189 210.801 86.6959C213.512 87.0128 220.444 87.9506 224.996 89.6591V89.6634Z" stroke="white" stroke-width="0.0558149"/>
<path d="M274.945 154.918C277.3 154.918 279.21 153.009 279.21 150.654C279.21 148.298 277.3 146.389 274.945 146.389C272.589 146.389 270.68 148.298 270.68 150.654C270.68 153.009 272.589 154.918 274.945 154.918Z" stroke="white" stroke-width="0.22326"/>
<path d="M251.119 205.859C253.957 205.859 256.257 203.558 256.257 200.72C256.257 197.883 253.957 195.582 251.119 195.582C248.281 195.582 245.98 197.883 245.98 200.72C245.98 203.558 248.281 205.859 251.119 205.859Z" stroke="white" stroke-width="0.22326"/>
<path d="M251.112 202.734C252.262 202.734 253.193 201.803 253.193 200.653C253.193 199.504 252.262 198.572 251.112 198.572C249.963 198.572 249.031 199.504 249.031 200.653C249.031 201.803 249.963 202.734 251.112 202.734Z" stroke="white" stroke-width="0.22326"/>
<path d="M201.041 228.817C203.316 228.817 205.161 226.972 205.161 224.697C205.161 222.422 203.316 220.578 201.041 220.578C198.766 220.578 196.922 222.422 196.922 224.697C196.922 226.972 198.766 228.817 201.041 228.817Z" stroke="white" stroke-width="0.22326"/>
<path d="M150.772 205.751C153.588 205.751 155.872 203.467 155.872 200.651C155.872 197.834 153.588 195.551 150.772 195.551C147.955 195.551 145.672 197.834 145.672 200.651C145.672 203.467 147.955 205.751 150.772 205.751Z" stroke="white" stroke-width="0.22326"/>
<path d="M150.771 202.988C152.06 202.988 153.105 201.943 153.105 200.654C153.105 199.365 152.06 198.32 150.771 198.32C149.482 198.32 148.438 199.365 148.438 200.654C148.438 201.943 149.482 202.988 150.771 202.988Z" stroke="white" stroke-width="0.22326"/>
<path d="M126.817 154.221C129.03 154.221 130.825 152.427 130.825 150.213C130.825 148 129.03 146.205 126.817 146.205C124.603 146.205 122.809 148 122.809 150.213C122.809 152.427 124.603 154.221 126.817 154.221Z" stroke="white" stroke-width="0.22326"/>
<path d="M150.821 105.713C153.9 105.713 156.397 103.217 156.397 100.138C156.397 97.0586 153.9 94.5625 150.821 94.5625C147.742 94.5625 145.246 97.0586 145.246 100.138C145.246 103.217 147.742 105.713 150.821 105.713Z" stroke="white" stroke-width="0.22326"/>
<path d="M150.765 102.353C152.283 102.353 153.514 101.214 153.514 99.8092C153.514 98.4044 152.283 97.2656 150.765 97.2656C149.246 97.2656 148.016 98.4044 148.016 99.8092C148.016 101.214 149.246 102.353 150.765 102.353Z" stroke="white" stroke-width="0.22326"/>
<path d="M200.867 231.986C245.878 231.986 282.367 195.498 282.367 150.486C282.367 105.475 245.878 68.9863 200.867 68.9863C155.856 68.9863 119.367 105.475 119.367 150.486C119.367 195.498 155.856 231.986 200.867 231.986Z" stroke="white" stroke-width="0.22326"/>
<path d="M200.985 154.054C203.101 154.054 204.817 152.338 204.817 150.221C204.817 148.105 203.101 146.389 200.985 146.389C198.868 146.389 197.152 148.105 197.152 150.221C197.152 152.338 198.868 154.054 200.985 154.054Z" stroke="white" stroke-width="0.22326" stroke-miterlimit="10"/>
<path d="M201.001 161.564C207.225 161.564 212.271 156.518 212.271 150.294C212.271 144.069 207.225 139.023 201.001 139.023C194.776 139.023 189.73 144.069 189.73 150.294C189.73 156.518 194.776 161.564 201.001 161.564Z" stroke="white" stroke-width="0.22326" stroke-miterlimit="10"/>
<path d="M200.985 160.375C206.595 160.375 211.142 155.827 211.142 150.218C211.142 144.608 206.595 140.061 200.985 140.061C195.376 140.061 190.828 144.608 190.828 150.218C190.828 155.827 195.376 160.375 200.985 160.375Z" stroke="white" stroke-width="0.22326" stroke-miterlimit="10"/>
<path d="M201.12 163.065C208.214 163.065 213.966 157.314 213.966 150.219C213.966 143.124 208.214 137.373 201.12 137.373C194.025 137.373 188.273 143.124 188.273 150.219C188.273 157.314 194.025 163.065 201.12 163.065Z" stroke="white" stroke-width="0.0558149" stroke-miterlimit="10"/>
<path d="M201.034 163.55C208.401 163.55 214.372 157.578 214.372 150.212C214.372 142.845 208.401 136.873 201.034 136.873C193.667 136.873 187.695 142.845 187.695 150.212C187.695 157.578 193.667 163.55 201.034 163.55Z" stroke="white" stroke-width="0.0558149" stroke-miterlimit="10"/>
<path d="M200.904 80.8153C203.42 80.8153 205.46 78.7755 205.46 76.2592C205.46 73.743 203.42 71.7031 200.904 71.7031C198.387 71.7031 196.348 73.743 196.348 76.2592C196.348 78.7755 198.387 80.8153 200.904 80.8153Z" stroke="white" stroke-width="0.22326"/>
<path d="M250.927 102.58C252.357 102.58 253.517 101.42 253.517 99.9891C253.517 98.5583 252.357 97.3984 250.927 97.3984C249.496 97.3984 248.336 98.5583 248.336 99.9891C248.336 101.42 249.496 102.58 250.927 102.58Z" stroke="white" stroke-width="0.22326"/>
<path d="M251.107 105.035C253.895 105.035 256.156 102.774 256.156 99.986C256.156 97.1978 253.895 94.9375 251.107 94.9375C248.319 94.9375 246.059 97.1978 246.059 99.986C246.059 102.774 248.319 105.035 251.107 105.035Z" stroke="white" stroke-width="0.22326"/>
</g>
<defs>
<filter id="filter0_f_3309_3744" x="37.4154" y="-0.00063324" width="314.974" height="314.974" filterUnits="userSpaceOnUse" color-interpolation-filters="sRGB">
<feFlood flood-opacity="0" result="BackgroundImageFix"/>
<feBlend mode="normal" in="SourceGraphic" in2="BackgroundImageFix" result="shape"/>
<feGaussianBlur stdDeviation="33.3118" result="effect1_foregroundBlur_3309_3744"/>
</filter>
<radialGradient id="paint0_radial_3309_3744" cx="0" cy="0" r="1" gradientUnits="userSpaceOnUse" gradientTransform="translate(200.998 158.201) rotate(90) scale(87.9936 135.112)">
<stop stop-color="#444444"/>
<stop offset="1" stop-color="#444444" stop-opacity="0"/>
</radialGradient>
</defs>
</svg>
