<svg width="205" height="52" viewBox="0 0 205 52" fill="none" xmlns="http://www.w3.org/2000/svg">
<rect width="205" height="52" rx="4" fill="#1863DA"/>
<mask id="path-2-outside-1_2211_666" maskUnits="userSpaceOnUse" x="25" y="16" width="156" height="19" fill="black">
<rect fill="white" x="25" y="16" width="156" height="19"/>
<path d="M34.1015 34.336C28.9655 34.336 25.3655 30.712 25.3655 25.6C25.3655 20.488 28.9655 16.864 34.1015 16.864C36.5015 16.864 38.6375 17.752 40.2935 19.456L38.6855 20.896C37.5095 19.672 35.9735 19.048 34.1735 19.048C30.3575 19.048 27.7175 21.712 27.7175 25.6C27.7175 29.488 30.3575 32.152 34.1735 32.152C35.9255 32.152 37.6295 31.48 38.8535 30.28L40.3895 31.84C38.7335 33.472 36.5975 34.336 34.1015 34.336ZM48.2947 34.264C44.5027 34.264 42.0307 31.6 42.0307 28.072C42.0307 24.544 44.5027 21.88 48.2947 21.88C52.0627 21.88 54.5347 24.544 54.5347 28.072C54.5347 31.6 52.0627 34.264 48.2947 34.264ZM48.2947 32.2C50.7187 32.2 52.3027 30.328 52.3027 28.072C52.3027 25.816 50.7187 23.944 48.2947 23.944C45.8467 23.944 44.2627 25.816 44.2627 28.072C44.2627 30.328 45.8467 32.2 48.2947 32.2ZM63.6699 21.928C66.7419 21.928 68.7579 24.064 68.7579 27.424V34H66.5259V27.568C66.5259 25.288 65.3499 23.992 63.3339 23.992C61.1739 23.992 59.6619 25.552 59.6619 27.688V34H57.4299V22.144H59.4219L59.4459 23.8C60.4539 22.576 61.9419 21.928 63.6699 21.928ZM78.5349 21.928C81.6069 21.928 83.6229 24.064 83.6229 27.424V34H81.3909V27.568C81.3909 25.288 80.2149 23.992 78.1989 23.992C76.0389 23.992 74.5269 25.552 74.5269 27.688V34H72.2949V22.144H74.2869L74.3109 23.8C75.3189 22.576 76.8069 21.928 78.5349 21.928ZM92.4399 21.904C96.5199 21.904 98.8239 24.592 98.4879 28.96H88.6719C88.8879 31 90.4479 32.248 92.7279 32.248C94.1679 32.248 95.6319 31.696 96.3279 30.856L97.7679 32.224C96.6399 33.52 94.7199 34.312 92.6799 34.312C88.8639 34.312 86.3679 31.84 86.3679 28.072C86.3679 24.424 88.8159 21.904 92.4399 21.904ZM92.5119 23.896C90.4239 23.896 89.0559 25.072 88.6959 27.064H96.3759C96.1839 25.144 94.7199 23.896 92.5119 23.896ZM106.794 34.264C103.074 34.264 100.53 31.792 100.53 28.072C100.53 24.4 103.098 21.88 106.77 21.88C108.474 21.88 109.938 22.48 111.21 23.704L109.818 25.192C109.026 24.376 107.946 23.944 106.794 23.944C104.466 23.944 102.762 25.6 102.762 28.072C102.762 30.544 104.442 32.2 106.794 32.2C108.018 32.2 109.146 31.72 109.938 30.88L111.33 32.416C110.034 33.688 108.594 34.264 106.794 34.264ZM120.897 31.768L121.545 33.616C120.681 34 119.913 34.168 119.025 34.168C116.529 34.168 115.281 32.728 115.281 30.064V24.088H112.953V22.144H115.281V18.952L117.489 18.712V22.144H121.089V24.088H117.489V30.064C117.489 31.384 117.993 32.152 119.289 32.152C119.793 32.152 120.393 31.984 120.897 31.768ZM142.383 17.2H144.711V34H142.575L132.927 21.184V34H130.599V17.2H132.735L142.383 29.992V17.2ZM154.019 34.264C150.227 34.264 147.755 31.6 147.755 28.072C147.755 24.544 150.227 21.88 154.019 21.88C157.787 21.88 160.259 24.544 160.259 28.072C160.259 31.6 157.787 34.264 154.019 34.264ZM154.019 32.2C156.443 32.2 158.027 30.328 158.027 28.072C158.027 25.816 156.443 23.944 154.019 23.944C151.571 23.944 149.987 25.816 149.987 28.072C149.987 30.328 151.571 32.2 154.019 32.2ZM177.927 22.144H180.279L176.319 34H173.871L172.719 30.544L170.847 25.336L168.975 30.544L167.799 34H165.351L161.367 22.144H163.743L165.183 26.704L166.599 31.432L169.839 22.144H171.831L175.023 31.504L177.927 22.144Z"/>
</mask>
<path d="M34.1015 34.336C28.9655 34.336 25.3655 30.712 25.3655 25.6C25.3655 20.488 28.9655 16.864 34.1015 16.864C36.5015 16.864 38.6375 17.752 40.2935 19.456L38.6855 20.896C37.5095 19.672 35.9735 19.048 34.1735 19.048C30.3575 19.048 27.7175 21.712 27.7175 25.6C27.7175 29.488 30.3575 32.152 34.1735 32.152C35.9255 32.152 37.6295 31.48 38.8535 30.28L40.3895 31.84C38.7335 33.472 36.5975 34.336 34.1015 34.336ZM48.2947 34.264C44.5027 34.264 42.0307 31.6 42.0307 28.072C42.0307 24.544 44.5027 21.88 48.2947 21.88C52.0627 21.88 54.5347 24.544 54.5347 28.072C54.5347 31.6 52.0627 34.264 48.2947 34.264ZM48.2947 32.2C50.7187 32.2 52.3027 30.328 52.3027 28.072C52.3027 25.816 50.7187 23.944 48.2947 23.944C45.8467 23.944 44.2627 25.816 44.2627 28.072C44.2627 30.328 45.8467 32.2 48.2947 32.2ZM63.6699 21.928C66.7419 21.928 68.7579 24.064 68.7579 27.424V34H66.5259V27.568C66.5259 25.288 65.3499 23.992 63.3339 23.992C61.1739 23.992 59.6619 25.552 59.6619 27.688V34H57.4299V22.144H59.4219L59.4459 23.8C60.4539 22.576 61.9419 21.928 63.6699 21.928ZM78.5349 21.928C81.6069 21.928 83.6229 24.064 83.6229 27.424V34H81.3909V27.568C81.3909 25.288 80.2149 23.992 78.1989 23.992C76.0389 23.992 74.5269 25.552 74.5269 27.688V34H72.2949V22.144H74.2869L74.3109 23.8C75.3189 22.576 76.8069 21.928 78.5349 21.928ZM92.4399 21.904C96.5199 21.904 98.8239 24.592 98.4879 28.96H88.6719C88.8879 31 90.4479 32.248 92.7279 32.248C94.1679 32.248 95.6319 31.696 96.3279 30.856L97.7679 32.224C96.6399 33.52 94.7199 34.312 92.6799 34.312C88.8639 34.312 86.3679 31.84 86.3679 28.072C86.3679 24.424 88.8159 21.904 92.4399 21.904ZM92.5119 23.896C90.4239 23.896 89.0559 25.072 88.6959 27.064H96.3759C96.1839 25.144 94.7199 23.896 92.5119 23.896ZM106.794 34.264C103.074 34.264 100.53 31.792 100.53 28.072C100.53 24.4 103.098 21.88 106.77 21.88C108.474 21.88 109.938 22.48 111.21 23.704L109.818 25.192C109.026 24.376 107.946 23.944 106.794 23.944C104.466 23.944 102.762 25.6 102.762 28.072C102.762 30.544 104.442 32.2 106.794 32.2C108.018 32.2 109.146 31.72 109.938 30.88L111.33 32.416C110.034 33.688 108.594 34.264 106.794 34.264ZM120.897 31.768L121.545 33.616C120.681 34 119.913 34.168 119.025 34.168C116.529 34.168 115.281 32.728 115.281 30.064V24.088H112.953V22.144H115.281V18.952L117.489 18.712V22.144H121.089V24.088H117.489V30.064C117.489 31.384 117.993 32.152 119.289 32.152C119.793 32.152 120.393 31.984 120.897 31.768ZM142.383 17.2H144.711V34H142.575L132.927 21.184V34H130.599V17.2H132.735L142.383 29.992V17.2ZM154.019 34.264C150.227 34.264 147.755 31.6 147.755 28.072C147.755 24.544 150.227 21.88 154.019 21.88C157.787 21.88 160.259 24.544 160.259 28.072C160.259 31.6 157.787 34.264 154.019 34.264ZM154.019 32.2C156.443 32.2 158.027 30.328 158.027 28.072C158.027 25.816 156.443 23.944 154.019 23.944C151.571 23.944 149.987 25.816 149.987 28.072C149.987 30.328 151.571 32.2 154.019 32.2ZM177.927 22.144H180.279L176.319 34H173.871L172.719 30.544L170.847 25.336L168.975 30.544L167.799 34H165.351L161.367 22.144H163.743L165.183 26.704L166.599 31.432L169.839 22.144H171.831L175.023 31.504L177.927 22.144Z" fill="white"/>
<path d="M40.2935 19.456L40.4269 19.605L40.5821 19.466L40.4369 19.3166L40.2935 19.456ZM38.6855 20.896L38.5413 21.0346L38.6751 21.1738L38.8189 21.045L38.6855 20.896ZM38.8535 30.28L38.996 30.1397L38.856 29.9975L38.7135 30.1372L38.8535 30.28ZM40.3895 31.84L40.5299 31.9824L40.6723 31.8421L40.532 31.6997L40.3895 31.84ZM34.1015 34.336V34.136C31.5819 34.136 29.4503 33.2479 27.9491 31.7437C26.4478 30.2395 25.5655 28.1078 25.5655 25.6H25.3655H25.1655C25.1655 28.2042 26.0833 30.4405 27.6659 32.0263C29.2487 33.6121 31.4851 34.536 34.1015 34.536V34.336ZM25.3655 25.6H25.5655C25.5655 23.0922 26.4478 20.9605 27.9491 19.4563C29.4503 17.9521 31.5819 17.064 34.1015 17.064V16.864V16.664C31.4851 16.664 29.2487 17.5879 27.6659 19.1737C26.0833 20.7595 25.1655 22.9958 25.1655 25.6H25.3655ZM34.1015 16.864V17.064C36.4486 17.064 38.5325 17.931 40.1501 19.5954L40.2935 19.456L40.4369 19.3166C38.7425 17.573 36.5544 16.664 34.1015 16.664V16.864ZM40.2935 19.456L40.1601 19.307L38.5521 20.747L38.6855 20.896L38.8189 21.045L40.4269 19.605L40.2935 19.456ZM38.6855 20.896L38.8297 20.7574C37.6131 19.4912 36.0236 18.848 34.1735 18.848V19.048V19.248C35.9234 19.248 37.4059 19.8528 38.5413 21.0346L38.6855 20.896ZM34.1735 19.048V18.848C32.2176 18.848 30.5505 19.5316 29.3722 20.7255C28.194 21.9192 27.5175 23.6097 27.5175 25.6H27.7175H27.9175C27.9175 23.7023 28.561 22.1168 29.6568 21.0065C30.7525 19.8964 32.3134 19.248 34.1735 19.248V19.048ZM27.7175 25.6H27.5175C27.5175 27.5903 28.194 29.2808 29.3722 30.4745C30.5505 31.6684 32.2176 32.352 34.1735 32.352V32.152V31.952C32.3134 31.952 30.7525 31.3036 29.6568 30.1935C28.561 29.0832 27.9175 27.4977 27.9175 25.6H27.7175ZM34.1735 32.152V32.352C35.9754 32.352 37.7304 31.6612 38.9935 30.4228L38.8535 30.28L38.7135 30.1372C37.5286 31.2988 35.8756 31.952 34.1735 31.952V32.152ZM38.8535 30.28L38.711 30.4203L40.247 31.9803L40.3895 31.84L40.532 31.6997L38.996 30.1397L38.8535 30.28ZM40.3895 31.84L40.2491 31.6975C38.6325 33.2908 36.5477 34.136 34.1015 34.136V34.336V34.536C36.6473 34.536 38.8345 33.6532 40.5299 31.9824L40.3895 31.84ZM48.2947 34.264V34.064C46.4472 34.064 44.9341 33.416 43.8831 32.3505C42.8314 31.2844 42.2307 29.7885 42.2307 28.072H42.0307H41.8307C41.8307 29.8835 42.466 31.4836 43.5983 32.6315C44.7312 33.78 46.3501 34.464 48.2947 34.464V34.264ZM42.0307 28.072H42.2307C42.2307 26.3555 42.8314 24.8596 43.8831 23.7935C44.9341 22.728 46.4472 22.08 48.2947 22.08V21.88V21.68C46.3501 21.68 44.7312 22.364 43.5983 23.5125C42.466 24.6604 41.8307 26.2605 41.8307 28.072H42.0307ZM48.2947 21.88V22.08C50.1298 22.08 51.6369 22.7277 52.6851 23.7933C53.7339 24.8594 54.3347 26.3555 54.3347 28.072H54.5347H54.7347C54.7347 26.2605 54.0994 24.6606 52.9703 23.5127C51.8405 22.3643 50.2276 21.68 48.2947 21.68V21.88ZM54.5347 28.072H54.3347C54.3347 29.7885 53.7339 31.2846 52.6851 32.3507C51.6369 33.4163 50.1298 34.064 48.2947 34.064V34.264V34.464C50.2276 34.464 51.8405 33.7797 52.9703 32.6313C54.0994 31.4834 54.7347 29.8835 54.7347 28.072H54.5347ZM48.2947 32.2V32.4C50.8422 32.4 52.5027 30.425 52.5027 28.072H52.3027H52.1027C52.1027 30.231 50.5952 32 48.2947 32V32.2ZM52.3027 28.072H52.5027C52.5027 25.719 50.8422 23.744 48.2947 23.744V23.944V24.144C50.5952 24.144 52.1027 25.913 52.1027 28.072H52.3027ZM48.2947 23.944V23.744C45.724 23.744 44.0627 25.7182 44.0627 28.072H44.2627H44.4627C44.4627 25.9138 45.9694 24.144 48.2947 24.144V23.944ZM44.2627 28.072H44.0627C44.0627 30.4258 45.724 32.4 48.2947 32.4V32.2V32C45.9694 32 44.4627 30.2302 44.4627 28.072H44.2627ZM68.7579 34V34.2H68.9579V34H68.7579ZM66.5259 34H66.3259V34.2H66.5259V34ZM59.6619 34V34.2H59.8619V34H59.6619ZM57.4299 34H57.2299V34.2H57.4299V34ZM57.4299 22.144V21.944H57.2299V22.144H57.4299ZM59.4219 22.144L59.6219 22.1411L59.619 21.944H59.4219V22.144ZM59.4459 23.8L59.2459 23.8029L59.2538 24.3479L59.6003 23.9271L59.4459 23.8ZM63.6699 21.928V22.128C65.1575 22.128 66.374 22.6439 67.2195 23.5523C68.0663 24.462 68.5579 25.7838 68.5579 27.424H68.7579H68.9579C68.9579 25.7042 68.4414 24.278 67.5123 23.2797C66.5818 22.2801 65.2542 21.728 63.6699 21.728V21.928ZM68.7579 27.424H68.5579V34H68.7579H68.9579V27.424H68.7579ZM68.7579 34V33.8H66.5259V34V34.2H68.7579V34ZM66.5259 34H66.7259V27.568H66.5259H66.3259V34H66.5259ZM66.5259 27.568H66.7259C66.7259 26.3956 66.4234 25.4481 65.8348 24.7915C65.2434 24.1318 64.3864 23.792 63.3339 23.792V23.992V24.192C64.2973 24.192 65.0364 24.5002 65.537 25.0585C66.0403 25.6199 66.3259 26.4604 66.3259 27.568H66.5259ZM63.3339 23.992V23.792C61.0608 23.792 59.4619 25.4442 59.4619 27.688H59.6619H59.8619C59.8619 25.6598 61.2869 24.192 63.3339 24.192V23.992ZM59.6619 27.688H59.4619V34H59.6619H59.8619V27.688H59.6619ZM59.6619 34V33.8H57.4299V34V34.2H59.6619V34ZM57.4299 34H57.6299V22.144H57.4299H57.2299V34H57.4299ZM57.4299 22.144V22.344H59.4219V22.144V21.944H57.4299V22.144ZM59.4219 22.144L59.2219 22.1469L59.2459 23.8029L59.4459 23.8L59.6459 23.7971L59.6219 22.1411L59.4219 22.144ZM59.4459 23.8L59.6003 23.9271C60.5656 22.7549 61.9939 22.128 63.6699 22.128V21.928V21.728C61.8898 21.728 60.3421 22.3971 59.2915 23.6729L59.4459 23.8ZM83.6229 34V34.2H83.8229V34H83.6229ZM81.3909 34H81.1909V34.2H81.3909V34ZM74.5269 34V34.2H74.7269V34H74.5269ZM72.2949 34H72.0949V34.2H72.2949V34ZM72.2949 22.144V21.944H72.0949V22.144H72.2949ZM74.2869 22.144L74.4869 22.1411L74.484 21.944H74.2869V22.144ZM74.3109 23.8L74.1109 23.8029L74.1188 24.3479L74.4653 23.9271L74.3109 23.8ZM78.5349 21.928V22.128C80.0225 22.128 81.239 22.6439 82.0845 23.5523C82.9313 24.462 83.4229 25.7838 83.4229 27.424H83.6229H83.8229C83.8229 25.7042 83.3064 24.278 82.3773 23.2797C81.4468 22.2801 80.1192 21.728 78.5349 21.728V21.928ZM83.6229 27.424H83.4229V34H83.6229H83.8229V27.424H83.6229ZM83.6229 34V33.8H81.3909V34V34.2H83.6229V34ZM81.3909 34H81.5909V27.568H81.3909H81.1909V34H81.3909ZM81.3909 27.568H81.5909C81.5909 26.3956 81.2884 25.4481 80.6998 24.7915C80.1084 24.1318 79.2514 23.792 78.1989 23.792V23.992V24.192C79.1623 24.192 79.9014 24.5002 80.402 25.0585C80.9053 25.6199 81.1909 26.4604 81.1909 27.568H81.3909ZM78.1989 23.992V23.792C75.9258 23.792 74.3269 25.4442 74.3269 27.688H74.5269H74.7269C74.7269 25.6598 76.1519 24.192 78.1989 24.192V23.992ZM74.5269 27.688H74.3269V34H74.5269H74.7269V27.688H74.5269ZM74.5269 34V33.8H72.2949V34V34.2H74.5269V34ZM72.2949 34H72.4949V22.144H72.2949H72.0949V34H72.2949ZM72.2949 22.144V22.344H74.2869V22.144V21.944H72.2949V22.144ZM74.2869 22.144L74.0869 22.1469L74.1109 23.8029L74.3109 23.8L74.5109 23.7971L74.4869 22.1411L74.2869 22.144ZM74.3109 23.8L74.4653 23.9271C75.4306 22.7549 76.8589 22.128 78.5349 22.128V21.928V21.728C76.7548 21.728 75.2071 22.3971 74.1565 23.6729L74.3109 23.8ZM98.4879 28.96V29.16H98.6731L98.6873 28.9753L98.4879 28.96ZM88.6719 28.96V28.76H88.4496L88.473 28.9811L88.6719 28.96ZM96.3279 30.856L96.4656 30.711L96.3104 30.5636L96.1739 30.7284L96.3279 30.856ZM97.7679 32.224L97.9187 32.3553L98.0444 32.2109L97.9056 32.079L97.7679 32.224ZM88.6959 27.064L88.4991 27.0284L88.4565 27.264H88.6959V27.064ZM96.3759 27.064V27.264H96.5969L96.5749 27.0441L96.3759 27.064ZM92.4399 21.904V22.104C94.4349 22.104 95.9699 22.7597 96.968 23.9242C97.9681 25.0909 98.4537 26.7971 98.2885 28.9447L98.4879 28.96L98.6873 28.9753C98.8581 26.7549 98.3597 24.9331 97.2717 23.6638C96.1818 22.3923 94.5249 21.704 92.4399 21.704V21.904ZM98.4879 28.96V28.76H88.6719V28.96V29.16H98.4879V28.96ZM88.6719 28.96L88.473 28.9811C88.5861 30.0496 89.0537 30.9216 89.8002 31.5246C90.5447 32.1259 91.5519 32.448 92.7279 32.448V32.248V32.048C91.6238 32.048 90.711 31.7461 90.0515 31.2134C89.3941 30.6824 88.9736 29.9104 88.8708 28.9389L88.6719 28.96ZM92.7279 32.248V32.448C94.2043 32.448 95.7353 31.8847 96.4819 30.9836L96.3279 30.856L96.1739 30.7284C95.5285 31.5073 94.1315 32.048 92.7279 32.048V32.248ZM96.3279 30.856L96.1901 31.001L97.6301 32.369L97.7679 32.224L97.9056 32.079L96.4656 30.711L96.3279 30.856ZM97.7679 32.224L97.617 32.0927C96.5339 33.3371 94.6734 34.112 92.6799 34.112V34.312V34.512C94.7663 34.512 96.7459 33.7029 97.9187 32.3553L97.7679 32.224ZM92.6799 34.312V34.112C90.8158 34.112 89.2913 33.509 88.2335 32.4628C87.176 31.4168 86.5679 29.9108 86.5679 28.072H86.3679H86.1679C86.1679 30.0012 86.8078 31.6152 87.9522 32.7472C89.0965 33.879 90.728 34.512 92.6799 34.512V34.312ZM86.3679 28.072H86.5679C86.5679 26.2935 87.1639 24.804 88.1877 23.76C89.2111 22.7164 90.6757 22.104 92.4399 22.104V21.904V21.704C90.58 21.704 89.0086 22.3516 87.9021 23.48C86.7959 24.608 86.1679 26.2025 86.1679 28.072H86.3679ZM92.5119 23.896V23.696C91.4296 23.696 90.5176 24.0014 89.8274 24.5797C89.1374 25.1579 88.6858 25.995 88.4991 27.0284L88.6959 27.064L88.8927 27.0996C89.0659 26.141 89.4783 25.3941 90.0843 24.8863C90.6902 24.3786 91.5062 24.096 92.5119 24.096V23.896ZM88.6959 27.064V27.264H96.3759V27.064V26.864H88.6959V27.064ZM96.3759 27.064L96.5749 27.0441C96.4741 26.0361 96.0372 25.1942 95.3275 24.606C94.6192 24.0189 93.6534 23.696 92.5119 23.696V23.896V24.096C93.5784 24.096 94.4486 24.3971 95.0723 24.914C95.6945 25.4298 96.0857 26.1719 96.1769 27.0839L96.3759 27.064ZM111.21 23.704L111.356 23.8406L111.491 23.6966L111.348 23.5599L111.21 23.704ZM109.818 25.192L109.674 25.3313L109.82 25.4819L109.964 25.3286L109.818 25.192ZM109.938 30.88L110.086 30.7457L109.941 30.5854L109.792 30.7428L109.938 30.88ZM111.33 32.416L111.47 32.5587L111.607 32.4241L111.478 32.2817L111.33 32.416ZM106.794 34.264V34.064C104.979 34.064 103.466 33.4617 102.407 32.4204C101.349 31.3794 100.73 29.885 100.73 28.072H100.53H100.33C100.33 29.979 100.983 31.5806 102.126 32.7056C103.27 33.8303 104.889 34.464 106.794 34.464V34.264ZM100.53 28.072H100.73C100.73 26.284 101.354 24.789 102.413 23.7412C103.473 22.6932 104.981 22.08 106.77 22.08V21.88V21.68C104.887 21.68 103.275 22.3268 102.132 23.4568C100.989 24.587 100.33 26.188 100.33 28.072H100.53ZM106.77 21.88V22.08C108.42 22.08 109.835 22.6587 111.071 23.8481L111.21 23.704L111.348 23.5599C110.041 22.3013 108.527 21.68 106.77 21.68V21.88ZM111.21 23.704L111.064 23.5674L109.672 25.0554L109.818 25.192L109.964 25.3286L111.356 23.8406L111.21 23.704ZM109.818 25.192L109.961 25.0527C109.129 24.1955 107.996 23.744 106.794 23.744V23.944V24.144C107.895 24.144 108.922 24.5565 109.674 25.3313L109.818 25.192ZM106.794 23.944V23.744C105.581 23.744 104.52 24.1761 103.763 24.9402C103.005 25.7044 102.562 26.7888 102.562 28.072H102.762H102.962C102.962 26.8832 103.371 25.9036 104.047 25.2218C104.723 24.5399 105.678 24.144 106.794 24.144V23.944ZM102.762 28.072H102.562C102.562 29.3544 102.998 30.4389 103.753 31.2035C104.509 31.9682 105.57 32.4 106.794 32.4V32.2V32C105.666 32 104.711 31.6038 104.038 30.9225C103.365 30.2411 102.962 29.2616 102.962 28.072H102.762ZM106.794 32.2V32.4C108.07 32.4 109.252 31.8991 110.083 31.0172L109.938 30.88L109.792 30.7428C109.04 31.5409 107.965 32 106.794 32V32.2ZM109.938 30.88L109.79 31.0143L111.182 32.5503L111.33 32.416L111.478 32.2817L110.086 30.7457L109.938 30.88ZM111.33 32.416L111.19 32.2733C109.932 33.508 108.542 34.064 106.794 34.064V34.264V34.464C108.645 34.464 110.136 33.868 111.47 32.5587L111.33 32.416ZM120.897 31.768L121.085 31.7018L121.015 31.4999L120.818 31.5842L120.897 31.768ZM121.545 33.616L121.626 33.7988L121.795 33.7239L121.733 33.5498L121.545 33.616ZM115.281 24.088H115.481V23.888H115.281V24.088ZM112.953 24.088H112.753V24.288H112.953V24.088ZM112.953 22.144V21.944H112.753V22.144H112.953ZM115.281 22.144V22.344H115.481V22.144H115.281ZM115.281 18.952L115.259 18.7532L115.081 18.7726V18.952H115.281ZM117.489 18.712H117.689V18.4891L117.467 18.5132L117.489 18.712ZM117.489 22.144H117.289V22.344H117.489V22.144ZM121.089 22.144H121.289V21.944H121.089V22.144ZM121.089 24.088V24.288H121.289V24.088H121.089ZM117.489 24.088V23.888H117.289V24.088H117.489ZM120.897 31.768L120.708 31.8342L121.356 33.6822L121.545 33.616L121.733 33.5498L121.085 31.7018L120.897 31.768ZM121.545 33.616L121.464 33.4332C120.623 33.8066 119.883 33.968 119.025 33.968V34.168V34.368C119.942 34.368 120.738 34.1934 121.626 33.7988L121.545 33.616ZM119.025 34.168V33.968C117.815 33.968 116.941 33.6203 116.365 32.9812C115.787 32.3383 115.481 31.3682 115.481 30.064H115.281H115.081C115.081 31.4238 115.399 32.5057 116.068 33.2488C116.741 33.9957 117.738 34.368 119.025 34.368V34.168ZM115.281 30.064H115.481V24.088H115.281H115.081V30.064H115.281ZM115.281 24.088V23.888H112.953V24.088V24.288H115.281V24.088ZM112.953 24.088H113.153V22.144H112.953H112.753V24.088H112.953ZM112.953 22.144V22.344H115.281V22.144V21.944H112.953V22.144ZM115.281 22.144H115.481V18.952H115.281H115.081V22.144H115.281ZM115.281 18.952L115.302 19.1508L117.51 18.9108L117.489 18.712L117.467 18.5132L115.259 18.7532L115.281 18.952ZM117.489 18.712H117.289V22.144H117.489H117.689V18.712H117.489ZM117.489 22.144V22.344H121.089V22.144V21.944H117.489V22.144ZM121.089 22.144H120.889V24.088H121.089H121.289V22.144H121.089ZM121.089 24.088V23.888H117.489V24.088V24.288H121.089V24.088ZM117.489 24.088H117.289V30.064H117.489H117.689V24.088H117.489ZM117.489 30.064H117.289C117.289 30.7434 117.417 31.3199 117.747 31.7286C118.084 32.146 118.6 32.352 119.289 32.352V32.152V31.952C118.682 31.952 118.298 31.774 118.058 31.4774C117.812 31.1721 117.689 30.7046 117.689 30.064H117.489ZM119.289 32.152V32.352C119.83 32.352 120.458 32.1735 120.976 31.9518L120.897 31.768L120.818 31.5842C120.327 31.7945 119.755 31.952 119.289 31.952V32.152ZM142.383 17.2V17H142.183V17.2H142.383ZM144.711 17.2H144.911V17H144.711V17.2ZM144.711 34V34.2H144.911V34H144.711ZM142.575 34L142.415 34.1203L142.475 34.2H142.575V34ZM132.927 21.184L133.087 21.0637L132.727 20.5858V21.184H132.927ZM132.927 34V34.2H133.127V34H132.927ZM130.599 34H130.399V34.2H130.599V34ZM130.599 17.2V17H130.399V17.2H130.599ZM132.735 17.2L132.894 17.0796L132.834 17H132.735V17.2ZM142.383 29.992L142.223 30.1124L142.583 30.5893V29.992H142.383ZM142.383 17.2V17.4H144.711V17.2V17H142.383V17.2ZM144.711 17.2H144.511V34H144.711H144.911V17.2H144.711ZM144.711 34V33.8H142.575V34V34.2H144.711V34ZM142.575 34L142.735 33.8797L133.087 21.0637L132.927 21.184L132.767 21.3043L142.415 34.1203L142.575 34ZM132.927 21.184H132.727V34H132.927H133.127V21.184H132.927ZM132.927 34V33.8H130.599V34V34.2H132.927V34ZM130.599 34H130.799V17.2H130.599H130.399V34H130.599ZM130.599 17.2V17.4H132.735V17.2V17H130.599V17.2ZM132.735 17.2L132.575 17.3204L142.223 30.1124L142.383 29.992L142.542 29.8716L132.894 17.0796L132.735 17.2ZM142.383 29.992H142.583V17.2H142.383H142.183V29.992H142.383ZM154.019 34.264V34.064C152.172 34.064 150.659 33.416 149.608 32.3505C148.556 31.2844 147.955 29.7885 147.955 28.072H147.755H147.555C147.555 29.8835 148.191 31.4836 149.323 32.6315C150.456 33.78 152.075 34.464 154.019 34.464V34.264ZM147.755 28.072H147.955C147.955 26.3555 148.556 24.8596 149.608 23.7935C150.659 22.728 152.172 22.08 154.019 22.08V21.88V21.68C152.075 21.68 150.456 22.364 149.323 23.5125C148.191 24.6604 147.555 26.2605 147.555 28.072H147.755ZM154.019 21.88V22.08C155.854 22.08 157.362 22.7277 158.41 23.7933C159.459 24.8594 160.059 26.3555 160.059 28.072H160.259H160.459C160.459 26.2605 159.824 24.6606 158.695 23.5127C157.565 22.3643 155.952 21.68 154.019 21.68V21.88ZM160.259 28.072H160.059C160.059 29.7885 159.459 31.2846 158.41 32.3507C157.362 33.4163 155.854 34.064 154.019 34.064V34.264V34.464C155.952 34.464 157.565 33.7797 158.695 32.6313C159.824 31.4834 160.459 29.8835 160.459 28.072H160.259ZM154.019 32.2V32.4C156.567 32.4 158.227 30.425 158.227 28.072H158.027H157.827C157.827 30.231 156.32 32 154.019 32V32.2ZM158.027 28.072H158.227C158.227 25.719 156.567 23.744 154.019 23.744V23.944V24.144C156.32 24.144 157.827 25.913 157.827 28.072H158.027ZM154.019 23.944V23.744C151.449 23.744 149.787 25.7182 149.787 28.072H149.987H150.187C150.187 25.9138 151.694 24.144 154.019 24.144V23.944ZM149.987 28.072H149.787C149.787 30.4258 151.449 32.4 154.019 32.4V32.2V32C151.694 32 150.187 30.2302 150.187 28.072H149.987ZM177.927 22.144V21.944H177.78L177.736 22.0847L177.927 22.144ZM180.279 22.144L180.469 22.2074L180.557 21.944H180.279V22.144ZM176.319 34V34.2H176.463L176.509 34.0634L176.319 34ZM173.871 34L173.681 34.0632L173.727 34.2H173.871V34ZM172.719 30.544L172.909 30.4807L172.907 30.4763L172.719 30.544ZM170.847 25.336L171.035 25.2683L170.847 24.7447L170.659 25.2683L170.847 25.336ZM168.975 30.544L168.787 30.4763L168.786 30.4796L168.975 30.544ZM167.799 34V34.2H167.942L167.988 34.0644L167.799 34ZM165.351 34L165.161 34.0637L165.207 34.2H165.351V34ZM161.367 22.144V21.944H161.089L161.177 22.2077L161.367 22.144ZM163.743 22.144L163.934 22.0838L163.89 21.944H163.743V22.144ZM165.183 26.704L165.375 26.6466L165.374 26.6438L165.183 26.704ZM166.599 31.432L166.407 31.4894L166.584 32.0807L166.788 31.4979L166.599 31.432ZM169.839 22.144V21.944H169.697L169.65 22.0781L169.839 22.144ZM171.831 22.144L172.02 22.0794L171.974 21.944H171.831V22.144ZM175.023 31.504L174.834 31.5686L175.032 32.15L175.214 31.5633L175.023 31.504ZM177.927 22.144V22.344H180.279V22.144V21.944H177.927V22.144ZM180.279 22.144L180.089 22.0806L176.129 33.9366L176.319 34L176.509 34.0634L180.469 22.2074L180.279 22.144ZM176.319 34V33.8H173.871V34V34.2H176.319V34ZM173.871 34L174.061 33.9368L172.909 30.4808L172.719 30.544L172.529 30.6072L173.681 34.0632L173.871 34ZM172.719 30.544L172.907 30.4763L171.035 25.2683L170.847 25.336L170.659 25.4037L172.531 30.6117L172.719 30.544ZM170.847 25.336L170.659 25.2683L168.787 30.4763L168.975 30.544L169.163 30.6117L171.035 25.4037L170.847 25.336ZM168.975 30.544L168.786 30.4796L167.61 33.9356L167.799 34L167.988 34.0644L169.164 30.6084L168.975 30.544ZM167.799 34V33.8H165.351V34V34.2H167.799V34ZM165.351 34L165.541 33.9363L161.557 22.0803L161.367 22.144L161.177 22.2077L165.161 34.0637L165.351 34ZM161.367 22.144V22.344H163.743V22.144V21.944H161.367V22.144ZM163.743 22.144L163.552 22.2042L164.992 26.7642L165.183 26.704L165.374 26.6438L163.934 22.0838L163.743 22.144ZM165.183 26.704L164.991 26.7614L166.407 31.4894L166.599 31.432L166.791 31.3746L165.375 26.6466L165.183 26.704ZM166.599 31.432L166.788 31.4979L170.028 22.2099L169.839 22.144L169.65 22.0781L166.41 31.3661L166.599 31.432ZM169.839 22.144V22.344H171.831V22.144V21.944H169.839V22.144ZM171.831 22.144L171.642 22.2086L174.834 31.5686L175.023 31.504L175.212 31.4394L172.02 22.0794L171.831 22.144ZM175.023 31.504L175.214 31.5633L178.118 22.2033L177.927 22.144L177.736 22.0847L174.832 31.4447L175.023 31.504Z" fill="white" mask="url(#path-2-outside-1_2211_666)"/>
<path d="M205 36V52H189L205 36Z" fill="black"/>
</svg>
