<svg preserveAspectRatio="none" width="100%" height="100%" overflow="visible" style="display: block;" viewBox="0 0 373 72" fill="none" xmlns="http://www.w3.org/2000/svg">
<g id="Subtract">
<mask id="path-1-inside-1_0_28" fill="white">
<path d="M369 0C371.209 5.70165e-06 373 1.79086 373 4V50.7363L354.219 72H4C1.79087 72 1.61067e-08 70.2091 0 68V4C1.03083e-06 1.79086 1.79086 6.94589e-08 4 0H369Z"/>
</mask>
<path d="M369 0V-2V-2V0ZM373 4H375H373ZM373 50.7363L374.499 52.0603L375 51.4931V50.7363H373ZM354.219 72V74H355.121L355.718 73.324L354.219 72ZM4 72L3.99999 74H4V72ZM0 68H-2H0ZM0 4L-2 4V4H0ZM4 0V-2V-2V0ZM369 0V2C370.105 2 371 2.89544 371 4H373H375C375 0.68629 372.314 -1.99999 369 -2V0ZM373 4H371V50.7363H373H375V4H373ZM373 50.7363L371.501 49.4123L352.72 70.676L354.219 72L355.718 73.324L374.499 52.0603L373 50.7363ZM354.219 72V70H4V72V74H354.219V72ZM4 72L4.00001 70C2.89543 70 2 69.1046 2 68H0H-2C-2 71.3137 0.6863 74 3.99999 74L4 72ZM0 68H2V4H0H-2V68H0ZM0 4L2 4C2 2.89543 2.89543 2 4 2V0V-2C0.686291 -2 -2 0.686293 -2 4L0 4ZM4 0V2H369V0V-2H4V0Z" fill="var(--stroke-0, white)" mask="url(#path-1-inside-1_0_28)"/>
</g>
</svg>
