<svg width="1920" height="1140" viewBox="0 0 1920 1140" fill="none" xmlns="http://www.w3.org/2000/svg">
<rect width="1920" height="695" transform="translate(0 116)" fill="black"/>
<g opacity="0.6">
<path d="M-10 235.832H-61V285.729M-10 235.832V285.729M-10 235.832H41M-10 285.729H-61M-10 285.729H41M-10 285.729V335.626M-61 285.729V335.626M41 235.832V285.729M41 235.832H92M41 285.729H92M41 285.729V335.626M92 235.832V285.729M92 235.832H143M92 285.729H143M92 285.729V335.626M143 235.832V285.729M143 235.832H194M143 285.729H194M143 285.729V335.626M194 235.832V285.729M194 235.832H245M194 285.729H245M194 285.729V335.626M245 235.832V285.729M245 235.832H296M245 285.729H296M245 285.729V335.626M296 235.832V285.729M296 235.832H347M296 285.729H347M296 285.729V335.626M347 235.832V285.729M347 235.832H398M347 285.729H398M347 285.729V335.626M398 235.832V285.729M398 235.832H449M398 285.729H449M398 285.729V335.626M449 235.832V285.729M449 235.832H500M449 285.729H500M449 285.729V335.626M500 235.832V285.729M500 235.832H551M500 285.729H551M500 285.729V335.626M551 235.832V285.729M551 235.832H602M551 285.729H602M551 285.729V335.626M602 235.832V285.729M602 235.832H653M602 285.729H653M602 285.729V335.626M653 235.832V285.729M653 235.832H704M653 285.729H704M653 285.729V335.626M704 235.832V285.729M704 235.832H755M704 285.729H755M704 285.729V335.626M755 235.832V285.729M755 235.832H806V285.729M755 285.729H806M755 285.729V335.626M806 285.729V335.626M-10 335.626H-61M-10 335.626H41M-10 335.626V385.523M-61 335.626V385.523M41 335.626H92M41 335.626V385.523M92 335.626H143M92 335.626V385.523M143 335.626H194M143 335.626V385.523M194 335.626H245M194 335.626V385.523M245 335.626H296M245 335.626V385.523M296 335.626H347M296 335.626V385.523M347 335.626H398M347 335.626V385.523M398 335.626H449M398 335.626V385.523M449 335.626H500M449 335.626V385.523M500 335.626H551M500 335.626V385.523M551 335.626H602M551 335.626V385.523M602 335.626H653M602 335.626V385.523M653 335.626H704M653 335.626V385.523M704 335.626H755M704 335.626V385.523M755 335.626H806M755 335.626V385.523M806 335.626V385.523M-10 385.523H-61M-10 385.523H41M-10 385.523V435.42M-61 385.523V435.42M41 385.523H92M41 385.523V435.42M92 385.523H143M92 385.523V435.42M143 385.523H194M143 385.523V435.42M194 385.523H245M194 385.523V435.42M245 385.523H296M245 385.523V435.42M296 385.523H347M296 385.523V435.42M347 385.523H398M347 385.523V435.42M398 385.523H449M398 385.523V435.42M449 385.523H500M449 385.523V435.42M500 385.523H551M500 385.523V435.42M551 385.523H602M551 385.523V435.42M602 385.523H653M602 385.523V435.42M653 385.523H704M653 385.523V435.42M704 385.523H755M704 385.523V435.42M755 385.523H806M755 385.523V435.42M806 385.523V435.42M-10 435.42H-61M-10 435.42H41M-10 435.42V485.316M-61 435.42V485.316M41 435.42H92M41 435.42V485.316M92 435.42H143M92 435.42V485.316M143 435.42H194M143 435.42V485.316M194 435.42H245M194 435.42V485.316M245 435.42H296M245 435.42V485.316M296 435.42H347M296 435.42V485.316M347 435.42H398M347 435.42V485.316M398 435.42H449M398 435.42V485.316M449 435.42H500M449 435.42V485.316M500 435.42H551M500 435.42V485.316M551 435.42H602M551 435.42V485.316M602 435.42H653M602 435.42V485.316M653 435.42H704M653 435.42V485.316M704 435.42H755M704 435.42V485.316M755 435.42H806M755 435.42V485.316M806 435.42V485.316M-10 485.316H-61M-10 485.316H41M-10 485.316V535.213M-61 485.316V535.213M41 485.316H92M41 485.316V535.213M92 485.316H143M92 485.316V535.213M143 485.316H194M143 485.316V535.213M194 485.316H245M194 485.316V535.213M245 485.316H296M245 485.316V535.213M296 485.316H347M296 485.316V535.213M347 485.316H398M347 485.316V535.213M398 485.316H449M398 485.316V535.213M449 485.316H500M449 485.316V535.213M500 485.316H551M500 485.316V535.213M551 485.316H602M551 485.316V535.213M602 485.316H653M602 485.316V535.213M653 485.316H704M653 485.316V535.213M704 485.316H755M704 485.316V535.213M755 485.316H806M755 485.316V535.213M806 485.316V535.213M-10 535.213H-61M-10 535.213H41M-10 535.213V585.11M-61 535.213V585.11M41 535.213H92M41 535.213V585.11M92 535.213H143M92 535.213V585.11M143 535.213H194M143 535.213V585.11M194 535.213H245M194 535.213V585.11M245 535.213H296M245 535.213V585.11M296 535.213H347M296 535.213V585.11M347 535.213H398M347 535.213V585.11M398 535.213H449M398 535.213V585.11M449 535.213H500M449 535.213V585.11M500 535.213H551M500 535.213V585.11M551 535.213H602M551 535.213V585.11M602 535.213H653M602 535.213V585.11M653 535.213H704M653 535.213V585.11M704 535.213H755M704 535.213V585.11M755 535.213H806M755 535.213V585.11M806 535.213V585.11M-10 585.11H-61M-10 585.11H41M-10 585.11V635.007M-61 585.11V635.007M41 585.11H92M41 585.11V635.007M92 585.11H143M92 585.11V635.007M143 585.11H194M143 585.11V635.007M194 585.11H245M194 585.11V635.007M245 585.11H296M245 585.11V635.007M296 585.11H347M296 585.11V635.007M347 585.11H398M347 585.11V635.007M398 585.11H449M398 585.11V635.007M449 585.11H500M449 585.11V635.007M500 585.11H551M500 585.11V635.007M551 585.11H602M551 585.11V635.007M602 585.11H653M602 585.11V635.007M653 585.11H704M653 585.11V635.007M704 585.11H755M704 585.11V635.007M755 585.11H806M755 585.11V635.007M806 585.11V635.007M-10 635.007H-61M-10 635.007H41M-10 635.007V684.904M-61 635.007V684.904M41 635.007H92M41 635.007V684.904M92 635.007H143M92 635.007V684.904M143 635.007H194M143 635.007V684.904M194 635.007H245M194 635.007V684.904M245 635.007H296M245 635.007V684.904M296 635.007H347M296 635.007V684.904M347 635.007H398M347 635.007V684.904M398 635.007H449M398 635.007V684.904M449 635.007H500M449 635.007V684.904M500 635.007H551M500 635.007V684.904M551 635.007H602M551 635.007V684.904M602 635.007H653M602 635.007V684.904M653 635.007H704M653 635.007V684.904M704 635.007H755M704 635.007V684.904M755 635.007H806M755 635.007V684.904M806 635.007V684.904M-10 684.904H-61M-10 684.904H41M-10 684.904V734.801M-61 684.904V734.801M41 684.904H92M41 684.904V734.801M92 684.904H143M92 684.904V734.801M143 684.904H194M143 684.904V734.801M194 684.904H245M194 684.904V734.801M245 684.904H296M245 684.904V734.801M296 684.904H347M296 684.904V734.801M347 684.904H398M347 684.904V734.801M398 684.904H449M398 684.904V734.801M449 684.904H500M449 684.904V734.801M500 684.904H551M500 684.904V734.801M551 684.904H602M551 684.904V734.801M602 684.904H653M602 684.904V734.801M653 684.904H704M653 684.904V734.801M704 684.904H755M704 684.904V734.801M755 684.904H806M755 684.904V734.801M806 684.904V734.801M-10 734.801H-61M-10 734.801H41M-10 734.801V784.698M-61 734.801V784.698M41 734.801H92M41 734.801V784.698M92 734.801H143M92 734.801V784.698M143 734.801H194M143 734.801V784.698M194 734.801H245M194 734.801V784.698M245 734.801H296M245 734.801V784.698M296 734.801H347M296 734.801V784.698M347 734.801H398M347 734.801V784.698M398 734.801H449M398 734.801V784.698M449 734.801H500M449 734.801V784.698M500 734.801H551M500 734.801V784.698M551 734.801H602M551 734.801V784.698M602 734.801H653M602 734.801V784.698M653 734.801H704M653 734.801V784.698M704 734.801H755M704 734.801V784.698M755 734.801H806M755 734.801V784.698M806 734.801V784.698M-10 784.698H-61M-10 784.698H41M-10 784.698V834.594M-61 784.698V834.594H-10M41 784.698H92M41 784.698V834.594M92 784.698H143M92 784.698V834.594M143 784.698H194M143 784.698V834.594M194 784.698H245M194 784.698V834.594M245 784.698H296M245 784.698V834.594M296 784.698H347M296 784.698V834.594M347 784.698H398M347 784.698V834.594M398 784.698H449M398 784.698V834.594M449 784.698H500M449 784.698V834.594M500 784.698H551M500 784.698V834.594M551 784.698H602M551 784.698V834.594M602 784.698H653M602 784.698V834.594M653 784.698H704M653 784.698V834.594M704 784.698H755M704 784.698V834.594M755 784.698H806M755 784.698V834.594M806 784.698V834.594H755M-10 834.594H41M41 834.594H92M92 834.594H143M143 834.594H194M194 834.594H245M245 834.594H296M296 834.594H347M347 834.594H398M398 834.594H449M449 834.594H500M500 834.594H551M551 834.594H602M602 834.594H653M653 834.594H704M704 834.594H755" stroke="url(#paint0_radial_1736_1972)" style="mix-blend-mode:luminosity" stroke-width="1.27648"/>
</g>
<g opacity="0.2" filter="url(#filter0_f_1736_1972)">
<circle cx="352.908" cy="548.907" r="291.97" transform="rotate(-45 352.908 548.907)" fill="#4DD6C4"/>
</g>
<path d="M200.696 445.288C196.136 445.288 192.248 441.376 192.248 436.744C192.248 432.112 196.136 428.224 200.696 428.224C202.976 428.224 205.088 429.184 206.624 430.744L205.352 432.04C204.152 430.768 202.496 429.952 200.696 429.952C197.144 429.952 194.144 433.072 194.144 436.744C194.144 440.44 197.144 443.56 200.696 443.56C202.496 443.56 204.152 442.744 205.352 441.472L206.624 442.768C205.088 444.304 202.976 445.288 200.696 445.288ZM222.625 445L220.969 441.256H211.777L210.121 445H208.081L215.353 428.512H217.393L224.665 445H222.625ZM212.545 439.48H220.201L216.385 430.816L212.545 439.48ZM233.038 445.264C230.326 445.264 228.19 444.28 226.534 442.648L227.71 441.184C229.102 442.576 230.806 443.56 233.11 443.56C235.654 443.56 236.95 442.168 236.95 440.68C236.95 438.928 235.39 438.232 232.51 437.56C229.198 436.792 227.11 435.76 227.11 432.904C227.11 430.264 229.462 428.2 232.63 428.2C235.078 428.2 236.902 429.16 238.414 430.552L237.262 432.016C235.894 430.696 234.262 429.904 232.534 429.904C230.494 429.904 229.006 431.248 229.006 432.76C229.006 434.464 230.638 435.064 233.446 435.736C236.59 436.48 238.846 437.608 238.846 440.512C238.846 443.128 236.878 445.264 233.038 445.264ZM253.876 430.288H243.94V435.712H252.892V437.488H243.94V443.224H253.876V445H242.044V428.512H253.876V430.288ZM269.764 445.264C267.052 445.264 264.916 444.28 263.26 442.648L264.436 441.184C265.828 442.576 267.532 443.56 269.836 443.56C272.38 443.56 273.676 442.168 273.676 440.68C273.676 438.928 272.116 438.232 269.236 437.56C265.924 436.792 263.836 435.76 263.836 432.904C263.836 430.264 266.188 428.2 269.356 428.2C271.804 428.2 273.628 429.16 275.14 430.552L273.988 432.016C272.62 430.696 270.988 429.904 269.26 429.904C267.22 429.904 265.732 431.248 265.732 432.76C265.732 434.464 267.364 435.064 270.172 435.736C273.316 436.48 275.572 437.608 275.572 440.512C275.572 443.128 273.604 445.264 269.764 445.264ZM283.499 445V430.288H277.955V428.512H290.915V430.288H285.371V445H283.499ZM300.944 445.288C296.912 445.288 294.056 442.336 294.056 438.16V428.512H295.928V438.16C295.928 441.328 298.016 443.584 300.944 443.584C303.872 443.584 305.96 441.328 305.96 438.16V428.512H307.832V438.16C307.832 442.336 304.976 445.288 300.944 445.288ZM312.154 445V428.512H317.722C322.954 428.512 326.65 431.92 326.65 436.744C326.65 441.568 322.954 445 317.722 445H312.154ZM314.026 443.296H317.722C321.85 443.296 324.754 440.584 324.754 436.744C324.754 432.928 321.85 430.216 317.722 430.216H314.026V443.296ZM335.26 445V438.28L328.612 428.512H330.94L336.244 436.504L341.596 428.512H343.852L337.228 438.28V445H335.26Z" fill="#4DD6C4"/>
<path d="M220.7 503.56C224.21 504.748 226.856 508.528 226.856 512.632C226.856 519.274 222.05 523 213.518 523H195.86V485.2H213.518C221.024 485.2 225.614 488.926 225.614 495.136C225.614 498.97 223.778 501.994 220.7 503.56ZM213.734 490.006H201.098V501.238H213.734C217.946 501.238 220.484 499.186 220.484 495.676C220.484 492.112 217.892 490.006 213.734 490.006ZM214.166 518.14C218.756 518.14 221.618 515.818 221.618 511.984C221.618 508.204 218.81 505.936 214.166 505.936H201.098V518.14H214.166ZM245.432 523.594C236.9 523.594 231.338 517.6 231.338 509.662C231.338 501.724 236.9 495.73 245.432 495.73C253.91 495.73 259.472 501.724 259.472 509.662C259.472 517.6 253.91 523.594 245.432 523.594ZM245.432 518.95C250.886 518.95 254.45 514.738 254.45 509.662C254.45 504.586 250.886 500.374 245.432 500.374C239.924 500.374 236.36 504.586 236.36 509.662C236.36 514.738 239.924 518.95 245.432 518.95ZM277.759 523.594C269.227 523.594 263.665 517.6 263.665 509.662C263.665 501.724 269.227 495.73 277.759 495.73C286.237 495.73 291.799 501.724 291.799 509.662C291.799 517.6 286.237 523.594 277.759 523.594ZM277.759 518.95C283.213 518.95 286.777 514.738 286.777 509.662C286.777 504.586 283.213 500.374 277.759 500.374C272.251 500.374 268.687 504.586 268.687 509.662C268.687 514.738 272.251 518.95 277.759 518.95ZM307.445 523.594C302.909 523.594 298.913 522.19 295.457 519.49L297.995 515.764C300.317 517.816 303.827 519.058 307.553 519.058C311.387 519.058 313.763 517.708 313.763 515.44C313.763 513.28 311.873 512.254 307.067 511.66C299.885 510.796 296.321 508.15 296.321 503.668C296.321 498.916 300.857 495.73 307.661 495.73C311.711 495.73 315.113 496.756 318.137 498.916L315.815 502.588C313.385 500.86 310.793 500.104 307.877 500.104C303.557 500.104 301.235 501.346 301.235 503.614C301.235 505.612 302.963 506.638 307.499 507.232C315.437 508.258 318.731 510.634 318.731 515.494C318.731 520.3 314.195 523.594 307.445 523.594ZM340.169 517.978L341.627 522.136C339.683 523 337.955 523.378 335.957 523.378C330.341 523.378 327.533 520.138 327.533 514.144V500.698H322.295V496.324H327.533V489.142L332.501 488.602V496.324H340.601V500.698H332.501V514.144C332.501 517.114 333.635 518.842 336.551 518.842C337.685 518.842 339.035 518.464 340.169 517.978ZM348.932 491.734C346.988 491.734 345.53 490.33 345.53 488.44C345.53 486.496 346.988 485.092 348.932 485.092C350.93 485.092 352.334 486.496 352.334 488.44C352.334 490.33 350.93 491.734 348.932 491.734ZM346.394 523V496.324H351.416V523H346.394ZM373.248 495.838C380.16 495.838 384.696 500.644 384.696 508.204V523H379.674V508.528C379.674 503.398 377.028 500.482 372.492 500.482C367.632 500.482 364.23 503.992 364.23 508.798V523H359.208V496.324H363.69L363.744 500.05C366.012 497.296 369.36 495.838 373.248 495.838ZM418.737 509.122C418.737 514.144 416.091 517.924 411.447 519.76C415.983 521.272 418.521 524.296 418.521 528.292C418.521 534.826 413.013 539.092 404.535 539.092C396.057 539.092 390.441 534.394 390.711 527.482H395.679C395.517 531.64 399.135 534.448 404.535 534.448C409.935 534.448 413.499 532.018 413.499 528.292C413.499 524.674 410.097 522.352 404.643 522.352C395.895 522.352 390.333 517.222 390.333 509.122C390.333 501.454 396.327 495.838 404.481 495.838C407.451 495.838 410.097 496.486 412.041 497.728L415.497 493.57L419.115 496.378L415.443 500.698C417.819 503.506 418.737 505.936 418.737 509.122ZM404.535 517.762C409.935 517.762 413.715 514.198 413.715 509.122C413.715 503.938 410.097 500.482 404.535 500.482C399.081 500.482 395.355 503.992 395.355 509.122C395.355 514.306 399.027 517.762 404.535 517.762ZM456.877 485.2C465.031 485.2 470.269 490.438 470.269 498.16C470.269 505.936 465.031 511.174 456.877 511.174H444.889V523H439.651V485.2H456.877ZM456.607 506.314C461.791 506.314 465.085 503.074 465.085 498.16C465.085 493.246 461.791 490.06 456.607 490.06H444.889V506.314H456.607ZM487.378 523.594C478.846 523.594 473.284 517.6 473.284 509.662C473.284 501.724 478.846 495.73 487.378 495.73C495.856 495.73 501.418 501.724 501.418 509.662C501.418 517.6 495.856 523.594 487.378 523.594ZM487.378 518.95C492.832 518.95 496.396 514.738 496.396 509.662C496.396 504.586 492.832 500.374 487.378 500.374C481.87 500.374 478.306 504.586 478.306 509.662C478.306 514.738 481.87 518.95 487.378 518.95ZM540.63 496.324H545.922L537.012 523H531.504L528.912 515.224L524.7 503.506L520.488 515.224L517.842 523H512.334L503.37 496.324H508.716L511.956 506.584L515.142 517.222L522.432 496.324H526.914L534.096 517.384L540.63 496.324ZM561.618 495.784C570.798 495.784 575.982 501.832 575.226 511.66H553.14C553.626 516.25 557.136 519.058 562.266 519.058C565.506 519.058 568.8 517.816 570.366 515.926L573.606 519.004C571.068 521.92 566.748 523.702 562.158 523.702C553.572 523.702 547.956 518.14 547.956 509.662C547.956 501.454 553.464 495.784 561.618 495.784ZM561.78 500.266C557.082 500.266 554.004 502.912 553.194 507.394H570.474C570.042 503.074 566.748 500.266 561.78 500.266ZM593.968 495.838C596.506 495.838 598.936 496.648 600.502 497.944L598.234 502.156C596.722 501.184 595.318 500.752 593.698 500.752C589.108 500.752 586.084 504.37 586.084 509.878V523H581.062V496.324H585.544L585.598 500.806C587.704 497.458 590.404 495.838 593.968 495.838ZM642.775 485.2V490.114H630.085V523H624.901V490.114H612.211V485.2H642.775ZM654.018 523.594C645.486 523.594 639.924 517.6 639.924 509.662C639.924 501.724 645.486 495.73 654.018 495.73C662.496 495.73 668.058 501.724 668.058 509.662C668.058 517.6 662.496 523.594 654.018 523.594ZM654.018 518.95C659.472 518.95 663.036 514.738 663.036 509.662C663.036 504.586 659.472 500.374 654.018 500.374C648.51 500.374 644.946 504.586 644.946 509.662C644.946 514.738 648.51 518.95 654.018 518.95ZM686.345 523.594C677.813 523.594 672.251 517.6 672.251 509.662C672.251 501.724 677.813 495.73 686.345 495.73C694.823 495.73 700.385 501.724 700.385 509.662C700.385 517.6 694.823 523.594 686.345 523.594ZM686.345 518.95C691.799 518.95 695.363 514.738 695.363 509.662C695.363 504.586 691.799 500.374 686.345 500.374C680.837 500.374 677.273 504.586 677.273 509.662C677.273 514.738 680.837 518.95 686.345 518.95ZM706.359 523V485.2H711.381V523H706.359ZM750.977 485.2C759.131 485.2 764.369 490.438 764.369 498.16C764.369 505.936 759.131 511.174 750.977 511.174H738.989V523H733.751V485.2H750.977ZM750.707 506.314C755.891 506.314 759.185 503.074 759.185 498.16C759.185 493.246 755.891 490.06 750.707 490.06H738.989V506.314H750.707ZM781.045 495.784C790.225 495.784 795.409 501.832 794.653 511.66H772.567C773.053 516.25 776.563 519.058 781.693 519.058C784.933 519.058 788.227 517.816 789.793 515.926L793.033 519.004C790.495 521.92 786.175 523.702 781.585 523.702C772.999 523.702 767.383 518.14 767.383 509.662C767.383 501.454 772.891 495.784 781.045 495.784ZM781.207 500.266C776.509 500.266 773.431 502.912 772.621 507.394H789.901C789.469 503.074 786.175 500.266 781.207 500.266ZM813.396 495.838C815.934 495.838 818.364 496.648 819.93 497.944L817.662 502.156C816.15 501.184 814.746 500.752 813.126 500.752C808.536 500.752 805.512 504.37 805.512 509.878V523H800.49V496.324H804.972L805.026 500.806C807.132 497.458 809.832 495.838 813.396 495.838ZM836.217 488.926C833.517 488.926 831.681 490.546 831.681 494.434V496.324H839.889V500.752H831.681V523H826.659V500.752H821.529V496.324H826.659V494.434C826.659 488.062 830.439 484.552 835.947 484.552C838.215 484.552 840.213 485.2 842.319 486.712L840.267 490.33C838.863 489.358 837.675 488.926 836.217 488.926ZM856.255 523.594C847.723 523.594 842.161 517.6 842.161 509.662C842.161 501.724 847.723 495.73 856.255 495.73C864.733 495.73 870.295 501.724 870.295 509.662C870.295 517.6 864.733 523.594 856.255 523.594ZM856.255 518.95C861.709 518.95 865.273 514.738 865.273 509.662C865.273 504.586 861.709 500.374 856.255 500.374C850.747 500.374 847.183 504.586 847.183 509.662C847.183 514.738 850.747 518.95 856.255 518.95ZM889.175 495.838C891.713 495.838 894.143 496.648 895.709 497.944L893.441 502.156C891.929 501.184 890.525 500.752 888.905 500.752C884.315 500.752 881.291 504.37 881.291 509.878V523H876.269V496.324H880.751L880.805 500.806C882.911 497.458 885.611 495.838 889.175 495.838ZM930.842 495.838C937.7 495.838 941.912 500.212 941.912 507.502V523H936.89V507.826C936.89 503.074 934.676 500.482 930.626 500.482C926.252 500.482 923.282 503.614 923.282 508.15V523H918.26V507.826C918.26 503.074 916.046 500.482 911.996 500.482C907.676 500.482 904.652 503.614 904.652 508.15V523H899.63V496.324H904.112L904.166 499.78C906.164 497.134 908.864 495.838 912.266 495.838C916.316 495.838 919.61 497.728 921.176 500.914C923.282 497.566 926.63 495.838 930.842 495.838ZM971.015 496.324H975.443V523H971.015L970.961 519.058C968.855 521.866 965.183 523.594 960.809 523.594C952.979 523.594 947.471 517.87 947.471 509.662C947.471 501.454 952.979 495.73 960.809 495.73C965.183 495.73 968.855 497.458 970.961 500.266L971.015 496.324ZM961.457 518.95C966.749 518.95 970.421 515.116 970.421 509.662C970.421 504.208 966.749 500.374 961.457 500.374C956.219 500.374 952.493 504.208 952.493 509.662C952.493 515.116 956.219 518.95 961.457 518.95ZM997.307 495.838C1004.22 495.838 1008.75 500.644 1008.75 508.204V523H1003.73V508.528C1003.73 503.398 1001.09 500.482 996.551 500.482C991.691 500.482 988.289 503.992 988.289 508.798V523H983.267V496.324H987.749L987.803 500.05C990.071 497.296 993.419 495.838 997.307 495.838ZM1028.49 523.594C1020.12 523.594 1014.39 518.032 1014.39 509.662C1014.39 501.4 1020.17 495.73 1028.43 495.73C1032.27 495.73 1035.56 497.08 1038.42 499.834L1035.29 503.182C1033.51 501.346 1031.08 500.374 1028.49 500.374C1023.25 500.374 1019.41 504.1 1019.41 509.662C1019.41 515.224 1023.19 518.95 1028.49 518.95C1031.24 518.95 1033.78 517.87 1035.56 515.98L1038.69 519.436C1035.78 522.298 1032.54 523.594 1028.49 523.594ZM1055.26 495.784C1064.44 495.784 1069.63 501.832 1068.87 511.66H1046.79C1047.27 516.25 1050.78 519.058 1055.91 519.058C1059.15 519.058 1062.45 517.816 1064.01 515.926L1067.25 519.004C1064.71 521.92 1060.39 523.702 1055.8 523.702C1047.22 523.702 1041.6 518.14 1041.6 509.662C1041.6 501.454 1047.11 495.784 1055.26 495.784ZM1055.43 500.266C1050.73 500.266 1047.65 502.912 1046.84 507.394H1064.12C1063.69 503.074 1060.39 500.266 1055.43 500.266ZM1134.96 485.2H1140.52L1127.77 523H1121.78L1117.19 508.798L1112.17 493.516L1107.15 508.798L1102.5 523H1096.67L1083.76 485.2H1089.33L1095.48 504.37L1099.53 516.628L1109.58 485.2H1114.71L1124.8 516.574L1128.8 504.37L1134.96 485.2ZM1147.33 491.734C1145.39 491.734 1143.93 490.33 1143.93 488.44C1143.93 486.496 1145.39 485.092 1147.33 485.092C1149.33 485.092 1150.73 486.496 1150.73 488.44C1150.73 490.33 1149.33 491.734 1147.33 491.734ZM1144.79 523V496.324H1149.81V523H1144.79ZM1173.27 517.978L1174.72 522.136C1172.78 523 1171.05 523.378 1169.05 523.378C1163.44 523.378 1160.63 520.138 1160.63 514.144V500.698H1155.39V496.324H1160.63V489.142L1165.6 488.602V496.324H1173.7V500.698H1165.6V514.144C1165.6 517.114 1166.73 518.842 1169.65 518.842C1170.78 518.842 1172.13 518.464 1173.27 517.978ZM1193.53 495.838C1200.55 495.838 1204.98 500.644 1204.98 508.204V523H1199.96V508.528C1199.96 503.398 1197.31 500.482 1192.78 500.482C1187.92 500.482 1184.51 503.992 1184.51 508.798V523H1179.49V485.2H1184.51V499.78C1186.73 497.188 1189.81 495.838 1193.53 495.838ZM222.374 553.2H227.612V591H222.806L201.098 562.164V591H195.86V553.2H200.666L222.374 581.982V553.2ZM257.466 564.324H261.894V591H257.466L257.412 587.058C255.306 589.866 251.634 591.594 247.26 591.594C239.43 591.594 233.922 585.87 233.922 577.662C233.922 569.454 239.43 563.73 247.26 563.73C251.634 563.73 255.306 565.458 257.412 568.266L257.466 564.324ZM247.908 586.95C253.2 586.95 256.872 583.116 256.872 577.662C256.872 572.208 253.2 568.374 247.908 568.374C242.67 568.374 238.944 572.208 238.944 577.662C238.944 583.116 242.67 586.95 247.908 586.95ZM282.732 577.122L292.56 591H286.512L279.546 580.74L272.364 591H266.424L276.252 577.176L267.072 564.324H273.12L277.116 570.048L279.492 573.72L281.976 570.048L285.972 564.324H291.966L282.732 577.122ZM317.9 564.324H322.328V591H317.9L317.846 587.058C315.74 589.866 312.068 591.594 307.694 591.594C299.864 591.594 294.356 585.87 294.356 577.662C294.356 569.454 299.864 563.73 307.694 563.73C312.068 563.73 315.74 565.458 317.846 568.266L317.9 564.324ZM308.342 586.95C313.634 586.95 317.306 583.116 317.306 577.662C317.306 572.208 313.634 568.374 308.342 568.374C303.104 568.374 299.378 572.208 299.378 577.662C299.378 583.116 303.104 586.95 308.342 586.95ZM345.812 585.978L347.27 590.136C345.326 591 343.598 591.378 341.6 591.378C335.984 591.378 333.176 588.138 333.176 582.144V568.698H327.938V564.324H333.176V557.142L338.144 556.602V564.324H346.244V568.698H338.144V582.144C338.144 585.114 339.278 586.842 342.194 586.842C343.328 586.842 344.678 586.464 345.812 585.978ZM364.942 563.838C367.48 563.838 369.91 564.648 371.476 565.944L369.208 570.156C367.696 569.184 366.292 568.752 364.672 568.752C360.082 568.752 357.058 572.37 357.058 577.878V591H352.036V564.324H356.518L356.572 568.806C358.678 565.458 361.378 563.838 364.942 563.838ZM396.316 564.324H400.744V591H396.316L396.262 587.058C394.156 589.866 390.484 591.594 386.11 591.594C378.28 591.594 372.772 585.87 372.772 577.662C372.772 569.454 378.28 563.73 386.11 563.73C390.484 563.73 394.156 565.458 396.262 568.266L396.316 564.324ZM386.758 586.95C392.05 586.95 395.722 583.116 395.722 577.662C395.722 572.208 392.05 568.374 386.758 568.374C381.52 568.374 377.794 572.208 377.794 577.662C377.794 583.116 381.52 586.95 386.758 586.95ZM423.145 591V553.2H428.383V586.086H448.795V591H423.145ZM474.89 564.324H479.318V591H474.89L474.836 587.058C472.73 589.866 469.058 591.594 464.684 591.594C456.854 591.594 451.346 585.87 451.346 577.662C451.346 569.454 456.854 563.73 464.684 563.73C469.058 563.73 472.73 565.458 474.836 568.266L474.89 564.324ZM465.332 586.95C470.624 586.95 474.296 583.116 474.296 577.662C474.296 572.208 470.624 568.374 465.332 568.374C460.094 568.374 456.368 572.208 456.368 577.662C456.368 583.116 460.094 586.95 465.332 586.95ZM501.884 563.73C509.552 563.73 515.114 569.238 515.114 577.662C515.114 586.086 509.552 591.594 501.884 591.594C497.456 591.594 493.73 589.866 491.678 587.058L491.624 591H487.142V553.2H492.164V567.672C494.27 565.188 497.78 563.73 501.884 563.73ZM501.128 586.95C506.42 586.95 510.092 583.116 510.092 577.662C510.092 572.208 506.42 568.374 501.128 568.374C495.89 568.374 492.164 572.208 492.164 577.662C492.164 583.116 495.89 586.95 501.128 586.95ZM530.828 591.594C526.292 591.594 522.296 590.19 518.84 587.49L521.378 583.764C523.7 585.816 527.21 587.058 530.936 587.058C534.77 587.058 537.146 585.708 537.146 583.44C537.146 581.28 535.256 580.254 530.45 579.66C523.268 578.796 519.704 576.15 519.704 571.668C519.704 566.916 524.24 563.73 531.044 563.73C535.094 563.73 538.496 564.756 541.52 566.916L539.198 570.588C536.768 568.86 534.176 568.104 531.26 568.104C526.94 568.104 524.618 569.346 524.618 571.614C524.618 573.612 526.346 574.638 530.882 575.232C538.82 576.258 542.114 578.634 542.114 583.494C542.114 588.3 537.578 591.594 530.828 591.594ZM551.024 552.768C552.752 552.768 553.94 554.01 553.94 555.684C553.94 557.25 553.454 558.816 551.348 563.838H548.54L549.944 558.222C548.81 557.898 548.054 556.926 548.054 555.684C548.054 554.01 549.296 552.768 551.024 552.768ZM603.143 591L599.525 582.738H578.357L574.739 591H569.015L585.971 553.2H591.911L608.867 591H603.143ZM588.941 558.654L580.517 577.878H597.365L588.941 558.654ZM633.714 553.2H638.736V591H634.254L634.2 587.058C632.148 589.866 628.422 591.594 623.994 591.594C616.326 591.594 610.764 586.086 610.764 577.662C610.764 569.238 616.326 563.73 623.994 563.73C628.098 563.73 631.608 565.188 633.714 567.672V553.2ZM624.75 586.95C629.988 586.95 633.714 583.116 633.714 577.662C633.714 572.208 629.988 568.374 624.75 568.374C619.512 568.374 615.786 572.208 615.786 577.662C615.786 583.116 619.512 586.95 624.75 586.95ZM666.485 564.324H671.831L660.545 591H655.091L643.805 564.324H649.313L653.255 574.098L657.845 585.816L662.435 574.098L666.485 564.324ZM697.535 564.324H701.963V591H697.535L697.481 587.058C695.375 589.866 691.703 591.594 687.329 591.594C679.499 591.594 673.991 585.87 673.991 577.662C673.991 569.454 679.499 563.73 687.329 563.73C691.703 563.73 695.375 565.458 697.481 568.266L697.535 564.324ZM687.977 586.95C693.269 586.95 696.941 583.116 696.941 577.662C696.941 572.208 693.269 568.374 687.977 568.374C682.739 568.374 679.013 572.208 679.013 577.662C679.013 583.116 682.739 586.95 687.977 586.95ZM723.826 563.838C730.738 563.838 735.274 568.644 735.274 576.204V591H730.252V576.528C730.252 571.398 727.606 568.482 723.07 568.482C718.21 568.482 714.808 571.992 714.808 576.798V591H709.786V564.324H714.268L714.322 568.05C716.59 565.296 719.938 563.838 723.826 563.838ZM755.005 591.594C746.635 591.594 740.911 586.032 740.911 577.662C740.911 569.4 746.689 563.73 754.951 563.73C758.785 563.73 762.079 565.08 764.941 567.834L761.809 571.182C760.027 569.346 757.597 568.374 755.005 568.374C749.767 568.374 745.933 572.1 745.933 577.662C745.933 583.224 749.713 586.95 755.005 586.95C757.759 586.95 760.297 585.87 762.079 583.98L765.211 587.436C762.295 590.298 759.055 591.594 755.005 591.594ZM781.784 563.784C790.964 563.784 796.148 569.832 795.392 579.66H773.306C773.792 584.25 777.302 587.058 782.432 587.058C785.672 587.058 788.966 585.816 790.532 583.926L793.772 587.004C791.234 589.92 786.914 591.702 782.324 591.702C773.738 591.702 768.122 586.14 768.122 577.662C768.122 569.454 773.63 563.784 781.784 563.784ZM781.946 568.266C777.248 568.266 774.17 570.912 773.36 575.394H790.64C790.208 571.074 786.914 568.266 781.946 568.266ZM822.45 553.2H827.472V591H822.99L822.936 587.058C820.884 589.866 817.158 591.594 812.73 591.594C805.062 591.594 799.5 586.086 799.5 577.662C799.5 569.238 805.062 563.73 812.73 563.73C816.834 563.73 820.344 565.188 822.45 567.672V553.2ZM813.486 586.95C818.724 586.95 822.45 583.116 822.45 577.662C822.45 572.208 818.724 568.374 813.486 568.374C808.248 568.374 804.522 572.208 804.522 577.662C804.522 583.116 808.248 586.95 813.486 586.95ZM874.659 571.56C878.169 572.748 880.815 576.528 880.815 580.632C880.815 587.274 876.009 591 867.477 591H849.819V553.2H867.477C874.983 553.2 879.573 556.926 879.573 563.136C879.573 566.97 877.737 569.994 874.659 571.56ZM867.693 558.006H855.057V569.238H867.693C871.905 569.238 874.443 567.186 874.443 563.676C874.443 560.112 871.851 558.006 867.693 558.006ZM868.125 586.14C872.715 586.14 875.577 583.818 875.577 579.984C875.577 576.204 872.769 573.936 868.125 573.936H855.057V586.14H868.125ZM888.262 591V553.2H893.5V586.086H913.912V591H888.262ZM933.785 553.2C945.071 553.2 952.793 560.814 952.793 572.1C952.793 583.386 945.071 591 933.785 591H919.745V553.2H933.785ZM933.785 586.086C941.885 586.086 947.447 580.362 947.447 572.1C947.447 563.838 941.831 558.114 933.785 558.114H924.983V586.086H933.785ZM977.473 591.756C965.917 591.756 957.817 583.602 957.817 572.1C957.817 560.598 965.917 552.444 977.473 552.444C982.873 552.444 987.679 554.442 991.405 558.276L987.787 561.516C985.141 558.762 981.685 557.358 977.635 557.358C969.049 557.358 963.109 563.352 963.109 572.1C963.109 580.848 969.049 586.842 977.635 586.842C981.577 586.842 985.411 585.33 988.165 582.63L991.621 586.14C987.895 589.812 983.089 591.756 977.473 591.756ZM1046.54 553.2H1051.35V591H1046.16V562.164L1032.18 580.254H1030.99L1017.06 562.164V591H1011.82V553.2H1016.62L1031.58 572.64L1046.54 553.2ZM1071.83 591.594C1063.3 591.594 1057.74 585.6 1057.74 577.662C1057.74 569.724 1063.3 563.73 1071.83 563.73C1080.31 563.73 1085.87 569.724 1085.87 577.662C1085.87 585.6 1080.31 591.594 1071.83 591.594ZM1071.83 586.95C1077.29 586.95 1080.85 582.738 1080.85 577.662C1080.85 572.586 1077.29 568.374 1071.83 568.374C1066.32 568.374 1062.76 572.586 1062.76 577.662C1062.76 582.738 1066.32 586.95 1071.83 586.95ZM1107.09 585.978L1108.54 590.136C1106.6 591 1104.87 591.378 1102.87 591.378C1097.26 591.378 1094.45 588.138 1094.45 582.144V568.698H1089.21V564.324H1094.45V557.142L1099.42 556.602V564.324H1107.52V568.698H1099.42V582.144C1099.42 585.114 1100.55 586.842 1103.47 586.842C1104.6 586.842 1105.95 586.464 1107.09 585.978ZM1125.52 591.594C1116.98 591.594 1111.42 585.6 1111.42 577.662C1111.42 569.724 1116.98 563.73 1125.52 563.73C1133.99 563.73 1139.56 569.724 1139.56 577.662C1139.56 585.6 1133.99 591.594 1125.52 591.594ZM1125.52 586.95C1130.97 586.95 1134.53 582.738 1134.53 577.662C1134.53 572.586 1130.97 568.374 1125.52 568.374C1120.01 568.374 1116.44 572.586 1116.44 577.662C1116.44 582.738 1120.01 586.95 1125.52 586.95ZM1158.44 563.838C1160.97 563.838 1163.4 564.648 1164.97 565.944L1162.7 570.156C1161.19 569.184 1159.79 568.752 1158.17 568.752C1153.58 568.752 1150.55 572.37 1150.55 577.878V591H1145.53V564.324H1150.01L1150.07 568.806C1152.17 565.458 1154.87 563.838 1158.44 563.838ZM209.198 659.702C203.42 659.702 197.642 657.704 193.43 654.14L196.238 650.144C199.262 653.006 204.338 654.842 209.198 654.842C215.246 654.842 219.134 652.412 219.134 648.632C219.134 645.176 216.11 643.34 208.82 642.26C198.56 640.748 194.294 637.454 194.294 630.974C194.294 624.872 200.234 620.498 208.712 620.498C213.842 620.498 218.81 622.28 222.59 625.358L219.836 629.084C216.758 626.546 212.708 625.142 208.766 625.142C203.312 625.142 199.532 627.626 199.532 631.082C199.532 634.43 202.34 636.266 209.36 637.4C220.214 639.128 224.426 642.152 224.426 648.47C224.426 655.274 218.432 659.702 209.198 659.702ZM242.69 659.594C234.158 659.594 228.596 653.6 228.596 645.662C228.596 637.724 234.158 631.73 242.69 631.73C251.168 631.73 256.73 637.724 256.73 645.662C256.73 653.6 251.168 659.594 242.69 659.594ZM242.69 654.95C248.144 654.95 251.708 650.738 251.708 645.662C251.708 640.586 248.144 636.374 242.69 636.374C237.182 636.374 233.618 640.586 233.618 645.662C233.618 650.738 237.182 654.95 242.69 654.95ZM262.704 659V621.2H267.726V659H262.704ZM295.283 632.324H300.305V659H295.823L295.769 655.22C293.501 658.028 290.207 659.486 286.427 659.486C279.569 659.486 275.141 654.68 275.141 647.12V632.324H280.163V646.796C280.163 651.926 282.755 654.842 287.129 654.842C291.989 654.842 295.283 651.332 295.283 646.526V632.324ZM323.716 653.978L325.174 658.136C323.23 659 321.502 659.378 319.504 659.378C313.888 659.378 311.08 656.138 311.08 650.144V636.698H305.842V632.324H311.08V625.142L316.048 624.602V632.324H324.148V636.698H316.048V650.144C316.048 653.114 317.182 654.842 320.098 654.842C321.232 654.842 322.582 654.464 323.716 653.978ZM332.479 627.734C330.535 627.734 329.077 626.33 329.077 624.44C329.077 622.496 330.535 621.092 332.479 621.092C334.477 621.092 335.881 622.496 335.881 624.44C335.881 626.33 334.477 627.734 332.479 627.734ZM329.941 659V632.324H334.963V659H329.941ZM355.067 659.594C346.535 659.594 340.973 653.6 340.973 645.662C340.973 637.724 346.535 631.73 355.067 631.73C363.545 631.73 369.107 637.724 369.107 645.662C369.107 653.6 363.545 659.594 355.067 659.594ZM355.067 654.95C360.521 654.95 364.085 650.738 364.085 645.662C364.085 640.586 360.521 636.374 355.067 636.374C349.559 636.374 345.995 640.586 345.995 645.662C345.995 650.738 349.559 654.95 355.067 654.95ZM389.121 631.838C396.033 631.838 400.569 636.644 400.569 644.204V659H395.547V644.528C395.547 639.398 392.901 636.482 388.365 636.482C383.505 636.482 380.103 639.992 380.103 644.798V659H375.081V632.324H379.563L379.617 636.05C381.885 633.296 385.233 631.838 389.121 631.838Z" fill="white"/>
<path d="M1603.33 847.292C1623.84 847.292 1640.46 830.666 1640.46 810.158C1640.46 789.649 1623.84 773.023 1603.33 773.023C1582.82 773.023 1566.2 789.649 1566.2 810.158C1566.2 830.666 1582.82 847.292 1603.33 847.292Z" stroke="white" stroke-width="0.25" stroke-miterlimit="10"/>
<path d="M1603.2 854.988C1627.48 854.988 1647.16 835.304 1647.16 811.023C1647.16 786.742 1627.48 767.058 1603.2 767.058C1578.91 767.058 1559.23 786.742 1559.23 811.023C1559.23 835.304 1578.91 854.988 1603.2 854.988Z" stroke="white" stroke-width="0.75" stroke-miterlimit="10"/>
<path d="M1602.93 852.005C1625.79 852.005 1644.31 833.478 1644.31 810.624C1644.31 787.771 1625.79 769.244 1602.93 769.244C1580.08 769.244 1561.55 787.771 1561.55 810.624C1561.55 833.478 1580.08 852.005 1602.93 852.005Z" stroke="white" stroke-width="0.5" stroke-miterlimit="10"/>
<path d="M1603.26 856.604C1628.55 856.604 1649.04 836.105 1649.04 810.818C1649.04 785.531 1628.55 765.032 1603.26 765.032C1577.97 765.032 1557.47 785.531 1557.47 810.818C1557.47 836.105 1577.97 856.604 1603.26 856.604Z" stroke="white" stroke-width="0.25" stroke-miterlimit="10"/>
<path d="M1602.93 861.306C1631.18 861.306 1654.08 838.406 1654.08 810.158C1654.08 781.909 1631.18 759.01 1602.93 759.01C1574.68 759.01 1551.78 781.909 1551.78 810.158C1551.78 838.406 1574.68 861.306 1602.93 861.306Z" stroke="white" stroke-width="0.25" stroke-miterlimit="10"/>
<path d="M1603.08 863.708C1632.4 863.708 1656.16 839.941 1656.16 810.624C1656.16 781.307 1632.4 757.541 1603.08 757.541C1573.76 757.541 1550 781.307 1550 810.624C1550 839.941 1573.76 863.708 1603.08 863.708Z" stroke="white" stroke-width="0.25" stroke-miterlimit="10"/>
<path d="M1603.02 868.398C1635.23 868.398 1661.34 842.287 1661.34 810.078C1661.34 777.869 1635.23 751.759 1603.02 751.759C1570.81 751.759 1544.7 777.869 1544.7 810.078C1544.7 842.287 1570.81 868.398 1603.02 868.398Z" stroke="white" stroke-miterlimit="10"/>
<path d="M1602.75 898.622C1651.43 898.622 1690.89 859.158 1690.89 810.476C1690.89 761.795 1651.43 722.331 1602.75 722.331C1554.07 722.331 1514.6 761.795 1514.6 810.476C1514.6 859.158 1554.07 898.622 1602.75 898.622Z" stroke="white" stroke-miterlimit="10"/>
<path d="M1537.19 647.652C1525.24 652.16 1507.6 664.091 1501.3 668.496C1499.94 669.441 1498.12 669.396 1497.02 668.394L1477.6 650.578C1476.5 649.576 1476.48 647.937 1477.64 646.81C1482.67 641.949 1497.61 629.176 1525.41 618.1C1553.04 607.092 1570.07 607.035 1576.1 607.513C1577.57 607.627 1578.5 608.765 1578.4 610.12L1576.54 636.644C1576.44 638.158 1575.1 639.456 1573.45 639.684C1566.54 640.606 1548.87 643.258 1537.19 647.664V647.652Z" stroke="white" stroke-width="0.75"/>
<path d="M1443.47 741.251C1438.36 753.466 1434.77 775.255 1433.59 783.144C1433.33 784.829 1432 786.183 1430.47 786.297L1403.35 788.301C1401.82 788.415 1400.57 787.265 1400.56 785.591C1400.5 778.351 1401.55 758.008 1412.99 729.161C1424.36 700.497 1436.42 687.599 1441.05 683.398C1442.18 682.374 1443.69 682.476 1444.64 683.512L1463.16 703.741C1464.22 704.891 1464.24 706.826 1463.23 708.238C1459.02 714.112 1448.45 729.332 1443.47 741.262V741.251Z" stroke="white" stroke-width="0.75"/>
<path d="M1537.74 648.962C1525.34 653.618 1507.18 666.288 1500.68 670.967C1499.29 671.969 1497.38 671.878 1496.21 670.751L1475.46 650.726C1474.28 649.599 1474.23 647.801 1475.42 646.582C1480.57 641.38 1495.88 627.719 1524.7 616.233C1553.53 604.747 1571.16 605.179 1577.48 605.851C1579.02 606.01 1580.02 607.285 1579.95 608.765L1578.65 637.817C1578.57 639.479 1577.22 640.868 1575.48 641.073C1568.27 641.915 1549.84 644.408 1537.74 648.95V648.962Z" stroke="white" stroke-width="0.25"/>
<path d="M1536.58 646.115C1525.09 650.464 1508.02 661.7 1501.91 665.832C1500.6 666.72 1498.86 666.72 1497.84 665.832L1479.68 649.997C1478.65 649.098 1478.67 647.607 1479.8 646.559C1484.7 642.029 1499.2 630.098 1525.94 619.443C1552.51 608.856 1568.77 608.457 1574.51 608.776C1575.91 608.856 1576.77 609.869 1576.65 611.11L1574.34 635.301C1574.2 636.678 1572.9 637.896 1571.32 638.124C1564.71 639.103 1547.8 641.881 1536.58 646.127V646.115Z" stroke="white" stroke-width="0.25"/>
<path d="M1444.66 741.831C1439.37 754.433 1435.94 777.042 1434.81 785.227C1434.58 786.98 1433.16 788.357 1431.5 788.437L1402.09 789.94C1400.42 790.02 1399.05 788.801 1399 787.048C1398.77 779.512 1399.48 758.361 1411.29 728.581C1423.11 698.8 1435.86 685.823 1440.8 681.542C1442.01 680.506 1443.65 680.643 1444.71 681.736L1465.27 703.183C1466.44 704.413 1466.51 706.416 1465.44 707.862C1460.99 713.884 1449.84 729.503 1444.67 741.82L1444.66 741.831Z" stroke="white" stroke-width="0.25"/>
<path d="M1442.04 740.909C1437.15 752.646 1433.41 773.456 1432.16 780.981C1431.89 782.597 1430.67 783.907 1429.28 784.054L1404.75 786.582C1403.36 786.73 1402.27 785.66 1402.29 784.066C1402.4 777.179 1403.8 757.803 1414.8 730.106C1425.73 702.58 1436.91 690.035 1441.19 685.925C1442.24 684.923 1443.59 684.992 1444.42 685.948L1460.69 704.766C1461.62 705.836 1461.6 707.68 1460.64 709.035C1456.7 714.715 1446.82 729.434 1442.04 740.898V740.909Z" stroke="white" stroke-width="0.25"/>
<path d="M1441.37 876.754C1446 888.946 1458.29 906.898 1462.81 913.319C1463.77 914.696 1463.74 916.563 1462.69 917.69L1444.35 937.646C1443.32 938.773 1441.63 938.807 1440.47 937.623C1435.47 932.512 1422.34 917.326 1410.94 888.969C1399.62 860.793 1399.57 843.376 1400.07 837.217C1400.19 835.715 1401.35 834.758 1402.76 834.849L1430.04 836.58C1431.6 836.682 1432.93 838.037 1433.16 839.733C1434.11 846.791 1436.84 864.846 1441.36 876.742L1441.37 876.754Z" stroke="white" stroke-width="0.75"/>
<path d="M1439.79 876.845C1444.2 888.433 1455.58 905.623 1459.77 911.782C1460.67 913.102 1460.68 914.855 1459.77 915.891L1443.93 934.231C1443.04 935.267 1441.54 935.255 1440.48 934.106C1435.92 929.176 1423.85 914.559 1413.01 887.591C1402.24 860.805 1401.78 844.412 1402.06 838.617C1402.13 837.206 1403.15 836.329 1404.4 836.454L1428.72 838.754C1430.11 838.891 1431.33 840.2 1431.58 841.794C1432.59 848.465 1435.46 865.518 1439.79 876.822V876.845Z" stroke="white" stroke-width="0.25"/>
<path d="M1443.54 876.116C1448.43 889.071 1461.85 907.98 1466.82 914.742C1467.87 916.188 1467.77 918.191 1466.55 919.444L1445.08 941.437C1443.88 942.678 1441.95 942.769 1440.67 941.528C1435.15 936.189 1420.65 920.275 1408.56 890.175C1396.54 860.259 1397.01 841.555 1397.77 834.918C1397.95 833.301 1399.32 832.243 1400.9 832.288L1431.89 833.324C1433.65 833.381 1435.13 834.804 1435.35 836.614C1436.22 844.162 1438.77 863.469 1443.55 876.116H1443.54Z" stroke="white" stroke-width="0.25"/>
<path d="M1534.64 970.443C1546.54 975.577 1567.72 979.55 1575.38 980.882C1577.02 981.167 1578.34 982.442 1578.47 983.888L1580.57 1009.32C1580.69 1010.75 1579.58 1011.88 1577.96 1011.85C1570.92 1011.7 1551.16 1010.14 1523.07 998.607C1495.16 987.143 1482.57 975.498 1478.45 971.047C1477.45 969.965 1477.54 968.554 1478.54 967.688L1498.08 950.931C1499.19 949.975 1501.07 950.009 1502.44 951C1508.16 955.109 1523.01 965.423 1534.63 970.443H1534.64Z" stroke="white" stroke-width="0.75"/>
<path d="M1533.92 971.844C1545.32 976.739 1565.49 980.837 1572.79 982.226C1574.35 982.522 1575.64 983.706 1575.78 985.003L1578.41 1007.86C1578.56 1009.15 1577.54 1010.14 1575.99 1010.07C1569.32 1009.76 1550.56 1007.87 1523.66 996.831C1496.93 985.857 1484.7 975.099 1480.69 970.99C1479.71 969.988 1479.77 968.724 1480.69 967.984L1498.78 953.447C1499.82 952.616 1501.59 952.696 1502.91 953.618C1508.45 957.454 1522.77 967.074 1533.9 971.855L1533.92 971.844Z" stroke="white" stroke-width="0.25"/>
<path d="M1535.24 968.713C1547.71 974.109 1570.06 977.923 1578.15 979.186C1579.88 979.459 1581.25 980.848 1581.33 982.465L1582.77 1010.98C1582.85 1012.59 1581.64 1013.9 1579.91 1013.91C1572.46 1013.96 1551.53 1012.83 1522.1 1000.74C1492.84 988.726 1479.84 976.021 1475.61 971.138C1474.59 969.954 1474.73 968.36 1475.82 967.37L1497.07 947.926C1498.29 946.81 1500.27 946.799 1501.71 947.858C1507.65 952.297 1523.09 963.431 1535.26 968.702L1535.24 968.713Z" stroke="white" stroke-width="0.5"/>
<path d="M1667.26 972.616C1679.31 967.609 1697.01 955.127 1703.34 950.53C1704.7 949.54 1706.54 949.483 1707.68 950.393L1727.61 966.517C1728.74 967.427 1728.78 969.009 1727.61 970.158C1722.59 975.119 1707.63 988.262 1679.62 1000.48C1651.78 1012.62 1634.52 1013.61 1628.4 1013.49C1626.91 1013.45 1625.95 1012.41 1626.02 1011.1L1627.53 985.406C1627.61 983.938 1628.95 982.606 1630.63 982.311C1637.61 981.036 1655.49 977.509 1667.26 972.616Z" stroke="white" stroke-width="0.75"/>
<path d="M1671.7 973.437C1660.65 978.685 1641 983.603 1633.89 985.299C1632.36 985.664 1631.13 986.848 1631.02 988.088L1628.96 1010C1628.84 1011.24 1629.87 1012.13 1631.38 1011.98C1637.91 1011.36 1656.23 1008.6 1682.31 996.717C1708.24 984.912 1719.95 974.029 1723.79 969.92C1724.72 968.918 1724.64 967.723 1723.72 967.051L1705.67 954.107C1704.64 953.367 1702.91 953.527 1701.62 954.472C1696.29 958.399 1682.5 968.292 1671.7 973.415V973.437Z" stroke="white" stroke-width="0.25"/>
<path d="M1670.96 968.553C1658.51 974.348 1635.98 978.696 1627.82 980.142C1626.06 980.45 1624.73 981.918 1624.71 983.58L1624.22 1012.94C1624.2 1014.6 1625.46 1015.91 1627.22 1015.89C1634.79 1015.8 1655.97 1014.23 1685.4 1001.23C1714.65 988.305 1727.4 974.997 1731.51 969.897C1732.51 968.656 1732.32 967.028 1731.18 966.026L1708.97 946.446C1707.71 945.33 1705.68 945.342 1704.27 946.469C1698.4 951.159 1683.12 962.896 1670.96 968.553Z" stroke="white" stroke-width="0.5"/>
<path d="M1765.42 875.798C1760.79 887.99 1748.51 905.942 1743.99 912.363C1743.02 913.74 1743.06 915.607 1744.1 916.734L1762.44 936.69C1763.48 937.817 1767.72 936.132 1768.89 934.948C1773.88 929.837 1785.95 916.062 1797.34 887.705C1808.66 859.53 1808.66 841.782 1808.16 835.624C1808.03 834.121 1805.44 833.802 1804.04 833.893L1776.75 835.624C1775.19 835.726 1773.86 837.081 1773.63 838.777C1772.69 845.835 1769.96 863.89 1765.44 875.786L1765.42 875.798Z" stroke="white" stroke-width="0.75"/>
<path d="M1764.04 874.488C1759.14 887.443 1745.72 906.352 1740.76 913.114C1739.7 914.56 1739.8 916.563 1741.02 917.815L1762.49 939.809C1763.69 941.05 1765.62 941.141 1766.9 939.9C1772.43 934.561 1786.92 918.646 1799.01 888.547C1811.03 858.63 1810.56 839.927 1809.8 833.29C1809.62 831.673 1808.25 830.615 1806.67 830.66L1775.68 831.696C1773.92 831.753 1772.44 833.176 1772.22 834.986C1771.36 842.534 1768.81 861.841 1764.02 874.488H1764.04Z" stroke="white" stroke-width="0.25"/>
<path d="M1767.7 876.845C1763.28 888.433 1751.91 905.623 1747.72 911.782C1746.82 913.102 1746.81 914.855 1747.72 915.891L1763.56 934.231C1764.44 935.267 1765.95 935.255 1767.01 934.106C1771.57 929.176 1783.64 914.559 1794.48 887.591C1805.24 860.805 1805.71 844.412 1805.43 838.617C1805.36 837.206 1804.33 836.329 1803.09 836.454L1778.77 838.754C1777.38 838.891 1776.16 840.2 1775.91 841.794C1774.9 848.465 1772.03 865.518 1767.7 876.822V876.845Z" stroke="white" stroke-width="0.25"/>
<path d="M1761.63 741.661C1766.75 753.876 1770.33 775.665 1771.52 783.554C1771.77 785.238 1773.1 786.593 1774.64 786.707L1801.75 788.71C1803.28 788.824 1804.53 787.675 1804.54 786.001C1804.6 778.761 1803.55 758.418 1792.11 729.571C1780.74 700.906 1768.68 688.008 1764.05 683.808C1762.92 682.783 1761.41 682.886 1760.46 683.922L1741.94 704.151C1740.88 705.301 1740.86 707.236 1741.87 708.647C1746.08 714.522 1756.65 729.742 1761.63 741.672V741.661Z" stroke="white" stroke-width="0.75"/>
<path d="M1763.27 740.716C1768.07 752.225 1771.73 772.614 1772.96 780.002C1773.22 781.584 1774.43 782.871 1775.78 783.007L1799.83 785.489C1801.18 785.626 1802.26 784.59 1802.23 783.019C1802.13 776.268 1800.74 757.28 1789.97 730.129C1779.26 703.149 1768.3 690.855 1764.1 686.825C1763.08 685.846 1761.75 685.903 1760.93 686.847L1744.99 705.289C1744.08 706.348 1744.1 708.147 1745.02 709.479C1748.88 715.045 1758.57 729.48 1763.26 740.716H1763.27Z" stroke="white" stroke-width="0.25"/>
<path d="M1760.74 741.831C1766.04 754.433 1769.46 777.042 1770.59 785.227C1770.83 786.98 1772.24 788.357 1773.9 788.437L1803.32 789.94C1804.98 790.02 1806.36 788.801 1806.41 787.048C1806.63 779.512 1805.93 758.361 1794.11 728.581C1782.36 698.982 1769.54 685.823 1764.6 681.542C1763.4 680.506 1761.76 680.643 1760.7 681.736L1740.14 703.183C1738.97 704.413 1738.9 706.416 1739.97 707.862C1744.42 713.884 1755.56 729.503 1760.73 741.82L1760.74 741.831Z" stroke="white" stroke-width="0.25"/>
<path d="M1667.69 648.005C1679.64 652.513 1697.27 664.444 1703.58 668.849C1704.93 669.794 1706.76 669.749 1707.86 668.747L1727.28 650.931C1728.37 649.929 1728.4 648.29 1727.24 647.163C1722.2 642.302 1707.27 629.529 1679.47 618.453C1651.67 607.376 1634.81 607.387 1628.78 607.866C1627.31 607.979 1626.37 609.118 1626.48 610.473L1628.33 636.997C1628.43 638.511 1629.78 639.809 1631.43 640.037C1638.34 640.959 1656.01 643.611 1667.69 648.017V648.005Z" stroke="white" stroke-width="0.75"/>
<path d="M1668.5 647.152C1679.99 651.5 1697.05 662.736 1703.17 666.869C1704.47 667.757 1706.22 667.757 1707.24 666.869L1725.4 651.034C1726.42 650.134 1726.41 648.643 1725.27 647.596C1720.38 643.065 1705.87 631.134 1679.13 620.479C1652.39 609.824 1636.31 609.494 1630.57 609.812C1629.17 609.892 1628.3 610.905 1628.43 612.146L1630.74 636.337C1630.88 637.714 1632.18 638.932 1633.76 639.16C1640.37 640.139 1657.28 642.917 1668.5 647.163V647.152Z" stroke="white" stroke-width="0.25"/>
<path d="M1666.8 648.962C1679.19 653.618 1697.35 666.288 1703.85 670.967C1705.24 671.969 1707.15 671.877 1708.33 670.75L1729.08 650.726C1730.25 649.599 1730.31 647.8 1729.11 646.582C1723.97 641.38 1708.66 627.719 1679.83 616.233C1651.2 604.826 1633.37 605.179 1627.06 605.851C1625.52 606.01 1624.52 607.285 1624.59 608.765L1625.88 637.817C1625.96 639.479 1627.32 640.868 1629.06 641.073C1636.27 641.915 1654.7 644.408 1666.8 648.95V648.962Z" stroke="white" stroke-width="0.25"/>
<path d="M1799.6 822.441C1805.86 822.441 1810.94 817.365 1810.94 811.103C1810.94 804.841 1805.86 799.764 1799.6 799.764C1793.34 799.764 1788.26 804.841 1788.26 811.103C1788.26 817.365 1793.34 822.441 1799.6 822.441Z" stroke="white"/>
<path d="M1736.24 957.876C1743.78 957.876 1749.9 951.759 1749.9 944.215C1749.9 936.67 1743.78 930.554 1736.24 930.554C1728.69 930.554 1722.58 936.67 1722.58 944.215C1722.58 951.759 1728.69 957.876 1736.24 957.876Z" stroke="white"/>
<path d="M1736.25 949.565C1739.3 949.565 1741.78 947.088 1741.78 944.033C1741.78 940.977 1739.3 938.5 1736.25 938.5C1733.19 938.5 1730.71 940.977 1730.71 944.033C1730.71 947.088 1733.19 949.565 1736.25 949.565Z" stroke="white"/>
<path d="M1603.12 1018.92C1609.16 1018.92 1614.07 1014.01 1614.07 1007.96C1614.07 1001.92 1609.16 997.013 1603.12 997.013C1597.07 997.013 1592.16 1001.92 1592.16 1007.96C1592.16 1014.01 1597.07 1018.92 1603.12 1018.92Z" stroke="white"/>
<path d="M1469.47 957.591C1476.96 957.591 1483.03 951.521 1483.03 944.033C1483.03 936.545 1476.96 930.474 1469.47 930.474C1461.98 930.474 1455.91 936.545 1455.91 944.033C1455.91 951.521 1461.98 957.591 1469.47 957.591Z" stroke="white"/>
<path d="M1469.47 950.237C1472.9 950.237 1475.67 947.459 1475.67 944.033C1475.67 940.606 1472.9 937.828 1469.47 937.828C1466.04 937.828 1463.27 940.606 1463.27 944.033C1463.27 947.459 1466.04 950.237 1469.47 950.237Z" stroke="white"/>
<path d="M1405.8 820.586C1411.68 820.586 1416.45 815.815 1416.45 809.93C1416.45 804.045 1411.68 799.275 1405.8 799.275C1399.91 799.275 1395.14 804.045 1395.14 809.93C1395.14 815.815 1399.91 820.586 1405.8 820.586Z" stroke="white"/>
<path d="M1469.61 691.64C1477.8 691.64 1484.44 685.004 1484.44 676.818C1484.44 668.632 1477.8 661.996 1469.61 661.996C1461.43 661.996 1454.79 668.632 1454.79 676.818C1454.79 685.004 1461.43 691.64 1469.61 691.64Z" stroke="white"/>
<path d="M1469.46 682.704C1473.5 682.704 1476.77 679.676 1476.77 675.941C1476.77 672.207 1473.5 669.179 1469.46 669.179C1465.43 669.179 1462.16 672.207 1462.16 675.941C1462.16 679.676 1465.43 682.704 1469.46 682.704Z" stroke="white"/>
<path d="M1602.67 1027.34C1722.33 1027.34 1819.34 930.334 1819.34 810.67C1819.34 691.006 1722.33 594 1602.67 594C1483.01 594 1386 691.006 1386 810.67C1386 930.334 1483.01 1027.34 1602.67 1027.34Z" stroke="white"/>
<path d="M1602.97 820.142C1608.6 820.142 1613.16 815.58 1613.16 809.953C1613.16 804.326 1608.6 799.764 1602.97 799.764C1597.35 799.764 1592.79 804.326 1592.79 809.953C1592.79 815.58 1597.35 820.142 1602.97 820.142Z" stroke="white" stroke-miterlimit="10"/>
<path d="M1603 840.12C1619.55 840.12 1632.96 826.706 1632.96 810.158C1632.96 793.61 1619.55 780.195 1603 780.195C1586.45 780.195 1573.04 793.61 1573.04 810.158C1573.04 826.706 1586.45 840.12 1603 840.12Z" stroke="white" stroke-miterlimit="10"/>
<path d="M1602.98 836.955C1617.89 836.955 1629.98 824.866 1629.98 809.953C1629.98 795.04 1617.89 782.95 1602.98 782.95C1588.06 782.95 1575.97 795.04 1575.97 809.953C1575.97 824.866 1588.06 836.955 1602.98 836.955Z" stroke="white" stroke-miterlimit="10"/>
<path d="M1603.34 844.104C1622.2 844.104 1637.49 828.814 1637.49 809.953C1637.49 791.091 1622.2 775.801 1603.34 775.801C1584.48 775.801 1569.19 791.091 1569.19 809.953C1569.19 828.814 1584.48 844.104 1603.34 844.104Z" stroke="white" stroke-width="0.25" stroke-miterlimit="10"/>
<path d="M1603.11 845.391C1622.7 845.391 1638.57 829.515 1638.57 809.93C1638.57 790.346 1622.7 774.469 1603.11 774.469C1583.53 774.469 1567.65 790.346 1567.65 809.93C1567.65 829.515 1583.53 845.391 1603.11 845.391Z" stroke="white" stroke-width="0.25" stroke-miterlimit="10"/>
<path d="M1602.75 625.442C1609.44 625.442 1614.87 620.02 1614.87 613.33C1614.87 606.64 1609.44 601.218 1602.75 601.218C1596.06 601.218 1590.64 606.64 1590.64 613.33C1590.64 620.02 1596.06 625.442 1602.75 625.442Z" stroke="white"/>
<path d="M1735.73 683.307C1739.53 683.307 1742.61 680.223 1742.61 676.42C1742.61 672.616 1739.53 669.532 1735.73 669.532C1731.92 669.532 1728.84 672.616 1728.84 676.42C1728.84 680.223 1731.92 683.307 1735.73 683.307Z" stroke="white"/>
<path d="M1736.21 689.83C1743.63 689.83 1749.64 683.821 1749.64 676.408C1749.64 668.996 1743.63 662.987 1736.21 662.987C1728.8 662.987 1722.79 668.996 1722.79 676.408C1722.79 683.821 1728.8 689.83 1736.21 689.83Z" stroke="white"/>
<defs>
<filter id="filter0_f_1736_1972" x="-237.476" y="-41.4758" width="1180.77" height="1180.77" filterUnits="userSpaceOnUse" color-interpolation-filters="sRGB">
<feFlood flood-opacity="0" result="BackgroundImageFix"/>
<feBlend mode="normal" in="SourceGraphic" in2="BackgroundImageFix" result="shape"/>
<feGaussianBlur stdDeviation="149.207" result="effect1_foregroundBlur_1736_1972"/>
</filter>
<radialGradient id="paint0_radial_1736_1972" cx="0" cy="0" r="1" gradientUnits="userSpaceOnUse" gradientTransform="translate(372.5 551.206) rotate(90) scale(282.749 434.154)">
<stop stop-color="#444444"/>
<stop offset="1" stop-color="#444444" stop-opacity="0"/>
</radialGradient>
</defs>
</svg>
