<svg width="282" height="52" viewBox="0 0 282 52" fill="none" xmlns="http://www.w3.org/2000/svg">
<rect width="282" height="52" rx="4" fill="#1863DA"/>
<mask id="path-2-outside-1_2207_446" maskUnits="userSpaceOnUse" x="26" y="17" width="232" height="18" fill="black">
<rect fill="white" x="26" y="17" width="232" height="18"/>
<path d="M32.8589 17.2C37.8749 17.2 41.3069 20.584 41.3069 25.6C41.3069 30.616 37.8749 34 32.8589 34H26.6189V17.2H32.8589ZM32.8589 31.816C36.4589 31.816 38.9309 29.272 38.9309 25.6C38.9309 21.928 36.4349 19.384 32.8589 19.384H28.9469V31.816H32.8589ZM49.7583 34.264C45.9663 34.264 43.4943 31.6 43.4943 28.072C43.4943 24.544 45.9663 21.88 49.7583 21.88C53.5263 21.88 55.9983 24.544 55.9983 28.072C55.9983 31.6 53.5263 34.264 49.7583 34.264ZM49.7583 32.2C52.1823 32.2 53.7663 30.328 53.7663 28.072C53.7663 25.816 52.1823 23.944 49.7583 23.944C47.3103 23.944 45.7263 25.816 45.7263 28.072C45.7263 30.328 47.3103 32.2 49.7583 32.2ZM73.6658 22.144H76.0178L72.0578 34H69.6098L68.4578 30.544L66.5858 25.336L64.7138 30.544L63.5378 34H61.0898L57.1058 22.144H59.4818L60.9218 26.704L62.3378 31.432L65.5778 22.144H67.5698L70.7618 31.504L73.6658 22.144ZM84.7094 21.928C87.7814 21.928 89.7974 24.064 89.7974 27.424V34H87.5654V27.568C87.5654 25.288 86.3894 23.992 84.3734 23.992C82.2134 23.992 80.7014 25.552 80.7014 27.688V34H78.4694V22.144H80.4614L80.4854 23.8C81.4934 22.576 82.9814 21.928 84.7094 21.928ZM93.3344 34V17.2H95.5664V34H93.3344ZM104.742 34.264C100.95 34.264 98.4777 31.6 98.4777 28.072C98.4777 24.544 100.95 21.88 104.742 21.88C108.51 21.88 110.982 24.544 110.982 28.072C110.982 31.6 108.51 34.264 104.742 34.264ZM104.742 32.2C107.166 32.2 108.75 30.328 108.75 28.072C108.75 25.816 107.166 23.944 104.742 23.944C102.294 23.944 100.71 25.816 100.71 28.072C100.71 30.328 102.294 32.2 104.742 32.2ZM123.549 22.144H125.517V34H123.549L123.525 32.248C122.589 33.496 120.957 34.264 119.013 34.264C115.533 34.264 113.085 31.72 113.085 28.072C113.085 24.424 115.533 21.88 119.013 21.88C120.957 21.88 122.589 22.648 123.525 23.896L123.549 22.144ZM119.301 32.2C121.653 32.2 123.285 30.496 123.285 28.072C123.285 25.648 121.653 23.944 119.301 23.944C116.973 23.944 115.317 25.648 115.317 28.072C115.317 30.496 116.973 32.2 119.301 32.2ZM138.666 17.2H140.898V34H138.906L138.882 32.248C137.97 33.496 136.314 34.264 134.346 34.264C130.938 34.264 128.466 31.816 128.466 28.072C128.466 24.328 130.938 21.88 134.346 21.88C136.17 21.88 137.73 22.528 138.666 23.632V17.2ZM134.682 32.2C137.01 32.2 138.666 30.496 138.666 28.072C138.666 25.648 137.01 23.944 134.682 23.944C132.354 23.944 130.698 25.648 130.698 28.072C130.698 30.496 132.354 32.2 134.682 32.2ZM162.35 25.36C163.91 25.888 165.086 27.568 165.086 29.392C165.086 32.344 162.95 34 159.158 34H151.31V17.2H159.158C162.494 17.2 164.534 18.856 164.534 21.616C164.534 23.32 163.718 24.664 162.35 25.36ZM159.254 19.336H153.638V24.328H159.254C161.126 24.328 162.254 23.416 162.254 21.856C162.254 20.272 161.102 19.336 159.254 19.336ZM159.446 31.84C161.486 31.84 162.758 30.808 162.758 29.104C162.758 27.424 161.51 26.416 159.446 26.416H153.638V31.84H159.446ZM173.799 21.928C174.927 21.928 176.007 22.288 176.703 22.864L175.695 24.736C175.023 24.304 174.399 24.112 173.679 24.112C171.639 24.112 170.295 25.72 170.295 28.168V34H168.063V22.144H170.055L170.079 24.136C171.015 22.648 172.215 21.928 173.799 21.928ZM183.783 34.264C179.991 34.264 177.519 31.6 177.519 28.072C177.519 24.544 179.991 21.88 183.783 21.88C187.551 21.88 190.023 24.544 190.023 28.072C190.023 31.6 187.551 34.264 183.783 34.264ZM183.783 32.2C186.207 32.2 187.791 30.328 187.791 28.072C187.791 25.816 186.207 23.944 183.783 23.944C181.335 23.944 179.751 25.816 179.751 28.072C179.751 30.328 181.335 32.2 183.783 32.2ZM198.39 34.264C194.67 34.264 192.126 31.792 192.126 28.072C192.126 24.4 194.694 21.88 198.366 21.88C200.07 21.88 201.534 22.48 202.806 23.704L201.414 25.192C200.622 24.376 199.542 23.944 198.39 23.944C196.062 23.944 194.358 25.6 194.358 28.072C194.358 30.544 196.038 32.2 198.39 32.2C199.614 32.2 200.742 31.72 201.534 30.88L202.926 32.416C201.63 33.688 200.19 34.264 198.39 34.264ZM211.773 21.928C214.893 21.928 216.861 24.064 216.861 27.424V34H214.629V27.568C214.629 25.288 213.453 23.992 211.437 23.992C209.277 23.992 207.765 25.552 207.765 27.688V34H205.533V17.2H207.765V23.68C208.749 22.528 210.117 21.928 211.773 21.928ZM229.182 22.144H231.414V34H229.422L229.398 32.32C228.39 33.568 226.926 34.216 225.246 34.216C222.198 34.216 220.23 32.08 220.23 28.72V22.144H222.462V28.576C222.462 30.856 223.614 32.152 225.558 32.152C227.718 32.152 229.182 30.592 229.182 28.456V22.144ZM240.835 21.928C241.963 21.928 243.043 22.288 243.739 22.864L242.731 24.736C242.059 24.304 241.435 24.112 240.715 24.112C238.675 24.112 237.331 25.72 237.331 28.168V34H235.099V22.144H237.091L237.115 24.136C238.051 22.648 239.251 21.928 240.835 21.928ZM250.627 21.904C254.707 21.904 257.011 24.592 256.675 28.96H246.859C247.075 31 248.635 32.248 250.915 32.248C252.355 32.248 253.819 31.696 254.515 30.856L255.955 32.224C254.827 33.52 252.907 34.312 250.867 34.312C247.051 34.312 244.555 31.84 244.555 28.072C244.555 24.424 247.003 21.904 250.627 21.904ZM250.699 23.896C248.611 23.896 247.243 25.072 246.883 27.064H254.563C254.371 25.144 252.907 23.896 250.699 23.896Z"/>
</mask>
<path d="M32.8589 17.2C37.8749 17.2 41.3069 20.584 41.3069 25.6C41.3069 30.616 37.8749 34 32.8589 34H26.6189V17.2H32.8589ZM32.8589 31.816C36.4589 31.816 38.9309 29.272 38.9309 25.6C38.9309 21.928 36.4349 19.384 32.8589 19.384H28.9469V31.816H32.8589ZM49.7583 34.264C45.9663 34.264 43.4943 31.6 43.4943 28.072C43.4943 24.544 45.9663 21.88 49.7583 21.88C53.5263 21.88 55.9983 24.544 55.9983 28.072C55.9983 31.6 53.5263 34.264 49.7583 34.264ZM49.7583 32.2C52.1823 32.2 53.7663 30.328 53.7663 28.072C53.7663 25.816 52.1823 23.944 49.7583 23.944C47.3103 23.944 45.7263 25.816 45.7263 28.072C45.7263 30.328 47.3103 32.2 49.7583 32.2ZM73.6658 22.144H76.0178L72.0578 34H69.6098L68.4578 30.544L66.5858 25.336L64.7138 30.544L63.5378 34H61.0898L57.1058 22.144H59.4818L60.9218 26.704L62.3378 31.432L65.5778 22.144H67.5698L70.7618 31.504L73.6658 22.144ZM84.7094 21.928C87.7814 21.928 89.7974 24.064 89.7974 27.424V34H87.5654V27.568C87.5654 25.288 86.3894 23.992 84.3734 23.992C82.2134 23.992 80.7014 25.552 80.7014 27.688V34H78.4694V22.144H80.4614L80.4854 23.8C81.4934 22.576 82.9814 21.928 84.7094 21.928ZM93.3344 34V17.2H95.5664V34H93.3344ZM104.742 34.264C100.95 34.264 98.4777 31.6 98.4777 28.072C98.4777 24.544 100.95 21.88 104.742 21.88C108.51 21.88 110.982 24.544 110.982 28.072C110.982 31.6 108.51 34.264 104.742 34.264ZM104.742 32.2C107.166 32.2 108.75 30.328 108.75 28.072C108.75 25.816 107.166 23.944 104.742 23.944C102.294 23.944 100.71 25.816 100.71 28.072C100.71 30.328 102.294 32.2 104.742 32.2ZM123.549 22.144H125.517V34H123.549L123.525 32.248C122.589 33.496 120.957 34.264 119.013 34.264C115.533 34.264 113.085 31.72 113.085 28.072C113.085 24.424 115.533 21.88 119.013 21.88C120.957 21.88 122.589 22.648 123.525 23.896L123.549 22.144ZM119.301 32.2C121.653 32.2 123.285 30.496 123.285 28.072C123.285 25.648 121.653 23.944 119.301 23.944C116.973 23.944 115.317 25.648 115.317 28.072C115.317 30.496 116.973 32.2 119.301 32.2ZM138.666 17.2H140.898V34H138.906L138.882 32.248C137.97 33.496 136.314 34.264 134.346 34.264C130.938 34.264 128.466 31.816 128.466 28.072C128.466 24.328 130.938 21.88 134.346 21.88C136.17 21.88 137.73 22.528 138.666 23.632V17.2ZM134.682 32.2C137.01 32.2 138.666 30.496 138.666 28.072C138.666 25.648 137.01 23.944 134.682 23.944C132.354 23.944 130.698 25.648 130.698 28.072C130.698 30.496 132.354 32.2 134.682 32.2ZM162.35 25.36C163.91 25.888 165.086 27.568 165.086 29.392C165.086 32.344 162.95 34 159.158 34H151.31V17.2H159.158C162.494 17.2 164.534 18.856 164.534 21.616C164.534 23.32 163.718 24.664 162.35 25.36ZM159.254 19.336H153.638V24.328H159.254C161.126 24.328 162.254 23.416 162.254 21.856C162.254 20.272 161.102 19.336 159.254 19.336ZM159.446 31.84C161.486 31.84 162.758 30.808 162.758 29.104C162.758 27.424 161.51 26.416 159.446 26.416H153.638V31.84H159.446ZM173.799 21.928C174.927 21.928 176.007 22.288 176.703 22.864L175.695 24.736C175.023 24.304 174.399 24.112 173.679 24.112C171.639 24.112 170.295 25.72 170.295 28.168V34H168.063V22.144H170.055L170.079 24.136C171.015 22.648 172.215 21.928 173.799 21.928ZM183.783 34.264C179.991 34.264 177.519 31.6 177.519 28.072C177.519 24.544 179.991 21.88 183.783 21.88C187.551 21.88 190.023 24.544 190.023 28.072C190.023 31.6 187.551 34.264 183.783 34.264ZM183.783 32.2C186.207 32.2 187.791 30.328 187.791 28.072C187.791 25.816 186.207 23.944 183.783 23.944C181.335 23.944 179.751 25.816 179.751 28.072C179.751 30.328 181.335 32.2 183.783 32.2ZM198.39 34.264C194.67 34.264 192.126 31.792 192.126 28.072C192.126 24.4 194.694 21.88 198.366 21.88C200.07 21.88 201.534 22.48 202.806 23.704L201.414 25.192C200.622 24.376 199.542 23.944 198.39 23.944C196.062 23.944 194.358 25.6 194.358 28.072C194.358 30.544 196.038 32.2 198.39 32.2C199.614 32.2 200.742 31.72 201.534 30.88L202.926 32.416C201.63 33.688 200.19 34.264 198.39 34.264ZM211.773 21.928C214.893 21.928 216.861 24.064 216.861 27.424V34H214.629V27.568C214.629 25.288 213.453 23.992 211.437 23.992C209.277 23.992 207.765 25.552 207.765 27.688V34H205.533V17.2H207.765V23.68C208.749 22.528 210.117 21.928 211.773 21.928ZM229.182 22.144H231.414V34H229.422L229.398 32.32C228.39 33.568 226.926 34.216 225.246 34.216C222.198 34.216 220.23 32.08 220.23 28.72V22.144H222.462V28.576C222.462 30.856 223.614 32.152 225.558 32.152C227.718 32.152 229.182 30.592 229.182 28.456V22.144ZM240.835 21.928C241.963 21.928 243.043 22.288 243.739 22.864L242.731 24.736C242.059 24.304 241.435 24.112 240.715 24.112C238.675 24.112 237.331 25.72 237.331 28.168V34H235.099V22.144H237.091L237.115 24.136C238.051 22.648 239.251 21.928 240.835 21.928ZM250.627 21.904C254.707 21.904 257.011 24.592 256.675 28.96H246.859C247.075 31 248.635 32.248 250.915 32.248C252.355 32.248 253.819 31.696 254.515 30.856L255.955 32.224C254.827 33.52 252.907 34.312 250.867 34.312C247.051 34.312 244.555 31.84 244.555 28.072C244.555 24.424 247.003 21.904 250.627 21.904ZM250.699 23.896C248.611 23.896 247.243 25.072 246.883 27.064H254.563C254.371 25.144 252.907 23.896 250.699 23.896Z" fill="white"/>
<path d="M26.6189 34H26.4189V34.2H26.6189V34ZM26.6189 17.2V17H26.4189V17.2H26.6189ZM28.9469 19.384V19.184H28.7469V19.384H28.9469ZM28.9469 31.816H28.7469V32.016H28.9469V31.816ZM32.8589 17.2V17.4C35.321 17.4 37.3801 18.2297 38.8231 19.661C40.2659 21.0921 41.1069 23.1389 41.1069 25.6H41.3069H41.5069C41.5069 23.0451 40.632 20.8919 39.1048 19.377C37.5777 17.8623 35.4129 17 32.8589 17V17.2ZM41.3069 25.6H41.1069C41.1069 28.0611 40.2659 30.1079 38.8231 31.539C37.3801 32.9703 35.321 33.8 32.8589 33.8V34V34.2C35.4129 34.2 37.5777 33.3377 39.1048 31.823C40.632 30.3081 41.5069 28.1549 41.5069 25.6H41.3069ZM32.8589 34V33.8H26.6189V34V34.2H32.8589V34ZM26.6189 34H26.8189V17.2H26.6189H26.4189V34H26.6189ZM26.6189 17.2V17.4H32.8589V17.2V17H26.6189V17.2ZM32.8589 31.816V32.016C34.7076 32.016 36.279 31.3618 37.3881 30.2246C38.4968 29.0879 39.1309 27.4817 39.1309 25.6H38.9309H38.7309C38.7309 27.3903 38.129 28.8921 37.1017 29.9454C36.0749 30.9982 34.6102 31.616 32.8589 31.616V31.816ZM38.9309 25.6H39.1309C39.1309 23.7178 38.4905 22.1116 37.3789 20.9752C36.267 19.8384 34.6959 19.184 32.8589 19.184V19.384V19.584C34.5979 19.584 36.0628 20.2016 37.0929 21.2548C38.1233 22.3084 38.7309 23.8102 38.7309 25.6H38.9309ZM32.8589 19.384V19.184H28.9469V19.384V19.584H32.8589V19.384ZM28.9469 19.384H28.7469V31.816H28.9469H29.1469V19.384H28.9469ZM28.9469 31.816V32.016H32.8589V31.816V31.616H28.9469V31.816ZM49.7583 34.264V34.064C47.9108 34.064 46.3977 33.416 45.3467 32.3505C44.295 31.2844 43.6943 29.7885 43.6943 28.072H43.4943H43.2943C43.2943 29.8835 43.9296 31.4836 45.0619 32.6315C46.1948 33.78 47.8137 34.464 49.7583 34.464V34.264ZM43.4943 28.072H43.6943C43.6943 26.3555 44.295 24.8596 45.3467 23.7935C46.3977 22.728 47.9108 22.08 49.7583 22.08V21.88V21.68C47.8137 21.68 46.1948 22.364 45.0619 23.5125C43.9296 24.6604 43.2943 26.2605 43.2943 28.072H43.4943ZM49.7583 21.88V22.08C51.5934 22.08 53.1005 22.7277 54.1487 23.7933C55.1975 24.8594 55.7983 26.3555 55.7983 28.072H55.9983H56.1983C56.1983 26.2605 55.563 24.6606 54.4339 23.5127C53.3041 22.3643 51.6912 21.68 49.7583 21.68V21.88ZM55.9983 28.072H55.7983C55.7983 29.7885 55.1975 31.2846 54.1487 32.3507C53.1005 33.4163 51.5934 34.064 49.7583 34.064V34.264V34.464C51.6912 34.464 53.3041 33.7797 54.4339 32.6313C55.563 31.4834 56.1983 29.8835 56.1983 28.072H55.9983ZM49.7583 32.2V32.4C52.3058 32.4 53.9663 30.425 53.9663 28.072H53.7663H53.5663C53.5663 30.231 52.0588 32 49.7583 32V32.2ZM53.7663 28.072H53.9663C53.9663 25.719 52.3058 23.744 49.7583 23.744V23.944V24.144C52.0588 24.144 53.5663 25.913 53.5663 28.072H53.7663ZM49.7583 23.944V23.744C47.1876 23.744 45.5263 25.7182 45.5263 28.072H45.7263H45.9263C45.9263 25.9138 47.433 24.144 49.7583 24.144V23.944ZM45.7263 28.072H45.5263C45.5263 30.4258 47.1876 32.4 49.7583 32.4V32.2V32C47.433 32 45.9263 30.2302 45.9263 28.072H45.7263ZM73.6658 22.144V21.944H73.5185L73.4748 22.0847L73.6658 22.144ZM76.0178 22.144L76.2075 22.2074L76.2955 21.944H76.0178V22.144ZM72.0578 34V34.2H72.2019L72.2475 34.0634L72.0578 34ZM69.6098 34L69.4201 34.0632L69.4657 34.2H69.6098V34ZM68.4578 30.544L68.6476 30.4807L68.6461 30.4763L68.4578 30.544ZM66.5858 25.336L66.7741 25.2683L66.5858 24.7447L66.3976 25.2683L66.5858 25.336ZM64.7138 30.544L64.5256 30.4763L64.5245 30.4796L64.7138 30.544ZM63.5378 34V34.2H63.6811L63.7272 34.0644L63.5378 34ZM61.0898 34L60.9003 34.0637L60.9461 34.2H61.0898V34ZM57.1058 22.144V21.944H56.8276L56.9163 22.2077L57.1058 22.144ZM59.4818 22.144L59.6726 22.0838L59.6284 21.944H59.4818V22.144ZM60.9218 26.704L61.1135 26.6466L61.1126 26.6438L60.9218 26.704ZM62.3378 31.432L62.1463 31.4894L62.3234 32.0807L62.5267 31.4979L62.3378 31.432ZM65.5778 22.144V21.944H65.4358L65.389 22.0781L65.5778 22.144ZM67.5698 22.144L67.7591 22.0794L67.713 21.944H67.5698V22.144ZM70.7618 31.504L70.5725 31.5686L70.7708 32.15L70.9529 31.5633L70.7618 31.504ZM73.6658 22.144V22.344H76.0178V22.144V21.944H73.6658V22.144ZM76.0178 22.144L75.8281 22.0806L71.8681 33.9366L72.0578 34L72.2475 34.0634L76.2075 22.2074L76.0178 22.144ZM72.0578 34V33.8H69.6098V34V34.2H72.0578V34ZM69.6098 34L69.7996 33.9368L68.6476 30.4808L68.4578 30.544L68.2681 30.6072L69.4201 34.0632L69.6098 34ZM68.4578 30.544L68.6461 30.4763L66.7741 25.2683L66.5858 25.336L66.3976 25.4037L68.2696 30.6117L68.4578 30.544ZM66.5858 25.336L66.3976 25.2683L64.5256 30.4763L64.7138 30.544L64.9021 30.6117L66.7741 25.4037L66.5858 25.336ZM64.7138 30.544L64.5245 30.4796L63.3485 33.9356L63.5378 34L63.7272 34.0644L64.9032 30.6084L64.7138 30.544ZM63.5378 34V33.8H61.0898V34V34.2H63.5378V34ZM61.0898 34L61.2794 33.9363L57.2954 22.0803L57.1058 22.144L56.9163 22.2077L60.9003 34.0637L61.0898 34ZM57.1058 22.144V22.344H59.4818V22.144V21.944H57.1058V22.144ZM59.4818 22.144L59.2911 22.2042L60.7311 26.7642L60.9218 26.704L61.1126 26.6438L59.6726 22.0838L59.4818 22.144ZM60.9218 26.704L60.7303 26.7614L62.1463 31.4894L62.3378 31.432L62.5294 31.3746L61.1134 26.6466L60.9218 26.704ZM62.3378 31.432L62.5267 31.4979L65.7667 22.2099L65.5778 22.144L65.389 22.0781L62.149 31.3661L62.3378 31.432ZM65.5778 22.144V22.344H67.5698V22.144V21.944H65.5778V22.144ZM67.5698 22.144L67.3806 22.2086L70.5725 31.5686L70.7618 31.504L70.9511 31.4394L67.7591 22.0794L67.5698 22.144ZM70.7618 31.504L70.9529 31.5633L73.8569 22.2033L73.6658 22.144L73.4748 22.0847L70.5708 31.4447L70.7618 31.504ZM89.7974 34V34.2H89.9974V34H89.7974ZM87.5654 34H87.3654V34.2H87.5654V34ZM80.7014 34V34.2H80.9014V34H80.7014ZM78.4694 34H78.2694V34.2H78.4694V34ZM78.4694 22.144V21.944H78.2694V22.144H78.4694ZM80.4614 22.144L80.6614 22.1411L80.6585 21.944H80.4614V22.144ZM80.4854 23.8L80.2854 23.8029L80.2933 24.3479L80.6398 23.9271L80.4854 23.8ZM84.7094 21.928V22.128C86.1971 22.128 87.4135 22.6439 88.259 23.5523C89.1058 24.462 89.5974 25.7838 89.5974 27.424H89.7974H89.9974C89.9974 25.7042 89.481 24.278 88.5518 23.2797C87.6213 22.2801 86.2937 21.728 84.7094 21.728V21.928ZM89.7974 27.424H89.5974V34H89.7974H89.9974V27.424H89.7974ZM89.7974 34V33.8H87.5654V34V34.2H89.7974V34ZM87.5654 34H87.7654V27.568H87.5654H87.3654V34H87.5654ZM87.5654 27.568H87.7654C87.7654 26.3956 87.463 25.4481 86.8743 24.7915C86.2829 24.1318 85.426 23.792 84.3734 23.792V23.992V24.192C85.3369 24.192 86.0759 24.5002 86.5765 25.0585C87.0798 25.6199 87.3654 26.4604 87.3654 27.568H87.5654ZM84.3734 23.992V23.792C82.1004 23.792 80.5014 25.4442 80.5014 27.688H80.7014H80.9014C80.9014 25.6598 82.3265 24.192 84.3734 24.192V23.992ZM80.7014 27.688H80.5014V34H80.7014H80.9014V27.688H80.7014ZM80.7014 34V33.8H78.4694V34V34.2H80.7014V34ZM78.4694 34H78.6694V22.144H78.4694H78.2694V34H78.4694ZM78.4694 22.144V22.344H80.4614V22.144V21.944H78.4694V22.144ZM80.4614 22.144L80.2614 22.1469L80.2854 23.8029L80.4854 23.8L80.6854 23.7971L80.6614 22.1411L80.4614 22.144ZM80.4854 23.8L80.6398 23.9271C81.6052 22.7549 83.0335 22.128 84.7094 22.128V21.928V21.728C82.9294 21.728 81.3817 22.3971 80.331 23.6729L80.4854 23.8ZM93.3344 34H93.1344V34.2H93.3344V34ZM93.3344 17.2V17H93.1344V17.2H93.3344ZM95.5664 17.2H95.7664V17H95.5664V17.2ZM95.5664 34V34.2H95.7664V34H95.5664ZM93.3344 34H93.5344V17.2H93.3344H93.1344V34H93.3344ZM93.3344 17.2V17.4H95.5664V17.2V17H93.3344V17.2ZM95.5664 17.2H95.3664V34H95.5664H95.7664V17.2H95.5664ZM95.5664 34V33.8H93.3344V34V34.2H95.5664V34ZM104.742 34.264V34.064C102.894 34.064 101.381 33.416 100.33 32.3505C99.2785 31.2844 98.6777 29.7885 98.6777 28.072H98.4777H98.2777C98.2777 29.8835 98.913 31.4836 100.045 32.6315C101.178 33.78 102.797 34.464 104.742 34.464V34.264ZM98.4777 28.072H98.6777C98.6777 26.3555 99.2785 24.8596 100.33 23.7935C101.381 22.728 102.894 22.08 104.742 22.08V21.88V21.68C102.797 21.68 101.178 22.364 100.045 23.5125C98.913 24.6604 98.2777 26.2605 98.2777 28.072H98.4777ZM104.742 21.88V22.08C106.577 22.08 108.084 22.7277 109.132 23.7933C110.181 24.8594 110.782 26.3555 110.782 28.072H110.982H111.182C111.182 26.2605 110.546 24.6606 109.417 23.5127C108.288 22.3643 106.675 21.68 104.742 21.68V21.88ZM110.982 28.072H110.782C110.782 29.7885 110.181 31.2846 109.132 32.3507C108.084 33.4163 106.577 34.064 104.742 34.064V34.264V34.464C106.675 34.464 108.288 33.7797 109.417 32.6313C110.546 31.4834 111.182 29.8835 111.182 28.072H110.982ZM104.742 32.2V32.4C107.289 32.4 108.95 30.425 108.95 28.072H108.75H108.55C108.55 30.231 107.042 32 104.742 32V32.2ZM108.75 28.072H108.95C108.95 25.719 107.289 23.744 104.742 23.744V23.944V24.144C107.042 24.144 108.55 25.913 108.55 28.072H108.75ZM104.742 23.944V23.744C102.171 23.744 100.51 25.7182 100.51 28.072H100.71H100.91C100.91 25.9138 102.416 24.144 104.742 24.144V23.944ZM100.71 28.072H100.51C100.51 30.4258 102.171 32.4 104.742 32.4V32.2V32C102.416 32 100.91 30.2302 100.91 28.072H100.71ZM123.549 22.144V21.944H123.352L123.349 22.1413L123.549 22.144ZM125.517 22.144H125.717V21.944H125.517V22.144ZM125.517 34V34.2H125.717V34H125.517ZM123.549 34L123.349 34.0027L123.352 34.2H123.549V34ZM123.525 32.248L123.725 32.2453L123.717 31.6587L123.365 32.128L123.525 32.248ZM123.525 23.896L123.365 24.016L123.717 24.4853L123.725 23.8987L123.525 23.896ZM123.549 22.144V22.344H125.517V22.144V21.944H123.549V22.144ZM125.517 22.144H125.317V34H125.517H125.717V22.144H125.517ZM125.517 34V33.8H123.549V34V34.2H125.517V34ZM123.549 34L123.749 33.9973L123.725 32.2453L123.525 32.248L123.325 32.2507L123.349 34.0027L123.549 34ZM123.525 32.248L123.365 32.128C122.473 33.3169 120.906 34.064 119.013 34.064V34.264V34.464C121.008 34.464 122.705 33.6751 123.685 32.368L123.525 32.248ZM119.013 34.264V34.064C117.324 34.064 115.895 33.4475 114.888 32.3976C113.881 31.3471 113.285 29.8506 113.285 28.072H113.085H112.885C112.885 29.9414 113.513 31.5409 114.6 32.6744C115.687 33.8085 117.222 34.464 119.013 34.464V34.264ZM113.085 28.072H113.285C113.285 26.2934 113.881 24.7969 114.888 23.7464C115.895 22.6965 117.324 22.08 119.013 22.08V21.88V21.68C117.222 21.68 115.687 22.3355 114.6 23.4696C113.513 24.6031 112.885 26.2026 112.885 28.072H113.085ZM119.013 21.88V22.08C120.906 22.08 122.473 22.8271 123.365 24.016L123.525 23.896L123.685 23.776C122.705 22.4689 121.008 21.68 119.013 21.68V21.88ZM123.525 23.896L123.725 23.8987L123.749 22.1467L123.549 22.144L123.349 22.1413L123.325 23.8933L123.525 23.896ZM119.301 32.2V32.4C120.527 32.4 121.576 31.9548 122.319 31.1837C123.061 30.4132 123.485 29.3296 123.485 28.072H123.285H123.085C123.085 29.2384 122.693 30.2188 122.031 30.9063C121.369 31.5932 120.427 32 119.301 32V32.2ZM123.285 28.072H123.485C123.485 26.8144 123.061 25.7308 122.319 24.9603C121.576 24.1892 120.527 23.744 119.301 23.744V23.944V24.144C120.427 24.144 121.369 24.5508 122.031 25.2377C122.693 25.9252 123.085 26.9056 123.085 28.072H123.285ZM119.301 23.944V23.744C118.086 23.744 117.037 24.1895 116.292 24.96C115.547 25.7301 115.117 26.8136 115.117 28.072H115.317H115.517C115.517 26.9064 115.914 25.9259 116.58 25.238C117.245 24.5505 118.187 24.144 119.301 24.144V23.944ZM115.317 28.072H115.117C115.117 29.3304 115.547 30.4139 116.292 31.184C117.037 31.9545 118.086 32.4 119.301 32.4V32.2V32C118.187 32 117.245 31.5935 116.58 30.906C115.914 30.2181 115.517 29.2376 115.517 28.072H115.317ZM138.666 17.2V17H138.466V17.2H138.666ZM140.898 17.2H141.098V17H140.898V17.2ZM140.898 34V34.2H141.098V34H140.898ZM138.906 34L138.706 34.0027L138.709 34.2H138.906V34ZM138.882 32.248L139.082 32.2453L139.074 31.6466L138.721 32.13L138.882 32.248ZM138.666 23.632L138.514 23.7613L138.866 24.1772V23.632H138.666ZM138.666 17.2V17.4H140.898V17.2V17H138.666V17.2ZM140.898 17.2H140.698V34H140.898H141.098V17.2H140.898ZM140.898 34V33.8H138.906V34V34.2H140.898V34ZM138.906 34L139.106 33.9973L139.082 32.2453L138.882 32.248L138.682 32.2507L138.706 34.0027L138.906 34ZM138.882 32.248L138.721 32.13C137.854 33.3156 136.265 34.064 134.346 34.064V34.264V34.464C136.363 34.464 138.086 33.6764 139.044 32.366L138.882 32.248ZM134.346 34.264V34.064C132.691 34.064 131.275 33.4707 130.272 32.433C129.269 31.3951 128.666 29.8992 128.666 28.072H128.466H128.266C128.266 29.9888 128.9 31.589 129.984 32.711C131.069 33.8333 132.593 34.464 134.346 34.464V34.264ZM128.466 28.072H128.666C128.666 26.2448 129.269 24.749 130.272 23.711C131.275 22.6733 132.691 22.08 134.346 22.08V21.88V21.68C132.593 21.68 131.069 22.3107 129.984 23.433C128.9 24.555 128.266 26.1552 128.266 28.072H128.466ZM134.346 21.88V22.08C136.126 22.08 137.624 22.712 138.514 23.7613L138.666 23.632L138.819 23.5027C137.836 22.344 136.215 21.68 134.346 21.68V21.88ZM138.666 23.632H138.866V17.2H138.666H138.466V23.632H138.666ZM134.682 32.2V32.4C135.897 32.4 136.946 31.9545 137.691 31.184C138.436 30.4139 138.866 29.3304 138.866 28.072H138.666H138.466C138.466 29.2376 138.069 30.2181 137.403 30.906C136.738 31.5935 135.796 32 134.682 32V32.2ZM138.666 28.072H138.866C138.866 26.8136 138.436 25.7301 137.691 24.96C136.946 24.1895 135.897 23.744 134.682 23.744V23.944V24.144C135.796 24.144 136.738 24.5505 137.403 25.238C138.069 25.9259 138.466 26.9064 138.466 28.072H138.666ZM134.682 23.944V23.744C133.468 23.744 132.418 24.1895 131.673 24.96C130.929 25.7301 130.498 26.8136 130.498 28.072H130.698H130.898C130.898 26.9064 131.296 25.9259 131.961 25.238C132.626 24.5505 133.569 24.144 134.682 24.144V23.944ZM130.698 28.072H130.498C130.498 29.3304 130.929 30.4139 131.673 31.184C132.418 31.9545 133.468 32.4 134.682 32.4V32.2V32C133.569 32 132.626 31.5935 131.961 30.906C131.296 30.2181 130.898 29.2376 130.898 28.072H130.698ZM162.35 25.36L162.259 25.1817L161.836 25.3972L162.286 25.5494L162.35 25.36ZM151.31 34H151.11V34.2H151.31V34ZM151.31 17.2V17H151.11V17.2H151.31ZM153.638 19.336V19.136H153.438V19.336H153.638ZM153.638 24.328H153.438V24.528H153.638V24.328ZM153.638 26.416V26.216H153.438V26.416H153.638ZM153.638 31.84H153.438V32.04H153.638V31.84ZM162.35 25.36L162.286 25.5494C163.758 26.0477 164.886 27.6465 164.886 29.392H165.086H165.286C165.286 27.4895 164.062 25.7283 162.414 25.1706L162.35 25.36ZM165.086 29.392H164.886C164.886 30.8149 164.374 31.9049 163.421 32.6451C162.461 33.391 161.029 33.8 159.158 33.8V34V34.2C161.079 34.2 162.611 33.781 163.667 32.9609C164.73 32.1351 165.286 30.9211 165.286 29.392H165.086ZM159.158 34V33.8H151.31V34V34.2H159.158V34ZM151.31 34H151.51V17.2H151.31H151.11V34H151.31ZM151.31 17.2V17.4H159.158V17.2V17H151.31V17.2ZM159.158 17.2V17.4C160.796 17.4 162.09 17.8065 162.97 18.5277C163.846 19.2449 164.334 20.2895 164.334 21.616H164.534H164.734C164.734 20.1824 164.202 19.0191 163.224 18.2183C162.251 17.4215 160.857 17 159.158 17V17.2ZM164.534 21.616H164.334C164.334 23.2502 163.556 24.5223 162.259 25.1817L162.35 25.36L162.441 25.5383C163.881 24.8057 164.734 23.3898 164.734 21.616H164.534ZM159.254 19.336V19.136H153.638V19.336V19.536H159.254V19.336ZM153.638 19.336H153.438V24.328H153.638H153.838V19.336H153.638ZM153.638 24.328V24.528H159.254V24.328V24.128H153.638V24.328ZM159.254 24.328V24.528C160.22 24.528 161.02 24.2929 161.583 23.8317C162.151 23.3661 162.454 22.6883 162.454 21.856H162.254H162.054C162.054 22.5837 161.793 23.1419 161.329 23.5223C160.86 23.9071 160.16 24.128 159.254 24.128V24.328ZM162.254 21.856H162.454C162.454 21.0116 162.145 20.3225 161.575 19.8483C161.01 19.3779 160.21 19.136 159.254 19.136V19.336V19.536C160.147 19.536 160.846 19.7621 161.319 20.1557C161.787 20.5455 162.054 21.1164 162.054 21.856H162.254ZM159.446 31.84V32.04C160.498 32.04 161.375 31.7741 161.994 31.2655C162.618 30.753 162.958 30.0101 162.958 29.104H162.758H162.558C162.558 29.9019 162.263 30.527 161.74 30.9565C161.213 31.3899 160.435 31.64 159.446 31.64V31.84ZM162.758 29.104H162.958C162.958 28.21 162.624 27.4784 162.002 26.9746C161.386 26.4751 160.508 26.216 159.446 26.216V26.416V26.616C160.448 26.616 161.227 26.8609 161.75 27.2854C162.269 27.7056 162.558 28.318 162.558 29.104H162.758ZM159.446 26.416V26.216H153.638V26.416V26.616H159.446V26.416ZM153.638 26.416H153.438V31.84H153.638H153.838V26.416H153.638ZM153.638 31.84V32.04H159.446V31.84V31.64H153.638V31.84ZM176.703 22.864L176.88 22.9588L176.957 22.8145L176.831 22.7099L176.703 22.864ZM175.695 24.736L175.587 24.9042L175.769 25.0211L175.872 24.8308L175.695 24.736ZM170.295 34V34.2H170.495V34H170.295ZM168.063 34H167.863V34.2H168.063V34ZM168.063 22.144V21.944H167.863V22.144H168.063ZM170.055 22.144L170.255 22.1416L170.253 21.944H170.055V22.144ZM170.079 24.136L169.879 24.1384L169.888 24.8166L170.249 24.2425L170.079 24.136ZM173.799 21.928V22.128C174.89 22.128 175.922 22.4771 176.576 23.0181L176.703 22.864L176.831 22.7099C176.093 22.0989 174.965 21.728 173.799 21.728V21.928ZM176.703 22.864L176.527 22.7692L175.519 24.6412L175.695 24.736L175.872 24.8308L176.88 22.9588L176.703 22.864ZM175.695 24.736L175.804 24.5678C175.103 24.1172 174.442 23.912 173.679 23.912V24.112V24.312C174.357 24.312 174.944 24.4908 175.587 24.9042L175.695 24.736ZM173.679 24.112V23.912C172.603 23.912 171.699 24.3384 171.069 25.0938C170.441 25.8458 170.095 26.9088 170.095 28.168H170.295H170.495C170.495 26.9792 170.822 26.0142 171.376 25.3502C171.927 24.6895 172.716 24.312 173.679 24.312V24.112ZM170.295 28.168H170.095V34H170.295H170.495V28.168H170.295ZM170.295 34V33.8H168.063V34V34.2H170.295V34ZM168.063 34H168.263V22.144H168.063H167.863V34H168.063ZM168.063 22.144V22.344H170.055V22.144V21.944H168.063V22.144ZM170.055 22.144L169.855 22.1464L169.879 24.1384L170.079 24.136L170.279 24.1336L170.255 22.1416L170.055 22.144ZM170.079 24.136L170.249 24.2425C170.704 23.5187 171.217 22.9921 171.799 22.6459C172.379 22.3003 173.039 22.128 173.799 22.128V21.928V21.728C172.976 21.728 172.243 21.9157 171.594 22.3021C170.946 22.6879 170.391 23.2653 169.91 24.0295L170.079 24.136ZM183.783 34.264V34.064C181.936 34.064 180.423 33.416 179.372 32.3505C178.32 31.2844 177.719 29.7885 177.719 28.072H177.519H177.319C177.319 29.8835 177.955 31.4836 179.087 32.6315C180.22 33.78 181.839 34.464 183.783 34.464V34.264ZM177.519 28.072H177.719C177.719 26.3555 178.32 24.8596 179.372 23.7935C180.423 22.728 181.936 22.08 183.783 22.08V21.88V21.68C181.839 21.68 180.22 22.364 179.087 23.5125C177.955 24.6604 177.319 26.2605 177.319 28.072H177.519ZM183.783 21.88V22.08C185.618 22.08 187.125 22.7277 188.174 23.7933C189.223 24.8594 189.823 26.3555 189.823 28.072H190.023H190.223C190.223 26.2605 189.588 24.6606 188.459 23.5127C187.329 22.3643 185.716 21.68 183.783 21.68V21.88ZM190.023 28.072H189.823C189.823 29.7885 189.223 31.2846 188.174 32.3507C187.125 33.4163 185.618 34.064 183.783 34.064V34.264V34.464C185.716 34.464 187.329 33.7797 188.459 32.6313C189.588 31.4834 190.223 29.8835 190.223 28.072H190.023ZM183.783 32.2V32.4C186.331 32.4 187.991 30.425 187.991 28.072H187.791H187.591C187.591 30.231 186.084 32 183.783 32V32.2ZM187.791 28.072H187.991C187.991 25.719 186.331 23.744 183.783 23.744V23.944V24.144C186.084 24.144 187.591 25.913 187.591 28.072H187.791ZM183.783 23.944V23.744C181.213 23.744 179.551 25.7182 179.551 28.072H179.751H179.951C179.951 25.9138 181.458 24.144 183.783 24.144V23.944ZM179.751 28.072H179.551C179.551 30.4258 181.213 32.4 183.783 32.4V32.2V32C181.458 32 179.951 30.2302 179.951 28.072H179.751ZM202.806 23.704L202.953 23.8406L203.087 23.6966L202.945 23.5599L202.806 23.704ZM201.414 25.192L201.271 25.3313L201.417 25.4819L201.561 25.3286L201.414 25.192ZM201.534 30.88L201.683 30.7457L201.537 30.5854L201.389 30.7428L201.534 30.88ZM202.926 32.416L203.067 32.5587L203.204 32.4241L203.075 32.2817L202.926 32.416ZM198.39 34.264V34.064C196.576 34.064 195.062 33.4617 194.004 32.4204C192.945 31.3794 192.326 29.885 192.326 28.072H192.126H191.926C191.926 29.979 192.58 31.5806 193.723 32.7056C194.867 33.8303 196.485 34.464 198.39 34.464V34.264ZM192.126 28.072H192.326C192.326 26.284 192.951 24.789 194.01 23.7412C195.07 22.6932 196.577 22.08 198.366 22.08V21.88V21.68C196.484 21.68 194.871 22.3268 193.729 23.4568C192.586 24.587 191.926 26.188 191.926 28.072H192.126ZM198.366 21.88V22.08C200.017 22.08 201.432 22.6587 202.668 23.8481L202.806 23.704L202.945 23.5599C201.637 22.3013 200.124 21.68 198.366 21.68V21.88ZM202.806 23.704L202.66 23.5674L201.268 25.0554L201.414 25.192L201.561 25.3286L202.953 23.8406L202.806 23.704ZM201.414 25.192L201.558 25.0527C200.726 24.1955 199.593 23.744 198.39 23.744V23.944V24.144C199.492 24.144 200.519 24.5565 201.271 25.3313L201.414 25.192ZM198.39 23.944V23.744C197.178 23.744 196.117 24.1761 195.359 24.9402C194.602 25.7044 194.158 26.7888 194.158 28.072H194.358H194.558C194.558 26.8832 194.967 25.9036 195.643 25.2218C196.32 24.5399 197.275 24.144 198.39 24.144V23.944ZM194.358 28.072H194.158C194.158 29.3544 194.595 30.4389 195.35 31.2035C196.105 31.9682 197.166 32.4 198.39 32.4V32.2V32C197.263 32 196.308 31.6038 195.635 30.9225C194.962 30.2411 194.558 29.2616 194.558 28.072H194.358ZM198.39 32.2V32.4C199.667 32.4 200.849 31.8991 201.68 31.0172L201.534 30.88L201.389 30.7428C200.636 31.5409 199.562 32 198.39 32V32.2ZM201.534 30.88L201.386 31.0143L202.778 32.5503L202.926 32.416L203.075 32.2817L201.683 30.7457L201.534 30.88ZM202.926 32.416L202.786 32.2733C201.528 33.508 200.139 34.064 198.39 34.064V34.264V34.464C200.242 34.464 201.733 33.868 203.067 32.5587L202.926 32.416ZM216.861 34V34.2H217.061V34H216.861ZM214.629 34H214.429V34.2H214.629V34ZM207.765 34V34.2H207.965V34H207.765ZM205.533 34H205.333V34.2H205.533V34ZM205.533 17.2V17H205.333V17.2H205.533ZM207.765 17.2H207.965V17H207.765V17.2ZM207.765 23.68H207.565V24.2221L207.918 23.8099L207.765 23.68ZM211.773 21.928V22.128C213.286 22.128 214.502 22.6443 215.341 23.5518C216.181 24.461 216.661 25.7825 216.661 27.424H216.861H217.061C217.061 25.7055 216.558 24.279 215.634 23.2802C214.709 22.2797 213.381 21.728 211.773 21.728V21.928ZM216.861 27.424H216.661V34H216.861H217.061V27.424H216.861ZM216.861 34V33.8H214.629V34V34.2H216.861V34ZM214.629 34H214.829V27.568H214.629H214.429V34H214.629ZM214.629 27.568H214.829C214.829 26.3956 214.527 25.4481 213.938 24.7915C213.347 24.1318 212.49 23.792 211.437 23.792V23.992V24.192C212.401 24.192 213.14 24.5002 213.641 25.0585C214.144 25.6199 214.429 26.4604 214.429 27.568H214.629ZM211.437 23.992V23.792C209.164 23.792 207.565 25.4442 207.565 27.688H207.765H207.965C207.965 25.6598 209.391 24.192 211.437 24.192V23.992ZM207.765 27.688H207.565V34H207.765H207.965V27.688H207.765ZM207.765 34V33.8H205.533V34V34.2H207.765V34ZM205.533 34H205.733V17.2H205.533H205.333V34H205.533ZM205.533 17.2V17.4H207.765V17.2V17H205.533V17.2ZM207.765 17.2H207.565V23.68H207.765H207.965V17.2H207.765ZM207.765 23.68L207.918 23.8099C208.86 22.7067 210.17 22.128 211.773 22.128V21.928V21.728C210.065 21.728 208.639 22.3493 207.613 23.5501L207.765 23.68ZM229.182 22.144V21.944H228.982V22.144H229.182ZM231.414 22.144H231.614V21.944H231.414V22.144ZM231.414 34V34.2H231.614V34H231.414ZM229.422 34L229.222 34.0029L229.225 34.2H229.422V34ZM229.398 32.32L229.598 32.3171L229.591 31.7639L229.243 32.1943L229.398 32.32ZM220.23 22.144V21.944H220.03V22.144H220.23ZM222.462 22.144H222.662V21.944H222.462V22.144ZM229.182 22.144V22.344H231.414V22.144V21.944H229.182V22.144ZM231.414 22.144H231.214V34H231.414H231.614V22.144H231.414ZM231.414 34V33.8H229.422V34V34.2H231.414V34ZM229.422 34L229.622 33.9971L229.598 32.3171L229.398 32.32L229.198 32.3229L229.222 34.0029L229.422 34ZM229.398 32.32L229.243 32.1943C228.277 33.3907 226.872 34.016 225.246 34.016V34.216V34.416C226.981 34.416 228.504 33.7453 229.554 32.4457L229.398 32.32ZM225.246 34.216V34.016C223.771 34.016 222.574 33.5006 221.743 32.593C220.911 31.6835 220.43 30.3615 220.43 28.72H220.23H220.03C220.03 30.4385 220.534 31.8645 221.448 32.863C222.363 33.8634 223.673 34.416 225.246 34.416V34.216ZM220.23 28.72H220.43V22.144H220.23H220.03V28.72H220.23ZM220.23 22.144V22.344H222.462V22.144V21.944H220.23V22.144ZM222.462 22.144H222.262V28.576H222.462H222.662V22.144H222.462ZM222.462 28.576H222.262C222.262 29.7474 222.558 30.694 223.131 31.3504C223.706 32.0106 224.54 32.352 225.558 32.352V32.152V31.952C224.633 31.952 223.919 31.6454 223.432 31.0876C222.943 30.526 222.662 29.6846 222.662 28.576H222.462ZM225.558 32.152V32.352C226.689 32.352 227.648 31.9429 228.324 31.2441C229 30.546 229.382 29.5703 229.382 28.456H229.182H228.982C228.982 29.4777 228.633 30.35 228.037 30.9659C227.441 31.5811 226.588 31.952 225.558 31.952V32.152ZM229.182 28.456H229.382V22.144H229.182H228.982V28.456H229.182ZM243.739 22.864L243.916 22.9588L243.993 22.8145L243.867 22.7099L243.739 22.864ZM242.731 24.736L242.623 24.9042L242.805 25.0211L242.908 24.8308L242.731 24.736ZM237.331 34V34.2H237.531V34H237.331ZM235.099 34H234.899V34.2H235.099V34ZM235.099 22.144V21.944H234.899V22.144H235.099ZM237.091 22.144L237.291 22.1416L237.289 21.944H237.091V22.144ZM237.115 24.136L236.915 24.1384L236.924 24.8166L237.285 24.2425L237.115 24.136ZM240.835 21.928V22.128C241.926 22.128 242.958 22.4771 243.612 23.0181L243.739 22.864L243.867 22.7099C243.129 22.0989 242.001 21.728 240.835 21.728V21.928ZM243.739 22.864L243.563 22.7692L242.555 24.6412L242.731 24.736L242.908 24.8308L243.916 22.9588L243.739 22.864ZM242.731 24.736L242.84 24.5678C242.139 24.1172 241.478 23.912 240.715 23.912V24.112V24.312C241.393 24.312 241.98 24.4908 242.623 24.9042L242.731 24.736ZM240.715 24.112V23.912C239.639 23.912 238.735 24.3384 238.105 25.0938C237.477 25.8458 237.131 26.9088 237.131 28.168H237.331H237.531C237.531 26.9792 237.858 26.0142 238.412 25.3502C238.963 24.6895 239.752 24.312 240.715 24.312V24.112ZM237.331 28.168H237.131V34H237.331H237.531V28.168H237.331ZM237.331 34V33.8H235.099V34V34.2H237.331V34ZM235.099 34H235.299V22.144H235.099H234.899V34H235.099ZM235.099 22.144V22.344H237.091V22.144V21.944H235.099V22.144ZM237.091 22.144L236.891 22.1464L236.915 24.1384L237.115 24.136L237.315 24.1336L237.291 22.1416L237.091 22.144ZM237.115 24.136L237.285 24.2425C237.74 23.5187 238.253 22.9921 238.835 22.6459C239.415 22.3003 240.075 22.128 240.835 22.128V21.928V21.728C240.012 21.728 239.279 21.9157 238.63 22.3021C237.982 22.6879 237.427 23.2653 236.946 24.0295L237.115 24.136ZM256.675 28.96V29.16H256.86L256.875 28.9753L256.675 28.96ZM246.859 28.96V28.76H246.637L246.66 28.9811L246.859 28.96ZM254.515 30.856L254.653 30.711L254.498 30.5636L254.361 30.7284L254.515 30.856ZM255.955 32.224L256.106 32.3553L256.232 32.2109L256.093 32.079L255.955 32.224ZM246.883 27.064L246.686 27.0284L246.644 27.264H246.883V27.064ZM254.563 27.064V27.264H254.784L254.762 27.0441L254.563 27.064ZM250.627 21.904V22.104C252.622 22.104 254.157 22.7597 255.155 23.9242C256.155 25.0909 256.641 26.7971 256.476 28.9447L256.675 28.96L256.875 28.9753C257.045 26.7549 256.547 24.9331 255.459 23.6638C254.369 22.3923 252.712 21.704 250.627 21.704V21.904ZM256.675 28.96V28.76H246.859V28.96V29.16H256.675V28.96ZM246.859 28.96L246.66 28.9811C246.773 30.0496 247.241 30.9216 247.988 31.5246C248.732 32.1259 249.739 32.448 250.915 32.448V32.248V32.048C249.811 32.048 248.898 31.7461 248.239 31.2134C247.581 30.6824 247.161 29.9104 247.058 28.9389L246.859 28.96ZM250.915 32.248V32.448C252.392 32.448 253.923 31.8847 254.669 30.9836L254.515 30.856L254.361 30.7284C253.716 31.5073 252.319 32.048 250.915 32.048V32.248ZM254.515 30.856L254.377 31.001L255.817 32.369L255.955 32.224L256.093 32.079L254.653 30.711L254.515 30.856ZM255.955 32.224L255.804 32.0927C254.721 33.3371 252.861 34.112 250.867 34.112V34.312V34.512C252.954 34.512 254.933 33.7029 256.106 32.3553L255.955 32.224ZM250.867 34.312V34.112C249.003 34.112 247.479 33.509 246.421 32.4628C245.363 31.4168 244.755 29.9108 244.755 28.072H244.555H244.355C244.355 30.0012 244.995 31.6152 246.14 32.7472C247.284 33.879 248.915 34.512 250.867 34.512V34.312ZM244.555 28.072H244.755C244.755 26.2935 245.351 24.804 246.375 23.76C247.398 22.7164 248.863 22.104 250.627 22.104V21.904V21.704C248.767 21.704 247.196 22.3516 246.089 23.48C244.983 24.608 244.355 26.2025 244.355 28.072H244.555ZM250.699 23.896V23.696C249.617 23.696 248.705 24.0014 248.015 24.5797C247.325 25.1579 246.873 25.995 246.686 27.0284L246.883 27.064L247.08 27.0996C247.253 26.141 247.666 25.3941 248.272 24.8863C248.878 24.3786 249.694 24.096 250.699 24.096V23.896ZM246.883 27.064V27.264H254.563V27.064V26.864H246.883V27.064ZM254.563 27.064L254.762 27.0441C254.661 26.0361 254.225 25.1942 253.515 24.606C252.807 24.0189 251.841 23.696 250.699 23.696V23.896V24.096C251.766 24.096 252.636 24.3971 253.26 24.914C253.882 25.4298 254.273 26.1719 254.364 27.0839L254.563 27.064Z" fill="white" mask="url(#path-2-outside-1_2207_446)"/>
<path d="M282 36V52H266L282 36Z" fill="white"/>
</svg>
