<svg width="111" height="24" viewBox="0 0 111 24" fill="none" xmlns="http://www.w3.org/2000/svg">
<rect width="111" height="24" rx="1.62526" fill="#1863DA"/>
<mask id="path-2-outside-1_3309_6221" maskUnits="userSpaceOnUse" x="23.5" y="7.5" width="65" height="9" fill="black">
<rect fill="white" x="23.5" y="7.5" width="65" height="9"/>
<path d="M26.4822 8.5C28.5722 8.5 30.0022 9.91 30.0022 12C30.0022 14.09 28.5722 15.5 26.4822 15.5H23.8822V8.5H26.4822ZM26.4822 14.59C27.9822 14.59 29.0122 13.53 29.0122 12C29.0122 10.47 27.9722 9.41 26.4822 9.41H24.8522V14.59H26.4822ZM33.5236 15.61C31.9436 15.61 30.9136 14.5 30.9136 13.03C30.9136 11.56 31.9436 10.45 33.5236 10.45C35.0936 10.45 36.1236 11.56 36.1236 13.03C36.1236 14.5 35.0936 15.61 33.5236 15.61ZM33.5236 14.75C34.5336 14.75 35.1936 13.97 35.1936 13.03C35.1936 12.09 34.5336 11.31 33.5236 11.31C32.5036 11.31 31.8436 12.09 31.8436 13.03C31.8436 13.97 32.5036 14.75 33.5236 14.75ZM43.4851 10.56H44.4651L42.8151 15.5H41.7951L41.3151 14.06L40.5351 11.89L39.7551 14.06L39.2651 15.5H38.2451L36.5851 10.56H37.5751L38.1751 12.46L38.7651 14.43L40.1151 10.56H40.9451L42.2751 14.46L43.4851 10.56ZM48.0866 10.47C49.3666 10.47 50.2066 11.36 50.2066 12.76V15.5H49.2766V12.82C49.2766 11.87 48.7866 11.33 47.9466 11.33C47.0466 11.33 46.4166 11.98 46.4166 12.87V15.5H45.4866V10.56H46.3166L46.3266 11.25C46.7466 10.74 47.3666 10.47 48.0866 10.47ZM51.6804 15.5V8.5H52.6104V15.5H51.6804ZM56.4334 15.61C54.8534 15.61 53.8234 14.5 53.8234 13.03C53.8234 11.56 54.8534 10.45 56.4334 10.45C58.0034 10.45 59.0334 11.56 59.0334 13.03C59.0334 14.5 58.0034 15.61 56.4334 15.61ZM56.4334 14.75C57.4434 14.75 58.1034 13.97 58.1034 13.03C58.1034 12.09 57.4434 11.31 56.4334 11.31C55.4134 11.31 54.7534 12.09 54.7534 13.03C54.7534 13.97 55.4134 14.75 56.4334 14.75ZM64.2697 10.56H65.0897V15.5H64.2697L64.2597 14.77C63.8697 15.29 63.1897 15.61 62.3797 15.61C60.9297 15.61 59.9097 14.55 59.9097 13.03C59.9097 11.51 60.9297 10.45 62.3797 10.45C63.1897 10.45 63.8697 10.77 64.2597 11.29L64.2697 10.56ZM62.4997 14.75C63.4797 14.75 64.1597 14.04 64.1597 13.03C64.1597 12.02 63.4797 11.31 62.4997 11.31C61.5297 11.31 60.8397 12.02 60.8397 13.03C60.8397 14.04 61.5297 14.75 62.4997 14.75ZM70.5686 8.5H71.4986V15.5H70.6686L70.6586 14.77C70.2786 15.29 69.5886 15.61 68.7686 15.61C67.3486 15.61 66.3186 14.59 66.3186 13.03C66.3186 11.47 67.3486 10.45 68.7686 10.45C69.5286 10.45 70.1786 10.72 70.5686 11.18V8.5ZM68.9086 14.75C69.8786 14.75 70.5686 14.04 70.5686 13.03C70.5686 12.02 69.8786 11.31 68.9086 11.31C67.9386 11.31 67.2486 12.02 67.2486 13.03C67.2486 14.04 67.9386 14.75 68.9086 14.75ZM81.3969 15.5H80.0569L76.8269 12.25V15.5H75.8369V8.5H76.8269V11.56L79.7969 8.5H81.0869L77.7769 11.88L81.3969 15.5ZM82.682 9.71C82.322 9.71 82.052 9.45 82.052 9.1C82.052 8.74 82.322 8.48 82.682 8.48C83.052 8.48 83.312 8.74 83.312 9.1C83.312 9.45 83.052 9.71 82.682 9.71ZM82.212 15.5V10.56H83.142V15.5H82.212ZM87.585 14.57L87.855 15.34C87.495 15.5 87.175 15.57 86.805 15.57C85.765 15.57 85.245 14.97 85.245 13.86V11.37H84.275V10.56H85.245V9.23L86.165 9.13V10.56H87.665V11.37H86.165V13.86C86.165 14.41 86.375 14.73 86.915 14.73C87.125 14.73 87.375 14.66 87.585 14.57Z"/>
</mask>
<path d="M26.4822 8.5C28.5722 8.5 30.0022 9.91 30.0022 12C30.0022 14.09 28.5722 15.5 26.4822 15.5H23.8822V8.5H26.4822ZM26.4822 14.59C27.9822 14.59 29.0122 13.53 29.0122 12C29.0122 10.47 27.9722 9.41 26.4822 9.41H24.8522V14.59H26.4822ZM33.5236 15.61C31.9436 15.61 30.9136 14.5 30.9136 13.03C30.9136 11.56 31.9436 10.45 33.5236 10.45C35.0936 10.45 36.1236 11.56 36.1236 13.03C36.1236 14.5 35.0936 15.61 33.5236 15.61ZM33.5236 14.75C34.5336 14.75 35.1936 13.97 35.1936 13.03C35.1936 12.09 34.5336 11.31 33.5236 11.31C32.5036 11.31 31.8436 12.09 31.8436 13.03C31.8436 13.97 32.5036 14.75 33.5236 14.75ZM43.4851 10.56H44.4651L42.8151 15.5H41.7951L41.3151 14.06L40.5351 11.89L39.7551 14.06L39.2651 15.5H38.2451L36.5851 10.56H37.5751L38.1751 12.46L38.7651 14.43L40.1151 10.56H40.9451L42.2751 14.46L43.4851 10.56ZM48.0866 10.47C49.3666 10.47 50.2066 11.36 50.2066 12.76V15.5H49.2766V12.82C49.2766 11.87 48.7866 11.33 47.9466 11.33C47.0466 11.33 46.4166 11.98 46.4166 12.87V15.5H45.4866V10.56H46.3166L46.3266 11.25C46.7466 10.74 47.3666 10.47 48.0866 10.47ZM51.6804 15.5V8.5H52.6104V15.5H51.6804ZM56.4334 15.61C54.8534 15.61 53.8234 14.5 53.8234 13.03C53.8234 11.56 54.8534 10.45 56.4334 10.45C58.0034 10.45 59.0334 11.56 59.0334 13.03C59.0334 14.5 58.0034 15.61 56.4334 15.61ZM56.4334 14.75C57.4434 14.75 58.1034 13.97 58.1034 13.03C58.1034 12.09 57.4434 11.31 56.4334 11.31C55.4134 11.31 54.7534 12.09 54.7534 13.03C54.7534 13.97 55.4134 14.75 56.4334 14.75ZM64.2697 10.56H65.0897V15.5H64.2697L64.2597 14.77C63.8697 15.29 63.1897 15.61 62.3797 15.61C60.9297 15.61 59.9097 14.55 59.9097 13.03C59.9097 11.51 60.9297 10.45 62.3797 10.45C63.1897 10.45 63.8697 10.77 64.2597 11.29L64.2697 10.56ZM62.4997 14.75C63.4797 14.75 64.1597 14.04 64.1597 13.03C64.1597 12.02 63.4797 11.31 62.4997 11.31C61.5297 11.31 60.8397 12.02 60.8397 13.03C60.8397 14.04 61.5297 14.75 62.4997 14.75ZM70.5686 8.5H71.4986V15.5H70.6686L70.6586 14.77C70.2786 15.29 69.5886 15.61 68.7686 15.61C67.3486 15.61 66.3186 14.59 66.3186 13.03C66.3186 11.47 67.3486 10.45 68.7686 10.45C69.5286 10.45 70.1786 10.72 70.5686 11.18V8.5ZM68.9086 14.75C69.8786 14.75 70.5686 14.04 70.5686 13.03C70.5686 12.02 69.8786 11.31 68.9086 11.31C67.9386 11.31 67.2486 12.02 67.2486 13.03C67.2486 14.04 67.9386 14.75 68.9086 14.75ZM81.3969 15.5H80.0569L76.8269 12.25V15.5H75.8369V8.5H76.8269V11.56L79.7969 8.5H81.0869L77.7769 11.88L81.3969 15.5ZM82.682 9.71C82.322 9.71 82.052 9.45 82.052 9.1C82.052 8.74 82.322 8.48 82.682 8.48C83.052 8.48 83.312 8.74 83.312 9.1C83.312 9.45 83.052 9.71 82.682 9.71ZM82.212 15.5V10.56H83.142V15.5H82.212ZM87.585 14.57L87.855 15.34C87.495 15.5 87.175 15.57 86.805 15.57C85.765 15.57 85.245 14.97 85.245 13.86V11.37H84.275V10.56H85.245V9.23L86.165 9.13V10.56H87.665V11.37H86.165V13.86C86.165 14.41 86.375 14.73 86.915 14.73C87.125 14.73 87.375 14.66 87.585 14.57Z" fill="white"/>
<path d="M23.8822 15.5H23.801V15.5813H23.8822V15.5ZM23.8822 8.5V8.41874H23.801V8.5H23.8822ZM24.8522 9.41V9.32874H24.771V9.41H24.8522ZM24.8522 14.59H24.771V14.6713H24.8522V14.59ZM26.4822 8.5V8.58126C27.5086 8.58126 28.3671 8.92714 28.9687 9.52394C29.5704 10.1207 29.921 10.974 29.921 12H30.0022H30.0835C30.0835 10.936 29.7191 10.0393 29.0832 9.40856C28.4474 8.77786 27.5459 8.41874 26.4822 8.41874V8.5ZM30.0022 12H29.921C29.921 13.026 29.5704 13.8793 28.9687 14.4761C28.3671 15.0729 27.5086 15.4187 26.4822 15.4187V15.5V15.5813C27.5459 15.5813 28.4474 15.2221 29.0832 14.5914C29.7191 13.9607 30.0835 13.064 30.0835 12H30.0022ZM26.4822 15.5V15.4187H23.8822V15.5V15.5813H26.4822V15.5ZM23.8822 15.5H23.9635V8.5H23.8822H23.801V15.5H23.8822ZM23.8822 8.5V8.58126H26.4822V8.5V8.41874H23.8822V8.5ZM26.4822 14.59V14.6713C27.252 14.6713 27.9062 14.3989 28.3679 13.9255C28.8295 13.4523 29.0935 12.7836 29.0935 12H29.0122H28.931C28.931 12.7464 28.68 13.3727 28.2516 13.812C27.8233 14.2511 27.2124 14.5087 26.4822 14.5087V14.59ZM29.0122 12H29.0935C29.0935 11.2162 28.8268 10.5475 28.3641 10.0744C27.9012 9.60119 27.2471 9.32874 26.4822 9.32874V9.41V9.49126C27.2073 9.49126 27.8182 9.7488 28.2479 10.1881C28.6776 10.6275 28.931 11.2538 28.931 12H29.0122ZM26.4822 9.41V9.32874H24.8522V9.41V9.49126H26.4822V9.41ZM24.8522 9.41H24.771V14.59H24.8522H24.9335V9.41H24.8522ZM24.8522 14.59V14.6713H26.4822V14.59V14.5087H24.8522V14.59ZM33.5236 15.61V15.5287C32.7534 15.5287 32.1224 15.2586 31.684 14.8142C31.2454 14.3696 30.9949 13.7457 30.9949 13.03H30.9136H30.8324C30.8324 13.7843 31.0969 14.4504 31.5683 14.9283C32.0399 15.4064 32.7139 15.6913 33.5236 15.6913V15.61ZM30.9136 13.03H30.9949C30.9949 12.3143 31.2454 11.6904 31.684 11.2458C32.1224 10.8014 32.7534 10.5313 33.5236 10.5313V10.45V10.3687C32.7139 10.3687 32.0399 10.6536 31.5683 11.1317C31.0969 11.6096 30.8324 12.2757 30.8324 13.03H30.9136ZM33.5236 10.45V10.5313C34.2888 10.5313 34.9173 10.8013 35.3545 11.2457C35.7919 11.6904 36.0424 12.3143 36.0424 13.03H36.1236H36.2049C36.2049 12.2757 35.9404 11.6096 35.4703 11.1318C35 10.6537 34.3285 10.3687 33.5236 10.3687V10.45ZM36.1236 13.03H36.0424C36.0424 13.7457 35.7919 14.3696 35.3545 14.8143C34.9173 15.2587 34.2888 15.5287 33.5236 15.5287V15.61V15.6913C34.3285 15.6913 35 15.4063 35.4703 14.9282C35.9404 14.4504 36.2049 13.7843 36.2049 13.03H36.1236ZM33.5236 14.75V14.8313C34.5838 14.8313 35.2749 14.0094 35.2749 13.03H35.1936H35.1124C35.1124 13.9306 34.4835 14.6687 33.5236 14.6687V14.75ZM35.1936 13.03H35.2749C35.2749 12.0506 34.5838 11.2287 33.5236 11.2287V11.31V11.3913C34.4835 11.3913 35.1124 12.1294 35.1124 13.03H35.1936ZM33.5236 11.31V11.2287C32.4538 11.2287 31.7624 12.0503 31.7624 13.03H31.8436H31.9249C31.9249 12.1297 32.5535 11.3913 33.5236 11.3913V11.31ZM31.8436 13.03H31.7624C31.7624 14.0097 32.4538 14.8313 33.5236 14.8313V14.75V14.6687C32.5535 14.6687 31.9249 13.9303 31.9249 13.03H31.8436ZM43.4851 10.56V10.4787H43.4252L43.4075 10.5359L43.4851 10.56ZM44.4651 10.56L44.5422 10.5857L44.5779 10.4787H44.4651V10.56ZM42.8151 15.5V15.5813H42.8737L42.8922 15.5257L42.8151 15.5ZM41.7951 15.5L41.718 15.5257L41.7365 15.5813H41.7951V15.5ZM41.3151 14.06L41.3922 14.0343L41.3916 14.0325L41.3151 14.06ZM40.5351 11.89L40.6116 11.8625L40.5351 11.6498L40.4586 11.8625L40.5351 11.89ZM39.7551 14.06L39.6786 14.0325L39.6782 14.0338L39.7551 14.06ZM39.2651 15.5V15.5813H39.3233L39.342 15.5262L39.2651 15.5ZM38.2451 15.5L38.1681 15.5259L38.1867 15.5813H38.2451V15.5ZM36.5851 10.56V10.4787H36.4721L36.5081 10.5859L36.5851 10.56ZM37.5751 10.56L37.6526 10.5355L37.6347 10.4787H37.5751V10.56ZM38.1751 12.46L38.253 12.4367L38.2526 12.4355L38.1751 12.46ZM38.7651 14.43L38.6873 14.4533L38.7592 14.6936L38.8418 14.4568L38.7651 14.43ZM40.1151 10.56V10.4787H40.0574L40.0384 10.5332L40.1151 10.56ZM40.9451 10.56L41.022 10.5338L41.0033 10.4787H40.9451V10.56ZM42.2751 14.46L42.1982 14.4862L42.2788 14.7225L42.3527 14.4841L42.2751 14.46ZM43.4851 10.56V10.6413H44.4651V10.56V10.4787H43.4851V10.56ZM44.4651 10.56L44.388 10.5343L42.738 15.4743L42.8151 15.5L42.8922 15.5257L44.5422 10.5857L44.4651 10.56ZM42.8151 15.5V15.4187H41.7951V15.5V15.5813H42.8151V15.5ZM41.7951 15.5L41.8722 15.4743L41.3922 14.0343L41.3151 14.06L41.238 14.0857L41.718 15.5257L41.7951 15.5ZM41.3151 14.06L41.3916 14.0325L40.6116 11.8625L40.5351 11.89L40.4586 11.9175L41.2386 14.0875L41.3151 14.06ZM40.5351 11.89L40.4586 11.8625L39.6786 14.0325L39.7551 14.06L39.8316 14.0875L40.6116 11.9175L40.5351 11.89ZM39.7551 14.06L39.6782 14.0338L39.1882 15.4738L39.2651 15.5L39.342 15.5262L39.832 14.0862L39.7551 14.06ZM39.2651 15.5V15.4187H38.2451V15.5V15.5813H39.2651V15.5ZM38.2451 15.5L38.3221 15.4741L36.6621 10.5341L36.5851 10.56L36.5081 10.5859L38.1681 15.5259L38.2451 15.5ZM36.5851 10.56V10.6413H37.5751V10.56V10.4787H36.5851V10.56ZM37.5751 10.56L37.4976 10.5845L38.0976 12.4845L38.1751 12.46L38.2526 12.4355L37.6526 10.5355L37.5751 10.56ZM38.1751 12.46L38.0973 12.4833L38.6873 14.4533L38.7651 14.43L38.843 14.4067L38.253 12.4367L38.1751 12.46ZM38.7651 14.43L38.8418 14.4568L40.1918 10.5868L40.1151 10.56L40.0384 10.5332L38.6884 14.4032L38.7651 14.43ZM40.1151 10.56V10.6413H40.9451V10.56V10.4787H40.1151V10.56ZM40.9451 10.56L40.8682 10.5862L42.1982 14.4862L42.2751 14.46L42.352 14.4338L41.022 10.5338L40.9451 10.56ZM42.2751 14.46L42.3527 14.4841L43.5627 10.5841L43.4851 10.56L43.4075 10.5359L42.1975 14.4359L42.2751 14.46ZM50.2066 15.5V15.5813H50.2879V15.5H50.2066ZM49.2766 15.5H49.1953V15.5813H49.2766V15.5ZM46.4166 15.5V15.5813H46.4979V15.5H46.4166ZM45.4866 15.5H45.4053V15.5813H45.4866V15.5ZM45.4866 10.56V10.4787H45.4053V10.56H45.4866ZM46.3166 10.56L46.3979 10.5588L46.3967 10.4787H46.3166V10.56ZM46.3266 11.25L46.2453 11.2512L46.2486 11.4726L46.3893 11.3017L46.3266 11.25ZM48.0866 10.47V10.5513C48.707 10.5513 49.2144 10.7664 49.5671 11.1454C49.9204 11.5249 50.1253 12.0762 50.1253 12.76H50.2066H50.2879C50.2879 12.0438 50.0728 11.4501 49.6861 11.0346C49.2988 10.6186 48.7462 10.3887 48.0866 10.3887V10.47ZM50.2066 12.76H50.1253V15.5H50.2066H50.2879V12.76H50.2066ZM50.2066 15.5V15.4187H49.2766V15.5V15.5813H50.2066V15.5ZM49.2766 15.5H49.3579V12.82H49.2766H49.1953V15.5H49.2766ZM49.2766 12.82H49.3579C49.3579 12.3318 49.2319 11.9376 48.9871 11.6645C48.7411 11.3902 48.3847 11.2487 47.9466 11.2487V11.33V11.4113C48.3485 11.4113 48.6571 11.5398 48.8661 11.773C49.0763 12.0074 49.1953 12.3582 49.1953 12.82H49.2766ZM47.9466 11.33V11.2487C47.0007 11.2487 46.3353 11.9362 46.3353 12.87H46.4166H46.4979C46.4979 12.0238 47.0925 11.4113 47.9466 11.4113V11.33ZM46.4166 12.87H46.3353V15.5H46.4166H46.4979V12.87H46.4166ZM46.4166 15.5V15.4187H45.4866V15.5V15.5813H46.4166V15.5ZM45.4866 15.5H45.5679V10.56H45.4866H45.4053V15.5H45.4866ZM45.4866 10.56V10.6413H46.3166V10.56V10.4787H45.4866V10.56ZM46.3166 10.56L46.2353 10.5612L46.2453 11.2512L46.3266 11.25L46.4079 11.2488L46.3979 10.5588L46.3166 10.56ZM46.3266 11.25L46.3893 11.3017C46.792 10.8127 47.3878 10.5513 48.0866 10.5513V10.47V10.3887C47.3454 10.3887 46.7012 10.6673 46.2639 11.1983L46.3266 11.25ZM51.6804 15.5H51.5991V15.5813H51.6804V15.5ZM51.6804 8.5V8.41874H51.5991V8.5H51.6804ZM52.6104 8.5H52.6916V8.41874H52.6104V8.5ZM52.6104 15.5V15.5813H52.6916V15.5H52.6104ZM51.6804 15.5H51.7616V8.5H51.6804H51.5991V15.5H51.6804ZM51.6804 8.5V8.58126H52.6104V8.5V8.41874H51.6804V8.5ZM52.6104 8.5H52.5291V15.5H52.6104H52.6916V8.5H52.6104ZM52.6104 15.5V15.4187H51.6804V15.5V15.5813H52.6104V15.5ZM56.4334 15.61V15.5287C55.6631 15.5287 55.0321 15.2586 54.5938 14.8142C54.1551 14.3696 53.9047 13.7457 53.9047 13.03H53.8234H53.7421C53.7421 13.7843 54.0067 14.4504 54.478 14.9283C54.9497 15.4064 55.6237 15.6913 56.4334 15.6913V15.61ZM53.8234 13.03H53.9047C53.9047 12.3143 54.1551 11.6904 54.5938 11.2458C55.0321 10.8014 55.6631 10.5313 56.4334 10.5313V10.45V10.3687C55.6237 10.3687 54.9497 10.6536 54.478 11.1317C54.0067 11.6096 53.7421 12.2757 53.7421 13.03H53.8234ZM56.4334 10.45V10.5313C57.1985 10.5313 57.827 10.8013 58.2642 11.2457C58.7016 11.6904 58.9521 12.3143 58.9521 13.03H59.0334H59.1147C59.1147 12.2757 58.8502 11.6096 58.3801 11.1318C57.9098 10.6537 57.2383 10.3687 56.4334 10.3687V10.45ZM59.0334 13.03H58.9521C58.9521 13.7457 58.7016 14.3696 58.2642 14.8143C57.827 15.2587 57.1985 15.5287 56.4334 15.5287V15.61V15.6913C57.2383 15.6913 57.9098 15.4063 58.3801 14.9282C58.8502 14.4504 59.1147 13.7843 59.1147 13.03H59.0334ZM56.4334 14.75V14.8313C57.4936 14.8313 58.1847 14.0094 58.1847 13.03H58.1034H58.0221C58.0221 13.9306 57.3932 14.6687 56.4334 14.6687V14.75ZM58.1034 13.03H58.1847C58.1847 12.0506 57.4936 11.2287 56.4334 11.2287V11.31V11.3913C57.3932 11.3913 58.0221 12.1294 58.0221 13.03H58.1034ZM56.4334 11.31V11.2287C55.3635 11.2287 54.6721 12.0503 54.6721 13.03H54.7534H54.8347C54.8347 12.1297 55.4633 11.3913 56.4334 11.3913V11.31ZM54.7534 13.03H54.6721C54.6721 14.0097 55.3635 14.8313 56.4334 14.8313V14.75V14.6687C55.4633 14.6687 54.8347 13.9303 54.8347 13.03H54.7534ZM64.2697 10.56V10.4787H64.1896L64.1885 10.5589L64.2697 10.56ZM65.0897 10.56H65.171V10.4787H65.0897V10.56ZM65.0897 15.5V15.5813H65.171V15.5H65.0897ZM64.2697 15.5L64.1885 15.5011L64.1896 15.5813H64.2697V15.5ZM64.2597 14.77L64.341 14.7689L64.3377 14.5306L64.1947 14.7212L64.2597 14.77ZM64.2597 11.29L64.1947 11.3388L64.3377 11.5294L64.341 11.2911L64.2597 11.29ZM64.2697 10.56V10.6413H65.0897V10.56V10.4787H64.2697V10.56ZM65.0897 10.56H65.0085V15.5H65.0897H65.171V10.56H65.0897ZM65.0897 15.5V15.4187H64.2697V15.5V15.5813H65.0897V15.5ZM64.2697 15.5L64.351 15.4989L64.341 14.7689L64.2597 14.77L64.1785 14.7711L64.1885 15.5011L64.2697 15.5ZM64.2597 14.77L64.1947 14.7212C63.8227 15.2172 63.1689 15.5287 62.3797 15.5287V15.61V15.6913C63.2105 15.6913 63.9167 15.3628 64.3247 14.8188L64.2597 14.77ZM62.3797 15.61V15.5287C61.6753 15.5287 61.0795 15.2717 60.6596 14.8338C60.2395 14.3956 59.991 13.7716 59.991 13.03H59.9097H59.8285C59.8285 13.8084 60.0899 14.4744 60.5423 14.9462C60.995 15.4183 61.6342 15.6913 62.3797 15.6913V15.61ZM59.9097 13.03H59.991C59.991 12.2884 60.2395 11.6644 60.6596 11.2262C61.0795 10.7883 61.6753 10.5313 62.3797 10.5313V10.45V10.3687C61.6342 10.3687 60.995 10.6417 60.5423 11.1138C60.0899 11.5856 59.8285 12.2516 59.8285 13.03H59.9097ZM62.3797 10.45V10.5313C63.1689 10.5313 63.8227 10.8428 64.1947 11.3388L64.2597 11.29L64.3247 11.2412C63.9167 10.6972 63.2105 10.3687 62.3797 10.3687V10.45ZM64.2597 11.29L64.341 11.2911L64.351 10.5611L64.2697 10.56L64.1885 10.5589L64.1785 11.2889L64.2597 11.29ZM62.4997 14.75V14.8313C63.0101 14.8313 63.4468 14.646 63.7558 14.3251C64.0645 14.0045 64.241 13.5535 64.241 13.03H64.1597H64.0785C64.0785 13.5165 63.915 13.9255 63.6387 14.2124C63.3627 14.499 62.9694 14.6687 62.4997 14.6687V14.75ZM64.1597 13.03H64.241C64.241 12.5065 64.0645 12.0555 63.7558 11.7349C63.4468 11.414 63.0101 11.2287 62.4997 11.2287V11.31V11.3913C62.9694 11.3913 63.3627 11.561 63.6387 11.8476C63.915 12.1345 64.0785 12.5435 64.0785 13.03H64.1597ZM62.4997 11.31V11.2287C61.9942 11.2287 61.5576 11.4141 61.2476 11.7348C60.9377 12.0552 60.7585 12.5062 60.7585 13.03H60.8397H60.921C60.921 12.5438 61.0868 12.1348 61.3644 11.8477C61.6418 11.5609 62.0353 11.3913 62.4997 11.3913V11.31ZM60.8397 13.03H60.7585C60.7585 13.5538 60.9377 14.0048 61.2476 14.3252C61.5576 14.6459 61.9942 14.8313 62.4997 14.8313V14.75V14.6687C62.0353 14.6687 61.6418 14.4991 61.3644 14.2123C61.0868 13.9252 60.921 13.5162 60.921 13.03H60.8397ZM70.5686 8.5V8.41874H70.4873V8.5H70.5686ZM71.4986 8.5H71.5798V8.41874H71.4986V8.5ZM71.4986 15.5V15.5813H71.5798V15.5H71.4986ZM70.6686 15.5L70.5873 15.5011L70.5884 15.5813H70.6686V15.5ZM70.6586 14.77L70.7398 14.7689L70.7365 14.5256L70.5929 14.7221L70.6586 14.77ZM70.5686 11.18L70.5066 11.2326L70.6498 11.4015V11.18H70.5686ZM70.5686 8.5V8.58126H71.4986V8.5V8.41874H70.5686V8.5ZM71.4986 8.5H71.4173V15.5H71.4986H71.5798V8.5H71.4986ZM71.4986 15.5V15.4187H70.6686V15.5V15.5813H71.4986V15.5ZM70.6686 15.5L70.7498 15.4989L70.7398 14.7689L70.6586 14.77L70.5773 14.7711L70.5873 15.5011L70.6686 15.5ZM70.6586 14.77L70.5929 14.7221C70.2315 15.2167 69.5686 15.5287 68.7686 15.5287V15.61V15.6913C69.6085 15.6913 70.3256 15.3633 70.7242 14.8179L70.6586 14.77ZM68.7686 15.61V15.5287C68.0786 15.5287 67.4879 15.2813 67.0695 14.8485C66.651 14.4156 66.3998 13.7918 66.3998 13.03H66.3186H66.2373C66.2373 13.8282 66.5011 14.4944 66.9526 14.9615C67.4042 15.4287 68.0385 15.6913 68.7686 15.6913V15.61ZM66.3186 13.03H66.3998C66.3998 12.2682 66.651 11.6444 67.0695 11.2115C67.4879 10.7787 68.0786 10.5313 68.7686 10.5313V10.45V10.3687C68.0385 10.3687 67.4042 10.6313 66.9526 11.0985C66.5011 11.5656 66.2373 12.2318 66.2373 13.03H66.3186ZM68.7686 10.45V10.5313C69.5105 10.5313 70.1354 10.7948 70.5066 11.2326L70.5686 11.18L70.6305 11.1274C70.2217 10.6452 69.5466 10.3687 68.7686 10.3687V10.45ZM70.5686 11.18H70.6498V8.5H70.5686H70.4873V11.18H70.5686ZM68.9086 14.75V14.8313C69.4141 14.8313 69.8507 14.6459 70.1607 14.3252C70.4706 14.0048 70.6498 13.5538 70.6498 13.03H70.5686H70.4873C70.4873 13.5162 70.3215 13.9252 70.0439 14.2123C69.7665 14.4991 69.373 14.6687 68.9086 14.6687V14.75ZM70.5686 13.03H70.6498C70.6498 12.5062 70.4706 12.0552 70.1607 11.7348C69.8507 11.4141 69.4141 11.2287 68.9086 11.2287V11.31V11.3913C69.373 11.3913 69.7665 11.5609 70.0439 11.8477C70.3215 12.1348 70.4873 12.5438 70.4873 13.03H70.5686ZM68.9086 11.31V11.2287C68.403 11.2287 67.9665 11.4141 67.6564 11.7348C67.3465 12.0552 67.1673 12.5062 67.1673 13.03H67.2486H67.3298C67.3298 12.5438 67.4956 12.1348 67.7732 11.8477C68.0507 11.5609 68.4441 11.3913 68.9086 11.3913V11.31ZM67.2486 13.03H67.1673C67.1673 13.5538 67.3465 14.0048 67.6564 14.3252C67.9665 14.6459 68.403 14.8313 68.9086 14.8313V14.75V14.6687C68.4441 14.6687 68.0507 14.4991 67.7732 14.2123C67.4956 13.9252 67.3298 13.5162 67.3298 13.03H67.2486ZM81.3969 15.5V15.5813H81.5931L81.4544 15.4425L81.3969 15.5ZM80.0569 15.5L79.9993 15.5573L80.0231 15.5813H80.0569V15.5ZM76.8269 12.25L76.8846 12.1927L76.7457 12.053V12.25H76.8269ZM76.8269 15.5V15.5813H76.9082V15.5H76.8269ZM75.8369 15.5H75.7557V15.5813H75.8369V15.5ZM75.8369 8.5V8.41874H75.7557V8.5H75.8369ZM76.8269 8.5H76.9082V8.41874H76.8269V8.5ZM76.8269 11.56H76.7457V11.7604L76.8852 11.6166L76.8269 11.56ZM79.7969 8.5V8.41874H79.7625L79.7386 8.4434L79.7969 8.5ZM81.0869 8.5L81.145 8.55686L81.2802 8.41874H81.0869V8.5ZM77.7769 11.88L77.7189 11.8231L77.6626 11.8806L77.7195 11.9375L77.7769 11.88ZM81.3969 15.5V15.4187H80.0569V15.5V15.5813H81.3969V15.5ZM80.0569 15.5L80.1146 15.4427L76.8846 12.1927L76.8269 12.25L76.7693 12.3073L79.9993 15.5573L80.0569 15.5ZM76.8269 12.25H76.7457V15.5H76.8269H76.9082V12.25H76.8269ZM76.8269 15.5V15.4187H75.8369V15.5V15.5813H76.8269V15.5ZM75.8369 15.5H75.9182V8.5H75.8369H75.7557V15.5H75.8369ZM75.8369 8.5V8.58126H76.8269V8.5V8.41874H75.8369V8.5ZM76.8269 8.5H76.7457V11.56H76.8269H76.9082V8.5H76.8269ZM76.8269 11.56L76.8852 11.6166L79.8552 8.5566L79.7969 8.5L79.7386 8.4434L76.7686 11.5034L76.8269 11.56ZM79.7969 8.5V8.58126H81.0869V8.5V8.41874H79.7969V8.5ZM81.0869 8.5L81.0289 8.44314L77.7189 11.8231L77.7769 11.88L77.835 11.9369L81.145 8.55686L81.0869 8.5ZM77.7769 11.88L77.7195 11.9375L81.3395 15.5575L81.3969 15.5L81.4544 15.4425L77.8344 11.8225L77.7769 11.88ZM82.212 15.5H82.1307V15.5813H82.212V15.5ZM82.212 10.56V10.4787H82.1307V10.56H82.212ZM83.142 10.56H83.2233V10.4787H83.142V10.56ZM83.142 15.5V15.5813H83.2233V15.5H83.142ZM82.682 9.71V9.62874C82.3643 9.62874 82.1333 9.40254 82.1333 9.1H82.052H81.9707C81.9707 9.49746 82.2797 9.79126 82.682 9.79126V9.71ZM82.052 9.1H82.1333C82.1333 8.78659 82.3651 8.56126 82.682 8.56126V8.48V8.39874C82.2788 8.39874 81.9707 8.69341 81.9707 9.1H82.052ZM82.682 8.48V8.56126C83.008 8.56126 83.2307 8.78574 83.2307 9.1H83.312H83.3933C83.3933 8.69426 83.096 8.39874 82.682 8.39874V8.48ZM83.312 9.1H83.2307C83.2307 9.40339 83.0089 9.62874 82.682 9.62874V9.71V9.79126C83.0951 9.79126 83.3933 9.49661 83.3933 9.1H83.312ZM82.212 15.5H82.2933V10.56H82.212H82.1307V15.5H82.212ZM82.212 10.56V10.6413H83.142V10.56V10.4787H82.212V10.56ZM83.142 10.56H83.0607V15.5H83.142H83.2233V10.56H83.142ZM83.142 15.5V15.4187H82.212V15.5V15.5813H83.142V15.5ZM87.585 14.57L87.6617 14.5431L87.6329 14.4611L87.553 14.4953L87.585 14.57ZM87.855 15.34L87.888 15.4143L87.9565 15.3838L87.9317 15.3131L87.855 15.34ZM85.245 11.37H85.3263V11.2887H85.245V11.37ZM84.275 11.37H84.1938V11.4513H84.275V11.37ZM84.275 10.56V10.4787H84.1938V10.56H84.275ZM85.245 10.56V10.6413H85.3263V10.56H85.245ZM85.245 9.23L85.2363 9.14921L85.1638 9.15709V9.23H85.245ZM86.165 9.13H86.2463V9.03943L86.1563 9.04921L86.165 9.13ZM86.165 10.56H86.0838V10.6413H86.165V10.56ZM87.665 10.56H87.7463V10.4787H87.665V10.56ZM87.665 11.37V11.4513H87.7463V11.37H87.665ZM86.165 11.37V11.2887H86.0838V11.37H86.165ZM87.585 14.57L87.5084 14.5969L87.7784 15.3669L87.855 15.34L87.9317 15.3131L87.6617 14.5431L87.585 14.57ZM87.855 15.34L87.822 15.2657C87.4718 15.4214 87.163 15.4887 86.805 15.4887V15.57V15.6513C87.1871 15.6513 87.5183 15.5786 87.888 15.4143L87.855 15.34ZM86.805 15.57V15.4887C86.3007 15.4887 85.9357 15.3437 85.6954 15.0769C85.4538 14.8085 85.3263 14.4037 85.3263 13.86H85.245H85.1638C85.1638 14.4263 85.2963 14.8765 85.5746 15.1856C85.8544 15.4963 86.2693 15.6513 86.805 15.6513V15.57ZM85.245 13.86H85.3263V11.37H85.245H85.1638V13.86H85.245ZM85.245 11.37V11.2887H84.275V11.37V11.4513H85.245V11.37ZM84.275 11.37H84.3563V10.56H84.275H84.1938V11.37H84.275ZM84.275 10.56V10.6413H85.245V10.56V10.4787H84.275V10.56ZM85.245 10.56H85.3263V9.23H85.245H85.1638V10.56H85.245ZM85.245 9.23L85.2538 9.31079L86.1738 9.21079L86.165 9.13L86.1563 9.04921L85.2363 9.14921L85.245 9.23ZM86.165 9.13H86.0838V10.56H86.165H86.2463V9.13H86.165ZM86.165 10.56V10.6413H87.665V10.56V10.4787H86.165V10.56ZM87.665 10.56H87.5838V11.37H87.665H87.7463V10.56H87.665ZM87.665 11.37V11.2887H86.165V11.37V11.4513H87.665V11.37ZM86.165 11.37H86.0838V13.86H86.165H86.2463V11.37H86.165ZM86.165 13.86H86.0838C86.0838 14.1429 86.1373 14.3825 86.2743 14.5523C86.4141 14.7256 86.6284 14.8113 86.915 14.8113V14.73V14.6487C86.6616 14.6487 86.501 14.5744 86.4008 14.4502C86.2977 14.3225 86.2463 14.1271 86.2463 13.86H86.165ZM86.915 14.73V14.8113C87.1403 14.8113 87.4017 14.737 87.6171 14.6447L87.585 14.57L87.553 14.4953C87.3484 14.583 87.1098 14.6487 86.915 14.6487V14.73Z" fill="white" mask="url(#path-2-outside-1_3309_6221)"/>
<path d="M111.001 17.498V23.9991H104.5L111.001 17.498Z" fill="black"/>
</svg>
