<svg width="344" height="52" viewBox="0 0 344 52" fill="none" xmlns="http://www.w3.org/2000/svg">
<mask id="path-1-outside-1_3248_111" maskUnits="userSpaceOnUse" x="45" y="16" width="256" height="24" fill="black">
<rect fill="white" x="45" y="16" width="256" height="24"/>
<path d="M51.4783 17.2C56.4943 17.2 59.9263 20.584 59.9263 25.6C59.9263 30.616 56.4943 34 51.4783 34H45.2383V17.2H51.4783ZM51.4783 31.816C55.0783 31.816 57.5503 29.272 57.5503 25.6C57.5503 21.928 55.0543 19.384 51.4783 19.384H47.5663V31.816H51.4783ZM68.3777 34.264C64.5857 34.264 62.1137 31.6 62.1137 28.072C62.1137 24.544 64.5857 21.88 68.3777 21.88C72.1457 21.88 74.6177 24.544 74.6177 28.072C74.6177 31.6 72.1457 34.264 68.3777 34.264ZM68.3777 32.2C70.8017 32.2 72.3857 30.328 72.3857 28.072C72.3857 25.816 70.8017 23.944 68.3777 23.944C65.9297 23.944 64.3457 25.816 64.3457 28.072C64.3457 30.328 65.9297 32.2 68.3777 32.2ZM92.2852 22.144H94.6372L90.6772 34H88.2292L87.0772 30.544L85.2052 25.336L83.3332 30.544L82.1572 34H79.7092L75.7252 22.144H78.1012L79.5412 26.704L80.9572 31.432L84.1972 22.144H86.1892L89.3812 31.504L92.2852 22.144ZM103.329 21.928C106.401 21.928 108.417 24.064 108.417 27.424V34H106.185V27.568C106.185 25.288 105.009 23.992 102.993 23.992C100.833 23.992 99.3208 25.552 99.3208 27.688V34H97.0888V22.144H99.0808L99.1048 23.8C100.113 22.576 101.601 21.928 103.329 21.928ZM111.954 34V17.2H114.186V34H111.954ZM123.361 34.264C119.569 34.264 117.097 31.6 117.097 28.072C117.097 24.544 119.569 21.88 123.361 21.88C127.129 21.88 129.601 24.544 129.601 28.072C129.601 31.6 127.129 34.264 123.361 34.264ZM123.361 32.2C125.785 32.2 127.369 30.328 127.369 28.072C127.369 25.816 125.785 23.944 123.361 23.944C120.913 23.944 119.329 25.816 119.329 28.072C119.329 30.328 120.913 32.2 123.361 32.2ZM142.168 22.144H144.136V34H142.168L142.144 32.248C141.208 33.496 139.576 34.264 137.632 34.264C134.152 34.264 131.704 31.72 131.704 28.072C131.704 24.424 134.152 21.88 137.632 21.88C139.576 21.88 141.208 22.648 142.144 23.896L142.168 22.144ZM137.92 32.2C140.272 32.2 141.904 30.496 141.904 28.072C141.904 25.648 140.272 23.944 137.92 23.944C135.592 23.944 133.936 25.648 133.936 28.072C133.936 30.496 135.592 32.2 137.92 32.2ZM157.285 17.2H159.517V34H157.525L157.501 32.248C156.589 33.496 154.933 34.264 152.965 34.264C149.557 34.264 147.085 31.816 147.085 28.072C147.085 24.328 149.557 21.88 152.965 21.88C154.789 21.88 156.349 22.528 157.285 23.632V17.2ZM153.301 32.2C155.629 32.2 157.285 30.496 157.285 28.072C157.285 25.648 155.629 23.944 153.301 23.944C150.973 23.944 149.317 25.648 149.317 28.072C149.317 30.496 150.973 32.2 153.301 32.2ZM175.858 34.312C173.29 34.312 170.722 33.424 168.85 31.84L170.098 30.064C171.442 31.336 173.698 32.152 175.858 32.152C178.546 32.152 180.274 31.072 180.274 29.392C180.274 27.856 178.93 27.04 175.69 26.56C171.13 25.888 169.234 24.424 169.234 21.544C169.234 18.832 171.874 16.888 175.642 16.888C177.922 16.888 180.13 17.68 181.81 19.048L180.586 20.704C179.218 19.576 177.418 18.952 175.666 18.952C173.242 18.952 171.562 20.056 171.562 21.592C171.562 23.08 172.81 23.896 175.93 24.4C180.754 25.168 182.626 26.512 182.626 29.32C182.626 32.344 179.962 34.312 175.858 34.312ZM191.874 21.88C195.378 21.88 197.802 24.424 197.802 28.072C197.802 31.72 195.378 34.264 191.874 34.264C190.074 34.264 188.538 33.616 187.602 32.512V39.568H185.37V22.144H187.362L187.386 23.896C188.298 22.648 189.93 21.88 191.874 21.88ZM191.586 32.2C193.938 32.2 195.57 30.496 195.57 28.072C195.57 25.648 193.938 23.944 191.586 23.944C189.258 23.944 187.602 25.648 187.602 28.072C187.602 30.496 189.258 32.2 191.586 32.2ZM206.008 21.904C210.088 21.904 212.392 24.592 212.056 28.96H202.24C202.456 31 204.016 32.248 206.296 32.248C207.736 32.248 209.2 31.696 209.896 30.856L211.336 32.224C210.208 33.52 208.288 34.312 206.248 34.312C202.432 34.312 199.936 31.84 199.936 28.072C199.936 24.424 202.384 21.904 206.008 21.904ZM206.08 23.896C203.992 23.896 202.624 25.072 202.264 27.064H209.944C209.752 25.144 208.288 23.896 206.08 23.896ZM220.361 34.264C216.641 34.264 214.097 31.792 214.097 28.072C214.097 24.4 216.665 21.88 220.337 21.88C222.041 21.88 223.505 22.48 224.777 23.704L223.385 25.192C222.593 24.376 221.513 23.944 220.361 23.944C218.033 23.944 216.329 25.6 216.329 28.072C216.329 30.544 218.009 32.2 220.361 32.2C221.585 32.2 222.713 31.72 223.505 30.88L224.897 32.416C223.601 33.688 222.161 34.264 220.361 34.264ZM240.151 34.312C237.583 34.312 235.015 33.424 233.143 31.84L234.391 30.064C235.735 31.336 237.991 32.152 240.151 32.152C242.839 32.152 244.567 31.072 244.567 29.392C244.567 27.856 243.223 27.04 239.983 26.56C235.423 25.888 233.527 24.424 233.527 21.544C233.527 18.832 236.167 16.888 239.935 16.888C242.215 16.888 244.423 17.68 246.103 19.048L244.879 20.704C243.511 19.576 241.711 18.952 239.959 18.952C237.535 18.952 235.855 20.056 235.855 21.592C235.855 23.08 237.103 23.896 240.223 24.4C245.047 25.168 246.919 26.512 246.919 29.32C246.919 32.344 244.255 34.312 240.151 34.312ZM256.021 21.928C259.141 21.928 261.109 24.064 261.109 27.424V34H258.877V27.568C258.877 25.288 257.701 23.992 255.685 23.992C253.525 23.992 252.013 25.552 252.013 27.688V34H249.781V17.2H252.013V23.68C252.997 22.528 254.365 21.928 256.021 21.928ZM269.926 21.904C274.006 21.904 276.31 24.592 275.974 28.96H266.158C266.374 31 267.934 32.248 270.214 32.248C271.654 32.248 273.118 31.696 273.814 30.856L275.254 32.224C274.126 33.52 272.206 34.312 270.166 34.312C266.35 34.312 263.854 31.84 263.854 28.072C263.854 24.424 266.302 21.904 269.926 21.904ZM269.998 23.896C267.91 23.896 266.542 25.072 266.182 27.064H273.862C273.67 25.144 272.206 23.896 269.998 23.896ZM284.088 21.904C288.168 21.904 290.472 24.592 290.136 28.96H280.32C280.536 31 282.096 32.248 284.376 32.248C285.816 32.248 287.28 31.696 287.976 30.856L289.416 32.224C288.288 33.52 286.368 34.312 284.328 34.312C280.512 34.312 278.016 31.84 278.016 28.072C278.016 24.424 280.464 21.904 284.088 21.904ZM284.16 23.896C282.072 23.896 280.704 25.072 280.344 27.064H288.024C287.832 25.144 286.368 23.896 284.16 23.896ZM299.883 31.768L300.531 33.616C299.667 34 298.899 34.168 298.011 34.168C295.515 34.168 294.267 32.728 294.267 30.064V24.088H291.939V22.144H294.267V18.952L296.475 18.712V22.144H300.075V24.088H296.475V30.064C296.475 31.384 296.979 32.152 298.275 32.152C298.779 32.152 299.379 31.984 299.883 31.768Z"/>
</mask>
<path d="M51.4783 17.2C56.4943 17.2 59.9263 20.584 59.9263 25.6C59.9263 30.616 56.4943 34 51.4783 34H45.2383V17.2H51.4783ZM51.4783 31.816C55.0783 31.816 57.5503 29.272 57.5503 25.6C57.5503 21.928 55.0543 19.384 51.4783 19.384H47.5663V31.816H51.4783ZM68.3777 34.264C64.5857 34.264 62.1137 31.6 62.1137 28.072C62.1137 24.544 64.5857 21.88 68.3777 21.88C72.1457 21.88 74.6177 24.544 74.6177 28.072C74.6177 31.6 72.1457 34.264 68.3777 34.264ZM68.3777 32.2C70.8017 32.2 72.3857 30.328 72.3857 28.072C72.3857 25.816 70.8017 23.944 68.3777 23.944C65.9297 23.944 64.3457 25.816 64.3457 28.072C64.3457 30.328 65.9297 32.2 68.3777 32.2ZM92.2852 22.144H94.6372L90.6772 34H88.2292L87.0772 30.544L85.2052 25.336L83.3332 30.544L82.1572 34H79.7092L75.7252 22.144H78.1012L79.5412 26.704L80.9572 31.432L84.1972 22.144H86.1892L89.3812 31.504L92.2852 22.144ZM103.329 21.928C106.401 21.928 108.417 24.064 108.417 27.424V34H106.185V27.568C106.185 25.288 105.009 23.992 102.993 23.992C100.833 23.992 99.3208 25.552 99.3208 27.688V34H97.0888V22.144H99.0808L99.1048 23.8C100.113 22.576 101.601 21.928 103.329 21.928ZM111.954 34V17.2H114.186V34H111.954ZM123.361 34.264C119.569 34.264 117.097 31.6 117.097 28.072C117.097 24.544 119.569 21.88 123.361 21.88C127.129 21.88 129.601 24.544 129.601 28.072C129.601 31.6 127.129 34.264 123.361 34.264ZM123.361 32.2C125.785 32.2 127.369 30.328 127.369 28.072C127.369 25.816 125.785 23.944 123.361 23.944C120.913 23.944 119.329 25.816 119.329 28.072C119.329 30.328 120.913 32.2 123.361 32.2ZM142.168 22.144H144.136V34H142.168L142.144 32.248C141.208 33.496 139.576 34.264 137.632 34.264C134.152 34.264 131.704 31.72 131.704 28.072C131.704 24.424 134.152 21.88 137.632 21.88C139.576 21.88 141.208 22.648 142.144 23.896L142.168 22.144ZM137.92 32.2C140.272 32.2 141.904 30.496 141.904 28.072C141.904 25.648 140.272 23.944 137.92 23.944C135.592 23.944 133.936 25.648 133.936 28.072C133.936 30.496 135.592 32.2 137.92 32.2ZM157.285 17.2H159.517V34H157.525L157.501 32.248C156.589 33.496 154.933 34.264 152.965 34.264C149.557 34.264 147.085 31.816 147.085 28.072C147.085 24.328 149.557 21.88 152.965 21.88C154.789 21.88 156.349 22.528 157.285 23.632V17.2ZM153.301 32.2C155.629 32.2 157.285 30.496 157.285 28.072C157.285 25.648 155.629 23.944 153.301 23.944C150.973 23.944 149.317 25.648 149.317 28.072C149.317 30.496 150.973 32.2 153.301 32.2ZM175.858 34.312C173.29 34.312 170.722 33.424 168.85 31.84L170.098 30.064C171.442 31.336 173.698 32.152 175.858 32.152C178.546 32.152 180.274 31.072 180.274 29.392C180.274 27.856 178.93 27.04 175.69 26.56C171.13 25.888 169.234 24.424 169.234 21.544C169.234 18.832 171.874 16.888 175.642 16.888C177.922 16.888 180.13 17.68 181.81 19.048L180.586 20.704C179.218 19.576 177.418 18.952 175.666 18.952C173.242 18.952 171.562 20.056 171.562 21.592C171.562 23.08 172.81 23.896 175.93 24.4C180.754 25.168 182.626 26.512 182.626 29.32C182.626 32.344 179.962 34.312 175.858 34.312ZM191.874 21.88C195.378 21.88 197.802 24.424 197.802 28.072C197.802 31.72 195.378 34.264 191.874 34.264C190.074 34.264 188.538 33.616 187.602 32.512V39.568H185.37V22.144H187.362L187.386 23.896C188.298 22.648 189.93 21.88 191.874 21.88ZM191.586 32.2C193.938 32.2 195.57 30.496 195.57 28.072C195.57 25.648 193.938 23.944 191.586 23.944C189.258 23.944 187.602 25.648 187.602 28.072C187.602 30.496 189.258 32.2 191.586 32.2ZM206.008 21.904C210.088 21.904 212.392 24.592 212.056 28.96H202.24C202.456 31 204.016 32.248 206.296 32.248C207.736 32.248 209.2 31.696 209.896 30.856L211.336 32.224C210.208 33.52 208.288 34.312 206.248 34.312C202.432 34.312 199.936 31.84 199.936 28.072C199.936 24.424 202.384 21.904 206.008 21.904ZM206.08 23.896C203.992 23.896 202.624 25.072 202.264 27.064H209.944C209.752 25.144 208.288 23.896 206.08 23.896ZM220.361 34.264C216.641 34.264 214.097 31.792 214.097 28.072C214.097 24.4 216.665 21.88 220.337 21.88C222.041 21.88 223.505 22.48 224.777 23.704L223.385 25.192C222.593 24.376 221.513 23.944 220.361 23.944C218.033 23.944 216.329 25.6 216.329 28.072C216.329 30.544 218.009 32.2 220.361 32.2C221.585 32.2 222.713 31.72 223.505 30.88L224.897 32.416C223.601 33.688 222.161 34.264 220.361 34.264ZM240.151 34.312C237.583 34.312 235.015 33.424 233.143 31.84L234.391 30.064C235.735 31.336 237.991 32.152 240.151 32.152C242.839 32.152 244.567 31.072 244.567 29.392C244.567 27.856 243.223 27.04 239.983 26.56C235.423 25.888 233.527 24.424 233.527 21.544C233.527 18.832 236.167 16.888 239.935 16.888C242.215 16.888 244.423 17.68 246.103 19.048L244.879 20.704C243.511 19.576 241.711 18.952 239.959 18.952C237.535 18.952 235.855 20.056 235.855 21.592C235.855 23.08 237.103 23.896 240.223 24.4C245.047 25.168 246.919 26.512 246.919 29.32C246.919 32.344 244.255 34.312 240.151 34.312ZM256.021 21.928C259.141 21.928 261.109 24.064 261.109 27.424V34H258.877V27.568C258.877 25.288 257.701 23.992 255.685 23.992C253.525 23.992 252.013 25.552 252.013 27.688V34H249.781V17.2H252.013V23.68C252.997 22.528 254.365 21.928 256.021 21.928ZM269.926 21.904C274.006 21.904 276.31 24.592 275.974 28.96H266.158C266.374 31 267.934 32.248 270.214 32.248C271.654 32.248 273.118 31.696 273.814 30.856L275.254 32.224C274.126 33.52 272.206 34.312 270.166 34.312C266.35 34.312 263.854 31.84 263.854 28.072C263.854 24.424 266.302 21.904 269.926 21.904ZM269.998 23.896C267.91 23.896 266.542 25.072 266.182 27.064H273.862C273.67 25.144 272.206 23.896 269.998 23.896ZM284.088 21.904C288.168 21.904 290.472 24.592 290.136 28.96H280.32C280.536 31 282.096 32.248 284.376 32.248C285.816 32.248 287.28 31.696 287.976 30.856L289.416 32.224C288.288 33.52 286.368 34.312 284.328 34.312C280.512 34.312 278.016 31.84 278.016 28.072C278.016 24.424 280.464 21.904 284.088 21.904ZM284.16 23.896C282.072 23.896 280.704 25.072 280.344 27.064H288.024C287.832 25.144 286.368 23.896 284.16 23.896ZM299.883 31.768L300.531 33.616C299.667 34 298.899 34.168 298.011 34.168C295.515 34.168 294.267 32.728 294.267 30.064V24.088H291.939V22.144H294.267V18.952L296.475 18.712V22.144H300.075V24.088H296.475V30.064C296.475 31.384 296.979 32.152 298.275 32.152C298.779 32.152 299.379 31.984 299.883 31.768Z" fill="#1863DA"/>
<path d="M45.2383 34H45.0383V34.2H45.2383V34ZM45.2383 17.2V17H45.0383V17.2H45.2383ZM47.5663 19.384V19.184H47.3663V19.384H47.5663ZM47.5663 31.816H47.3663V32.016H47.5663V31.816ZM51.4783 17.2V17.4C53.9403 17.4 55.9995 18.2297 57.4424 19.661C58.8852 21.0921 59.7263 23.1389 59.7263 25.6H59.9263H60.1263C60.1263 23.0451 59.2513 20.8919 57.7241 19.377C56.1971 17.8623 54.0322 17 51.4783 17V17.2ZM59.9263 25.6H59.7263C59.7263 28.0611 58.8852 30.1079 57.4424 31.539C55.9995 32.9703 53.9403 33.8 51.4783 33.8V34V34.2C54.0322 34.2 56.1971 33.3377 57.7241 31.823C59.2513 30.3081 60.1263 28.1549 60.1263 25.6H59.9263ZM51.4783 34V33.8H45.2383V34V34.2H51.4783V34ZM45.2383 34H45.4383V17.2H45.2383H45.0383V34H45.2383ZM45.2383 17.2V17.4H51.4783V17.2V17H45.2383V17.2ZM51.4783 31.816V32.016C53.327 32.016 54.8983 31.3618 56.0075 30.2246C57.1162 29.0879 57.7503 27.4817 57.7503 25.6H57.5503H57.3503C57.3503 27.3903 56.7484 28.8921 55.7211 29.9454C54.6942 30.9982 53.2296 31.616 51.4783 31.616V31.816ZM57.5503 25.6H57.7503C57.7503 23.7178 57.1098 22.1116 55.9983 20.9752C54.8864 19.8384 53.3152 19.184 51.4783 19.184V19.384V19.584C53.2173 19.584 54.6822 20.2016 55.7123 21.2548C56.7427 22.3084 57.3503 23.8102 57.3503 25.6H57.5503ZM51.4783 19.384V19.184H47.5663V19.384V19.584H51.4783V19.384ZM47.5663 19.384H47.3663V31.816H47.5663H47.7663V19.384H47.5663ZM47.5663 31.816V32.016H51.4783V31.816V31.616H47.5663V31.816ZM68.3777 34.264V34.064C66.5302 34.064 65.0171 33.416 63.966 32.3505C62.9144 31.2844 62.3137 29.7885 62.3137 28.072H62.1137H61.9137C61.9137 29.8835 62.5489 31.4836 63.6813 32.6315C64.8142 33.78 66.4331 34.464 68.3777 34.464V34.264ZM62.1137 28.072H62.3137C62.3137 26.3555 62.9144 24.8596 63.966 23.7935C65.0171 22.728 66.5302 22.08 68.3777 22.08V21.88V21.68C66.4331 21.68 64.8142 22.364 63.6813 23.5125C62.5489 24.6604 61.9137 26.2605 61.9137 28.072H62.1137ZM68.3777 21.88V22.08C70.2128 22.08 71.7199 22.7277 72.7681 23.7933C73.8169 24.8594 74.4177 26.3555 74.4177 28.072H74.6177H74.8177C74.8177 26.2605 74.1824 24.6606 73.0532 23.5127C71.9234 22.3643 70.3105 21.68 68.3777 21.68V21.88ZM74.6177 28.072H74.4177C74.4177 29.7885 73.8169 31.2846 72.7681 32.3507C71.7199 33.4163 70.2128 34.064 68.3777 34.064V34.264V34.464C70.3105 34.464 71.9234 33.7797 73.0532 32.6313C74.1824 31.4834 74.8177 29.8835 74.8177 28.072H74.6177ZM68.3777 32.2V32.4C70.9251 32.4 72.5857 30.425 72.5857 28.072H72.3857H72.1857C72.1857 30.231 70.6782 32 68.3777 32V32.2ZM72.3857 28.072H72.5857C72.5857 25.719 70.9251 23.744 68.3777 23.744V23.944V24.144C70.6782 24.144 72.1857 25.913 72.1857 28.072H72.3857ZM68.3777 23.944V23.744C65.8069 23.744 64.1457 25.7182 64.1457 28.072H64.3457H64.5457C64.5457 25.9138 66.0524 24.144 68.3777 24.144V23.944ZM64.3457 28.072H64.1457C64.1457 30.4258 65.8069 32.4 68.3777 32.4V32.2V32C66.0524 32 64.5457 30.2302 64.5457 28.072H64.3457ZM92.2852 22.144V21.944H92.1379L92.0942 22.0847L92.2852 22.144ZM94.6372 22.144L94.8269 22.2074L94.9149 21.944H94.6372V22.144ZM90.6772 34V34.2H90.8213L90.8669 34.0634L90.6772 34ZM88.2292 34L88.0395 34.0632L88.0851 34.2H88.2292V34ZM87.0772 30.544L87.267 30.4807L87.2654 30.4763L87.0772 30.544ZM85.2052 25.336L85.3934 25.2683L85.2052 24.7447L85.017 25.2683L85.2052 25.336ZM83.3332 30.544L83.145 30.4763L83.1439 30.4796L83.3332 30.544ZM82.1572 34V34.2H82.3004L82.3466 34.0644L82.1572 34ZM79.7092 34L79.5196 34.0637L79.5654 34.2H79.7092V34ZM75.7252 22.144V21.944H75.447L75.5356 22.2077L75.7252 22.144ZM78.1012 22.144L78.2919 22.0838L78.2478 21.944H78.1012V22.144ZM79.5412 26.704L79.7328 26.6466L79.7319 26.6438L79.5412 26.704ZM80.9572 31.432L80.7656 31.4894L80.9427 32.0807L81.1461 31.4979L80.9572 31.432ZM84.1972 22.144V21.944H84.0552L84.0084 22.0781L84.1972 22.144ZM86.1892 22.144L86.3785 22.0794L86.3323 21.944H86.1892V22.144ZM89.3812 31.504L89.1919 31.5686L89.3902 32.15L89.5722 31.5633L89.3812 31.504ZM92.2852 22.144V22.344H94.6372V22.144V21.944H92.2852V22.144ZM94.6372 22.144L94.4475 22.0806L90.4875 33.9366L90.6772 34L90.8669 34.0634L94.8269 22.2074L94.6372 22.144ZM90.6772 34V33.8H88.2292V34V34.2H90.6772V34ZM88.2292 34L88.419 33.9368L87.267 30.4808L87.0772 30.544L86.8875 30.6072L88.0395 34.0632L88.2292 34ZM87.0772 30.544L87.2654 30.4763L85.3934 25.2683L85.2052 25.336L85.017 25.4037L86.889 30.6117L87.0772 30.544ZM85.2052 25.336L85.017 25.2683L83.145 30.4763L83.3332 30.544L83.5214 30.6117L85.3934 25.4037L85.2052 25.336ZM83.3332 30.544L83.1439 30.4796L81.9679 33.9356L82.1572 34L82.3466 34.0644L83.5226 30.6084L83.3332 30.544ZM82.1572 34V33.8H79.7092V34V34.2H82.1572V34ZM79.7092 34L79.8988 33.9363L75.9148 22.0803L75.7252 22.144L75.5356 22.2077L79.5196 34.0637L79.7092 34ZM75.7252 22.144V22.344H78.1012V22.144V21.944H75.7252V22.144ZM78.1012 22.144L77.9105 22.2042L79.3505 26.7642L79.5412 26.704L79.7319 26.6438L78.2919 22.0838L78.1012 22.144ZM79.5412 26.704L79.3496 26.7614L80.7656 31.4894L80.9572 31.432L81.1488 31.3746L79.7328 26.6466L79.5412 26.704ZM80.9572 31.432L81.1461 31.4979L84.3861 22.2099L84.1972 22.144L84.0084 22.0781L80.7684 31.3661L80.9572 31.432ZM84.1972 22.144V22.344H86.1892V22.144V21.944H84.1972V22.144ZM86.1892 22.144L85.9999 22.2086L89.1919 31.5686L89.3812 31.504L89.5705 31.4394L86.3785 22.0794L86.1892 22.144ZM89.3812 31.504L89.5722 31.5633L92.4762 22.2033L92.2852 22.144L92.0942 22.0847L89.1902 31.4447L89.3812 31.504ZM108.417 34V34.2H108.617V34H108.417ZM106.185 34H105.985V34.2H106.185V34ZM99.3208 34V34.2H99.5208V34H99.3208ZM97.0888 34H96.8888V34.2H97.0888V34ZM97.0888 22.144V21.944H96.8888V22.144H97.0888ZM99.0808 22.144L99.2808 22.1411L99.2779 21.944H99.0808V22.144ZM99.1048 23.8L98.9048 23.8029L98.9127 24.3479L99.2592 23.9271L99.1048 23.8ZM103.329 21.928V22.128C104.816 22.128 106.033 22.6439 106.878 23.5523C107.725 24.462 108.217 25.7838 108.217 27.424H108.417H108.617C108.617 25.7042 108.1 24.278 107.171 23.2797C106.241 22.2801 104.913 21.728 103.329 21.728V21.928ZM108.417 27.424H108.217V34H108.417H108.617V27.424H108.417ZM108.417 34V33.8H106.185V34V34.2H108.417V34ZM106.185 34H106.385V27.568H106.185H105.985V34H106.185ZM106.185 27.568H106.385C106.385 26.3956 106.082 25.4481 105.494 24.7915C104.902 24.1318 104.045 23.792 102.993 23.792V23.992V24.192C103.956 24.192 104.695 24.5002 105.196 25.0585C105.699 25.6199 105.985 26.4604 105.985 27.568H106.185ZM102.993 23.992V23.792C100.72 23.792 99.1208 25.4442 99.1208 27.688H99.3208H99.5208C99.5208 25.6598 100.946 24.192 102.993 24.192V23.992ZM99.3208 27.688H99.1208V34H99.3208H99.5208V27.688H99.3208ZM99.3208 34V33.8H97.0888V34V34.2H99.3208V34ZM97.0888 34H97.2888V22.144H97.0888H96.8888V34H97.0888ZM97.0888 22.144V22.344H99.0808V22.144V21.944H97.0888V22.144ZM99.0808 22.144L98.8808 22.1469L98.9048 23.8029L99.1048 23.8L99.3048 23.7971L99.2808 22.1411L99.0808 22.144ZM99.1048 23.8L99.2592 23.9271C100.225 22.7549 101.653 22.128 103.329 22.128V21.928V21.728C101.549 21.728 100.001 22.3971 98.9504 23.6729L99.1048 23.8ZM111.954 34H111.754V34.2H111.954V34ZM111.954 17.2V17H111.754V17.2H111.954ZM114.186 17.2H114.386V17H114.186V17.2ZM114.186 34V34.2H114.386V34H114.186ZM111.954 34H112.154V17.2H111.954H111.754V34H111.954ZM111.954 17.2V17.4H114.186V17.2V17H111.954V17.2ZM114.186 17.2H113.986V34H114.186H114.386V17.2H114.186ZM114.186 34V33.8H111.954V34V34.2H114.186V34ZM123.361 34.264V34.064C121.514 34.064 120.001 33.416 118.949 32.3505C117.898 31.2844 117.297 29.7885 117.297 28.072H117.097H116.897C116.897 29.8835 117.532 31.4836 118.665 32.6315C119.798 33.78 121.417 34.464 123.361 34.464V34.264ZM117.097 28.072H117.297C117.297 26.3555 117.898 24.8596 118.949 23.7935C120.001 22.728 121.514 22.08 123.361 22.08V21.88V21.68C121.417 21.68 119.798 22.364 118.665 23.5125C117.532 24.6604 116.897 26.2605 116.897 28.072H117.097ZM123.361 21.88V22.08C125.196 22.08 126.703 22.7277 127.752 23.7933C128.8 24.8594 129.401 26.3555 129.401 28.072H129.601H129.801C129.801 26.2605 129.166 24.6606 128.037 23.5127C126.907 22.3643 125.294 21.68 123.361 21.68V21.88ZM129.601 28.072H129.401C129.401 29.7885 128.8 31.2846 127.752 32.3507C126.703 33.4163 125.196 34.064 123.361 34.064V34.264V34.464C125.294 34.464 126.907 33.7797 128.037 32.6313C129.166 31.4834 129.801 29.8835 129.801 28.072H129.601ZM123.361 32.2V32.4C125.909 32.4 127.569 30.425 127.569 28.072H127.369H127.169C127.169 30.231 125.662 32 123.361 32V32.2ZM127.369 28.072H127.569C127.569 25.719 125.909 23.744 123.361 23.744V23.944V24.144C125.662 24.144 127.169 25.913 127.169 28.072H127.369ZM123.361 23.944V23.744C120.79 23.744 119.129 25.7182 119.129 28.072H119.329H119.529C119.529 25.9138 121.036 24.144 123.361 24.144V23.944ZM119.329 28.072H119.129C119.129 30.4258 120.79 32.4 123.361 32.4V32.2V32C121.036 32 119.529 30.2302 119.529 28.072H119.329ZM142.168 22.144V21.944H141.971L141.968 22.1413L142.168 22.144ZM144.136 22.144H144.336V21.944H144.136V22.144ZM144.136 34V34.2H144.336V34H144.136ZM142.168 34L141.968 34.0027L141.971 34.2H142.168V34ZM142.144 32.248L142.344 32.2453L142.336 31.6587L141.984 32.128L142.144 32.248ZM142.144 23.896L141.984 24.016L142.336 24.4853L142.344 23.8987L142.144 23.896ZM142.168 22.144V22.344H144.136V22.144V21.944H142.168V22.144ZM144.136 22.144H143.936V34H144.136H144.336V22.144H144.136ZM144.136 34V33.8H142.168V34V34.2H144.136V34ZM142.168 34L142.368 33.9973L142.344 32.2453L142.144 32.248L141.944 32.2507L141.968 34.0027L142.168 34ZM142.144 32.248L141.984 32.128C141.093 33.3169 139.525 34.064 137.632 34.064V34.264V34.464C139.627 34.464 141.324 33.6751 142.304 32.368L142.144 32.248ZM137.632 34.264V34.064C135.943 34.064 134.514 33.4475 133.508 32.3976C132.5 31.3471 131.904 29.8506 131.904 28.072H131.704H131.504C131.504 29.9414 132.132 31.5409 133.219 32.6744C134.306 33.8085 135.842 34.464 137.632 34.464V34.264ZM131.704 28.072H131.904C131.904 26.2934 132.5 24.7969 133.508 23.7464C134.514 22.6965 135.943 22.08 137.632 22.08V21.88V21.68C135.842 21.68 134.306 22.3355 133.219 23.4696C132.132 24.6031 131.504 26.2026 131.504 28.072H131.704ZM137.632 21.88V22.08C139.525 22.08 141.093 22.8271 141.984 24.016L142.144 23.896L142.304 23.776C141.324 22.4689 139.627 21.68 137.632 21.68V21.88ZM142.144 23.896L142.344 23.8987L142.368 22.1467L142.168 22.144L141.968 22.1413L141.944 23.8933L142.144 23.896ZM137.92 32.2V32.4C139.146 32.4 140.196 31.9548 140.938 31.1837C141.68 30.4132 142.104 29.3296 142.104 28.072H141.904H141.704C141.704 29.2384 141.312 30.2188 140.65 30.9063C139.989 31.5932 139.046 32 137.92 32V32.2ZM141.904 28.072H142.104C142.104 26.8144 141.68 25.7308 140.938 24.9603C140.196 24.1892 139.146 23.744 137.92 23.744V23.944V24.144C139.046 24.144 139.989 24.5508 140.65 25.2377C141.312 25.9252 141.704 26.9056 141.704 28.072H141.904ZM137.92 23.944V23.744C136.706 23.744 135.657 24.1895 134.912 24.96C134.167 25.7301 133.736 26.8136 133.736 28.072H133.936H134.136C134.136 26.9064 134.534 25.9259 135.199 25.238C135.864 24.5505 136.807 24.144 137.92 24.144V23.944ZM133.936 28.072H133.736C133.736 29.3304 134.167 30.4139 134.912 31.184C135.657 31.9545 136.706 32.4 137.92 32.4V32.2V32C136.807 32 135.864 31.5935 135.199 30.906C134.534 30.2181 134.136 29.2376 134.136 28.072H133.936ZM157.285 17.2V17H157.085V17.2H157.285ZM159.517 17.2H159.717V17H159.517V17.2ZM159.517 34V34.2H159.717V34H159.517ZM157.525 34L157.325 34.0027L157.328 34.2H157.525V34ZM157.501 32.248L157.701 32.2453L157.693 31.6466L157.34 32.13L157.501 32.248ZM157.285 23.632L157.133 23.7613L157.485 24.1772V23.632H157.285ZM157.285 17.2V17.4H159.517V17.2V17H157.285V17.2ZM159.517 17.2H159.317V34H159.517H159.717V17.2H159.517ZM159.517 34V33.8H157.525V34V34.2H159.517V34ZM157.525 34L157.725 33.9973L157.701 32.2453L157.501 32.248L157.301 32.2507L157.325 34.0027L157.525 34ZM157.501 32.248L157.34 32.13C156.474 33.3156 154.884 34.064 152.965 34.064V34.264V34.464C154.982 34.464 156.705 33.6764 157.663 32.366L157.501 32.248ZM152.965 34.264V34.064C151.311 34.064 149.894 33.4707 148.891 32.433C147.888 31.3951 147.285 29.8992 147.285 28.072H147.085H146.885C146.885 29.9888 147.519 31.589 148.604 32.711C149.689 33.8333 151.212 34.464 152.965 34.464V34.264ZM147.085 28.072H147.285C147.285 26.2448 147.888 24.749 148.891 23.711C149.894 22.6733 151.311 22.08 152.965 22.08V21.88V21.68C151.212 21.68 149.689 22.3107 148.604 23.433C147.519 24.555 146.885 26.1552 146.885 28.072H147.085ZM152.965 21.88V22.08C154.745 22.08 156.243 22.712 157.133 23.7613L157.285 23.632L157.438 23.5027C156.456 22.344 154.834 21.68 152.965 21.68V21.88ZM157.285 23.632H157.485V17.2H157.285H157.085V23.632H157.285ZM153.301 32.2V32.4C154.516 32.4 155.565 31.9545 156.31 31.184C157.055 30.4139 157.485 29.3304 157.485 28.072H157.285H157.085C157.085 29.2376 156.688 30.2181 156.023 30.906C155.358 31.5935 154.415 32 153.301 32V32.2ZM157.285 28.072H157.485C157.485 26.8136 157.055 25.7301 156.31 24.96C155.565 24.1895 154.516 23.744 153.301 23.744V23.944V24.144C154.415 24.144 155.358 24.5505 156.023 25.238C156.688 25.9259 157.085 26.9064 157.085 28.072H157.285ZM153.301 23.944V23.744C152.087 23.744 151.038 24.1895 150.293 24.96C149.548 25.7301 149.117 26.8136 149.117 28.072H149.317H149.517C149.517 26.9064 149.915 25.9259 150.58 25.238C151.245 24.5505 152.188 24.144 153.301 24.144V23.944ZM149.317 28.072H149.117C149.117 29.3304 149.548 30.4139 150.293 31.184C151.038 31.9545 152.087 32.4 153.301 32.4V32.2V32C152.188 32 151.245 31.5935 150.58 30.906C149.915 30.2181 149.517 29.2376 149.517 28.072H149.317ZM168.85 31.84L168.686 31.725L168.581 31.8746L168.72 31.9927L168.85 31.84ZM170.098 30.064L170.235 29.9187L170.067 29.7597L169.934 29.949L170.098 30.064ZM175.69 26.56L175.719 26.3622L175.719 26.3621L175.69 26.56ZM181.81 19.048L181.97 19.1669L182.084 19.0134L181.936 18.8929L181.81 19.048ZM180.586 20.704L180.458 20.8583L180.621 20.9925L180.746 20.8229L180.586 20.704ZM175.93 24.4L175.898 24.5974L175.898 24.5975L175.93 24.4ZM175.858 34.312V34.112C173.333 34.112 170.812 33.2383 168.979 31.6873L168.85 31.84L168.72 31.9927C170.631 33.6097 173.246 34.512 175.858 34.512V34.312ZM168.85 31.84L169.013 31.955L170.261 30.179L170.098 30.064L169.934 29.949L168.686 31.725L168.85 31.84ZM170.098 30.064L169.96 30.2093C171.347 31.5224 173.656 32.352 175.858 32.352V32.152V31.952C173.739 31.952 171.536 31.1496 170.235 29.9187L170.098 30.064ZM175.858 32.152V32.352C177.225 32.352 178.37 32.0779 179.18 31.5716C179.996 31.0613 180.474 30.312 180.474 29.392H180.274H180.074C180.074 30.152 179.687 30.7827 178.968 31.2324C178.242 31.6861 177.178 31.952 175.858 31.952V32.152ZM180.274 29.392H180.474C180.474 28.9775 180.382 28.6025 180.185 28.2675C179.989 27.9335 179.693 27.6508 179.301 27.4097C178.524 26.9314 177.344 26.603 175.719 26.3622L175.69 26.56L175.66 26.7578C177.275 26.997 178.387 27.3166 179.092 27.7503C179.441 27.9652 179.684 28.2045 179.841 28.4705C179.997 28.7355 180.074 29.0385 180.074 29.392H180.274ZM175.69 26.56L175.719 26.3621C173.449 26.0276 171.877 25.4998 170.874 24.722C169.886 23.9555 169.434 22.9321 169.434 21.544H169.234H169.034C169.034 23.0359 169.529 24.1845 170.629 25.038C171.714 25.8802 173.37 26.4204 175.66 26.7579L175.69 26.56ZM169.234 21.544H169.434C169.434 20.2599 170.056 19.1529 171.142 18.3606C172.232 17.5658 173.79 17.088 175.642 17.088V16.888V16.688C173.725 16.688 172.079 17.1822 170.907 18.0374C169.731 18.8951 169.034 20.1161 169.034 21.544H169.234ZM175.642 16.888V17.088C177.876 17.088 180.04 17.8646 181.683 19.2031L181.81 19.048L181.936 18.8929C180.22 17.4954 177.967 16.688 175.642 16.688V16.888ZM181.81 19.048L181.649 18.9291L180.425 20.5851L180.586 20.704L180.746 20.8229L181.97 19.1669L181.81 19.048ZM180.586 20.704L180.713 20.5497C179.308 19.3913 177.463 18.752 175.666 18.752V18.952V19.152C177.372 19.152 179.127 19.7607 180.458 20.8583L180.586 20.704ZM175.666 18.952V18.752C174.426 18.752 173.359 19.0339 172.596 19.5281C171.829 20.0242 171.362 20.7415 171.362 21.592H171.562H171.762C171.762 20.9065 172.134 20.3038 172.813 19.8639C173.496 19.4221 174.481 19.152 175.666 19.152V18.952ZM171.562 21.592H171.362C171.362 21.9931 171.446 22.358 171.631 22.6859C171.816 23.0133 172.095 23.2928 172.467 23.533C173.205 24.0095 174.332 24.3445 175.898 24.5974L175.93 24.4L175.961 24.2026C174.407 23.9515 173.35 23.6265 172.684 23.197C172.354 22.9842 172.126 22.7492 171.979 22.4893C171.833 22.23 171.762 21.9349 171.762 21.592H171.562ZM175.93 24.4L175.898 24.5975C178.304 24.9805 179.938 25.503 180.968 26.2565C181.981 26.9967 182.426 27.9707 182.426 29.32H182.626H182.826C182.826 27.8613 182.334 26.7593 181.205 25.9335C180.093 25.121 178.379 24.5875 175.961 24.2025L175.93 24.4ZM182.626 29.32H182.426C182.426 30.7662 181.792 31.9554 180.662 32.7891C179.527 33.6268 177.88 34.112 175.858 34.112V34.312V34.512C177.939 34.512 179.676 34.0132 180.899 33.1109C182.127 32.2046 182.826 30.8978 182.826 29.32H182.626ZM187.602 32.512L187.755 32.3827L187.402 31.9668V32.512H187.602ZM187.602 39.568V39.768H187.802V39.568H187.602ZM185.37 39.568H185.17V39.768H185.37V39.568ZM185.37 22.144V21.944H185.17V22.144H185.37ZM187.362 22.144L187.562 22.1413L187.56 21.944H187.362V22.144ZM187.386 23.896L187.186 23.8987L187.195 24.4974L187.548 24.014L187.386 23.896ZM191.874 21.88V22.08C193.576 22.08 195.004 22.6967 196.008 23.7462C197.012 24.7965 197.602 26.2928 197.602 28.072H197.802H198.002C198.002 26.2031 197.381 24.6035 196.297 23.4698C195.212 22.3353 193.677 21.68 191.874 21.68V21.88ZM197.802 28.072H197.602C197.602 29.8512 197.012 31.3475 196.008 32.3978C195.004 33.4473 193.576 34.064 191.874 34.064V34.264V34.464C193.677 34.464 195.212 33.8087 196.297 32.6742C197.381 31.5405 198.002 29.9408 198.002 28.072H197.802ZM191.874 34.264V34.064C190.12 34.064 188.645 33.4329 187.755 32.3827L187.602 32.512L187.45 32.6413C188.431 33.7991 190.028 34.464 191.874 34.464V34.264ZM187.602 32.512H187.402V39.568H187.602H187.802V32.512H187.602ZM187.602 39.568V39.368H185.37V39.568V39.768H187.602V39.568ZM185.37 39.568H185.57V22.144H185.37H185.17V39.568H185.37ZM185.37 22.144V22.344H187.362V22.144V21.944H185.37V22.144ZM187.362 22.144L187.162 22.1467L187.186 23.8987L187.386 23.896L187.586 23.8933L187.562 22.1413L187.362 22.144ZM187.386 23.896L187.548 24.014C188.415 22.8275 189.981 22.08 191.874 22.08V21.88V21.68C189.88 21.68 188.182 22.4685 187.225 23.778L187.386 23.896ZM191.586 32.2V32.4C192.812 32.4 193.862 31.9548 194.604 31.1837C195.346 30.4132 195.77 29.3296 195.77 28.072H195.57H195.37C195.37 29.2384 194.978 30.2188 194.316 30.9063C193.655 31.5932 192.712 32 191.586 32V32.2ZM195.57 28.072H195.77C195.77 26.8144 195.346 25.7308 194.604 24.9603C193.862 24.1892 192.812 23.744 191.586 23.744V23.944V24.144C192.712 24.144 193.655 24.5508 194.316 25.2377C194.978 25.9252 195.37 26.9056 195.37 28.072H195.57ZM191.586 23.944V23.744C190.372 23.744 189.323 24.1895 188.578 24.96C187.833 25.7301 187.402 26.8136 187.402 28.072H187.602H187.802C187.802 26.9064 188.2 25.9259 188.865 25.238C189.53 24.5505 190.473 24.144 191.586 24.144V23.944ZM187.602 28.072H187.402C187.402 29.3304 187.833 30.4139 188.578 31.184C189.323 31.9545 190.372 32.4 191.586 32.4V32.2V32C190.473 32 189.53 31.5935 188.865 30.906C188.2 30.2181 187.802 29.2376 187.802 28.072H187.602ZM212.056 28.96V29.16H212.241L212.255 28.9753L212.056 28.96ZM202.24 28.96V28.76H202.017L202.041 28.9811L202.24 28.96ZM209.896 30.856L210.033 30.711L209.878 30.5636L209.742 30.7284L209.896 30.856ZM211.336 32.224L211.486 32.3553L211.612 32.2109L211.473 32.079L211.336 32.224ZM202.264 27.064L202.067 27.0284L202.024 27.264H202.264V27.064ZM209.944 27.064V27.264H210.165L210.143 27.0441L209.944 27.064ZM206.008 21.904V22.104C208.003 22.104 209.538 22.7597 210.536 23.9242C211.536 25.0909 212.021 26.7971 211.856 28.9447L212.056 28.96L212.255 28.9753C212.426 26.7549 211.927 24.9331 210.839 23.6638C209.749 22.3923 208.093 21.704 206.008 21.704V21.904ZM212.056 28.96V28.76H202.24V28.96V29.16H212.056V28.96ZM202.24 28.96L202.041 28.9811C202.154 30.0496 202.621 30.9216 203.368 31.5246C204.112 32.1259 205.12 32.448 206.296 32.448V32.248V32.048C205.191 32.048 204.279 31.7461 203.619 31.2134C202.962 30.6824 202.541 29.9104 202.438 28.9389L202.24 28.96ZM206.296 32.248V32.448C207.772 32.448 209.303 31.8847 210.05 30.9836L209.896 30.856L209.742 30.7284C209.096 31.5073 207.699 32.048 206.296 32.048V32.248ZM209.896 30.856L209.758 31.001L211.198 32.369L211.336 32.224L211.473 32.079L210.033 30.711L209.896 30.856ZM211.336 32.224L211.185 32.0927C210.102 33.3371 208.241 34.112 206.248 34.112V34.312V34.512C208.334 34.512 210.314 33.7029 211.486 32.3553L211.336 32.224ZM206.248 34.312V34.112C204.383 34.112 202.859 33.509 201.801 32.4628C200.744 31.4168 200.136 29.9108 200.136 28.072H199.936H199.736C199.736 30.0012 200.375 31.6152 201.52 32.7472C202.664 33.879 204.296 34.512 206.248 34.512V34.312ZM199.936 28.072H200.136C200.136 26.2935 200.732 24.804 201.755 23.76C202.779 22.7164 204.243 22.104 206.008 22.104V21.904V21.704C204.148 21.704 202.576 22.3516 201.47 23.48C200.364 24.608 199.736 26.2025 199.736 28.072H199.936ZM206.08 23.896V23.696C204.997 23.696 204.085 24.0014 203.395 24.5797C202.705 25.1579 202.253 25.995 202.067 27.0284L202.264 27.064L202.46 27.0996C202.634 26.141 203.046 25.3941 203.652 24.8863C204.258 24.3786 205.074 24.096 206.08 24.096V23.896ZM202.264 27.064V27.264H209.944V27.064V26.864H202.264V27.064ZM209.944 27.064L210.143 27.0441C210.042 26.0361 209.605 25.1942 208.895 24.606C208.187 24.0189 207.221 23.696 206.08 23.696V23.896V24.096C207.146 24.096 208.016 24.3971 208.64 24.914C209.262 25.4298 209.653 26.1719 209.745 27.0839L209.944 27.064ZM224.777 23.704L224.923 23.8406L225.058 23.6966L224.916 23.5599L224.777 23.704ZM223.385 25.192L223.242 25.3313L223.388 25.4819L223.531 25.3286L223.385 25.192ZM223.505 30.88L223.654 30.7457L223.508 30.5854L223.36 30.7428L223.505 30.88ZM224.897 32.416L225.038 32.5587L225.175 32.4241L225.046 32.2817L224.897 32.416ZM220.361 34.264V34.064C218.546 34.064 217.033 33.4617 215.975 32.4204C214.916 31.3794 214.297 29.885 214.297 28.072H214.097H213.897C213.897 29.979 214.55 31.5806 215.694 32.7056C216.838 33.8303 218.456 34.464 220.361 34.464V34.264ZM214.097 28.072H214.297C214.297 26.284 214.922 24.789 215.981 23.7412C217.041 22.6932 218.548 22.08 220.337 22.08V21.88V21.68C218.455 21.68 216.842 22.3268 215.7 23.4568C214.557 24.587 213.897 26.188 213.897 28.072H214.097ZM220.337 21.88V22.08C221.988 22.08 223.403 22.6587 224.639 23.8481L224.777 23.704L224.916 23.5599C223.608 22.3013 222.095 21.68 220.337 21.68V21.88ZM224.777 23.704L224.631 23.5674L223.239 25.0554L223.385 25.192L223.531 25.3286L224.923 23.8406L224.777 23.704ZM223.385 25.192L223.529 25.0527C222.697 24.1955 221.564 23.744 220.361 23.744V23.944V24.144C221.463 24.144 222.49 24.5565 223.242 25.3313L223.385 25.192ZM220.361 23.944V23.744C219.149 23.744 218.088 24.1761 217.33 24.9402C216.573 25.7044 216.129 26.7888 216.129 28.072H216.329H216.529C216.529 26.8832 216.938 25.9036 217.614 25.2218C218.291 24.5399 219.246 24.144 220.361 24.144V23.944ZM216.329 28.072H216.129C216.129 29.3544 216.566 30.4389 217.321 31.2035C218.076 31.9682 219.137 32.4 220.361 32.4V32.2V32C219.234 32 218.279 31.6038 217.606 30.9225C216.933 30.2411 216.529 29.2616 216.529 28.072H216.329ZM220.361 32.2V32.4C221.638 32.4 222.819 31.8991 223.651 31.0172L223.505 30.88L223.36 30.7428C222.607 31.5409 221.533 32 220.361 32V32.2ZM223.505 30.88L223.357 31.0143L224.749 32.5503L224.897 32.416L225.046 32.2817L223.654 30.7457L223.505 30.88ZM224.897 32.416L224.757 32.2733C223.499 33.508 222.11 34.064 220.361 34.064V34.264V34.464C222.213 34.464 223.704 33.868 225.038 32.5587L224.897 32.416ZM233.143 31.84L232.98 31.725L232.875 31.8746L233.014 31.9927L233.143 31.84ZM234.391 30.064L234.529 29.9187L234.361 29.7597L234.228 29.949L234.391 30.064ZM239.983 26.56L240.013 26.3622L240.012 26.3621L239.983 26.56ZM246.103 19.048L246.264 19.1669L246.378 19.0134L246.23 18.8929L246.103 19.048ZM244.879 20.704L244.752 20.8583L244.915 20.9925L245.04 20.8229L244.879 20.704ZM240.223 24.4L240.191 24.5974L240.192 24.5975L240.223 24.4ZM240.151 34.312V34.112C237.627 34.112 235.105 33.2383 233.272 31.6873L233.143 31.84L233.014 31.9927C234.925 33.6097 237.54 34.512 240.151 34.512V34.312ZM233.143 31.84L233.307 31.955L234.555 30.179L234.391 30.064L234.228 29.949L232.98 31.725L233.143 31.84ZM234.391 30.064L234.254 30.2093C235.641 31.5224 237.949 32.352 240.151 32.352V32.152V31.952C238.033 31.952 235.829 31.1496 234.529 29.9187L234.391 30.064ZM240.151 32.152V32.352C241.519 32.352 242.663 32.0779 243.473 31.5716C244.29 31.0613 244.767 30.312 244.767 29.392H244.567H244.367C244.367 30.152 243.981 30.7827 243.261 31.2324C242.535 31.6861 241.472 31.952 240.151 31.952V32.152ZM244.567 29.392H244.767C244.767 28.9775 244.676 28.6025 244.479 28.2675C244.282 27.9335 243.987 27.6508 243.595 27.4097C242.818 26.9314 241.638 26.603 240.013 26.3622L239.983 26.56L239.954 26.7578C241.569 26.997 242.681 27.3166 243.385 27.7503C243.735 27.9652 243.978 28.2045 244.134 28.4705C244.29 28.7355 244.367 29.0385 244.367 29.392H244.567ZM239.983 26.56L240.012 26.3621C237.742 26.0276 236.17 25.4998 235.168 24.722C234.18 23.9555 233.727 22.9321 233.727 21.544H233.527H233.327C233.327 23.0359 233.823 24.1845 234.923 25.038C236.008 25.8802 237.664 26.4204 239.954 26.7579L239.983 26.56ZM233.527 21.544H233.727C233.727 20.2599 234.35 19.1529 235.436 18.3606C236.526 17.5658 238.084 17.088 239.935 17.088V16.888V16.688C238.019 16.688 236.373 17.1822 235.2 18.0374C234.025 18.8951 233.327 20.1161 233.327 21.544H233.527ZM239.935 16.888V17.088C242.17 17.088 244.333 17.8646 245.977 19.2031L246.103 19.048L246.23 18.8929C244.513 17.4954 242.26 16.688 239.935 16.688V16.888ZM246.103 19.048L245.942 18.9291L244.718 20.5851L244.879 20.704L245.04 20.8229L246.264 19.1669L246.103 19.048ZM244.879 20.704L245.007 20.5497C243.602 19.3913 241.756 18.752 239.959 18.752V18.952V19.152C241.666 19.152 243.421 19.7607 244.752 20.8583L244.879 20.704ZM239.959 18.952V18.752C238.72 18.752 237.653 19.0339 236.89 19.5281C236.123 20.0242 235.655 20.7415 235.655 21.592H235.855H236.055C236.055 20.9065 236.427 20.3038 237.107 19.8639C237.79 19.4221 238.775 19.152 239.959 19.152V18.952ZM235.855 21.592H235.655C235.655 21.9931 235.74 22.358 235.925 22.6859C236.11 23.0133 236.388 23.2928 236.761 23.533C237.499 24.0095 238.626 24.3445 240.191 24.5974L240.223 24.4L240.255 24.2026C238.701 23.9515 237.643 23.6265 236.978 23.197C236.648 22.9842 236.42 22.7492 236.273 22.4893C236.127 22.23 236.055 21.9349 236.055 21.592H235.855ZM240.223 24.4L240.192 24.5975C242.598 24.9805 244.232 25.503 245.262 26.2565C246.275 26.9967 246.719 27.9707 246.719 29.32H246.919H247.119C247.119 27.8613 246.628 26.7593 245.498 25.9335C244.387 25.121 242.673 24.5875 240.255 24.2025L240.223 24.4ZM246.919 29.32H246.719C246.719 30.7662 246.085 31.9554 244.956 32.7891C243.82 33.6268 242.174 34.112 240.151 34.112V34.312V34.512C242.233 34.512 243.97 34.0132 245.193 33.1109C246.421 32.2046 247.119 30.8978 247.119 29.32H246.919ZM261.109 34V34.2H261.309V34H261.109ZM258.877 34H258.677V34.2H258.877V34ZM252.013 34V34.2H252.213V34H252.013ZM249.781 34H249.581V34.2H249.781V34ZM249.781 17.2V17H249.581V17.2H249.781ZM252.013 17.2H252.213V17H252.013V17.2ZM252.013 23.68H251.813V24.2221L252.165 23.8099L252.013 23.68ZM256.021 21.928V22.128C257.534 22.128 258.749 22.6443 259.588 23.5518C260.429 24.461 260.909 25.7825 260.909 27.424H261.109H261.309C261.309 25.7055 260.806 24.279 259.882 23.2802C258.957 22.2797 257.629 21.728 256.021 21.728V21.928ZM261.109 27.424H260.909V34H261.109H261.309V27.424H261.109ZM261.109 34V33.8H258.877V34V34.2H261.109V34ZM258.877 34H259.077V27.568H258.877H258.677V34H258.877ZM258.877 27.568H259.077C259.077 26.3956 258.775 25.4481 258.186 24.7915C257.595 24.1318 256.738 23.792 255.685 23.792V23.992V24.192C256.649 24.192 257.388 24.5002 257.888 25.0585C258.392 25.6199 258.677 26.4604 258.677 27.568H258.877ZM255.685 23.992V23.792C253.412 23.792 251.813 25.4442 251.813 27.688H252.013H252.213C252.213 25.6598 253.638 24.192 255.685 24.192V23.992ZM252.013 27.688H251.813V34H252.013H252.213V27.688H252.013ZM252.013 34V33.8H249.781V34V34.2H252.013V34ZM249.781 34H249.981V17.2H249.781H249.581V34H249.781ZM249.781 17.2V17.4H252.013V17.2V17H249.781V17.2ZM252.013 17.2H251.813V23.68H252.013H252.213V17.2H252.013ZM252.013 23.68L252.165 23.8099C253.108 22.7067 254.418 22.128 256.021 22.128V21.928V21.728C254.313 21.728 252.887 22.3493 251.861 23.5501L252.013 23.68ZM275.974 28.96V29.16H276.159L276.174 28.9753L275.974 28.96ZM266.158 28.96V28.76H265.936L265.959 28.9811L266.158 28.96ZM273.814 30.856L273.952 30.711L273.797 30.5636L273.66 30.7284L273.814 30.856ZM275.254 32.224L275.405 32.3553L275.531 32.2109L275.392 32.079L275.254 32.224ZM266.182 27.064L265.985 27.0284L265.943 27.264H266.182V27.064ZM273.862 27.064V27.264H274.083L274.061 27.0441L273.862 27.064ZM269.926 21.904V22.104C271.921 22.104 273.456 22.7597 274.454 23.9242C275.454 25.0909 275.94 26.7971 275.775 28.9447L275.974 28.96L276.174 28.9753C276.344 26.7549 275.846 24.9331 274.758 23.6638C273.668 22.3923 272.011 21.704 269.926 21.704V21.904ZM275.974 28.96V28.76H266.158V28.96V29.16H275.974V28.96ZM266.158 28.96L265.959 28.9811C266.073 30.0496 266.54 30.9216 267.287 31.5246C268.031 32.1259 269.038 32.448 270.214 32.448V32.248V32.048C269.11 32.048 268.197 31.7461 267.538 31.2134C266.88 30.6824 266.46 29.9104 266.357 28.9389L266.158 28.96ZM270.214 32.248V32.448C271.691 32.448 273.222 31.8847 273.968 30.9836L273.814 30.856L273.66 30.7284C273.015 31.5073 271.618 32.048 270.214 32.048V32.248ZM273.814 30.856L273.677 31.001L275.117 32.369L275.254 32.224L275.392 32.079L273.952 30.711L273.814 30.856ZM275.254 32.224L275.103 32.0927C274.02 33.3371 272.16 34.112 270.166 34.112V34.312V34.512C272.253 34.512 274.232 33.7029 275.405 32.3553L275.254 32.224ZM270.166 34.312V34.112C268.302 34.112 266.778 33.509 265.72 32.4628C264.662 31.4168 264.054 29.9108 264.054 28.072H263.854H263.654C263.654 30.0012 264.294 31.6152 265.439 32.7472C266.583 33.879 268.214 34.512 270.166 34.512V34.312ZM263.854 28.072H264.054C264.054 26.2935 264.65 24.804 265.674 23.76C266.698 22.7164 268.162 22.104 269.926 22.104V21.904V21.704C268.066 21.704 266.495 22.3516 265.388 23.48C264.282 24.608 263.654 26.2025 263.654 28.072H263.854ZM269.998 23.896V23.696C268.916 23.696 268.004 24.0014 267.314 24.5797C266.624 25.1579 266.172 25.995 265.985 27.0284L266.182 27.064L266.379 27.0996C266.552 26.141 266.965 25.3941 267.571 24.8863C268.177 24.3786 268.993 24.096 269.998 24.096V23.896ZM266.182 27.064V27.264H273.862V27.064V26.864H266.182V27.064ZM273.862 27.064L274.061 27.0441C273.96 26.0361 273.524 25.1942 272.814 24.606C272.106 24.0189 271.14 23.696 269.998 23.696V23.896V24.096C271.065 24.096 271.935 24.3971 272.559 24.914C273.181 25.4298 273.572 26.1719 273.663 27.0839L273.862 27.064ZM290.136 28.96V29.16H290.321L290.336 28.9753L290.136 28.96ZM280.32 28.96V28.76H280.098L280.121 28.9811L280.32 28.96ZM287.976 30.856L288.114 30.711L287.959 30.5636L287.822 30.7284L287.976 30.856ZM289.416 32.224L289.567 32.3553L289.693 32.2109L289.554 32.079L289.416 32.224ZM280.344 27.064L280.147 27.0284L280.105 27.264H280.344V27.064ZM288.024 27.064V27.264H288.245L288.223 27.0441L288.024 27.064ZM284.088 21.904V22.104C286.083 22.104 287.618 22.7597 288.616 23.9242C289.616 25.0909 290.102 26.7971 289.937 28.9447L290.136 28.96L290.336 28.9753C290.506 26.7549 290.008 24.9331 288.92 23.6638C287.83 22.3923 286.173 21.704 284.088 21.704V21.904ZM290.136 28.96V28.76H280.32V28.96V29.16H290.136V28.96ZM280.32 28.96L280.121 28.9811C280.234 30.0496 280.702 30.9216 281.448 31.5246C282.193 32.1259 283.2 32.448 284.376 32.448V32.248V32.048C283.272 32.048 282.359 31.7461 281.7 31.2134C281.042 30.6824 280.622 29.9104 280.519 28.9389L280.32 28.96ZM284.376 32.248V32.448C285.853 32.448 287.384 31.8847 288.13 30.9836L287.976 30.856L287.822 30.7284C287.177 31.5073 285.78 32.048 284.376 32.048V32.248ZM287.976 30.856L287.838 31.001L289.278 32.369L289.416 32.224L289.554 32.079L288.114 30.711L287.976 30.856ZM289.416 32.224L289.265 32.0927C288.182 33.3371 286.322 34.112 284.328 34.112V34.312V34.512C286.415 34.512 288.394 33.7029 289.567 32.3553L289.416 32.224ZM284.328 34.312V34.112C282.464 34.112 280.94 33.509 279.882 32.4628C278.824 31.4168 278.216 29.9108 278.216 28.072H278.016H277.816C277.816 30.0012 278.456 31.6152 279.601 32.7472C280.745 33.879 282.376 34.512 284.328 34.512V34.312ZM278.016 28.072H278.216C278.216 26.2935 278.812 24.804 279.836 23.76C280.859 22.7164 282.324 22.104 284.088 22.104V21.904V21.704C282.228 21.704 280.657 22.3516 279.55 23.48C278.444 24.608 277.816 26.2025 277.816 28.072H278.016ZM284.16 23.896V23.696C283.078 23.696 282.166 24.0014 281.476 24.5797C280.786 25.1579 280.334 25.995 280.147 27.0284L280.344 27.064L280.541 27.0996C280.714 26.141 281.127 25.3941 281.733 24.8863C282.338 24.3786 283.154 24.096 284.16 24.096V23.896ZM280.344 27.064V27.264H288.024V27.064V26.864H280.344V27.064ZM288.024 27.064L288.223 27.0441C288.122 26.0361 287.686 25.1942 286.976 24.606C286.267 24.0189 285.302 23.696 284.16 23.696V23.896V24.096C285.227 24.096 286.097 24.3971 286.721 24.914C287.343 25.4298 287.734 26.1719 287.825 27.0839L288.024 27.064ZM299.883 31.768L300.072 31.7018L300.001 31.4999L299.804 31.5842L299.883 31.768ZM300.531 33.616L300.612 33.7988L300.781 33.7239L300.72 33.5498L300.531 33.616ZM294.267 24.088H294.467V23.888H294.267V24.088ZM291.939 24.088H291.739V24.288H291.939V24.088ZM291.939 22.144V21.944H291.739V22.144H291.939ZM294.267 22.144V22.344H294.467V22.144H294.267ZM294.267 18.952L294.246 18.7532L294.067 18.7726V18.952H294.267ZM296.475 18.712H296.675V18.4891L296.454 18.5132L296.475 18.712ZM296.475 22.144H296.275V22.344H296.475V22.144ZM300.075 22.144H300.275V21.944H300.075V22.144ZM300.075 24.088V24.288H300.275V24.088H300.075ZM296.475 24.088V23.888H296.275V24.088H296.475ZM299.883 31.768L299.694 31.8342L300.342 33.6822L300.531 33.616L300.72 33.5498L300.072 31.7018L299.883 31.768ZM300.531 33.616L300.45 33.4332C299.61 33.8066 298.869 33.968 298.011 33.968V34.168V34.368C298.929 34.368 299.724 34.1934 300.612 33.7988L300.531 33.616ZM298.011 34.168V33.968C296.802 33.968 295.927 33.6203 295.352 32.9812C294.773 32.3383 294.467 31.3682 294.467 30.064H294.267H294.067C294.067 31.4238 294.385 32.5057 295.055 33.2488C295.727 33.9957 296.725 34.368 298.011 34.368V34.168ZM294.267 30.064H294.467V24.088H294.267H294.067V30.064H294.267ZM294.267 24.088V23.888H291.939V24.088V24.288H294.267V24.088ZM291.939 24.088H292.139V22.144H291.939H291.739V24.088H291.939ZM291.939 22.144V22.344H294.267V22.144V21.944H291.939V22.144ZM294.267 22.144H294.467V18.952H294.267H294.067V22.144H294.267ZM294.267 18.952L294.289 19.1508L296.497 18.9108L296.475 18.712L296.454 18.5132L294.246 18.7532L294.267 18.952ZM296.475 18.712H296.275V22.144H296.475H296.675V18.712H296.475ZM296.475 22.144V22.344H300.075V22.144V21.944H296.475V22.144ZM300.075 22.144H299.875V24.088H300.075H300.275V22.144H300.075ZM300.075 24.088V23.888H296.475V24.088V24.288H300.075V24.088ZM296.475 24.088H296.275V30.064H296.475H296.675V24.088H296.475ZM296.475 30.064H296.275C296.275 30.7434 296.404 31.3199 296.734 31.7286C297.07 32.146 297.586 32.352 298.275 32.352V32.152V31.952C297.668 31.952 297.284 31.774 297.045 31.4774C296.799 31.1721 296.675 30.7046 296.675 30.064H296.475ZM298.275 32.152V32.352C298.817 32.352 299.445 32.1735 299.962 31.9518L299.883 31.768L299.804 31.5842C299.314 31.7945 298.742 31.952 298.275 31.952V32.152Z" fill="#1863DA" mask="url(#path-1-outside-1_3248_111)"/>
<mask id="path-3-inside-2_3248_111" fill="white">
<path d="M340 0C342.209 1.03081e-06 344 1.79086 344 4V36.6396L326.676 52H4C1.79086 52 8.05333e-08 50.2091 0 48V4C0 1.79086 1.79086 0 4 0H340Z"/>
</mask>
<path d="M340 0V-2V-2V0ZM344 4H346V4H344ZM344 36.6396L345.327 38.1361L346 37.5393V36.6396H344ZM326.676 52V54H327.435L328.003 53.4965L326.676 52ZM4 52L4 54H4V52ZM0 48H-2V48H0ZM340 0V2C341.105 2 342 2.89543 342 4H344H346C346 0.686291 343.314 -2 340 -2V0ZM344 4H342V36.6396H344H346V4H344ZM344 36.6396L342.673 35.1432L325.349 50.5035L326.676 52L328.003 53.4965L345.327 38.1361L344 36.6396ZM326.676 52V50H4V52V54H326.676V52ZM4 52L4 50C2.89543 50 2 49.1046 2 48H0H-2C-2 51.3137 0.686293 54 4 54L4 52ZM0 48H2V4H0H-2V48H0ZM0 4H2C2 2.89543 2.89543 2 4 2V0V-2C0.686292 -2 -2 0.686292 -2 4H0ZM4 0V2H340V0V-2H4V0Z" fill="#1863DA" mask="url(#path-3-inside-2_3248_111)"/>
</svg>
