<svg width="236" height="52" viewBox="0 0 236 52" fill="none" xmlns="http://www.w3.org/2000/svg">
<rect width="236" height="52" rx="4" fill="#1863DA"/>
<mask id="path-2-outside-1_2203_1142" maskUnits="userSpaceOnUse" x="26" y="16" width="185" height="24" fill="black">
<rect fill="white" x="26" y="16" width="185" height="24"/>
<path d="M28.9447 31.816H38.9287V34H26.6167V17.2H38.7847V19.36H28.9447V24.424H38.3527V26.56H28.9447V31.816ZM48.0525 27.832L52.4205 34H49.7325L46.6365 29.44L43.4445 34H40.8045L45.1725 27.856L41.0925 22.144H43.7805L45.5565 24.688L46.6125 26.32L47.7165 24.688L49.4925 22.144H52.1565L48.0525 27.832ZM61.1765 21.88C64.6805 21.88 67.1045 24.424 67.1045 28.072C67.1045 31.72 64.6805 34.264 61.1765 34.264C59.3765 34.264 57.8405 33.616 56.9045 32.512V39.568H54.6725V22.144H56.6645L56.6885 23.896C57.6005 22.648 59.2325 21.88 61.1765 21.88ZM60.8885 32.2C63.2405 32.2 64.8725 30.496 64.8725 28.072C64.8725 25.648 63.2405 23.944 60.8885 23.944C58.5605 23.944 56.9045 25.648 56.9045 28.072C56.9045 30.496 58.5605 32.2 60.8885 32.2ZM70.0297 34V17.2H72.2617V34H70.0297ZM81.437 34.264C77.645 34.264 75.173 31.6 75.173 28.072C75.173 24.544 77.645 21.88 81.437 21.88C85.205 21.88 87.677 24.544 87.677 28.072C87.677 31.6 85.205 34.264 81.437 34.264ZM81.437 32.2C83.861 32.2 85.445 30.328 85.445 28.072C85.445 25.816 83.861 23.944 81.437 23.944C78.989 23.944 77.405 25.816 77.405 28.072C77.405 30.328 78.989 32.2 81.437 32.2ZM96.3082 21.928C97.4362 21.928 98.5162 22.288 99.2122 22.864L98.2042 24.736C97.5322 24.304 96.9082 24.112 96.1882 24.112C94.1482 24.112 92.8042 25.72 92.8042 28.168V34H90.5722V22.144H92.5642L92.5882 24.136C93.5242 22.648 94.7242 21.928 96.3082 21.928ZM106.1 21.904C110.18 21.904 112.484 24.592 112.148 28.96H102.332C102.548 31 104.108 32.248 106.388 32.248C107.828 32.248 109.292 31.696 109.988 30.856L111.428 32.224C110.3 33.52 108.38 34.312 106.34 34.312C102.524 34.312 100.028 31.84 100.028 28.072C100.028 24.424 102.476 21.904 106.1 21.904ZM106.172 23.896C104.084 23.896 102.716 25.072 102.356 27.064H110.036C109.844 25.144 108.38 23.896 106.172 23.896ZM129.237 34.36C124.149 34.36 120.669 30.784 120.669 25.6C120.669 20.416 124.149 16.84 129.237 16.84C134.325 16.84 137.805 20.416 137.805 25.6C137.805 30.784 134.325 34.36 129.237 34.36ZM129.237 32.152C132.909 32.152 135.453 29.488 135.453 25.6C135.453 21.712 132.909 19.048 129.237 19.048C125.565 19.048 123.021 21.712 123.021 25.6C123.021 29.488 125.565 32.152 129.237 32.152ZM147.232 21.88C150.736 21.88 153.16 24.424 153.16 28.072C153.16 31.72 150.736 34.264 147.232 34.264C145.432 34.264 143.896 33.616 142.96 32.512V39.568H140.728V22.144H142.72L142.744 23.896C143.656 22.648 145.288 21.88 147.232 21.88ZM146.944 32.2C149.296 32.2 150.928 30.496 150.928 28.072C150.928 25.648 149.296 23.944 146.944 23.944C144.616 23.944 142.96 25.648 142.96 28.072C142.96 30.496 144.616 32.2 146.944 32.2ZM162.857 31.768L163.505 33.616C162.641 34 161.873 34.168 160.985 34.168C158.489 34.168 157.241 32.728 157.241 30.064V24.088H154.913V22.144H157.241V18.952L159.449 18.712V22.144H163.049V24.088H159.449V30.064C159.449 31.384 159.953 32.152 161.249 32.152C161.753 32.152 162.353 31.984 162.857 31.768ZM166.992 20.104C166.128 20.104 165.48 19.48 165.48 18.64C165.48 17.776 166.128 17.152 166.992 17.152C167.88 17.152 168.504 17.776 168.504 18.64C168.504 19.48 167.88 20.104 166.992 20.104ZM165.864 34V22.144H168.096V34H165.864ZM177.271 34.264C173.479 34.264 171.007 31.6 171.007 28.072C171.007 24.544 173.479 21.88 177.271 21.88C181.039 21.88 183.511 24.544 183.511 28.072C183.511 31.6 181.039 34.264 177.271 34.264ZM177.271 32.2C179.695 32.2 181.279 30.328 181.279 28.072C181.279 25.816 179.695 23.944 177.271 23.944C174.823 23.944 173.239 25.816 173.239 28.072C173.239 30.328 174.823 32.2 177.271 32.2ZM192.646 21.928C195.718 21.928 197.734 24.064 197.734 27.424V34H195.502V27.568C195.502 25.288 194.326 23.992 192.31 23.992C190.15 23.992 188.638 25.552 188.638 27.688V34H186.406V22.144H188.398L188.422 23.8C189.43 22.576 190.918 21.928 192.646 21.928ZM205.687 34.264C203.671 34.264 201.895 33.64 200.359 32.44L201.487 30.784C202.519 31.696 204.079 32.248 205.735 32.248C207.439 32.248 208.495 31.648 208.495 30.64C208.495 29.68 207.655 29.224 205.519 28.96C202.327 28.576 200.743 27.4 200.743 25.408C200.743 23.296 202.759 21.88 205.783 21.88C207.583 21.88 209.095 22.336 210.439 23.296L209.407 24.928C208.327 24.16 207.175 23.824 205.879 23.824C203.959 23.824 202.927 24.376 202.927 25.384C202.927 26.272 203.695 26.728 205.711 26.992C209.239 27.448 210.703 28.504 210.703 30.664C210.703 32.8 208.687 34.264 205.687 34.264Z"/>
</mask>
<path d="M28.9447 31.816H38.9287V34H26.6167V17.2H38.7847V19.36H28.9447V24.424H38.3527V26.56H28.9447V31.816ZM48.0525 27.832L52.4205 34H49.7325L46.6365 29.44L43.4445 34H40.8045L45.1725 27.856L41.0925 22.144H43.7805L45.5565 24.688L46.6125 26.32L47.7165 24.688L49.4925 22.144H52.1565L48.0525 27.832ZM61.1765 21.88C64.6805 21.88 67.1045 24.424 67.1045 28.072C67.1045 31.72 64.6805 34.264 61.1765 34.264C59.3765 34.264 57.8405 33.616 56.9045 32.512V39.568H54.6725V22.144H56.6645L56.6885 23.896C57.6005 22.648 59.2325 21.88 61.1765 21.88ZM60.8885 32.2C63.2405 32.2 64.8725 30.496 64.8725 28.072C64.8725 25.648 63.2405 23.944 60.8885 23.944C58.5605 23.944 56.9045 25.648 56.9045 28.072C56.9045 30.496 58.5605 32.2 60.8885 32.2ZM70.0297 34V17.2H72.2617V34H70.0297ZM81.437 34.264C77.645 34.264 75.173 31.6 75.173 28.072C75.173 24.544 77.645 21.88 81.437 21.88C85.205 21.88 87.677 24.544 87.677 28.072C87.677 31.6 85.205 34.264 81.437 34.264ZM81.437 32.2C83.861 32.2 85.445 30.328 85.445 28.072C85.445 25.816 83.861 23.944 81.437 23.944C78.989 23.944 77.405 25.816 77.405 28.072C77.405 30.328 78.989 32.2 81.437 32.2ZM96.3082 21.928C97.4362 21.928 98.5162 22.288 99.2122 22.864L98.2042 24.736C97.5322 24.304 96.9082 24.112 96.1882 24.112C94.1482 24.112 92.8042 25.72 92.8042 28.168V34H90.5722V22.144H92.5642L92.5882 24.136C93.5242 22.648 94.7242 21.928 96.3082 21.928ZM106.1 21.904C110.18 21.904 112.484 24.592 112.148 28.96H102.332C102.548 31 104.108 32.248 106.388 32.248C107.828 32.248 109.292 31.696 109.988 30.856L111.428 32.224C110.3 33.52 108.38 34.312 106.34 34.312C102.524 34.312 100.028 31.84 100.028 28.072C100.028 24.424 102.476 21.904 106.1 21.904ZM106.172 23.896C104.084 23.896 102.716 25.072 102.356 27.064H110.036C109.844 25.144 108.38 23.896 106.172 23.896ZM129.237 34.36C124.149 34.36 120.669 30.784 120.669 25.6C120.669 20.416 124.149 16.84 129.237 16.84C134.325 16.84 137.805 20.416 137.805 25.6C137.805 30.784 134.325 34.36 129.237 34.36ZM129.237 32.152C132.909 32.152 135.453 29.488 135.453 25.6C135.453 21.712 132.909 19.048 129.237 19.048C125.565 19.048 123.021 21.712 123.021 25.6C123.021 29.488 125.565 32.152 129.237 32.152ZM147.232 21.88C150.736 21.88 153.16 24.424 153.16 28.072C153.16 31.72 150.736 34.264 147.232 34.264C145.432 34.264 143.896 33.616 142.96 32.512V39.568H140.728V22.144H142.72L142.744 23.896C143.656 22.648 145.288 21.88 147.232 21.88ZM146.944 32.2C149.296 32.2 150.928 30.496 150.928 28.072C150.928 25.648 149.296 23.944 146.944 23.944C144.616 23.944 142.96 25.648 142.96 28.072C142.96 30.496 144.616 32.2 146.944 32.2ZM162.857 31.768L163.505 33.616C162.641 34 161.873 34.168 160.985 34.168C158.489 34.168 157.241 32.728 157.241 30.064V24.088H154.913V22.144H157.241V18.952L159.449 18.712V22.144H163.049V24.088H159.449V30.064C159.449 31.384 159.953 32.152 161.249 32.152C161.753 32.152 162.353 31.984 162.857 31.768ZM166.992 20.104C166.128 20.104 165.48 19.48 165.48 18.64C165.48 17.776 166.128 17.152 166.992 17.152C167.88 17.152 168.504 17.776 168.504 18.64C168.504 19.48 167.88 20.104 166.992 20.104ZM165.864 34V22.144H168.096V34H165.864ZM177.271 34.264C173.479 34.264 171.007 31.6 171.007 28.072C171.007 24.544 173.479 21.88 177.271 21.88C181.039 21.88 183.511 24.544 183.511 28.072C183.511 31.6 181.039 34.264 177.271 34.264ZM177.271 32.2C179.695 32.2 181.279 30.328 181.279 28.072C181.279 25.816 179.695 23.944 177.271 23.944C174.823 23.944 173.239 25.816 173.239 28.072C173.239 30.328 174.823 32.2 177.271 32.2ZM192.646 21.928C195.718 21.928 197.734 24.064 197.734 27.424V34H195.502V27.568C195.502 25.288 194.326 23.992 192.31 23.992C190.15 23.992 188.638 25.552 188.638 27.688V34H186.406V22.144H188.398L188.422 23.8C189.43 22.576 190.918 21.928 192.646 21.928ZM205.687 34.264C203.671 34.264 201.895 33.64 200.359 32.44L201.487 30.784C202.519 31.696 204.079 32.248 205.735 32.248C207.439 32.248 208.495 31.648 208.495 30.64C208.495 29.68 207.655 29.224 205.519 28.96C202.327 28.576 200.743 27.4 200.743 25.408C200.743 23.296 202.759 21.88 205.783 21.88C207.583 21.88 209.095 22.336 210.439 23.296L209.407 24.928C208.327 24.16 207.175 23.824 205.879 23.824C203.959 23.824 202.927 24.376 202.927 25.384C202.927 26.272 203.695 26.728 205.711 26.992C209.239 27.448 210.703 28.504 210.703 30.664C210.703 32.8 208.687 34.264 205.687 34.264Z" fill="white"/>
<path d="M28.9447 31.816H28.7447V32.016H28.9447V31.816ZM38.9287 31.816H39.1287V31.616H38.9287V31.816ZM38.9287 34V34.2H39.1287V34H38.9287ZM26.6167 34H26.4167V34.2H26.6167V34ZM26.6167 17.2V17H26.4167V17.2H26.6167ZM38.7847 17.2H38.9847V17H38.7847V17.2ZM38.7847 19.36V19.56H38.9847V19.36H38.7847ZM28.9447 19.36V19.16H28.7447V19.36H28.9447ZM28.9447 24.424H28.7447V24.624H28.9447V24.424ZM38.3527 24.424H38.5527V24.224H38.3527V24.424ZM38.3527 26.56V26.76H38.5527V26.56H38.3527ZM28.9447 26.56V26.36H28.7447V26.56H28.9447ZM28.9447 31.816V32.016H38.9287V31.816V31.616H28.9447V31.816ZM38.9287 31.816H38.7287V34H38.9287H39.1287V31.816H38.9287ZM38.9287 34V33.8H26.6167V34V34.2H38.9287V34ZM26.6167 34H26.8167V17.2H26.6167H26.4167V34H26.6167ZM26.6167 17.2V17.4H38.7847V17.2V17H26.6167V17.2ZM38.7847 17.2H38.5847V19.36H38.7847H38.9847V17.2H38.7847ZM38.7847 19.36V19.16H28.9447V19.36V19.56H38.7847V19.36ZM28.9447 19.36H28.7447V24.424H28.9447H29.1447V19.36H28.9447ZM28.9447 24.424V24.624H38.3527V24.424V24.224H28.9447V24.424ZM38.3527 24.424H38.1527V26.56H38.3527H38.5527V24.424H38.3527ZM38.3527 26.56V26.36H28.9447V26.56V26.76H38.3527V26.56ZM28.9447 26.56H28.7447V31.816H28.9447H29.1447V26.56H28.9447ZM48.0525 27.832L47.8903 27.715L47.8066 27.8309L47.8893 27.9476L48.0525 27.832ZM52.4205 34V34.2H52.8072L52.5837 33.8844L52.4205 34ZM49.7325 34L49.567 34.1123L49.6265 34.2H49.7325V34ZM46.6365 29.44L46.8019 29.3277L46.639 29.0876L46.4726 29.3253L46.6365 29.44ZM43.4445 34V34.2H43.5486L43.6083 34.1147L43.4445 34ZM40.8045 34L40.6415 33.8841L40.4169 34.2H40.8045V34ZM45.1725 27.856L45.3355 27.9719L45.4181 27.8557L45.3352 27.7398L45.1725 27.856ZM41.0925 22.144V21.944H40.7038L40.9297 22.2602L41.0925 22.144ZM43.7805 22.144L43.9445 22.0295L43.8848 21.944H43.7805V22.144ZM45.5565 24.688L45.7245 24.5793L45.7205 24.5735L45.5565 24.688ZM46.6125 26.32L46.4446 26.4286L46.6088 26.6824L46.7781 26.4321L46.6125 26.32ZM47.7165 24.688L47.5525 24.5735L47.5508 24.5759L47.7165 24.688ZM49.4925 22.144V21.944H49.3882L49.3285 22.0295L49.4925 22.144ZM52.1565 22.144L52.3187 22.261L52.5474 21.944H52.1565V22.144ZM48.0525 27.832L47.8893 27.9476L52.2573 34.1156L52.4205 34L52.5837 33.8844L48.2157 27.7164L48.0525 27.832ZM52.4205 34V33.8H49.7325V34V34.2H52.4205V34ZM49.7325 34L49.8979 33.8877L46.8019 29.3277L46.6365 29.44L46.471 29.5523L49.567 34.1123L49.7325 34ZM46.6365 29.44L46.4726 29.3253L43.2806 33.8853L43.4445 34L43.6083 34.1147L46.8003 29.5547L46.6365 29.44ZM43.4445 34V33.8H40.8045V34V34.2H43.4445V34ZM40.8045 34L40.9675 34.1159L45.3355 27.9719L45.1725 27.856L45.0095 27.7401L40.6415 33.8841L40.8045 34ZM45.1725 27.856L45.3352 27.7398L41.2552 22.0278L41.0925 22.144L40.9297 22.2602L45.0097 27.9722L45.1725 27.856ZM41.0925 22.144V22.344H43.7805V22.144V21.944H41.0925V22.144ZM43.7805 22.144L43.6165 22.2585L45.3925 24.8025L45.5565 24.688L45.7205 24.5735L43.9445 22.0295L43.7805 22.144ZM45.5565 24.688L45.3886 24.7966L46.4446 26.4286L46.6125 26.32L46.7804 26.2113L45.7244 24.5793L45.5565 24.688ZM46.6125 26.32L46.7781 26.4321L47.8821 24.8001L47.7165 24.688L47.5508 24.5759L46.4468 26.2079L46.6125 26.32ZM47.7165 24.688L47.8805 24.8025L49.6565 22.2585L49.4925 22.144L49.3285 22.0295L47.5525 24.5735L47.7165 24.688ZM49.4925 22.144V22.344H52.1565V22.144V21.944H49.4925V22.144ZM52.1565 22.144L51.9943 22.027L47.8903 27.715L48.0525 27.832L48.2147 27.949L52.3187 22.261L52.1565 22.144ZM56.9045 32.512L57.0571 32.3827L56.7045 31.9668V32.512H56.9045ZM56.9045 39.568V39.768H57.1045V39.568H56.9045ZM54.6725 39.568H54.4725V39.768H54.6725V39.568ZM54.6725 22.144V21.944H54.4725V22.144H54.6725ZM56.6645 22.144L56.8645 22.1413L56.8618 21.944H56.6645V22.144ZM56.6885 23.896L56.4885 23.8987L56.4967 24.4974L56.85 24.014L56.6885 23.896ZM61.1765 21.88V22.08C62.8782 22.08 64.3066 22.6967 65.31 23.7462C66.314 24.7965 66.9045 26.2928 66.9045 28.072H67.1045H67.3045C67.3045 26.2031 66.683 24.6035 65.5991 23.4698C64.5145 22.3353 62.9789 21.68 61.1765 21.68V21.88ZM67.1045 28.072H66.9045C66.9045 29.8512 66.314 31.3475 65.31 32.3978C64.3066 33.4473 62.8782 34.064 61.1765 34.064V34.264V34.464C62.9789 34.464 64.5145 33.8087 65.5991 32.6742C66.683 31.5405 67.3045 29.9408 67.3045 28.072H67.1045ZM61.1765 34.264V34.064C59.4224 34.064 57.9475 33.4329 57.0571 32.3827L56.9045 32.512L56.752 32.6413C57.7336 33.7991 59.3306 34.464 61.1765 34.464V34.264ZM56.9045 32.512H56.7045V39.568H56.9045H57.1045V32.512H56.9045ZM56.9045 39.568V39.368H54.6725V39.568V39.768H56.9045V39.568ZM54.6725 39.568H54.8725V22.144H54.6725H54.4725V39.568H54.6725ZM54.6725 22.144V22.344H56.6645V22.144V21.944H54.6725V22.144ZM56.6645 22.144L56.4646 22.1467L56.4885 23.8987L56.6885 23.896L56.8885 23.8933L56.8645 22.1413L56.6645 22.144ZM56.6885 23.896L56.85 24.014C57.7171 22.8275 59.283 22.08 61.1765 22.08V21.88V21.68C59.1821 21.68 57.484 22.4685 56.5271 23.778L56.6885 23.896ZM60.8885 32.2V32.4C62.1147 32.4 63.1641 31.9548 63.9066 31.1837C64.6486 30.4132 65.0725 29.3296 65.0725 28.072H64.8725H64.6725C64.6725 29.2384 64.2805 30.2188 63.6185 30.9063C62.957 31.5932 62.0144 32 60.8885 32V32.2ZM64.8725 28.072H65.0725C65.0725 26.8144 64.6486 25.7308 63.9066 24.9603C63.1641 24.1892 62.1147 23.744 60.8885 23.744V23.944V24.144C62.0144 24.144 62.957 24.5508 63.6185 25.2377C64.2805 25.9252 64.6725 26.9056 64.6725 28.072H64.8725ZM60.8885 23.944V23.744C59.674 23.744 58.6249 24.1895 57.8798 24.96C57.135 25.7301 56.7045 26.8136 56.7045 28.072H56.9045H57.1045C57.1045 26.9064 57.502 25.9259 58.1673 25.238C58.8322 24.5505 59.7751 24.144 60.8885 24.144V23.944ZM56.9045 28.072H56.7045C56.7045 29.3304 57.135 30.4139 57.8798 31.184C58.6249 31.9545 59.674 32.4 60.8885 32.4V32.2V32C59.7751 32 58.8322 31.5935 58.1673 30.906C57.502 30.2181 57.1045 29.2376 57.1045 28.072H56.9045ZM70.0297 34H69.8297V34.2H70.0297V34ZM70.0297 17.2V17H69.8297V17.2H70.0297ZM72.2617 17.2H72.4617V17H72.2617V17.2ZM72.2617 34V34.2H72.4617V34H72.2617ZM70.0297 34H70.2297V17.2H70.0297H69.8297V34H70.0297ZM70.0297 17.2V17.4H72.2617V17.2V17H70.0297V17.2ZM72.2617 17.2H72.0617V34H72.2617H72.4617V17.2H72.2617ZM72.2617 34V33.8H70.0297V34V34.2H72.2617V34ZM81.437 34.264V34.064C79.5896 34.064 78.0765 33.416 77.0254 32.3505C75.9738 31.2844 75.373 29.7885 75.373 28.072H75.173H74.973C74.973 29.8835 75.6083 31.4836 76.7406 32.6315C77.8736 33.78 79.4925 34.464 81.437 34.464V34.264ZM75.173 28.072H75.373C75.373 26.3555 75.9738 24.8596 77.0254 23.7935C78.0765 22.728 79.5896 22.08 81.437 22.08V21.88V21.68C79.4925 21.68 77.8736 22.364 76.7406 23.5125C75.6083 24.6604 74.973 26.2605 74.973 28.072H75.173ZM81.437 21.88V22.08C83.2721 22.08 84.7792 22.7277 85.8275 23.7933C86.8763 24.8594 87.477 26.3555 87.477 28.072H87.677H87.877C87.877 26.2605 87.2418 24.6606 86.1126 23.5127C84.9828 22.3643 83.3699 21.68 81.437 21.68V21.88ZM87.677 28.072H87.477C87.477 29.7885 86.8763 31.2846 85.8275 32.3507C84.7792 33.4163 83.2721 34.064 81.437 34.064V34.264V34.464C83.3699 34.464 84.9828 33.7797 86.1126 32.6313C87.2418 31.4834 87.877 29.8835 87.877 28.072H87.677ZM81.437 32.2V32.4C83.9845 32.4 85.645 30.425 85.645 28.072H85.445H85.245C85.245 30.231 83.7375 32 81.437 32V32.2ZM85.445 28.072H85.645C85.645 25.719 83.9845 23.744 81.437 23.744V23.944V24.144C83.7375 24.144 85.245 25.913 85.245 28.072H85.445ZM81.437 23.944V23.744C78.8663 23.744 77.205 25.7182 77.205 28.072H77.405H77.605C77.605 25.9138 79.1117 24.144 81.437 24.144V23.944ZM77.405 28.072H77.205C77.205 30.4258 78.8663 32.4 81.437 32.4V32.2V32C79.1117 32 77.605 30.2302 77.605 28.072H77.405ZM99.2122 22.864L99.3883 22.9588L99.466 22.8145L99.3397 22.7099L99.2122 22.864ZM98.2042 24.736L98.0961 24.9042L98.2779 25.0211L98.3803 24.8308L98.2042 24.736ZM92.8042 34V34.2H93.0042V34H92.8042ZM90.5722 34H90.3722V34.2H90.5722V34ZM90.5722 22.144V21.944H90.3722V22.144H90.5722ZM92.5642 22.144L92.7642 22.1416L92.7618 21.944H92.5642V22.144ZM92.5882 24.136L92.3882 24.1384L92.3964 24.8166L92.7575 24.2425L92.5882 24.136ZM96.3082 21.928V22.128C97.3989 22.128 98.4311 22.4771 99.0847 23.0181L99.2122 22.864L99.3397 22.7099C98.6014 22.0989 97.4736 21.728 96.3082 21.728V21.928ZM99.2122 22.864L99.0361 22.7692L98.0281 24.6412L98.2042 24.736L98.3803 24.8308L99.3883 22.9588L99.2122 22.864ZM98.2042 24.736L98.3124 24.5678C97.6115 24.1172 96.9504 23.912 96.1882 23.912V24.112V24.312C96.866 24.312 97.4529 24.4908 98.0961 24.9042L98.2042 24.736ZM96.1882 24.112V23.912C95.1114 23.912 94.2082 24.3384 93.5777 25.0938C92.9499 25.8458 92.6042 26.9088 92.6042 28.168H92.8042H93.0042C93.0042 26.9792 93.3305 26.0142 93.8848 25.3502C94.4362 24.6895 95.225 24.312 96.1882 24.312V24.112ZM92.8042 28.168H92.6042V34H92.8042H93.0042V28.168H92.8042ZM92.8042 34V33.8H90.5722V34V34.2H92.8042V34ZM90.5722 34H90.7722V22.144H90.5722H90.3722V34H90.5722ZM90.5722 22.144V22.344H92.5642V22.144V21.944H90.5722V22.144ZM92.5642 22.144L92.3642 22.1464L92.3882 24.1384L92.5882 24.136L92.7882 24.1336L92.7642 22.1416L92.5642 22.144ZM92.5882 24.136L92.7575 24.2425C93.2128 23.5187 93.7256 22.9921 94.3075 22.6459C94.8882 22.3003 95.5481 22.128 96.3082 22.128V21.928V21.728C95.4844 21.728 94.7523 21.9157 94.1029 22.3021C93.4548 22.6879 92.8997 23.2653 92.4189 24.0295L92.5882 24.136ZM112.148 28.96V29.16H112.333L112.347 28.9753L112.148 28.96ZM102.332 28.96V28.76H102.11L102.133 28.9811L102.332 28.96ZM109.988 30.856L110.126 30.711L109.971 30.5636L109.834 30.7284L109.988 30.856ZM111.428 32.224L111.579 32.3553L111.705 32.2109L111.566 32.079L111.428 32.224ZM102.356 27.064L102.159 27.0284L102.117 27.264H102.356V27.064ZM110.036 27.064V27.264H110.257L110.235 27.0441L110.036 27.064ZM106.1 21.904V22.104C108.095 22.104 109.63 22.7597 110.628 23.9242C111.628 25.0909 112.114 26.7971 111.949 28.9447L112.148 28.96L112.347 28.9753C112.518 26.7549 112.02 24.9331 110.932 23.6638C109.842 22.3923 108.185 21.704 106.1 21.704V21.904ZM112.148 28.96V28.76H102.332V28.96V29.16H112.148V28.96ZM102.332 28.96L102.133 28.9811C102.246 30.0496 102.714 30.9216 103.46 31.5246C104.205 32.1259 105.212 32.448 106.388 32.448V32.248V32.048C105.284 32.048 104.371 31.7461 103.712 31.2134C103.054 30.6824 102.634 29.9104 102.531 28.9389L102.332 28.96ZM106.388 32.248V32.448C107.864 32.448 109.395 31.8847 110.142 30.9836L109.988 30.856L109.834 30.7284C109.189 31.5073 107.792 32.048 106.388 32.048V32.248ZM109.988 30.856L109.85 31.001L111.29 32.369L111.428 32.224L111.566 32.079L110.126 30.711L109.988 30.856ZM111.428 32.224L111.277 32.0927C110.194 33.3371 108.334 34.112 106.34 34.112V34.312V34.512C108.426 34.512 110.406 33.7029 111.579 32.3553L111.428 32.224ZM106.34 34.312V34.112C104.476 34.112 102.951 33.509 101.894 32.4628C100.836 31.4168 100.228 29.9108 100.228 28.072H100.028H99.828C99.828 30.0012 100.468 31.6152 101.612 32.7472C102.757 33.879 104.388 34.512 106.34 34.512V34.312ZM100.028 28.072H100.228C100.228 26.2935 100.824 24.804 101.848 23.76C102.871 22.7164 104.336 22.104 106.1 22.104V21.904V21.704C104.24 21.704 102.669 22.3516 101.562 23.48C100.456 24.608 99.828 26.2025 99.828 28.072H100.028ZM106.172 23.896V23.696C105.09 23.696 104.178 24.0014 103.488 24.5797C102.798 25.1579 102.346 25.995 102.159 27.0284L102.356 27.064L102.553 27.0996C102.726 26.141 103.138 25.3941 103.744 24.8863C104.35 24.3786 105.166 24.096 106.172 24.096V23.896ZM102.356 27.064V27.264H110.036V27.064V26.864H102.356V27.064ZM110.036 27.064L110.235 27.0441C110.134 26.0361 109.697 25.1942 108.988 24.606C108.279 24.0189 107.314 23.696 106.172 23.696V23.896V24.096C107.239 24.096 108.109 24.3971 108.732 24.914C109.355 25.4298 109.746 26.1719 109.837 27.0839L110.036 27.064ZM129.237 34.36V34.16C126.741 34.16 124.653 33.284 123.188 31.7843C121.723 30.2841 120.869 28.1464 120.869 25.6H120.669H120.469C120.469 28.2376 121.355 30.4799 122.902 32.0637C124.449 33.648 126.644 34.56 129.237 34.56V34.36ZM120.669 25.6H120.869C120.869 23.0536 121.723 20.9159 123.188 19.4157C124.653 17.916 126.741 17.04 129.237 17.04V16.84V16.64C126.644 16.64 124.449 17.552 122.902 19.1363C121.355 20.7201 120.469 22.9624 120.469 25.6H120.669ZM129.237 16.84V17.04C131.732 17.04 133.821 17.916 135.286 19.4157C136.751 20.9159 137.605 23.0536 137.605 25.6H137.805H138.005C138.005 22.9624 137.119 20.7201 135.572 19.1363C134.025 17.552 131.829 16.64 129.237 16.64V16.84ZM137.805 25.6H137.605C137.605 28.1464 136.751 30.2841 135.286 31.7843C133.821 33.284 131.732 34.16 129.237 34.16V34.36V34.56C131.829 34.56 134.025 33.648 135.572 32.0637C137.119 30.4799 138.005 28.2376 138.005 25.6H137.805ZM129.237 32.152V32.352C131.123 32.352 132.731 31.6666 133.867 30.4718C135.002 29.2777 135.653 27.5881 135.653 25.6H135.453H135.253C135.253 27.4999 134.632 29.0863 133.577 30.1962C132.523 31.3054 131.022 31.952 129.237 31.952V32.152ZM135.453 25.6H135.653C135.653 23.6119 135.002 21.9223 133.867 20.7282C132.731 19.5334 131.123 18.848 129.237 18.848V19.048V19.248C131.022 19.248 132.523 19.8946 133.577 21.0038C134.632 22.1137 135.253 23.7001 135.253 25.6H135.453ZM129.237 19.048V18.848C127.35 18.848 125.743 19.5334 124.607 20.7282C123.472 21.9223 122.821 23.6119 122.821 25.6H123.021H123.221C123.221 23.7001 123.842 22.1137 124.897 21.0038C125.951 19.8946 127.451 19.248 129.237 19.248V19.048ZM123.021 25.6H122.821C122.821 27.5881 123.472 29.2777 124.607 30.4718C125.743 31.6666 127.35 32.352 129.237 32.352V32.152V31.952C127.451 31.952 125.951 31.3054 124.897 30.1962C123.842 29.0863 123.221 27.4999 123.221 25.6H123.021ZM142.96 32.512L143.112 32.3827L142.76 31.9668V32.512H142.96ZM142.96 39.568V39.768H143.16V39.568H142.96ZM140.728 39.568H140.528V39.768H140.728V39.568ZM140.728 22.144V21.944H140.528V22.144H140.728ZM142.72 22.144L142.92 22.1413L142.917 21.944H142.72V22.144ZM142.744 23.896L142.544 23.8987L142.552 24.4974L142.905 24.014L142.744 23.896ZM147.232 21.88V22.08C148.933 22.08 150.362 22.6967 151.365 23.7462C152.369 24.7965 152.96 26.2928 152.96 28.072H153.16H153.36C153.36 26.2031 152.738 24.6035 151.654 23.4698C150.57 22.3353 149.034 21.68 147.232 21.68V21.88ZM153.16 28.072H152.96C152.96 29.8512 152.369 31.3475 151.365 32.3978C150.362 33.4473 148.933 34.064 147.232 34.064V34.264V34.464C149.034 34.464 150.57 33.8087 151.654 32.6742C152.738 31.5405 153.36 29.9408 153.36 28.072H153.16ZM147.232 34.264V34.064C145.477 34.064 144.002 33.4329 143.112 32.3827L142.96 32.512L142.807 32.6413C143.789 33.7991 145.386 34.464 147.232 34.464V34.264ZM142.96 32.512H142.76V39.568H142.96H143.16V32.512H142.96ZM142.96 39.568V39.368H140.728V39.568V39.768H142.96V39.568ZM140.728 39.568H140.928V22.144H140.728H140.528V39.568H140.728ZM140.728 22.144V22.344H142.72V22.144V21.944H140.728V22.144ZM142.72 22.144L142.52 22.1467L142.544 23.8987L142.744 23.896L142.944 23.8933L142.92 22.1413L142.72 22.144ZM142.744 23.896L142.905 24.014C143.772 22.8275 145.338 22.08 147.232 22.08V21.88V21.68C145.237 21.68 143.539 22.4685 142.582 23.778L142.744 23.896ZM146.944 32.2V32.4C148.17 32.4 149.219 31.9548 149.962 31.1837C150.704 30.4132 151.128 29.3296 151.128 28.072H150.928H150.728C150.728 29.2384 150.336 30.2188 149.673 30.9063C149.012 31.5932 148.069 32 146.944 32V32.2ZM150.928 28.072H151.128C151.128 26.8144 150.704 25.7308 149.962 24.9603C149.219 24.1892 148.17 23.744 146.944 23.744V23.944V24.144C148.069 24.144 149.012 24.5508 149.673 25.2377C150.336 25.9252 150.728 26.9056 150.728 28.072H150.928ZM146.944 23.944V23.744C145.729 23.744 144.68 24.1895 143.935 24.96C143.19 25.7301 142.76 26.8136 142.76 28.072H142.96H143.16C143.16 26.9064 143.557 25.9259 144.222 25.238C144.887 24.5505 145.83 24.144 146.944 24.144V23.944ZM142.96 28.072H142.76C142.76 29.3304 143.19 30.4139 143.935 31.184C144.68 31.9545 145.729 32.4 146.944 32.4V32.2V32C145.83 32 144.887 31.5935 144.222 30.906C143.557 30.2181 143.16 29.2376 143.16 28.072H142.96ZM162.857 31.768L163.046 31.7018L162.975 31.4999L162.778 31.5842L162.857 31.768ZM163.505 33.616L163.586 33.7988L163.755 33.7239L163.694 33.5498L163.505 33.616ZM157.241 24.088H157.441V23.888H157.241V24.088ZM154.913 24.088H154.713V24.288H154.913V24.088ZM154.913 22.144V21.944H154.713V22.144H154.913ZM157.241 22.144V22.344H157.441V22.144H157.241ZM157.241 18.952L157.22 18.7532L157.041 18.7726V18.952H157.241ZM159.449 18.712H159.649V18.4891L159.428 18.5132L159.449 18.712ZM159.449 22.144H159.249V22.344H159.449V22.144ZM163.049 22.144H163.249V21.944H163.049V22.144ZM163.049 24.088V24.288H163.249V24.088H163.049ZM159.449 24.088V23.888H159.249V24.088H159.449ZM162.857 31.768L162.668 31.8342L163.316 33.6822L163.505 33.616L163.694 33.5498L163.046 31.7018L162.857 31.768ZM163.505 33.616L163.424 33.4332C162.584 33.8066 161.844 33.968 160.985 33.968V34.168V34.368C161.903 34.368 162.699 34.1934 163.586 33.7988L163.505 33.616ZM160.985 34.168V33.968C159.776 33.968 158.901 33.6203 158.326 32.9812C157.747 32.3383 157.441 31.3682 157.441 30.064H157.241H157.041C157.041 31.4238 157.359 32.5057 158.029 33.2488C158.701 33.9957 159.699 34.368 160.985 34.368V34.168ZM157.241 30.064H157.441V24.088H157.241H157.041V30.064H157.241ZM157.241 24.088V23.888H154.913V24.088V24.288H157.241V24.088ZM154.913 24.088H155.113V22.144H154.913H154.713V24.088H154.913ZM154.913 22.144V22.344H157.241V22.144V21.944H154.913V22.144ZM157.241 22.144H157.441V18.952H157.241H157.041V22.144H157.241ZM157.241 18.952L157.263 19.1508L159.471 18.9108L159.449 18.712L159.428 18.5132L157.22 18.7532L157.241 18.952ZM159.449 18.712H159.249V22.144H159.449H159.649V18.712H159.449ZM159.449 22.144V22.344H163.049V22.144V21.944H159.449V22.144ZM163.049 22.144H162.849V24.088H163.049H163.249V22.144H163.049ZM163.049 24.088V23.888H159.449V24.088V24.288H163.049V24.088ZM159.449 24.088H159.249V30.064H159.449H159.649V24.088H159.449ZM159.449 30.064H159.249C159.249 30.7434 159.378 31.3199 159.708 31.7286C160.044 32.146 160.56 32.352 161.249 32.352V32.152V31.952C160.642 31.952 160.258 31.774 160.019 31.4774C159.773 31.1721 159.649 30.7046 159.649 30.064H159.449ZM161.249 32.152V32.352C161.791 32.352 162.419 32.1735 162.936 31.9518L162.857 31.768L162.778 31.5842C162.288 31.7945 161.716 31.952 161.249 31.952V32.152ZM165.864 34H165.664V34.2H165.864V34ZM165.864 22.144V21.944H165.664V22.144H165.864ZM168.096 22.144H168.296V21.944H168.096V22.144ZM168.096 34V34.2H168.296V34H168.096ZM166.992 20.104V19.904C166.232 19.904 165.68 19.3632 165.68 18.64H165.48H165.28C165.28 19.5968 166.024 20.304 166.992 20.304V20.104ZM165.48 18.64H165.68C165.68 17.8907 166.234 17.352 166.992 17.352V17.152V16.952C166.022 16.952 165.28 17.6613 165.28 18.64H165.48ZM166.992 17.152V17.352C167.771 17.352 168.304 17.8886 168.304 18.64H168.504H168.704C168.704 17.6634 167.988 16.952 166.992 16.952V17.152ZM168.504 18.64H168.304C168.304 19.3653 167.774 19.904 166.992 19.904V20.104V20.304C167.986 20.304 168.704 19.5947 168.704 18.64H168.504ZM165.864 34H166.064V22.144H165.864H165.664V34H165.864ZM165.864 22.144V22.344H168.096V22.144V21.944H165.864V22.144ZM168.096 22.144H167.896V34H168.096H168.296V22.144H168.096ZM168.096 34V33.8H165.864V34V34.2H168.096V34ZM177.271 34.264V34.064C175.424 34.064 173.911 33.416 172.859 32.3505C171.808 31.2844 171.207 29.7885 171.207 28.072H171.007H170.807C170.807 29.8835 171.442 31.4836 172.575 32.6315C173.708 33.78 175.327 34.464 177.271 34.464V34.264ZM171.007 28.072H171.207C171.207 26.3555 171.808 24.8596 172.859 23.7935C173.911 22.728 175.424 22.08 177.271 22.08V21.88V21.68C175.327 21.68 173.708 22.364 172.575 23.5125C171.442 24.6604 170.807 26.2605 170.807 28.072H171.007ZM177.271 21.88V22.08C179.106 22.08 180.613 22.7277 181.662 23.7933C182.71 24.8594 183.311 26.3555 183.311 28.072H183.511H183.711C183.711 26.2605 183.076 24.6606 181.947 23.5127C180.817 22.3643 179.204 21.68 177.271 21.68V21.88ZM183.511 28.072H183.311C183.311 29.7885 182.71 31.2846 181.662 32.3507C180.613 33.4163 179.106 34.064 177.271 34.064V34.264V34.464C179.204 34.464 180.817 33.7797 181.947 32.6313C183.076 31.4834 183.711 29.8835 183.711 28.072H183.511ZM177.271 32.2V32.4C179.819 32.4 181.479 30.425 181.479 28.072H181.279H181.079C181.079 30.231 179.572 32 177.271 32V32.2ZM181.279 28.072H181.479C181.479 25.719 179.819 23.744 177.271 23.744V23.944V24.144C179.572 24.144 181.079 25.913 181.079 28.072H181.279ZM177.271 23.944V23.744C174.7 23.744 173.039 25.7182 173.039 28.072H173.239H173.439C173.439 25.9138 174.946 24.144 177.271 24.144V23.944ZM173.239 28.072H173.039C173.039 30.4258 174.7 32.4 177.271 32.4V32.2V32C174.946 32 173.439 30.2302 173.439 28.072H173.239ZM197.734 34V34.2H197.934V34H197.734ZM195.502 34H195.302V34.2H195.502V34ZM188.638 34V34.2H188.838V34H188.638ZM186.406 34H186.206V34.2H186.406V34ZM186.406 22.144V21.944H186.206V22.144H186.406ZM188.398 22.144L188.598 22.1411L188.595 21.944H188.398V22.144ZM188.422 23.8L188.222 23.8029L188.23 24.3479L188.577 23.9271L188.422 23.8ZM192.646 21.928V22.128C194.134 22.128 195.35 22.6439 196.196 23.5523C197.043 24.462 197.534 25.7838 197.534 27.424H197.734H197.934C197.934 25.7042 197.418 24.278 196.489 23.2797C195.558 22.2801 194.231 21.728 192.646 21.728V21.928ZM197.734 27.424H197.534V34H197.734H197.934V27.424H197.734ZM197.734 34V33.8H195.502V34V34.2H197.734V34ZM195.502 34H195.702V27.568H195.502H195.302V34H195.502ZM195.502 27.568H195.702C195.702 26.3956 195.4 25.4481 194.811 24.7915C194.22 24.1318 193.363 23.792 192.31 23.792V23.992V24.192C193.274 24.192 194.013 24.5002 194.513 25.0585C195.017 25.6199 195.302 26.4604 195.302 27.568H195.502ZM192.31 23.992V23.792C190.037 23.792 188.438 25.4442 188.438 27.688H188.638H188.838C188.838 25.6598 190.263 24.192 192.31 24.192V23.992ZM188.638 27.688H188.438V34H188.638H188.838V27.688H188.638ZM188.638 34V33.8H186.406V34V34.2H188.638V34ZM186.406 34H186.606V22.144H186.406H186.206V34H186.406ZM186.406 22.144V22.344H188.398V22.144V21.944H186.406V22.144ZM188.398 22.144L188.198 22.1469L188.222 23.8029L188.422 23.8L188.622 23.7971L188.598 22.1411L188.398 22.144ZM188.422 23.8L188.577 23.9271C189.542 22.7549 190.97 22.128 192.646 22.128V21.928V21.728C190.866 21.728 189.319 22.3971 188.268 23.6729L188.422 23.8ZM200.359 32.44L200.194 32.3274L200.089 32.4823L200.236 32.5976L200.359 32.44ZM201.487 30.784L201.62 30.6341L201.45 30.4839L201.322 30.6714L201.487 30.784ZM205.519 28.96L205.544 28.7615L205.543 28.7614L205.519 28.96ZM210.439 23.296L210.608 23.4029L210.709 23.2431L210.556 23.1333L210.439 23.296ZM209.407 24.928L209.291 25.091L209.463 25.2134L209.576 25.0349L209.407 24.928ZM205.711 26.992L205.685 27.1903L205.686 27.1903L205.711 26.992ZM205.687 34.264V34.064C203.716 34.064 201.983 33.455 200.482 32.2824L200.359 32.44L200.236 32.5976C201.807 33.825 203.627 34.464 205.687 34.464V34.264ZM200.359 32.44L200.525 32.5526L201.653 30.8966L201.487 30.784L201.322 30.6714L200.194 32.3274L200.359 32.44ZM201.487 30.784L201.355 30.9339C202.429 31.8832 204.039 32.448 205.735 32.448V32.248V32.048C204.12 32.048 202.609 31.5088 201.62 30.6341L201.487 30.784ZM205.735 32.248V32.448C206.606 32.448 207.336 32.2953 207.854 31.9951C208.382 31.6901 208.695 31.2279 208.695 30.64H208.495H208.295C208.295 31.0601 208.081 31.4019 207.654 31.6489C207.219 31.9007 206.568 32.048 205.735 32.048V32.248ZM208.495 30.64H208.695C208.695 30.3696 208.636 30.1233 208.501 29.9047C208.367 29.6871 208.166 29.5103 207.906 29.3645C207.393 29.0771 206.615 28.8939 205.544 28.7615L205.519 28.96L205.495 29.1585C206.56 29.2901 207.27 29.4669 207.711 29.7135C207.927 29.8347 208.07 29.9684 208.16 30.1146C208.25 30.2597 208.295 30.4304 208.295 30.64H208.495ZM205.519 28.96L205.543 28.7614C203.962 28.5713 202.808 28.1875 202.054 27.6265C201.31 27.0735 200.943 26.3413 200.943 25.408H200.743H200.543C200.543 26.4667 200.969 27.3185 201.815 27.9475C202.65 28.5685 203.884 28.9647 205.495 29.1586L205.519 28.96ZM200.743 25.408H200.943C200.943 24.4239 201.41 23.6004 202.244 23.0158C203.083 22.4277 204.3 22.08 205.783 22.08V21.88V21.68C204.243 21.68 202.939 22.0403 202.015 22.6882C201.085 23.3396 200.543 24.2801 200.543 25.408H200.743ZM205.783 21.88V22.08C207.546 22.08 209.016 22.5254 210.323 23.4587L210.439 23.296L210.556 23.1333C209.174 22.1466 207.621 21.68 205.783 21.68V21.88ZM210.439 23.296L210.27 23.1891L209.238 24.8211L209.407 24.928L209.576 25.0349L210.608 23.4029L210.439 23.296ZM209.407 24.928L209.523 24.765C208.407 23.9712 207.214 23.624 205.879 23.624V23.824V24.024C207.137 24.024 208.248 24.3488 209.291 25.091L209.407 24.928ZM205.879 23.824V23.624C204.906 23.624 204.13 23.763 203.59 24.0493C203.037 24.3422 202.727 24.7944 202.727 25.384H202.927H203.127C203.127 24.9656 203.334 24.6378 203.777 24.4027C204.233 24.161 204.933 24.024 205.879 24.024V23.824ZM202.927 25.384H202.727C202.727 25.6361 202.782 25.8681 202.907 26.076C203.032 26.283 203.219 26.4532 203.463 26.5949C203.943 26.8742 204.673 27.0578 205.685 27.1903L205.711 26.992L205.737 26.7937C204.733 26.6622 204.071 26.4858 203.664 26.2491C203.464 26.1328 203.332 26.006 203.25 25.8695C203.168 25.7339 203.127 25.5759 203.127 25.384H202.927ZM205.711 26.992L205.686 27.1903C207.441 27.4172 208.647 27.7902 209.412 28.3504C210.161 28.8985 210.503 29.6384 210.503 30.664H210.703H210.903C210.903 29.5296 210.514 28.6615 209.648 28.0276C208.799 27.4058 207.51 27.0228 205.737 26.7936L205.711 26.992ZM210.703 30.664H210.503C210.503 31.6615 210.035 32.5035 209.203 33.1027C208.367 33.7051 207.157 34.064 205.687 34.064V34.264V34.464C207.217 34.464 208.516 34.0909 209.437 33.4273C210.363 32.7605 210.903 31.8025 210.903 30.664H210.703Z" fill="white" mask="url(#path-2-outside-1_2203_1142)"/>
<path d="M236 36V52H220L236 36Z" fill="#EEF9F8"/>
</svg>
