<svg preserveAspectRatio="none" width="100%" height="100%" overflow="visible" style="display: block;" viewBox="0 0 61 61" fill="none" xmlns="http://www.w3.org/2000/svg">
<g id="material-symbols-light:pedal-bike-outline-sharp">
<path id="Vector" d="M12.7083 49.5625C9.46517 49.5625 6.74813 48.467 4.55721 46.2761C2.36629 44.0852 1.27083 41.3682 1.27083 38.125C1.27083 34.9479 2.38747 32.2309 4.62075 29.9739C6.85403 27.7169 9.54989 26.5892 12.7083 26.5909C15.6126 26.5909 18.1517 27.5737 20.3257 29.5392C22.5014 31.5031 23.7553 33.9414 24.0874 36.8542H28.5734L23.119 21.6042H19.0625V19.0625H29.2292V21.6042H25.8488L27.6178 26.5909H42.6517L38.0386 13.9792H31.7708V11.4375H39.8508L45.3789 26.5604H48.2917C51.4501 26.5604 54.146 27.6771 56.3792 29.9103C58.6125 32.1436 59.7292 34.8395 59.7292 37.9979C59.7292 41.1665 58.6151 43.8692 56.3869 46.1058C54.157 48.3459 51.4586 49.4659 48.2917 49.4659C45.3721 49.4659 42.8474 48.5043 40.7175 46.5811C38.5876 44.6579 37.3193 42.2628 36.9126 39.3958H24.0874C23.7553 42.3188 22.4861 44.7444 20.28 46.6726C18.0738 48.6009 15.5499 49.5642 12.7083 49.5625ZM12.7083 47.0208C14.8366 47.0208 16.7132 46.349 18.3381 45.0053C19.9614 43.6599 21.0111 41.7901 21.4873 39.3958H13.9792V36.8542H21.4873C21.0111 34.4481 19.9606 32.5757 18.3356 31.2371C16.7123 29.8985 14.8366 29.2292 12.7083 29.2292C10.1887 29.2292 8.07657 30.0823 6.37196 31.7886C4.66735 33.4949 3.81419 35.6071 3.8125 38.125C3.8125 40.5684 4.66565 42.6619 6.37196 44.4055C8.07826 46.149 10.1904 47.0208 12.7083 47.0208ZM31.3998 36.8542H36.9126C37.06 35.685 37.4921 34.31 38.2089 32.729C38.929 31.1481 39.9762 29.9485 41.3504 29.13H28.515L31.3998 36.8542ZM48.2917 47.0208C50.8113 47.0208 52.9234 46.149 54.628 44.4055C56.3343 42.6619 57.1875 40.5684 57.1875 38.125C57.1875 35.6054 56.3343 33.4932 54.628 31.7886C52.9217 30.084 50.8096 29.2309 48.2917 29.2292C47.9138 29.2292 47.5614 29.2376 47.2343 29.2546C46.9073 29.2715 46.5888 29.3283 46.2787 29.4249L48.9169 36.4526L46.5328 37.3523L44.0191 30.3246C42.5534 31.143 41.4165 32.2673 40.6082 33.6974C39.8 35.1275 39.3958 36.6034 39.3958 38.125C39.3958 40.5684 40.249 42.6619 41.9553 44.4055C43.6616 46.149 45.7737 47.0208 48.2917 47.0208Z" fill="var(--fill-0, #1863DA)"/>
</g>
</svg>
