<svg preserveAspectRatio="none" width="100%" height="100%" overflow="visible" style="display: block;" viewBox="0 0 46 46" fill="none" xmlns="http://www.w3.org/2000/svg">
<g id="material-symbols:view-compact-outline-rounded">
<path id="Vector" d="M3.83333 34.5V11.5C3.83333 10.4458 4.209 9.54372 4.96033 8.79367C5.71167 8.04361 6.61378 7.66794 7.66667 7.66667H38.3333C39.3875 7.66667 40.2902 8.04233 41.0416 8.79367C41.7929 9.545 42.1679 10.4471 42.1667 11.5V34.5C42.1667 35.5542 41.7916 36.4569 41.0416 37.2082C40.2915 37.9596 39.3888 38.3346 38.3333 38.3333H7.66667C6.6125 38.3333 5.71039 37.9583 4.96033 37.2082C4.21028 36.4582 3.83461 35.5554 3.83333 34.5ZM38.5013 22.5002C39.0536 22.5002 39.5013 22.0524 39.5013 21.5002V11.5002C39.5013 10.9479 39.0536 10.5002 38.5013 10.5002H7.56448C7.01444 10.5002 6.56766 10.9444 6.5645 11.4944L6.50708 21.4944C6.50389 22.0489 6.95253 22.5002 7.50706 22.5002H38.5013ZM18.5013 34.5002C18.5013 35.0524 18.949 35.5002 19.5013 35.5002H38.5013C39.0536 35.5002 39.5013 35.0524 39.5013 34.5002V25.5002C39.5013 24.9479 39.0536 24.5002 38.5013 24.5002H19.5013C18.949 24.5002 18.5013 24.9479 18.5013 25.5002V34.5002ZM6.5013 34.5002C6.5013 35.0524 6.94902 35.5002 7.5013 35.5002H15.5013C16.0536 35.5002 16.5013 35.0524 16.5013 34.5002V25.5002C16.5013 24.9479 16.0536 24.5002 15.5013 24.5002H7.5013C6.94902 24.5002 6.5013 24.9479 6.5013 25.5002V34.5002Z" fill="var(--fill-0, #1863DA)"/>
</g>
</svg>
