<svg preserveAspectRatio="none" width="100%" height="100%" overflow="visible" style="display: block;" viewBox="0 0 35.8447 37.3812" fill="none" xmlns="http://www.w3.org/2000/svg">
<g id="Group">
<path id="Vector" d="M18 23C20.2091 23 22 21.2091 22 19C22 16.7909 20.2091 15 18 15C15.7909 15 14 16.7909 14 19C14 21.2091 15.7909 23 18 23Z" stroke="var(--stroke-0, #1863DA)" stroke-width="3"/>
<path id="Vector_2" d="M5.27236 6.96061L5.99111 5.71478C5.70892 5.55199 5.3798 5.48988 5.05768 5.53863C4.73557 5.58739 4.43957 5.74411 4.21819 5.98311L5.27236 6.96061ZM1.44094 13.5999L0.066691 13.1744C-0.0294445 13.4858 -0.0169371 13.8206 0.102163 14.1239C0.221263 14.4272 0.439887 14.6811 0.722191 14.8439L1.44094 13.5999ZM1.43711 23.7794L0.718358 22.5335C0.435994 22.6967 0.217492 22.951 0.0987254 23.2547C-0.0200411 23.5584 -0.0320135 23.8935 0.064774 24.2049L1.43711 23.7794ZM5.27044 30.4187L4.21627 31.3962C4.43765 31.6352 4.73365 31.7919 5.05577 31.8407C5.37788 31.8894 5.707 31.8273 5.98919 31.6645L5.27044 30.4187ZM14.0871 35.5074H12.6496C12.6496 36.1783 13.1154 36.759 13.7689 36.9085L14.0871 35.5074ZM21.7557 35.5113L22.0758 36.9143C22.3935 36.8417 22.6771 36.6633 22.8801 36.4084C23.0832 36.1535 23.1936 35.8372 23.1932 35.5113H21.7557ZM30.5743 30.4206L29.8555 31.6664C30.1377 31.8292 30.4668 31.8913 30.7889 31.8426C31.1111 31.7938 31.4071 31.6371 31.6284 31.3981L30.5743 30.4206ZM34.4038 23.7774L35.778 24.2029C35.8742 23.8916 35.8617 23.5568 35.7426 23.2535C35.6235 22.9502 35.4048 22.6963 35.1225 22.5335L34.4038 23.7774ZM34.4076 13.598L35.1264 14.8439C35.4087 14.6807 35.6272 14.4264 35.746 14.1227C35.8648 13.819 35.8767 13.4839 35.7799 13.1725L34.4076 13.598ZM30.5743 6.95678L31.6284 5.9812C31.4071 5.74219 31.1111 5.58547 30.7889 5.53672C30.4668 5.48796 30.1377 5.55007 29.8555 5.71286L30.5743 6.95678ZM21.7576 1.87186H23.1951C23.195 1.5463 23.0845 1.23041 22.8815 0.975879C22.6785 0.721353 22.3951 0.543271 22.0777 0.470779L21.7576 1.87186ZM14.0909 1.86803L13.7709 0.465029C13.4531 0.537594 13.1695 0.71596 12.9665 0.970878C12.7635 1.2258 12.6531 1.54214 12.6534 1.86803H14.0909ZM2.81519 14.0254C3.51279 11.7579 4.71229 9.67659 6.32461 7.9362L4.21627 5.9812C2.311 8.03773 0.893369 10.497 0.0686075 13.1764L2.81519 14.0254ZM4.22969 26.5969C3.63801 25.5732 3.16229 24.4868 2.81136 23.3577L0.066691 24.2068C0.480392 25.5409 1.04161 26.8247 1.73994 28.0344L4.22969 26.5969ZM6.32652 29.445C5.52389 28.5765 4.8206 27.6212 4.22969 26.5969L1.73994 28.0344C2.43776 29.2442 3.26834 30.3705 4.21627 31.3962L6.32652 29.445ZM21.4375 34.1121C19.1248 34.6385 16.7232 34.6372 14.411 34.1083L13.7709 36.9104C16.5042 37.5362 19.3435 37.5382 22.0777 36.9162L21.4375 34.1121ZM33.0334 23.3558C32.3358 25.6234 31.1363 27.7046 29.5239 29.445L31.6323 31.4C33.5376 29.3435 34.9552 26.8843 35.7799 24.2049L33.0334 23.3558ZM31.6189 10.7844C32.2207 11.836 32.6935 12.9157 33.0372 14.0235L35.7819 13.1744C35.3682 11.8403 34.8069 10.5565 34.1086 9.34686L31.6189 10.7844ZM29.5201 7.9362C30.3059 8.78528 31.0113 9.73786 31.6169 10.7844L34.1086 9.34686C33.4102 8.13694 32.577 7.0068 31.6284 5.9812L29.5201 7.9362ZM14.4091 3.26911C16.7218 2.74275 19.1234 2.74406 21.4356 3.27295L22.0777 0.470779C19.3443 -0.154979 16.5032 -0.156945 13.7689 0.465029L14.4091 3.26911ZM15.5265 5.41195V1.86611H12.6515V5.41195H15.5265ZM9.05969 7.48578L5.99111 5.71478L4.55361 8.20453L7.62027 9.97553L9.05969 7.48578ZM3.78886 20.7664L0.720274 22.5374L2.15777 25.0271L5.22636 23.2561L3.78886 20.7664ZM5.22636 14.1251L2.15969 12.356L0.722191 14.8477L3.78886 16.6168L5.22636 14.1251ZM15.5284 35.5094V31.9693H12.6534V35.5094H15.5284ZM7.62219 27.4057L4.55361 29.1767L5.99111 31.6684L9.05777 29.8954L7.62219 27.4057ZM31.2949 29.1767L28.2264 27.4057L26.7889 29.8954L29.8555 31.6664L31.2949 29.1767ZM23.1951 35.5132V31.9693H20.3201V35.5151L23.1951 35.5132ZM33.6908 12.3541L30.6222 14.1251L32.0597 16.6168L35.1264 14.8439L33.6908 12.3541ZM35.1244 22.5354L32.0597 20.7644L30.6222 23.2561L33.6889 25.0252L35.1244 22.5354ZM23.1951 5.41195V1.87186H20.3201V5.41195H23.1951ZM29.8574 5.71478L26.7889 7.48578L28.2264 9.97745L31.2949 8.20453L29.8574 5.71478ZM20.3201 5.41195C20.3201 9.46953 24.7131 12.0072 28.2264 9.97745L26.7889 7.48578C26.4247 7.69601 26.0117 7.80671 25.5912 7.80676C25.1707 7.8068 24.7576 7.69619 24.3935 7.48603C24.0293 7.27588 23.7268 6.97358 23.5165 6.6095C23.3061 6.24543 23.1953 5.83242 23.1951 5.41195H20.3201ZM30.6222 14.1251C27.1089 16.1549 27.1089 21.2264 30.6222 23.2561L32.0597 20.7644C31.6955 20.5542 31.3931 20.2517 31.1828 19.8875C30.9726 19.5233 30.8619 19.1102 30.8619 18.6897C30.8619 18.2691 30.9726 17.856 31.1828 17.4918C31.3931 17.1276 31.6955 16.8251 32.0597 16.6149L30.6222 14.1251ZM28.2264 27.4057C24.7131 25.3759 20.3201 27.9117 20.3201 31.9693H23.1951C23.1953 31.5488 23.3061 31.1358 23.5165 30.7717C23.7268 30.4076 24.0293 30.1053 24.3935 29.8952C24.7576 29.685 25.1707 29.5744 25.5912 29.5745C26.0117 29.5745 26.4247 29.6852 26.7889 29.8954L28.2264 27.4057ZM15.5284 31.9693C15.5284 27.9117 11.1354 25.3759 7.62219 27.4057L9.05777 29.8954C9.42191 29.6852 9.83688 29.5745 10.2574 29.5745C10.6778 29.5744 11.0909 29.685 11.4551 29.8952C11.8193 30.1053 12.1217 30.4076 12.3321 30.7717C12.5424 31.1358 12.6533 31.5488 12.6534 31.9693H15.5284ZM5.22636 23.2561C8.73961 21.2264 8.73961 16.1549 5.22636 14.1251L3.78886 16.6168C4.15304 16.8271 4.45546 17.1295 4.66572 17.4937C4.87598 17.8579 4.98667 18.271 4.98667 18.6916C4.98667 19.1121 4.87598 19.5252 4.66572 19.8894C4.45546 20.2536 4.15304 20.5561 3.78886 20.7664L5.22636 23.2561ZM12.6534 5.41195C12.6533 5.83242 12.5424 6.24543 12.3321 6.6095C12.1217 6.97358 11.8193 7.27588 11.4551 7.48603C11.0909 7.69619 10.6778 7.8068 10.2574 7.80676C9.83688 7.80671 9.42383 7.69601 9.05969 7.48578L7.62219 9.97745C11.1354 12.0053 15.5284 9.46953 15.5284 5.41195H12.6534Z" fill="var(--fill-0, #1863DA)"/>
</g>
</svg>
