<svg preserveAspectRatio="none" width="100%" height="100%" overflow="visible" style="display: block;" viewBox="0 0 15 15.0004" fill="none" xmlns="http://www.w3.org/2000/svg">
<g id="FE9zXz.tif">
<path id="Vector" d="M11.4989 13.9202H12.1893V2.77879H13.2579C13.6741 2.77879 14.2937 3.39471 14.2937 3.80794V13.9202C14.7764 13.8318 15.1847 14.3132 14.9128 14.7477C14.7135 15.0663 14.3029 14.95 13.9799 14.9641C12.2509 15.0407 10.4866 14.969 8.75486 14.9641C6.74834 14.9582 4.73523 15.006 2.73727 14.9998C2.13093 14.9979 1.53085 14.9959 0.928793 14.9645C0.602885 14.9474 0.28258 15.0617 0.0822237 14.7274C-0.16196 14.3201 0.173834 13.8931 0.615408 13.9202V3.87375C0.612112 3.41108 1.19209 2.77879 1.65113 2.77879H2.7198V13.9202H3.41017V1.06334C3.41017 0.628827 3.97104 0.0469666 4.41591 0.00439951L10.4319 0.000142798C10.9311 0.020444 11.4992 0.6118 11.4992 1.09608V13.9202H11.4989ZM5.76798 2.62228C5.47404 2.68777 5.46053 3.27716 5.57883 3.48279C5.72251 3.7323 6.431 3.72968 6.54172 3.45659C6.5961 3.32202 6.58984 2.85345 6.49625 2.73426C6.37926 2.58528 5.93703 2.58462 5.76798 2.62228ZM8.59636 2.62293C8.29418 2.68318 8.31263 3.10983 8.3413 3.35116C8.38315 3.70446 8.96247 3.72935 9.20896 3.59117C9.47852 3.43989 9.46764 2.6953 9.14075 2.62228C9.04123 2.60001 8.69851 2.6023 8.59636 2.62293ZM5.76798 4.71331C5.47404 4.77879 5.46053 5.36818 5.57883 5.57382C5.72251 5.82333 6.431 5.82071 6.54172 5.54762C6.5961 5.41304 6.58984 4.94448 6.49625 4.82529C6.37926 4.67631 5.93703 4.67565 5.76798 4.71331ZM8.59636 4.71396C8.29451 4.77421 8.31263 5.20054 8.3413 5.44219C8.38315 5.79549 8.96247 5.82038 9.20896 5.6822C9.47852 5.53092 9.46764 4.78632 9.14075 4.71331C9.04123 4.69104 8.69851 4.69333 8.59636 4.71396ZM5.76798 6.80433C5.47404 6.86982 5.46053 7.45921 5.57883 7.66484C5.72251 7.91435 6.431 7.91173 6.54172 7.63865C6.5961 7.50407 6.58984 7.03551 6.49625 6.91632C6.37926 6.76733 5.93703 6.76668 5.76798 6.80433ZM8.59636 6.80499C8.29451 6.86524 8.31263 7.29156 8.3413 7.53321C8.38315 7.88652 8.96247 7.91141 9.20896 7.77323C9.47852 7.62195 9.46764 6.87735 9.14075 6.80433C9.04123 6.78207 8.69851 6.78436 8.59636 6.80499ZM9.39449 13.9202V9.91796C9.39449 9.44219 8.97664 9.08953 8.52419 9.0509C7.96432 9.00309 6.98198 9.00997 6.41716 9.0509C5.94857 9.08462 5.51424 9.41926 5.51424 9.91828V13.9206H6.56644V10.0977H8.34196V13.9206H9.39416L9.39449 13.9202Z" fill="var(--fill-0, #1863DA)"/>
</g>
</svg>
