<svg preserveAspectRatio="none" width="100%" height="100%" overflow="visible" style="display: block;" viewBox="0 0 125 65" fill="none" xmlns="http://www.w3.org/2000/svg">
<g id="Frame 1000005580">
<g id="Vector" filter="url(#filter0_d_0_126)">
<path d="M25.23 14.5H40.77C46.69 14.5 51.5 19.18 51.5 24.94V40.06C51.5 42.8289 50.3695 45.4843 48.3573 47.4422C46.345 49.4001 43.6158 50.5 40.77 50.5H25.23C19.31 50.5 14.5 45.82 14.5 40.06V24.94C14.5 22.1711 15.6305 19.5157 17.6427 17.5578C19.655 15.5999 22.3842 14.5 25.23 14.5ZM24.86 18.1C23.0937 18.1 21.3997 18.7827 20.1507 19.9979C18.9017 21.2132 18.2 22.8614 18.2 24.58V40.42C18.2 44.002 21.1785 46.9 24.86 46.9H41.14C42.9063 46.9 44.6003 46.2173 45.8493 45.0021C47.0983 43.7868 47.8 42.1386 47.8 40.42V24.58C47.8 20.998 44.8215 18.1 41.14 18.1H24.86ZM42.7125 20.8C43.3258 20.8 43.914 21.0371 44.3477 21.459C44.7814 21.881 45.025 22.4533 45.025 23.05C45.025 23.6467 44.7814 24.219 44.3477 24.641C43.914 25.0629 43.3258 25.3 42.7125 25.3C42.0992 25.3 41.511 25.0629 41.0773 24.641C40.6436 24.219 40.4 23.6467 40.4 23.05C40.4 22.4533 40.6436 21.881 41.0773 21.459C41.511 21.0371 42.0992 20.8 42.7125 20.8ZM33 23.5C35.4533 23.5 37.806 24.4482 39.5407 26.136C41.2754 27.8239 42.25 30.1131 42.25 32.5C42.25 34.8869 41.2754 37.1761 39.5407 38.864C37.806 40.5518 35.4533 41.5 33 41.5C30.5467 41.5 28.194 40.5518 26.4593 38.864C24.7246 37.1761 23.75 34.8869 23.75 32.5C23.75 30.1131 24.7246 27.8239 26.4593 26.136C28.194 24.4482 30.5467 23.5 33 23.5ZM33 27.1C31.528 27.1 30.1164 27.6689 29.0756 28.6816C28.0347 29.6943 27.45 31.0678 27.45 32.5C27.45 33.9322 28.0347 35.3057 29.0756 36.3184C30.1164 37.3311 31.528 37.9 33 37.9C34.472 37.9 35.8836 37.3311 36.9244 36.3184C37.9653 35.3057 38.55 33.9322 38.55 32.5C38.55 31.0678 37.9653 29.6943 36.9244 28.6816C35.8836 27.6689 34.472 27.1 33 27.1Z" fill="var(--fill-0, #1863DA)"/>
</g>
<g id="Vector_2" filter="url(#filter1_d_0_126)">
<path d="M73.5 17.0785C73.5 15.6543 74.7164 14.5 76.2172 14.5H107.783C109.284 14.5 110.5 15.6543 110.5 17.0785V47.9215C110.5 49.3458 109.284 50.5 107.783 50.5H76.2172C74.7164 50.5 73.5 49.3458 73.5 47.9215V17.0785ZM84.9307 44.6365V28.3803H79.3784V44.6365H84.9307ZM82.1557 26.1595C84.0913 26.1595 85.2961 24.913 85.2961 23.3515C85.2614 21.7563 84.0936 20.5435 82.1927 20.5435C80.2918 20.5435 79.05 21.7585 79.05 23.3515C79.05 24.913 80.2548 26.1595 82.1187 26.1595H82.1557ZM93.5054 44.6365V35.5578C93.5054 35.0718 93.5424 34.5857 93.6904 34.2392C94.0905 33.2695 95.0039 32.2637 96.5394 32.2637C98.549 32.2637 99.3514 33.7533 99.3514 35.9403V44.6365H104.904V35.3125C104.904 30.3175 102.166 27.9955 98.512 27.9955C95.5659 27.9955 94.2454 29.5705 93.5054 30.6797V30.736H93.4684L93.5054 30.6797V28.3803H87.9554C88.0248 29.9058 87.9554 44.6365 87.9554 44.6365H93.5054Z" fill="var(--fill-0, #1863DA)"/>
</g>
</g>
<defs>
<filter id="filter0_d_0_126" x="0" y="0" width="66" height="65" filterUnits="userSpaceOnUse" color-interpolation-filters="sRGB">
<feFlood flood-opacity="0" result="BackgroundImageFix"/>
<feColorMatrix in="SourceAlpha" type="matrix" values="0 0 0 0 0 0 0 0 0 0 0 0 0 0 0 0 0 0 127 0" result="hardAlpha"/>
<feOffset/>
<feGaussianBlur stdDeviation="7.25"/>
<feComposite in2="hardAlpha" operator="out"/>
<feColorMatrix type="matrix" values="0 0 0 0 1 0 0 0 0 1 0 0 0 0 1 0 0 0 0.3 0"/>
<feBlend mode="normal" in2="BackgroundImageFix" result="effect1_dropShadow_0_126"/>
<feBlend mode="normal" in="SourceGraphic" in2="effect1_dropShadow_0_126" result="shape"/>
</filter>
<filter id="filter1_d_0_126" x="59" y="0" width="66" height="65" filterUnits="userSpaceOnUse" color-interpolation-filters="sRGB">
<feFlood flood-opacity="0" result="BackgroundImageFix"/>
<feColorMatrix in="SourceAlpha" type="matrix" values="0 0 0 0 0 0 0 0 0 0 0 0 0 0 0 0 0 0 127 0" result="hardAlpha"/>
<feOffset/>
<feGaussianBlur stdDeviation="7.25"/>
<feComposite in2="hardAlpha" operator="out"/>
<feColorMatrix type="matrix" values="0 0 0 0 1 0 0 0 0 1 0 0 0 0 1 0 0 0 0.3 0"/>
<feBlend mode="normal" in2="BackgroundImageFix" result="effect1_dropShadow_0_126"/>
<feBlend mode="normal" in="SourceGraphic" in2="effect1_dropShadow_0_126" result="shape"/>
</filter>
</defs>
</svg>
