<svg preserveAspectRatio="none" width="100%" height="100%" overflow="visible" style="display: block;" viewBox="0 0 14.9997 15.0001" fill="none" xmlns="http://www.w3.org/2000/svg">
<g id="Group">
<path id="Vector" d="M0 2.34684H4.98014V6.71783L9.34506 4.18036C9.51765 4.09688 9.73955 4.12804 9.87193 4.26854C9.89864 4.29705 9.98934 4.44724 9.98934 4.4737V6.71783L14.3543 4.18036C14.6507 4.04162 14.9844 4.22915 14.9997 4.5607V14.5957C14.9944 14.7838 14.875 14.9378 14.7006 15.0001H0.297922C0.140889 14.949 0.0722057 14.8343 0 14.6971V2.34684ZM4.4157 9.74617C4.23343 9.80789 4.12306 9.94046 4.10134 10.1353C4.05731 10.5298 4.05731 11.5597 4.10134 11.9544C4.12394 12.1555 4.26131 12.3263 4.46707 12.351C5.05205 12.4215 5.77264 12.2966 6.37259 12.351C6.60183 12.3104 6.71953 12.1511 6.7392 11.9262C6.77677 11.5006 6.78469 10.5527 6.73802 10.1356C6.71542 9.93458 6.57806 9.7638 6.3723 9.73911C5.77499 9.6671 5.02857 9.78849 4.4157 9.74646V9.74617ZM9.4249 9.74617C9.24262 9.80789 9.13226 9.94046 9.11054 10.1353C9.06651 10.5298 9.06651 11.5597 9.11054 11.9544C9.13314 12.1555 9.27051 12.3263 9.47627 12.351C10.0612 12.4215 10.7818 12.2966 11.3818 12.351C11.611 12.3104 11.7287 12.1511 11.7484 11.9262C11.786 11.5006 11.7939 10.5527 11.7472 10.1356C11.7246 9.93458 11.5873 9.7638 11.3815 9.73911C10.7842 9.6671 10.0378 9.78849 9.4249 9.74646V9.74617Z" fill="var(--fill-0, #1863DA)"/>
<path id="Vector_2" d="M4.65786 0C4.76616 0.0408559 4.98014 0.218094 4.98014 0.337429V1.4667H0V0.322732C0.0745539 0.16166 0.161436 0.0746576 0.322284 0H4.65786Z" fill="var(--fill-0, #1863DA)"/>
</g>
</svg>
