<svg preserveAspectRatio="none" width="100%" height="100%" overflow="visible" style="display: block;" viewBox="0 0 58.625 58.625" fill="none" xmlns="http://www.w3.org/2000/svg">
<g id="Group">
<path id="Vector" d="M50.875 12.0625L46.6574 15.225C45.6621 15.9715 44.4515 16.375 43.2074 16.375H33.5531C32.6176 16.3754 31.705 16.665 30.9404 17.2041C30.1758 17.7433 29.5966 18.5056 29.2822 19.3867C28.9677 20.2679 28.9333 21.2247 29.1837 22.1261C29.4341 23.0275 29.9571 23.8295 30.681 24.4221L36.431 29.1256C38.658 30.9477 40.3939 33.2979 41.4806 35.9623C42.5672 38.6266 42.9701 41.5205 42.6525 44.3804L42.595 44.8979C42.3663 46.9565 41.8605 48.9748 41.0914 50.898L39.375 55.1875M2 25L11.3092 23.4475C12.2123 23.2968 13.1382 23.3638 14.0101 23.6431C14.8819 23.9224 15.6745 24.4058 16.3218 25.0532C16.9692 25.7005 17.4526 26.4931 17.7319 27.3649C18.0112 28.2368 18.0782 29.1627 17.9275 30.0658L17.5394 32.3859C17.2039 34.4097 17.5253 36.4877 18.4565 38.3156C19.3878 40.1434 20.8799 41.625 22.7144 42.5432C24.1795 43.2747 25.351 44.4845 26.0348 45.9725C26.7187 47.4604 26.8739 49.1373 26.4749 50.7255L25 56.625" stroke="var(--stroke-0, #1863DA)" stroke-width="4"/>
<path id="Vector_2" d="M29.3125 56.625C44.3968 56.625 56.625 44.3968 56.625 29.3125C56.625 14.2282 44.3968 2 29.3125 2C14.2282 2 2 14.2282 2 29.3125C2 44.3968 14.2282 56.625 29.3125 56.625Z" stroke="var(--stroke-0, #1863DA)" stroke-width="4"/>
</g>
</svg>
