<svg preserveAspectRatio="none" width="100%" height="100%" overflow="visible" style="display: block;" viewBox="0 0 81 81" fill="none" xmlns="http://www.w3.org/2000/svg">
<g id="codicon:workspace-trusted">
<path id="Vector" d="M67.8375 15.1875C58.5377 15.1875 50.1896 13.5017 42.6566 5.9535C42.0871 5.38468 41.3151 5.06517 40.5101 5.06517C39.7052 5.06517 38.9332 5.38468 38.3636 5.9535C30.8104 13.5017 22.4572 15.1875 13.1676 15.1875C12.362 15.1875 11.5894 15.5075 11.0197 16.0772C10.4501 16.6468 10.1301 17.4194 10.1301 18.225V36.4601C10.1301 56.0115 20.1032 69.3006 39.5432 75.7856C40.1675 75.994 40.8426 75.994 41.4669 75.7856C60.912 69.3056 70.8801 56.0115 70.8801 36.4601V18.225C70.8801 16.5493 69.5132 15.1875 67.8375 15.1875ZM65.8125 36.4551C65.8125 53.6473 57.5302 64.8759 40.5 70.7586C23.4697 64.8759 15.1875 53.6473 15.1875 36.4551V20.2247C23.1812 20.0272 32.157 18.4579 40.5051 10.8945C48.8379 18.4528 57.8188 20.0222 65.8125 20.2247V36.4551ZM37.9637 44.5146L51.3591 31.1192C51.5944 30.8838 51.8738 30.6972 52.1813 30.5698C52.4888 30.4424 52.8184 30.3769 53.1512 30.3769C53.484 30.3769 53.8136 30.4424 54.1211 30.5698C54.4286 30.6972 54.708 30.8838 54.9433 31.1192C55.1787 31.3545 55.3653 31.6339 55.4927 31.9414C55.6201 32.2489 55.6856 32.5785 55.6856 32.9113C55.6856 33.2441 55.6201 33.5737 55.4927 33.8812C55.3653 34.1887 55.1787 34.4681 54.9433 34.7034L39.7558 49.8909C39.5207 50.1267 39.2414 50.3137 38.9338 50.4413C38.6263 50.5689 38.2966 50.6346 37.9637 50.6346C37.6307 50.6346 37.3011 50.5689 36.9935 50.4413C36.686 50.3137 36.4067 50.1267 36.1716 49.8909L28.5778 42.2972C28.1025 41.8219 27.8355 41.1772 27.8355 40.5051C27.8355 39.8329 28.1025 39.1882 28.5778 38.7129C29.0531 38.2376 29.6978 37.9706 30.3699 37.9706C31.0421 37.9706 31.6868 38.2376 32.1621 38.7129L37.9637 44.5146Z" fill="var(--fill-0, #1863DA)"/>
</g>
</svg>
