<svg preserveAspectRatio="none" width="100%" height="100%" overflow="visible" style="display: block;" viewBox="0 0 69 69" fill="none" xmlns="http://www.w3.org/2000/svg">
<g id="grommet-icons:performance">
<path id="Vector" d="M36.5 54.625L30.75 63.25L22.125 60.375L20.6875 50.3125L10.625 48.875L7.75 40.25L16.375 34.5L7.75 28.75L10.625 20.125L20.6875 18.6875L22.125 8.625L30.75 5.75L36.5 14.375L42.25 5.75L50.875 8.625L52.3125 18.6875L62.375 20.125L65.25 28.75L56.625 34.5L65.25 40.25L62.375 48.875L52.3125 50.3125L50.875 60.375L42.25 63.25L36.5 54.625ZM36.5 46C39.55 46 42.4751 44.7884 44.6317 42.6317C46.7884 40.4751 48 37.55 48 34.5C48 31.45 46.7884 28.5249 44.6317 26.3683C42.4751 24.2116 39.55 23 36.5 23C33.45 23 30.5249 24.2116 28.3683 26.3683C26.2116 28.5249 25 31.45 25 34.5C25 37.55 26.2116 40.4751 28.3683 42.6317C30.5249 44.7884 33.45 46 36.5 46Z" stroke="var(--stroke-0, #1863DA)" stroke-width="4" stroke-linecap="round" stroke-linejoin="round"/>
</g>
</svg>
