<svg width="233" height="24" viewBox="0 0 233 24" fill="none" xmlns="http://www.w3.org/2000/svg">
<g clip-path="url(#clip0_3248_1462)">
<path d="M229.969 2.14211C230.052 1.95204 230.169 1.77926 230.319 1.62375C230.469 1.48552 230.635 1.36457 230.819 1.27818C231.002 1.19178 231.218 1.15723 231.435 1.15723C231.651 1.15723 231.851 1.19178 232.051 1.27818C232.234 1.36457 232.401 1.46824 232.55 1.62375C232.7 1.76198 232.8 1.93476 232.884 2.14211C232.967 2.33217 233.017 2.55679 233.017 2.78142C233.017 3.00604 232.967 3.23066 232.884 3.438C232.8 3.64535 232.684 3.81813 232.55 3.95636C232.401 4.11187 232.234 4.21554 232.051 4.30193C231.868 4.38833 231.651 4.42289 231.435 4.42289C231.218 4.42289 231.018 4.38833 230.819 4.30193C230.619 4.21554 230.452 4.11187 230.319 3.95636C230.169 3.80085 230.052 3.62807 229.969 3.438C229.886 3.23066 229.836 3.02332 229.836 2.78142C229.836 2.53952 229.886 2.33217 229.969 2.14211ZM230.219 3.33433C230.286 3.50712 230.369 3.64535 230.485 3.78358C230.602 3.90453 230.735 4.0082 230.902 4.07731C231.068 4.14643 231.235 4.18098 231.418 4.18098C231.601 4.18098 231.768 4.14643 231.934 4.07731C232.084 4.0082 232.234 3.90453 232.351 3.78358C232.467 3.66263 232.55 3.50712 232.617 3.33433C232.684 3.16155 232.717 2.97148 232.717 2.78142C232.717 2.59135 232.684 2.40129 232.617 2.2285C232.55 2.05571 232.467 1.91749 232.351 1.79654C232.234 1.67559 232.101 1.57191 231.934 1.5028C231.784 1.43368 231.601 1.39913 231.418 1.39913C231.235 1.39913 231.068 1.43368 230.902 1.5028C230.735 1.57191 230.602 1.67559 230.485 1.79654C230.369 1.91749 230.286 2.07299 230.219 2.2285C230.152 2.40129 230.119 2.57407 230.119 2.78142C230.119 2.98876 230.152 3.16155 230.219 3.33433ZM231.984 3.61079C231.834 3.73174 231.668 3.80086 231.485 3.80086C231.335 3.80086 231.218 3.78358 231.102 3.73174C230.985 3.6799 230.885 3.61079 230.802 3.5244C230.719 3.438 230.652 3.33433 230.619 3.21338C230.569 3.09243 230.552 2.9542 230.552 2.81597C230.552 2.67774 230.569 2.53952 230.619 2.41857C230.669 2.29762 230.719 2.19394 230.802 2.10755C230.885 2.02116 230.985 1.95204 231.085 1.90021C231.202 1.84837 231.335 1.83109 231.468 1.83109C231.668 1.83109 231.851 1.88293 231.984 2.00388C232.134 2.10755 232.217 2.28034 232.251 2.50496H231.984C231.968 2.38401 231.901 2.28034 231.818 2.19394C231.734 2.10755 231.601 2.07299 231.468 2.07299C231.368 2.07299 231.268 2.09027 231.185 2.12483C231.102 2.15939 231.035 2.21122 230.985 2.28034C230.935 2.34945 230.885 2.43584 230.868 2.52224C230.835 2.60863 230.819 2.7123 230.819 2.81597C230.819 2.91965 230.819 3.02332 230.868 3.10971C230.902 3.1961 230.935 3.2825 231.002 3.35161C231.052 3.42073 231.118 3.47256 231.202 3.5244C231.285 3.55895 231.368 3.59351 231.468 3.59351C231.618 3.59351 231.734 3.55895 231.818 3.47256C231.901 3.38617 231.968 3.2825 231.984 3.14427H232.251C232.201 3.35161 232.117 3.5244 231.968 3.64535L231.984 3.61079Z" fill="#515151"/>
<path d="M20.6841 23.9996H14.1392L10.3422 17.1746L7.07812 11.3171L10.3422 5.44238L13.623 11.3171L20.6841 23.9996Z" fill="#1863DA"/>
<path d="M34.0593 0H27.5145L14.125 24H20.6865L34.0593 0Z" fill="#1863DA"/>
<path d="M35.4242 18.5059L32.3599 24.0005H22.4844L25.532 18.5059H35.4242Z" fill="#1863DA"/>
<path d="M19.9343 0L13.6226 11.3175L10.3419 17.1749L6.54485 24H0L7.07776 11.3175L10.3419 5.44276L13.3728 0H19.9343Z" fill="#1863DA"/>
<path d="M43.4492 0.656982H47.1297L57.8046 15.3956V0.656982H61.4517V21.6159H57.8046L47.1297 6.87728V21.6159H43.4492V0.656982Z" fill="#515151"/>
<path d="M78.9216 12.1299V21.6158H75.4243V19.7325C74.3085 21.2011 72.3934 21.996 70.6281 21.996C67.3973 21.996 64.9492 20.0089 64.9492 16.9679C64.9492 13.9268 67.747 11.7152 71.161 11.7152C72.5432 11.7152 74.0421 12.0262 75.4243 12.5618V12.1299C75.4243 10.2983 74.4584 8.53591 71.6939 8.53591C70.2451 8.53591 68.8628 9.05427 67.5805 9.72813L66.3481 7.13634C68.4964 6.03051 70.4949 5.49487 72.41 5.49487C76.4402 5.49487 78.9382 8.15578 78.9382 12.1471L78.9216 12.1299ZM75.4077 16.6741V14.9117C74.2919 14.5143 73.0262 14.307 71.6773 14.307C69.8787 14.307 68.4465 15.3437 68.4465 16.8296C68.4465 18.3156 69.7121 19.2659 71.4108 19.2659C73.1095 19.2659 74.9913 18.3502 75.4077 16.6741Z" fill="#515151"/>
<path d="M92.759 21.616L89.062 16.346L85.3316 21.616H81.418L87.1135 13.5641L81.6678 5.84058H85.6147L89.0786 10.7477L92.5425 5.84058H96.4561L91.0104 13.5296L96.7059 21.616H92.7424H92.759Z" fill="#515151"/>
<path d="M112.445 12.1299V21.6158H108.948V19.7325C107.832 21.2011 105.917 21.996 104.152 21.996C100.921 21.996 98.4727 20.0089 98.4727 16.9679C98.4727 13.9268 101.27 11.7152 104.684 11.7152C106.067 11.7152 107.565 12.0262 108.948 12.5618V12.1299C108.948 10.2983 107.982 8.53591 105.217 8.53591C103.768 8.53591 102.386 9.05427 101.104 9.72813L99.8716 7.13634C102.02 6.03051 104.018 5.49487 105.933 5.49487C109.964 5.49487 112.462 8.15578 112.462 12.1471L112.445 12.1299ZM108.931 16.6741V14.9117C107.815 14.5143 106.55 14.307 105.201 14.307C103.402 14.307 101.97 15.3437 101.97 16.8296C101.97 18.3156 103.236 19.2659 104.934 19.2659C106.633 19.2659 108.515 18.3502 108.931 16.6741Z" fill="#515151"/>
<path d="M124.937 20.7341C124.087 21.4943 122.855 21.9781 121.706 21.9781C119.174 21.9781 117.409 20.0948 117.409 17.4339V8.91551H115.211V5.83992H117.409V1.52026H120.906V5.8572H124.354V8.93279H120.906V16.9846C120.906 18.0559 121.556 18.8162 122.405 18.8162C123.021 18.8162 123.588 18.5743 123.904 18.2287L124.937 20.7341Z" fill="#515151"/>
<path d="M136.843 5.47729V8.65656C133.579 8.65656 131.397 10.6782 131.397 13.6674V21.6328H127.816V5.84015H131.397V8.89846C132.363 6.79047 134.345 5.47729 136.843 5.47729Z" fill="#515151"/>
<path d="M152.629 12.1299V21.6158H149.131V19.7325C148.016 21.2011 146.1 21.996 144.335 21.996C141.104 21.996 138.656 20.0089 138.656 16.9679C138.656 13.9268 141.454 11.7152 144.868 11.7152C146.25 11.7152 147.749 12.0262 149.131 12.5618V12.1299C149.131 10.2983 148.165 8.53591 145.401 8.53591C143.952 8.53591 142.57 9.05427 141.288 9.72813L140.055 7.13634C142.203 6.03051 144.202 5.49487 146.117 5.49487C150.147 5.49487 152.645 8.15578 152.645 12.1471L152.629 12.1299ZM149.131 16.6741V14.9117C148.016 14.5143 146.75 14.307 145.401 14.307C143.602 14.307 142.17 15.3437 142.17 16.8296C142.17 18.3156 143.436 19.2659 145.134 19.2659C146.833 19.2659 148.715 18.3502 149.131 16.6741Z" fill="#515151"/>
<path d="M178.811 18.1429V21.6159H164.789V0.656982H168.436V18.1429H178.811Z" fill="#515151"/>
<path d="M194.797 12.1299V21.6158H191.299V19.7325C190.184 21.2011 188.268 21.996 186.503 21.996C183.272 21.996 180.824 20.0089 180.824 16.9679C180.824 13.9268 183.622 11.7152 187.036 11.7152C188.418 11.7152 189.917 12.0262 191.299 12.5618V12.1299C191.299 10.2983 190.333 8.53591 187.569 8.53591C186.12 8.53591 184.738 9.05427 183.455 9.72813L182.223 7.13634C184.371 6.03051 186.37 5.49487 188.285 5.49487C192.315 5.49487 194.813 8.15578 194.813 12.1471L194.797 12.1299ZM191.299 16.6741V14.9117C190.184 14.5143 188.918 14.307 187.569 14.307C185.77 14.307 184.338 15.3437 184.338 16.8296C184.338 18.3156 185.604 19.2659 187.302 19.2659C189.001 19.2659 190.883 18.3502 191.299 16.6741Z" fill="#515151"/>
<path d="M214.615 13.7192C214.615 18.5745 211.667 21.9784 207.654 21.9784C205.389 21.9784 203.574 20.9071 202.358 19.1101V21.6155H198.777V0.293701H202.358V8.34554C203.557 6.54856 205.389 5.47729 207.654 5.47729C211.684 5.47729 214.615 8.89845 214.615 13.7192ZM211.068 13.7192C211.068 10.7645 209.252 8.65655 206.688 8.65655C204.123 8.65655 202.391 10.7645 202.391 13.7192C202.391 16.6738 204.156 18.8164 206.688 18.8164C209.219 18.8164 211.068 16.6738 211.068 13.7192Z" fill="#515151"/>
<path d="M216.828 19.5936L218.444 17.0018C219.909 18.1077 221.624 18.8334 223.523 18.8334C224.972 18.8334 225.971 18.1941 225.971 17.2092C225.971 15.9824 224.655 15.585 222.907 15.1012C219.609 14.22 217.528 13.2351 217.494 10.436C217.494 7.48131 219.842 5.45972 223.223 5.45972C225.305 5.45972 227.403 6.21998 229.052 7.34309L227.553 10.0558C226.104 9.1055 224.555 8.6217 223.24 8.6217C221.924 8.6217 221.008 9.14006 221.008 10.0213C221.008 11.0234 221.808 11.3344 224.122 12.0429C226.687 12.7686 229.452 13.6843 229.452 16.9846C229.452 20.0083 227.037 21.9608 223.49 21.9608C221.175 21.9608 218.66 21.1141 216.845 19.5763L216.828 19.5936Z" fill="#515151"/>
</g>
<defs>
<clipPath id="clip0_3248_1462">
<rect width="233" height="24" fill="white"/>
</clipPath>
</defs>
</svg>
