<svg width="179" height="52" viewBox="0 0 179 52" fill="none" xmlns="http://www.w3.org/2000/svg">
<rect width="179" height="52" rx="4" fill="#1863DA"/>
<mask id="path-2-outside-1_3248_1494" maskUnits="userSpaceOnUse" x="25" y="16" width="129" height="19" fill="black">
<rect fill="white" x="25" y="16" width="129" height="19"/>
<path d="M34.2996 34.336C29.1636 34.336 25.5636 30.712 25.5636 25.6C25.5636 20.488 29.1636 16.864 34.2996 16.864C36.6996 16.864 38.8356 17.752 40.4916 19.456L38.8836 20.896C37.7076 19.672 36.1716 19.048 34.3716 19.048C30.5556 19.048 27.9156 21.712 27.9156 25.6C27.9156 29.488 30.5556 32.152 34.3716 32.152C36.1236 32.152 37.8276 31.48 39.0516 30.28L40.5876 31.84C38.9316 33.472 36.7956 34.336 34.2996 34.336ZM48.4928 34.264C44.7008 34.264 42.2288 31.6 42.2288 28.072C42.2288 24.544 44.7008 21.88 48.4928 21.88C52.2608 21.88 54.7328 24.544 54.7328 28.072C54.7328 31.6 52.2608 34.264 48.4928 34.264ZM48.4928 32.2C50.9168 32.2 52.5008 30.328 52.5008 28.072C52.5008 25.816 50.9168 23.944 48.4928 23.944C46.0448 23.944 44.4608 25.816 44.4608 28.072C44.4608 30.328 46.0448 32.2 48.4928 32.2ZM63.868 21.928C66.94 21.928 68.956 24.064 68.956 27.424V34H66.724V27.568C66.724 25.288 65.548 23.992 63.532 23.992C61.372 23.992 59.86 25.552 59.86 27.688V34H57.628V22.144H59.62L59.644 23.8C60.652 22.576 62.14 21.928 63.868 21.928ZM79.2655 31.768L79.9135 33.616C79.0495 34 78.2815 34.168 77.3935 34.168C74.8975 34.168 73.6495 32.728 73.6495 30.064V24.088H71.3215V22.144H73.6495V18.952L75.8575 18.712V22.144H79.4575V24.088H75.8575V30.064C75.8575 31.384 76.3615 32.152 77.6575 32.152C78.1615 32.152 78.7615 31.984 79.2655 31.768ZM91.8972 22.144H93.8652V34H91.8972L91.8732 32.248C90.9372 33.496 89.3052 34.264 87.3612 34.264C83.8812 34.264 81.4332 31.72 81.4332 28.072C81.4332 24.424 83.8812 21.88 87.3612 21.88C89.3052 21.88 90.9372 22.648 91.8732 23.896L91.8972 22.144ZM87.6492 32.2C90.0012 32.2 91.6332 30.496 91.6332 28.072C91.6332 25.648 90.0012 23.944 87.6492 23.944C85.3212 23.944 83.6652 25.648 83.6652 28.072C83.6652 30.496 85.3212 32.2 87.6492 32.2ZM103.054 34.264C99.3344 34.264 96.7904 31.792 96.7904 28.072C96.7904 24.4 99.3584 21.88 103.03 21.88C104.734 21.88 106.198 22.48 107.47 23.704L106.078 25.192C105.286 24.376 104.206 23.944 103.054 23.944C100.726 23.944 99.0224 25.6 99.0224 28.072C99.0224 30.544 100.702 32.2 103.054 32.2C104.278 32.2 105.406 31.72 106.198 30.88L107.59 32.416C106.294 33.688 104.854 34.264 103.054 34.264ZM117.157 31.768L117.805 33.616C116.941 34 116.173 34.168 115.285 34.168C112.789 34.168 111.541 32.728 111.541 30.064V24.088H109.213V22.144H111.541V18.952L113.749 18.712V22.144H117.349V24.088H113.749V30.064C113.749 31.384 114.253 32.152 115.549 32.152C116.053 32.152 116.653 31.984 117.157 31.768ZM133.675 34.336C129.427 34.336 126.667 31.528 126.667 27.184V17.2H128.971V27.136C128.971 30.16 130.843 32.128 133.675 32.128C136.531 32.128 138.379 30.16 138.379 27.136V17.2H140.707V27.184C140.707 31.528 137.947 34.336 133.675 34.336ZM148.708 34.264C146.692 34.264 144.916 33.64 143.38 32.44L144.508 30.784C145.54 31.696 147.1 32.248 148.756 32.248C150.46 32.248 151.516 31.648 151.516 30.64C151.516 29.68 150.676 29.224 148.54 28.96C145.348 28.576 143.764 27.4 143.764 25.408C143.764 23.296 145.78 21.88 148.804 21.88C150.604 21.88 152.116 22.336 153.46 23.296L152.428 24.928C151.348 24.16 150.196 23.824 148.9 23.824C146.98 23.824 145.948 24.376 145.948 25.384C145.948 26.272 146.716 26.728 148.732 26.992C152.26 27.448 153.724 28.504 153.724 30.664C153.724 32.8 151.708 34.264 148.708 34.264Z"/>
</mask>
<path d="M34.2996 34.336C29.1636 34.336 25.5636 30.712 25.5636 25.6C25.5636 20.488 29.1636 16.864 34.2996 16.864C36.6996 16.864 38.8356 17.752 40.4916 19.456L38.8836 20.896C37.7076 19.672 36.1716 19.048 34.3716 19.048C30.5556 19.048 27.9156 21.712 27.9156 25.6C27.9156 29.488 30.5556 32.152 34.3716 32.152C36.1236 32.152 37.8276 31.48 39.0516 30.28L40.5876 31.84C38.9316 33.472 36.7956 34.336 34.2996 34.336ZM48.4928 34.264C44.7008 34.264 42.2288 31.6 42.2288 28.072C42.2288 24.544 44.7008 21.88 48.4928 21.88C52.2608 21.88 54.7328 24.544 54.7328 28.072C54.7328 31.6 52.2608 34.264 48.4928 34.264ZM48.4928 32.2C50.9168 32.2 52.5008 30.328 52.5008 28.072C52.5008 25.816 50.9168 23.944 48.4928 23.944C46.0448 23.944 44.4608 25.816 44.4608 28.072C44.4608 30.328 46.0448 32.2 48.4928 32.2ZM63.868 21.928C66.94 21.928 68.956 24.064 68.956 27.424V34H66.724V27.568C66.724 25.288 65.548 23.992 63.532 23.992C61.372 23.992 59.86 25.552 59.86 27.688V34H57.628V22.144H59.62L59.644 23.8C60.652 22.576 62.14 21.928 63.868 21.928ZM79.2655 31.768L79.9135 33.616C79.0495 34 78.2815 34.168 77.3935 34.168C74.8975 34.168 73.6495 32.728 73.6495 30.064V24.088H71.3215V22.144H73.6495V18.952L75.8575 18.712V22.144H79.4575V24.088H75.8575V30.064C75.8575 31.384 76.3615 32.152 77.6575 32.152C78.1615 32.152 78.7615 31.984 79.2655 31.768ZM91.8972 22.144H93.8652V34H91.8972L91.8732 32.248C90.9372 33.496 89.3052 34.264 87.3612 34.264C83.8812 34.264 81.4332 31.72 81.4332 28.072C81.4332 24.424 83.8812 21.88 87.3612 21.88C89.3052 21.88 90.9372 22.648 91.8732 23.896L91.8972 22.144ZM87.6492 32.2C90.0012 32.2 91.6332 30.496 91.6332 28.072C91.6332 25.648 90.0012 23.944 87.6492 23.944C85.3212 23.944 83.6652 25.648 83.6652 28.072C83.6652 30.496 85.3212 32.2 87.6492 32.2ZM103.054 34.264C99.3344 34.264 96.7904 31.792 96.7904 28.072C96.7904 24.4 99.3584 21.88 103.03 21.88C104.734 21.88 106.198 22.48 107.47 23.704L106.078 25.192C105.286 24.376 104.206 23.944 103.054 23.944C100.726 23.944 99.0224 25.6 99.0224 28.072C99.0224 30.544 100.702 32.2 103.054 32.2C104.278 32.2 105.406 31.72 106.198 30.88L107.59 32.416C106.294 33.688 104.854 34.264 103.054 34.264ZM117.157 31.768L117.805 33.616C116.941 34 116.173 34.168 115.285 34.168C112.789 34.168 111.541 32.728 111.541 30.064V24.088H109.213V22.144H111.541V18.952L113.749 18.712V22.144H117.349V24.088H113.749V30.064C113.749 31.384 114.253 32.152 115.549 32.152C116.053 32.152 116.653 31.984 117.157 31.768ZM133.675 34.336C129.427 34.336 126.667 31.528 126.667 27.184V17.2H128.971V27.136C128.971 30.16 130.843 32.128 133.675 32.128C136.531 32.128 138.379 30.16 138.379 27.136V17.2H140.707V27.184C140.707 31.528 137.947 34.336 133.675 34.336ZM148.708 34.264C146.692 34.264 144.916 33.64 143.38 32.44L144.508 30.784C145.54 31.696 147.1 32.248 148.756 32.248C150.46 32.248 151.516 31.648 151.516 30.64C151.516 29.68 150.676 29.224 148.54 28.96C145.348 28.576 143.764 27.4 143.764 25.408C143.764 23.296 145.78 21.88 148.804 21.88C150.604 21.88 152.116 22.336 153.46 23.296L152.428 24.928C151.348 24.16 150.196 23.824 148.9 23.824C146.98 23.824 145.948 24.376 145.948 25.384C145.948 26.272 146.716 26.728 148.732 26.992C152.26 27.448 153.724 28.504 153.724 30.664C153.724 32.8 151.708 34.264 148.708 34.264Z" fill="white"/>
<path d="M40.4916 19.456L40.625 19.605L40.7802 19.466L40.6351 19.3166L40.4916 19.456ZM38.8836 20.896L38.7394 21.0346L38.8732 21.1738L39.017 21.045L38.8836 20.896ZM39.0516 30.28L39.1941 30.1397L39.0541 29.9975L38.9116 30.1372L39.0516 30.28ZM40.5876 31.84L40.728 31.9824L40.8704 31.8421L40.7301 31.6997L40.5876 31.84ZM34.2996 34.336V34.136C31.78 34.136 29.6484 33.2479 28.1472 31.7437C26.6459 30.2395 25.7636 28.1078 25.7636 25.6H25.5636H25.3636C25.3636 28.2042 26.2814 30.4405 27.8641 32.0263C29.4468 33.6121 31.6833 34.536 34.2996 34.536V34.336ZM25.5636 25.6H25.7636C25.7636 23.0922 26.6459 20.9605 28.1472 19.4563C29.6484 17.9521 31.78 17.064 34.2996 17.064V16.864V16.664C31.6833 16.664 29.4468 17.5879 27.8641 19.1737C26.2814 20.7595 25.3636 22.9958 25.3636 25.6H25.5636ZM34.2996 16.864V17.064C36.6468 17.064 38.7307 17.931 40.3482 19.5954L40.4916 19.456L40.6351 19.3166C38.9406 17.573 36.7525 16.664 34.2996 16.664V16.864ZM40.4916 19.456L40.3582 19.307L38.7502 20.747L38.8836 20.896L39.017 21.045L40.625 19.605L40.4916 19.456ZM38.8836 20.896L39.0278 20.7574C37.8112 19.4912 36.2217 18.848 34.3716 18.848V19.048V19.248C36.1215 19.248 37.604 19.8528 38.7394 21.0346L38.8836 20.896ZM34.3716 19.048V18.848C32.4157 18.848 30.7486 19.5316 29.5703 20.7255C28.3921 21.9192 27.7156 23.6097 27.7156 25.6H27.9156H28.1156C28.1156 23.7023 28.7591 22.1168 29.855 21.0065C30.9506 19.8964 32.5115 19.248 34.3716 19.248V19.048ZM27.9156 25.6H27.7156C27.7156 27.5903 28.3921 29.2808 29.5703 30.4745C30.7486 31.6684 32.4157 32.352 34.3716 32.352V32.152V31.952C32.5115 31.952 30.9506 31.3036 29.855 30.1935C28.7591 29.0832 28.1156 27.4977 28.1156 25.6H27.9156ZM34.3716 32.152V32.352C36.1735 32.352 37.9285 31.6612 39.1916 30.4228L39.0516 30.28L38.9116 30.1372C37.7267 31.2988 36.0738 31.952 34.3716 31.952V32.152ZM39.0516 30.28L38.9091 30.4203L40.4451 31.9803L40.5876 31.84L40.7301 31.6997L39.1941 30.1397L39.0516 30.28ZM40.5876 31.84L40.4472 31.6975C38.8306 33.2908 36.7459 34.136 34.2996 34.136V34.336V34.536C36.8454 34.536 39.0327 33.6532 40.728 31.9824L40.5876 31.84ZM48.4928 34.264V34.064C46.6454 34.064 45.1323 33.416 44.0812 32.3505C43.0295 31.2844 42.4288 29.7885 42.4288 28.072H42.2288H42.0288C42.0288 29.8835 42.6641 31.4836 43.7964 32.6315C44.9294 33.78 46.5483 34.464 48.4928 34.464V34.264ZM42.2288 28.072H42.4288C42.4288 26.3555 43.0295 24.8596 44.0812 23.7935C45.1323 22.728 46.6454 22.08 48.4928 22.08V21.88V21.68C46.5483 21.68 44.9294 22.364 43.7964 23.5125C42.6641 24.6604 42.0288 26.2605 42.0288 28.072H42.2288ZM48.4928 21.88V22.08C50.3279 22.08 51.835 22.7277 52.8832 23.7933C53.9321 24.8594 54.5328 26.3555 54.5328 28.072H54.7328H54.9328C54.9328 26.2605 54.2976 24.6606 53.1684 23.5127C52.0386 22.3643 50.4257 21.68 48.4928 21.68V21.88ZM54.7328 28.072H54.5328C54.5328 29.7885 53.9321 31.2846 52.8832 32.3507C51.835 33.4163 50.3279 34.064 48.4928 34.064V34.264V34.464C50.4257 34.464 52.0386 33.7797 53.1684 32.6313C54.2976 31.4834 54.9328 29.8835 54.9328 28.072H54.7328ZM48.4928 32.2V32.4C51.0403 32.4 52.7008 30.425 52.7008 28.072H52.5008H52.3008C52.3008 30.231 50.7933 32 48.4928 32V32.2ZM52.5008 28.072H52.7008C52.7008 25.719 51.0403 23.744 48.4928 23.744V23.944V24.144C50.7933 24.144 52.3008 25.913 52.3008 28.072H52.5008ZM48.4928 23.944V23.744C45.9221 23.744 44.2608 25.7182 44.2608 28.072H44.4608H44.6608C44.6608 25.9138 46.1675 24.144 48.4928 24.144V23.944ZM44.4608 28.072H44.2608C44.2608 30.4258 45.9221 32.4 48.4928 32.4V32.2V32C46.1675 32 44.6608 30.2302 44.6608 28.072H44.4608ZM68.956 34V34.2H69.156V34H68.956ZM66.724 34H66.524V34.2H66.724V34ZM59.86 34V34.2H60.06V34H59.86ZM57.628 34H57.428V34.2H57.628V34ZM57.628 22.144V21.944H57.428V22.144H57.628ZM59.62 22.144L59.82 22.1411L59.8171 21.944H59.62V22.144ZM59.644 23.8L59.444 23.8029L59.4519 24.3479L59.7984 23.9271L59.644 23.8ZM63.868 21.928V22.128C65.3557 22.128 66.5721 22.6439 67.4176 23.5523C68.2644 24.462 68.756 25.7838 68.756 27.424H68.956H69.156C69.156 25.7042 68.6396 24.278 67.7104 23.2797C66.7799 22.2801 65.4523 21.728 63.868 21.728V21.928ZM68.956 27.424H68.756V34H68.956H69.156V27.424H68.956ZM68.956 34V33.8H66.724V34V34.2H68.956V34ZM66.724 34H66.924V27.568H66.724H66.524V34H66.724ZM66.724 27.568H66.924C66.924 26.3956 66.6216 25.4481 66.0329 24.7915C65.4415 24.1318 64.5845 23.792 63.532 23.792V23.992V24.192C64.4955 24.192 65.2345 24.5002 65.7351 25.0585C66.2384 25.6199 66.524 26.4604 66.524 27.568H66.724ZM63.532 23.992V23.792C61.2589 23.792 59.66 25.4442 59.66 27.688H59.86H60.06C60.06 25.6598 61.485 24.192 63.532 24.192V23.992ZM59.86 27.688H59.66V34H59.86H60.06V27.688H59.86ZM59.86 34V33.8H57.628V34V34.2H59.86V34ZM57.628 34H57.828V22.144H57.628H57.428V34H57.628ZM57.628 22.144V22.344H59.62V22.144V21.944H57.628V22.144ZM59.62 22.144L59.42 22.1469L59.444 23.8029L59.644 23.8L59.844 23.7971L59.82 22.1411L59.62 22.144ZM59.644 23.8L59.7984 23.9271C60.7638 22.7549 62.1921 22.128 63.868 22.128V21.928V21.728C62.0879 21.728 60.5402 22.3971 59.4896 23.6729L59.644 23.8ZM79.2655 31.768L79.4542 31.7018L79.3834 31.4999L79.1867 31.5842L79.2655 31.768ZM79.9135 33.616L79.9947 33.7988L80.1633 33.7239L80.1022 33.5498L79.9135 33.616ZM73.6495 24.088H73.8495V23.888H73.6495V24.088ZM71.3215 24.088H71.1215V24.288H71.3215V24.088ZM71.3215 22.144V21.944H71.1215V22.144H71.3215ZM73.6495 22.144V22.344H73.8495V22.144H73.6495ZM73.6495 18.952L73.6279 18.7532L73.4495 18.7726V18.952H73.6495ZM75.8575 18.712H76.0575V18.4891L75.8359 18.5132L75.8575 18.712ZM75.8575 22.144H75.6575V22.344H75.8575V22.144ZM79.4575 22.144H79.6575V21.944H79.4575V22.144ZM79.4575 24.088V24.288H79.6575V24.088H79.4575ZM75.8575 24.088V23.888H75.6575V24.088H75.8575ZM79.2655 31.768L79.0768 31.8342L79.7248 33.6822L79.9135 33.616L80.1022 33.5498L79.4542 31.7018L79.2655 31.768ZM79.9135 33.616L79.8323 33.4332C78.9922 33.8066 78.2518 33.968 77.3935 33.968V34.168V34.368C78.3112 34.368 79.1068 34.1934 79.9947 33.7988L79.9135 33.616ZM77.3935 34.168V33.968C76.1842 33.968 75.3096 33.6203 74.7341 32.9812C74.1553 32.3383 73.8495 31.3682 73.8495 30.064H73.6495H73.4495C73.4495 31.4238 73.7677 32.5057 74.4369 33.2488C75.1094 33.9957 76.1068 34.368 77.3935 34.368V34.168ZM73.6495 30.064H73.8495V24.088H73.6495H73.4495V30.064H73.6495ZM73.6495 24.088V23.888H71.3215V24.088V24.288H73.6495V24.088ZM71.3215 24.088H71.5215V22.144H71.3215H71.1215V24.088H71.3215ZM71.3215 22.144V22.344H73.6495V22.144V21.944H71.3215V22.144ZM73.6495 22.144H73.8495V18.952H73.6495H73.4495V22.144H73.6495ZM73.6495 18.952L73.6711 19.1508L75.8791 18.9108L75.8575 18.712L75.8359 18.5132L73.6279 18.7532L73.6495 18.952ZM75.8575 18.712H75.6575V22.144H75.8575H76.0575V18.712H75.8575ZM75.8575 22.144V22.344H79.4575V22.144V21.944H75.8575V22.144ZM79.4575 22.144H79.2575V24.088H79.4575H79.6575V22.144H79.4575ZM79.4575 24.088V23.888H75.8575V24.088V24.288H79.4575V24.088ZM75.8575 24.088H75.6575V30.064H75.8575H76.0575V24.088H75.8575ZM75.8575 30.064H75.6575C75.6575 30.7434 75.7861 31.3199 76.1158 31.7286C76.4526 32.146 76.9687 32.352 77.6575 32.352V32.152V31.952C77.0503 31.952 76.6664 31.774 76.4272 31.4774C76.1809 31.1721 76.0575 30.7046 76.0575 30.064H75.8575ZM77.6575 32.152V32.352C78.199 32.352 78.8271 32.1735 79.3443 31.9518L79.2655 31.768L79.1867 31.5842C78.6959 31.7945 78.124 31.952 77.6575 31.952V32.152ZM91.8972 22.144V21.944H91.6999L91.6972 22.1413L91.8972 22.144ZM93.8652 22.144H94.0652V21.944H93.8652V22.144ZM93.8652 34V34.2H94.0652V34H93.8652ZM91.8972 34L91.6972 34.0027L91.6999 34.2H91.8972V34ZM91.8732 32.248L92.0732 32.2453L92.0651 31.6587L91.7132 32.128L91.8732 32.248ZM91.8732 23.896L91.7132 24.016L92.0651 24.4853L92.0732 23.8987L91.8732 23.896ZM91.8972 22.144V22.344H93.8652V22.144V21.944H91.8972V22.144ZM93.8652 22.144H93.6652V34H93.8652H94.0652V22.144H93.8652ZM93.8652 34V33.8H91.8972V34V34.2H93.8652V34ZM91.8972 34L92.0972 33.9973L92.0732 32.2453L91.8732 32.248L91.6732 32.2507L91.6972 34.0027L91.8972 34ZM91.8732 32.248L91.7132 32.128C90.8215 33.3169 89.2541 34.064 87.3612 34.064V34.264V34.464C89.3563 34.464 91.0528 33.6751 92.0332 32.368L91.8732 32.248ZM87.3612 34.264V34.064C85.6718 34.064 84.2432 33.4475 83.2365 32.3976C82.2293 31.3471 81.6332 29.8506 81.6332 28.072H81.4332H81.2332C81.2332 29.9414 81.861 31.5409 82.9478 32.6744C84.0351 33.8085 85.5706 34.464 87.3612 34.464V34.264ZM81.4332 28.072H81.6332C81.6332 26.2934 82.2293 24.7969 83.2365 23.7464C84.2432 22.6965 85.6718 22.08 87.3612 22.08V21.88V21.68C85.5706 21.68 84.0351 22.3355 82.9478 23.4696C81.861 24.6031 81.2332 26.2026 81.2332 28.072H81.4332ZM87.3612 21.88V22.08C89.2541 22.08 90.8215 22.8271 91.7132 24.016L91.8732 23.896L92.0332 23.776C91.0528 22.4689 89.3563 21.68 87.3612 21.68V21.88ZM91.8732 23.896L92.0732 23.8987L92.0972 22.1467L91.8972 22.144L91.6972 22.1413L91.6732 23.8933L91.8732 23.896ZM87.6492 32.2V32.4C88.8753 32.4 89.9247 31.9548 90.6673 31.1837C91.4092 30.4132 91.8332 29.3296 91.8332 28.072H91.6332H91.4332C91.4332 29.2384 91.0412 30.2188 90.3791 30.9063C89.7177 31.5932 88.775 32 87.6492 32V32.2ZM91.6332 28.072H91.8332C91.8332 26.8144 91.4092 25.7308 90.6673 24.9603C89.9247 24.1892 88.8753 23.744 87.6492 23.744V23.944V24.144C88.775 24.144 89.7177 24.5508 90.3791 25.2377C91.0412 25.9252 91.4332 26.9056 91.4332 28.072H91.6332ZM87.6492 23.944V23.744C86.4346 23.744 85.3856 24.1895 84.6404 24.96C83.8957 25.7301 83.4652 26.8136 83.4652 28.072H83.6652H83.8652C83.8652 26.9064 84.2627 25.9259 84.928 25.238C85.5928 24.5505 86.5357 24.144 87.6492 24.144V23.944ZM83.6652 28.072H83.4652C83.4652 29.3304 83.8957 30.4139 84.6404 31.184C85.3856 31.9545 86.4346 32.4 87.6492 32.4V32.2V32C86.5357 32 85.5928 31.5935 84.928 30.906C84.2627 30.2181 83.8652 29.2376 83.8652 28.072H83.6652ZM107.47 23.704L107.616 23.8406L107.751 23.6966L107.609 23.5599L107.47 23.704ZM106.078 25.192L105.935 25.3313L106.081 25.4819L106.224 25.3286L106.078 25.192ZM106.198 30.88L106.347 30.7457L106.201 30.5854L106.053 30.7428L106.198 30.88ZM107.59 32.416L107.73 32.5587L107.868 32.4241L107.739 32.2817L107.59 32.416ZM103.054 34.264V34.064C101.239 34.064 99.7262 33.4617 98.6676 32.4204C97.6093 31.3794 96.9904 29.885 96.9904 28.072H96.7904H96.5904C96.5904 29.979 97.2434 31.5806 98.3871 32.7056C99.5305 33.8303 101.149 34.464 103.054 34.464V34.264ZM96.7904 28.072H96.9904C96.9904 26.284 97.6147 24.789 98.674 23.7412C99.7336 22.6932 101.241 22.08 103.03 22.08V21.88V21.68C101.148 21.68 99.5352 22.3268 98.3927 23.4568C97.2501 24.587 96.5904 26.188 96.5904 28.072H96.7904ZM103.03 21.88V22.08C104.681 22.08 106.096 22.6587 107.332 23.8481L107.47 23.704L107.609 23.5599C106.301 22.3013 104.788 21.68 103.03 21.68V21.88ZM107.47 23.704L107.324 23.5674L105.932 25.0554L106.078 25.192L106.224 25.3286L107.616 23.8406L107.47 23.704ZM106.078 25.192L106.222 25.0527C105.39 24.1955 104.257 23.744 103.054 23.744V23.944V24.144C104.156 24.144 105.183 24.5565 105.935 25.3313L106.078 25.192ZM103.054 23.944V23.744C101.842 23.744 100.781 24.1761 100.023 24.9402C99.2655 25.7044 98.8224 26.7888 98.8224 28.072H99.0224H99.2224C99.2224 26.8832 99.6312 25.9036 100.307 25.2218C100.984 24.5399 101.939 24.144 103.054 24.144V23.944ZM99.0224 28.072H98.8224C98.8224 29.3544 99.259 30.4389 100.014 31.2035C100.769 31.9682 101.83 32.4 103.054 32.4V32.2V32C101.927 32 100.972 31.6038 100.299 30.9225C99.6258 30.2411 99.2224 29.2616 99.2224 28.072H99.0224ZM103.054 32.2V32.4C104.331 32.4 105.512 31.8991 106.344 31.0172L106.198 30.88L106.053 30.7428C105.3 31.5409 104.226 32 103.054 32V32.2ZM106.198 30.88L106.05 31.0143L107.442 32.5503L107.59 32.416L107.739 32.2817L106.347 30.7457L106.198 30.88ZM107.59 32.416L107.45 32.2733C106.192 33.508 104.803 34.064 103.054 34.064V34.264V34.464C104.906 34.464 106.397 33.868 107.73 32.5587L107.59 32.416ZM117.157 31.768L117.346 31.7018L117.275 31.4999L117.079 31.5842L117.157 31.768ZM117.805 33.616L117.887 33.7988L118.055 33.7239L117.994 33.5498L117.805 33.616ZM111.541 24.088H111.741V23.888H111.541V24.088ZM109.213 24.088H109.013V24.288H109.213V24.088ZM109.213 22.144V21.944H109.013V22.144H109.213ZM111.541 22.144V22.344H111.741V22.144H111.541ZM111.541 18.952L111.52 18.7532L111.341 18.7726V18.952H111.541ZM113.749 18.712H113.949V18.4891L113.728 18.5132L113.749 18.712ZM113.749 22.144H113.549V22.344H113.749V22.144ZM117.349 22.144H117.549V21.944H117.349V22.144ZM117.349 24.088V24.288H117.549V24.088H117.349ZM113.749 24.088V23.888H113.549V24.088H113.749ZM117.157 31.768L116.969 31.8342L117.617 33.6822L117.805 33.616L117.994 33.5498L117.346 31.7018L117.157 31.768ZM117.805 33.616L117.724 33.4332C116.884 33.8066 116.144 33.968 115.285 33.968V34.168V34.368C116.203 34.368 116.999 34.1934 117.887 33.7988L117.805 33.616ZM115.285 34.168V33.968C114.076 33.968 113.201 33.6203 112.626 32.9812C112.047 32.3383 111.741 31.3682 111.741 30.064H111.541H111.341C111.341 31.4238 111.66 32.5057 112.329 33.2488C113.001 33.9957 113.999 34.368 115.285 34.368V34.168ZM111.541 30.064H111.741V24.088H111.541H111.341V30.064H111.541ZM111.541 24.088V23.888H109.213V24.088V24.288H111.541V24.088ZM109.213 24.088H109.413V22.144H109.213H109.013V24.088H109.213ZM109.213 22.144V22.344H111.541V22.144V21.944H109.213V22.144ZM111.541 22.144H111.741V18.952H111.541H111.341V22.144H111.541ZM111.541 18.952L111.563 19.1508L113.771 18.9108L113.749 18.712L113.728 18.5132L111.52 18.7532L111.541 18.952ZM113.749 18.712H113.549V22.144H113.749H113.949V18.712H113.749ZM113.749 22.144V22.344H117.349V22.144V21.944H113.749V22.144ZM117.349 22.144H117.149V24.088H117.349H117.549V22.144H117.349ZM117.349 24.088V23.888H113.749V24.088V24.288H117.349V24.088ZM113.749 24.088H113.549V30.064H113.749H113.949V24.088H113.749ZM113.749 30.064H113.549C113.549 30.7434 113.678 31.3199 114.008 31.7286C114.344 32.146 114.861 32.352 115.549 32.352V32.152V31.952C114.942 31.952 114.558 31.774 114.319 31.4774C114.073 31.1721 113.949 30.7046 113.949 30.064H113.749ZM115.549 32.152V32.352C116.091 32.352 116.719 32.1735 117.236 31.9518L117.157 31.768L117.079 31.5842C116.588 31.7945 116.016 31.952 115.549 31.952V32.152ZM126.667 17.2V17H126.467V17.2H126.667ZM128.971 17.2H129.171V17H128.971V17.2ZM138.379 17.2V17H138.179V17.2H138.379ZM140.707 17.2H140.907V17H140.707V17.2ZM133.675 34.336V34.136C131.597 34.136 129.899 33.4499 128.721 32.249C127.543 31.0476 126.867 29.3131 126.867 27.184H126.667H126.467C126.467 29.3989 127.172 31.2404 128.436 32.529C129.7 33.8181 131.506 34.536 133.675 34.536V34.336ZM126.667 27.184H126.867V17.2H126.667H126.467V27.184H126.667ZM126.667 17.2V17.4H128.971V17.2V17H126.667V17.2ZM128.971 17.2H128.771V27.136H128.971H129.171V17.2H128.971ZM128.971 27.136H128.771C128.771 28.6893 129.253 29.9897 130.116 30.9034C130.98 31.8181 132.211 32.328 133.675 32.328V32.128V31.928C132.308 31.928 131.187 31.4539 130.407 30.6286C129.626 29.8023 129.171 28.6067 129.171 27.136H128.971ZM133.675 32.128V32.328C135.151 32.328 136.382 31.8183 137.244 30.9031C138.104 29.9891 138.579 28.6887 138.579 27.136H138.379H138.179C138.179 28.6073 137.73 29.8029 136.953 30.6289C136.176 31.4537 135.056 31.928 133.675 31.928V32.128ZM138.379 27.136H138.579V17.2H138.379H138.179V27.136H138.379ZM138.379 17.2V17.4H140.707V17.2V17H138.379V17.2ZM140.707 17.2H140.507V27.184H140.707H140.907V17.2H140.707ZM140.707 27.184H140.507C140.507 29.3131 139.832 31.0475 138.651 32.2488C137.47 33.4497 135.766 34.136 133.675 34.136V34.336V34.536C135.856 34.536 137.669 33.8183 138.936 32.5292C140.203 31.2405 140.907 29.3989 140.907 27.184H140.707ZM143.38 32.44L143.215 32.3274L143.11 32.4823L143.257 32.5976L143.38 32.44ZM144.508 30.784L144.641 30.6341L144.471 30.4839L144.343 30.6714L144.508 30.784ZM148.54 28.96L148.565 28.7615L148.564 28.7614L148.54 28.96ZM153.46 23.296L153.629 23.4029L153.73 23.2431L153.577 23.1333L153.46 23.296ZM152.428 24.928L152.312 25.091L152.485 25.2134L152.597 25.0349L152.428 24.928ZM148.732 26.992L148.706 27.1903L148.707 27.1903L148.732 26.992ZM148.708 34.264V34.064C146.737 34.064 145.004 33.455 143.504 32.2824L143.38 32.44L143.257 32.5976C144.828 33.825 146.648 34.464 148.708 34.464V34.264ZM143.38 32.44L143.546 32.5526L144.674 30.8966L144.508 30.784L144.343 30.6714L143.215 32.3274L143.38 32.44ZM144.508 30.784L144.376 30.9339C145.45 31.8832 147.06 32.448 148.756 32.448V32.248V32.048C147.141 32.048 145.631 31.5088 144.641 30.6341L144.508 30.784ZM148.756 32.248V32.448C149.628 32.448 150.357 32.2953 150.876 31.9951C151.403 31.6901 151.716 31.2279 151.716 30.64H151.516H151.316C151.316 31.0601 151.102 31.4019 150.675 31.6489C150.24 31.9007 149.589 32.048 148.756 32.048V32.248ZM151.516 30.64H151.716C151.716 30.3696 151.657 30.1233 151.522 29.9047C151.388 29.6871 151.188 29.5103 150.927 29.3645C150.414 29.0771 149.636 28.8939 148.565 28.7615L148.54 28.96L148.516 29.1585C149.581 29.2901 150.291 29.4669 150.732 29.7135C150.948 29.8347 151.091 29.9684 151.182 30.1146C151.271 30.2597 151.316 30.4304 151.316 30.64H151.516ZM148.54 28.96L148.564 28.7614C146.983 28.5713 145.829 28.1875 145.075 27.6265C144.331 27.0735 143.964 26.3413 143.964 25.408H143.764H143.564C143.564 26.4667 143.99 27.3185 144.836 27.9475C145.671 28.5685 146.905 28.9647 148.516 29.1586L148.54 28.96ZM143.764 25.408H143.964C143.964 24.4239 144.431 23.6004 145.265 23.0158C146.105 22.4277 147.321 22.08 148.804 22.08V21.88V21.68C147.264 21.68 145.96 22.0403 145.036 22.6882C144.106 23.3396 143.564 24.2801 143.564 25.408H143.764ZM148.804 21.88V22.08C150.567 22.08 152.037 22.5254 153.344 23.4587L153.46 23.296L153.577 23.1333C152.195 22.1466 150.642 21.68 148.804 21.68V21.88ZM153.46 23.296L153.291 23.1891L152.259 24.8211L152.428 24.928L152.597 25.0349L153.629 23.4029L153.46 23.296ZM152.428 24.928L152.544 24.765C151.428 23.9712 150.235 23.624 148.9 23.624V23.824V24.024C150.158 24.024 151.269 24.3488 152.312 25.091L152.428 24.928ZM148.9 23.824V23.624C147.927 23.624 147.151 23.763 146.611 24.0493C146.058 24.3422 145.748 24.7944 145.748 25.384H145.948H146.148C146.148 24.9656 146.355 24.6378 146.798 24.4027C147.254 24.161 147.954 24.024 148.9 24.024V23.824ZM145.948 25.384H145.748C145.748 25.6361 145.803 25.8681 145.929 26.076C146.053 26.283 146.24 26.4532 146.484 26.5949C146.964 26.8742 147.694 27.0578 148.706 27.1903L148.732 26.992L148.758 26.7937C147.754 26.6622 147.092 26.4858 146.685 26.2491C146.485 26.1328 146.353 26.006 146.271 25.8695C146.189 25.7339 146.148 25.5759 146.148 25.384H145.948ZM148.732 26.992L148.707 27.1903C150.462 27.4172 151.668 27.7902 152.433 28.3504C153.182 28.8985 153.524 29.6384 153.524 30.664H153.724H153.924C153.924 29.5296 153.535 28.6615 152.67 28.0276C151.82 27.4058 150.531 27.0228 148.758 26.7936L148.732 26.992ZM153.724 30.664H153.524C153.524 31.6615 153.057 32.5035 152.225 33.1027C151.388 33.7051 150.178 34.064 148.708 34.064V34.264V34.464C150.239 34.464 151.537 34.0909 152.458 33.4273C153.384 32.7605 153.924 31.8025 153.924 30.664H153.724Z" fill="white" mask="url(#path-2-outside-1_3248_1494)"/>
<path d="M179 36V52H163L179 36Z" fill="white"/>
</svg>
