<svg width="269" height="52" viewBox="0 0 269 52" fill="none" xmlns="http://www.w3.org/2000/svg">
<rect width="269" height="52" rx="4" fill="#1863DA"/>
<mask id="path-2-outside-1_2212_677" maskUnits="userSpaceOnUse" x="26" y="16" width="219" height="19" fill="black">
<rect fill="white" x="26" y="16" width="219" height="19"/>
<path d="M37.7276 34L32.5676 28.096H28.7516V34H26.4236V17.2H34.1516C37.6796 17.2 40.0076 19.36 40.0076 22.648C40.0076 25.528 38.2076 27.544 35.3996 28L40.7036 34H37.7276ZM34.1996 19.384H28.7516V25.912H34.1996C36.3596 25.912 37.6796 24.664 37.6796 22.648C37.6796 20.656 36.3596 19.384 34.1996 19.384ZM48.1053 21.904C52.1853 21.904 54.4893 24.592 54.1533 28.96H44.3373C44.5533 31 46.1133 32.248 48.3933 32.248C49.8333 32.248 51.2973 31.696 51.9933 30.856L53.4333 32.224C52.3053 33.52 50.3853 34.312 48.3453 34.312C44.5293 34.312 42.0333 31.84 42.0333 28.072C42.0333 24.424 44.4813 21.904 48.1053 21.904ZM48.1773 23.896C46.0893 23.896 44.7213 25.072 44.3613 27.064H52.0413C51.8493 25.144 50.3853 23.896 48.1773 23.896ZM66.6592 22.144H68.6272V34H66.6592L66.6352 32.248C65.6992 33.496 64.0672 34.264 62.1232 34.264C58.6432 34.264 56.1952 31.72 56.1952 28.072C56.1952 24.424 58.6432 21.88 62.1232 21.88C64.0672 21.88 65.6992 22.648 66.6352 23.896L66.6592 22.144ZM62.4112 32.2C64.7632 32.2 66.3952 30.496 66.3952 28.072C66.3952 25.648 64.7632 23.944 62.4112 23.944C60.0832 23.944 58.4272 25.648 58.4272 28.072C58.4272 30.496 60.0832 32.2 62.4112 32.2ZM81.7764 17.2H84.0084V34H82.0164L81.9924 32.248C81.0804 33.496 79.4244 34.264 77.4564 34.264C74.0484 34.264 71.5764 31.816 71.5764 28.072C71.5764 24.328 74.0484 21.88 77.4564 21.88C79.2804 21.88 80.8404 22.528 81.7764 23.632V17.2ZM77.7924 32.2C80.1204 32.2 81.7764 30.496 81.7764 28.072C81.7764 25.648 80.1204 23.944 77.7924 23.944C75.4644 23.944 73.8084 25.648 73.8084 28.072C73.8084 30.496 75.4644 32.2 77.7924 32.2ZM102.124 34.336C96.9885 34.336 93.3885 30.712 93.3885 25.6C93.3885 20.488 96.9885 16.864 102.124 16.864C104.524 16.864 106.66 17.752 108.316 19.456L106.708 20.896C105.532 19.672 103.996 19.048 102.196 19.048C98.3805 19.048 95.7405 21.712 95.7405 25.6C95.7405 29.488 98.3805 32.152 102.196 32.152C103.948 32.152 105.652 31.48 106.876 30.28L108.412 31.84C106.756 33.472 104.62 34.336 102.124 34.336ZM120.518 22.144H122.486V34H120.518L120.494 32.248C119.558 33.496 117.926 34.264 115.982 34.264C112.502 34.264 110.054 31.72 110.054 28.072C110.054 24.424 112.502 21.88 115.982 21.88C117.926 21.88 119.558 22.648 120.494 23.896L120.518 22.144ZM116.27 32.2C118.622 32.2 120.254 30.496 120.254 28.072C120.254 25.648 118.622 23.944 116.27 23.944C113.942 23.944 112.286 25.648 112.286 28.072C112.286 30.496 113.942 32.2 116.27 32.2ZM130.619 34.264C128.603 34.264 126.827 33.64 125.291 32.44L126.419 30.784C127.451 31.696 129.011 32.248 130.667 32.248C132.371 32.248 133.427 31.648 133.427 30.64C133.427 29.68 132.587 29.224 130.451 28.96C127.259 28.576 125.675 27.4 125.675 25.408C125.675 23.296 127.691 21.88 130.715 21.88C132.515 21.88 134.027 22.336 135.371 23.296L134.339 24.928C133.259 24.16 132.107 23.824 130.811 23.824C128.891 23.824 127.859 24.376 127.859 25.384C127.859 26.272 128.627 26.728 130.643 26.992C134.171 27.448 135.635 28.504 135.635 30.664C135.635 32.8 133.619 34.264 130.619 34.264ZM143.629 21.904C147.709 21.904 150.013 24.592 149.677 28.96H139.861C140.077 31 141.637 32.248 143.917 32.248C145.357 32.248 146.821 31.696 147.517 30.856L148.957 32.224C147.829 33.52 145.909 34.312 143.869 34.312C140.053 34.312 137.557 31.84 137.557 28.072C137.557 24.424 140.005 21.904 143.629 21.904ZM143.701 23.896C141.613 23.896 140.245 25.072 139.885 27.064H147.565C147.373 25.144 145.909 23.896 143.701 23.896ZM165.158 34.312C162.59 34.312 160.022 33.424 158.15 31.84L159.398 30.064C160.742 31.336 162.998 32.152 165.158 32.152C167.846 32.152 169.574 31.072 169.574 29.392C169.574 27.856 168.23 27.04 164.99 26.56C160.43 25.888 158.534 24.424 158.534 21.544C158.534 18.832 161.174 16.888 164.942 16.888C167.222 16.888 169.43 17.68 171.11 19.048L169.886 20.704C168.518 19.576 166.718 18.952 164.966 18.952C162.542 18.952 160.862 20.056 160.862 21.592C160.862 23.08 162.11 23.896 165.23 24.4C170.054 25.168 171.926 26.512 171.926 29.32C171.926 32.344 169.262 34.312 165.158 34.312ZM181.303 31.768L181.951 33.616C181.087 34 180.319 34.168 179.431 34.168C176.935 34.168 175.687 32.728 175.687 30.064V24.088H173.359V22.144H175.687V18.952L177.895 18.712V22.144H181.495V24.088H177.895V30.064C177.895 31.384 178.399 32.152 179.695 32.152C180.199 32.152 180.799 31.984 181.303 31.768ZM193.093 22.144H195.325V34H193.333L193.309 32.32C192.301 33.568 190.837 34.216 189.157 34.216C186.109 34.216 184.141 32.08 184.141 28.72V22.144H186.373V28.576C186.373 30.856 187.525 32.152 189.469 32.152C191.629 32.152 193.093 30.592 193.093 28.456V22.144ZM208.442 17.2H210.674V34H208.682L208.658 32.248C207.746 33.496 206.09 34.264 204.122 34.264C200.714 34.264 198.242 31.816 198.242 28.072C198.242 24.328 200.714 21.88 204.122 21.88C205.946 21.88 207.506 22.528 208.442 23.632V17.2ZM204.458 32.2C206.786 32.2 208.442 30.496 208.442 28.072C208.442 25.648 206.786 23.944 204.458 23.944C202.13 23.944 200.474 25.648 200.474 28.072C200.474 30.496 202.13 32.2 204.458 32.2ZM215.495 20.104C214.631 20.104 213.983 19.48 213.983 18.64C213.983 17.776 214.631 17.152 215.495 17.152C216.383 17.152 217.007 17.776 217.007 18.64C217.007 19.48 216.383 20.104 215.495 20.104ZM214.367 34V22.144H216.599V34H214.367ZM225.583 21.904C229.663 21.904 231.967 24.592 231.631 28.96H221.815C222.031 31 223.591 32.248 225.871 32.248C227.311 32.248 228.775 31.696 229.471 30.856L230.911 32.224C229.783 33.52 227.863 34.312 225.823 34.312C222.007 34.312 219.511 31.84 219.511 28.072C219.511 24.424 221.959 21.904 225.583 21.904ZM225.655 23.896C223.567 23.896 222.199 25.072 221.839 27.064H229.519C229.327 25.144 227.863 23.896 225.655 23.896ZM238.88 34.264C236.864 34.264 235.088 33.64 233.552 32.44L234.68 30.784C235.712 31.696 237.272 32.248 238.928 32.248C240.632 32.248 241.688 31.648 241.688 30.64C241.688 29.68 240.848 29.224 238.712 28.96C235.52 28.576 233.936 27.4 233.936 25.408C233.936 23.296 235.952 21.88 238.976 21.88C240.776 21.88 242.288 22.336 243.632 23.296L242.6 24.928C241.52 24.16 240.368 23.824 239.072 23.824C237.152 23.824 236.12 24.376 236.12 25.384C236.12 26.272 236.888 26.728 238.904 26.992C242.432 27.448 243.896 28.504 243.896 30.664C243.896 32.8 241.88 34.264 238.88 34.264Z"/>
</mask>
<path d="M37.7276 34L32.5676 28.096H28.7516V34H26.4236V17.2H34.1516C37.6796 17.2 40.0076 19.36 40.0076 22.648C40.0076 25.528 38.2076 27.544 35.3996 28L40.7036 34H37.7276ZM34.1996 19.384H28.7516V25.912H34.1996C36.3596 25.912 37.6796 24.664 37.6796 22.648C37.6796 20.656 36.3596 19.384 34.1996 19.384ZM48.1053 21.904C52.1853 21.904 54.4893 24.592 54.1533 28.96H44.3373C44.5533 31 46.1133 32.248 48.3933 32.248C49.8333 32.248 51.2973 31.696 51.9933 30.856L53.4333 32.224C52.3053 33.52 50.3853 34.312 48.3453 34.312C44.5293 34.312 42.0333 31.84 42.0333 28.072C42.0333 24.424 44.4813 21.904 48.1053 21.904ZM48.1773 23.896C46.0893 23.896 44.7213 25.072 44.3613 27.064H52.0413C51.8493 25.144 50.3853 23.896 48.1773 23.896ZM66.6592 22.144H68.6272V34H66.6592L66.6352 32.248C65.6992 33.496 64.0672 34.264 62.1232 34.264C58.6432 34.264 56.1952 31.72 56.1952 28.072C56.1952 24.424 58.6432 21.88 62.1232 21.88C64.0672 21.88 65.6992 22.648 66.6352 23.896L66.6592 22.144ZM62.4112 32.2C64.7632 32.2 66.3952 30.496 66.3952 28.072C66.3952 25.648 64.7632 23.944 62.4112 23.944C60.0832 23.944 58.4272 25.648 58.4272 28.072C58.4272 30.496 60.0832 32.2 62.4112 32.2ZM81.7764 17.2H84.0084V34H82.0164L81.9924 32.248C81.0804 33.496 79.4244 34.264 77.4564 34.264C74.0484 34.264 71.5764 31.816 71.5764 28.072C71.5764 24.328 74.0484 21.88 77.4564 21.88C79.2804 21.88 80.8404 22.528 81.7764 23.632V17.2ZM77.7924 32.2C80.1204 32.2 81.7764 30.496 81.7764 28.072C81.7764 25.648 80.1204 23.944 77.7924 23.944C75.4644 23.944 73.8084 25.648 73.8084 28.072C73.8084 30.496 75.4644 32.2 77.7924 32.2ZM102.124 34.336C96.9885 34.336 93.3885 30.712 93.3885 25.6C93.3885 20.488 96.9885 16.864 102.124 16.864C104.524 16.864 106.66 17.752 108.316 19.456L106.708 20.896C105.532 19.672 103.996 19.048 102.196 19.048C98.3805 19.048 95.7405 21.712 95.7405 25.6C95.7405 29.488 98.3805 32.152 102.196 32.152C103.948 32.152 105.652 31.48 106.876 30.28L108.412 31.84C106.756 33.472 104.62 34.336 102.124 34.336ZM120.518 22.144H122.486V34H120.518L120.494 32.248C119.558 33.496 117.926 34.264 115.982 34.264C112.502 34.264 110.054 31.72 110.054 28.072C110.054 24.424 112.502 21.88 115.982 21.88C117.926 21.88 119.558 22.648 120.494 23.896L120.518 22.144ZM116.27 32.2C118.622 32.2 120.254 30.496 120.254 28.072C120.254 25.648 118.622 23.944 116.27 23.944C113.942 23.944 112.286 25.648 112.286 28.072C112.286 30.496 113.942 32.2 116.27 32.2ZM130.619 34.264C128.603 34.264 126.827 33.64 125.291 32.44L126.419 30.784C127.451 31.696 129.011 32.248 130.667 32.248C132.371 32.248 133.427 31.648 133.427 30.64C133.427 29.68 132.587 29.224 130.451 28.96C127.259 28.576 125.675 27.4 125.675 25.408C125.675 23.296 127.691 21.88 130.715 21.88C132.515 21.88 134.027 22.336 135.371 23.296L134.339 24.928C133.259 24.16 132.107 23.824 130.811 23.824C128.891 23.824 127.859 24.376 127.859 25.384C127.859 26.272 128.627 26.728 130.643 26.992C134.171 27.448 135.635 28.504 135.635 30.664C135.635 32.8 133.619 34.264 130.619 34.264ZM143.629 21.904C147.709 21.904 150.013 24.592 149.677 28.96H139.861C140.077 31 141.637 32.248 143.917 32.248C145.357 32.248 146.821 31.696 147.517 30.856L148.957 32.224C147.829 33.52 145.909 34.312 143.869 34.312C140.053 34.312 137.557 31.84 137.557 28.072C137.557 24.424 140.005 21.904 143.629 21.904ZM143.701 23.896C141.613 23.896 140.245 25.072 139.885 27.064H147.565C147.373 25.144 145.909 23.896 143.701 23.896ZM165.158 34.312C162.59 34.312 160.022 33.424 158.15 31.84L159.398 30.064C160.742 31.336 162.998 32.152 165.158 32.152C167.846 32.152 169.574 31.072 169.574 29.392C169.574 27.856 168.23 27.04 164.99 26.56C160.43 25.888 158.534 24.424 158.534 21.544C158.534 18.832 161.174 16.888 164.942 16.888C167.222 16.888 169.43 17.68 171.11 19.048L169.886 20.704C168.518 19.576 166.718 18.952 164.966 18.952C162.542 18.952 160.862 20.056 160.862 21.592C160.862 23.08 162.11 23.896 165.23 24.4C170.054 25.168 171.926 26.512 171.926 29.32C171.926 32.344 169.262 34.312 165.158 34.312ZM181.303 31.768L181.951 33.616C181.087 34 180.319 34.168 179.431 34.168C176.935 34.168 175.687 32.728 175.687 30.064V24.088H173.359V22.144H175.687V18.952L177.895 18.712V22.144H181.495V24.088H177.895V30.064C177.895 31.384 178.399 32.152 179.695 32.152C180.199 32.152 180.799 31.984 181.303 31.768ZM193.093 22.144H195.325V34H193.333L193.309 32.32C192.301 33.568 190.837 34.216 189.157 34.216C186.109 34.216 184.141 32.08 184.141 28.72V22.144H186.373V28.576C186.373 30.856 187.525 32.152 189.469 32.152C191.629 32.152 193.093 30.592 193.093 28.456V22.144ZM208.442 17.2H210.674V34H208.682L208.658 32.248C207.746 33.496 206.09 34.264 204.122 34.264C200.714 34.264 198.242 31.816 198.242 28.072C198.242 24.328 200.714 21.88 204.122 21.88C205.946 21.88 207.506 22.528 208.442 23.632V17.2ZM204.458 32.2C206.786 32.2 208.442 30.496 208.442 28.072C208.442 25.648 206.786 23.944 204.458 23.944C202.13 23.944 200.474 25.648 200.474 28.072C200.474 30.496 202.13 32.2 204.458 32.2ZM215.495 20.104C214.631 20.104 213.983 19.48 213.983 18.64C213.983 17.776 214.631 17.152 215.495 17.152C216.383 17.152 217.007 17.776 217.007 18.64C217.007 19.48 216.383 20.104 215.495 20.104ZM214.367 34V22.144H216.599V34H214.367ZM225.583 21.904C229.663 21.904 231.967 24.592 231.631 28.96H221.815C222.031 31 223.591 32.248 225.871 32.248C227.311 32.248 228.775 31.696 229.471 30.856L230.911 32.224C229.783 33.52 227.863 34.312 225.823 34.312C222.007 34.312 219.511 31.84 219.511 28.072C219.511 24.424 221.959 21.904 225.583 21.904ZM225.655 23.896C223.567 23.896 222.199 25.072 221.839 27.064H229.519C229.327 25.144 227.863 23.896 225.655 23.896ZM238.88 34.264C236.864 34.264 235.088 33.64 233.552 32.44L234.68 30.784C235.712 31.696 237.272 32.248 238.928 32.248C240.632 32.248 241.688 31.648 241.688 30.64C241.688 29.68 240.848 29.224 238.712 28.96C235.52 28.576 233.936 27.4 233.936 25.408C233.936 23.296 235.952 21.88 238.976 21.88C240.776 21.88 242.288 22.336 243.632 23.296L242.6 24.928C241.52 24.16 240.368 23.824 239.072 23.824C237.152 23.824 236.12 24.376 236.12 25.384C236.12 26.272 236.888 26.728 238.904 26.992C242.432 27.448 243.896 28.504 243.896 30.664C243.896 32.8 241.88 34.264 238.88 34.264Z" fill="white"/>
<path d="M37.7276 34L37.577 34.1316L37.6368 34.2H37.7276V34ZM32.5676 28.096L32.7182 27.9644L32.6584 27.896H32.5676V28.096ZM28.7516 28.096V27.896H28.5516V28.096H28.7516ZM28.7516 34V34.2H28.9516V34H28.7516ZM26.4236 34H26.2236V34.2H26.4236V34ZM26.4236 17.2V17H26.2236V17.2H26.4236ZM35.3996 28L35.3675 27.8026L35.0095 27.8607L35.2498 28.1325L35.3996 28ZM40.7036 34V34.2H41.1473L40.8534 33.8675L40.7036 34ZM28.7516 19.384V19.184H28.5516V19.384H28.7516ZM28.7516 25.912H28.5516V26.112H28.7516V25.912ZM37.7276 34L37.8782 33.8684L32.7182 27.9644L32.5676 28.096L32.417 28.2276L37.577 34.1316L37.7276 34ZM32.5676 28.096V27.896H28.7516V28.096V28.296H32.5676V28.096ZM28.7516 28.096H28.5516V34H28.7516H28.9516V28.096H28.7516ZM28.7516 34V33.8H26.4236V34V34.2H28.7516V34ZM26.4236 34H26.6236V17.2H26.4236H26.2236V34H26.4236ZM26.4236 17.2V17.4H34.1516V17.2V17H26.4236V17.2ZM34.1516 17.2V17.4C35.8749 17.4 37.2871 17.927 38.2664 18.8375C39.2444 19.7466 39.8076 21.0534 39.8076 22.648H40.0076H40.2076C40.2076 20.9546 39.6068 19.5374 38.5388 18.5445C37.4721 17.553 35.9563 17 34.1516 17V17.2ZM40.0076 22.648H39.8076C39.8076 24.045 39.3718 25.2209 38.6057 26.1018C37.8392 26.983 36.7316 27.5811 35.3675 27.8026L35.3996 28L35.4317 28.1974C36.8756 27.9629 38.072 27.325 38.9075 26.3642C39.7434 25.4031 40.2076 24.131 40.2076 22.648H40.0076ZM35.3996 28L35.2498 28.1325L40.5538 34.1325L40.7036 34L40.8534 33.8675L35.5494 27.8675L35.3996 28ZM40.7036 34V33.8H37.7276V34V34.2H40.7036V34ZM34.1996 19.384V19.184H28.7516V19.384V19.584H34.1996V19.384ZM28.7516 19.384H28.5516V25.912H28.7516H28.9516V19.384H28.7516ZM28.7516 25.912V26.112H34.1996V25.912V25.712H28.7516V25.912ZM34.1996 25.912V26.112C35.3175 26.112 36.241 25.7886 36.8866 25.1817C37.5336 24.5735 37.8796 23.7011 37.8796 22.648H37.6796H37.4796C37.4796 23.6109 37.1656 24.3705 36.6126 24.8903C36.0582 25.4114 35.2417 25.712 34.1996 25.712V25.912ZM37.6796 22.648H37.8796C37.8796 21.6064 37.5333 20.7344 36.887 20.1236C36.2418 19.514 35.3185 19.184 34.1996 19.184V19.384V19.584C35.2407 19.584 36.0573 19.89 36.6122 20.4144C37.1659 20.9376 37.4796 21.6976 37.4796 22.648H37.6796ZM54.1533 28.96V29.16H54.3386L54.3528 28.9753L54.1533 28.96ZM44.3373 28.96V28.76H44.1151L44.1385 28.9811L44.3373 28.96ZM51.9933 30.856L52.1311 30.711L51.9759 30.5636L51.8393 30.7284L51.9933 30.856ZM53.4333 32.224L53.5842 32.3553L53.7099 32.2109L53.5711 32.079L53.4333 32.224ZM44.3613 27.064L44.1645 27.0284L44.122 27.264H44.3613V27.064ZM52.0413 27.064V27.264H52.2623L52.2404 27.0441L52.0413 27.064ZM48.1053 21.904V22.104C50.1003 22.104 51.6354 22.7597 52.6335 23.9242C53.6335 25.0909 54.1191 26.7971 53.9539 28.9447L54.1533 28.96L54.3528 28.9753C54.5236 26.7549 54.0251 24.9331 52.9372 23.6638C51.8473 22.3923 50.1904 21.704 48.1053 21.704V21.904ZM54.1533 28.96V28.76H44.3373V28.96V29.16H54.1533V28.96ZM44.3373 28.96L44.1385 28.9811C44.2516 30.0496 44.7192 30.9216 45.4657 31.5246C46.2102 32.1259 47.2174 32.448 48.3933 32.448V32.248V32.048C47.2893 32.048 46.3765 31.7461 45.717 31.2134C45.0595 30.6824 44.6391 29.9104 44.5362 28.9389L44.3373 28.96ZM48.3933 32.248V32.448C49.8698 32.448 51.4007 31.8847 52.1474 30.9836L51.9933 30.856L51.8393 30.7284C51.194 31.5073 49.7969 32.048 48.3933 32.048V32.248ZM51.9933 30.856L51.8556 31.001L53.2956 32.369L53.4333 32.224L53.5711 32.079L52.1311 30.711L51.9933 30.856ZM53.4333 32.224L53.2825 32.0927C52.1994 33.3371 50.3389 34.112 48.3453 34.112V34.312V34.512C50.4318 34.512 52.4113 33.7029 53.5842 32.3553L53.4333 32.224ZM48.3453 34.312V34.112C46.4813 34.112 44.9568 33.509 43.899 32.4628C42.8414 31.4168 42.2333 29.9108 42.2333 28.072H42.0333H41.8333C41.8333 30.0012 42.4733 31.6152 43.6177 32.7472C44.7619 33.879 46.3934 34.512 48.3453 34.512V34.312ZM42.0333 28.072H42.2333C42.2333 26.2935 42.8293 24.804 43.8531 23.76C44.8766 22.7164 46.3412 22.104 48.1053 22.104V21.904V21.704C46.2455 21.704 44.6741 22.3516 43.5676 23.48C42.4614 24.608 41.8333 26.2025 41.8333 28.072H42.0333ZM48.1773 23.896V23.696C47.095 23.696 46.183 24.0014 45.4929 24.5797C44.8029 25.1579 44.3513 25.995 44.1645 27.0284L44.3613 27.064L44.5582 27.0996C44.7314 26.141 45.1438 25.3941 45.7498 24.8863C46.3557 24.3786 47.1717 24.096 48.1773 24.096V23.896ZM44.3613 27.064V27.264H52.0413V27.064V26.864H44.3613V27.064ZM52.0413 27.064L52.2404 27.0441C52.1395 26.0361 51.7027 25.1942 50.993 24.606C50.2847 24.0189 49.3189 23.696 48.1773 23.696V23.896V24.096C49.2438 24.096 50.114 24.3971 50.7377 24.914C51.36 25.4298 51.7511 26.1719 51.8423 27.0839L52.0413 27.064ZM66.6592 22.144V21.944H66.4619L66.4592 22.1413L66.6592 22.144ZM68.6272 22.144H68.8272V21.944H68.6272V22.144ZM68.6272 34V34.2H68.8272V34H68.6272ZM66.6592 34L66.4592 34.0027L66.4619 34.2H66.6592V34ZM66.6352 32.248L66.8352 32.2453L66.8272 31.6587L66.4752 32.128L66.6352 32.248ZM66.6352 23.896L66.4752 24.016L66.8272 24.4853L66.8352 23.8987L66.6352 23.896ZM66.6592 22.144V22.344H68.6272V22.144V21.944H66.6592V22.144ZM68.6272 22.144H68.4272V34H68.6272H68.8272V22.144H68.6272ZM68.6272 34V33.8H66.6592V34V34.2H68.6272V34ZM66.6592 34L66.8592 33.9973L66.8352 32.2453L66.6352 32.248L66.4352 32.2507L66.4592 34.0027L66.6592 34ZM66.6352 32.248L66.4752 32.128C65.5836 33.3169 64.0161 34.064 62.1232 34.064V34.264V34.464C64.1184 34.464 65.8149 33.6751 66.7952 32.368L66.6352 32.248ZM62.1232 34.264V34.064C60.4338 34.064 59.0053 33.4475 57.9986 32.3976C56.9914 31.3471 56.3952 29.8506 56.3952 28.072H56.1952H55.9952C55.9952 29.9414 56.6231 31.5409 57.7099 32.6744C58.7972 33.8085 60.3326 34.464 62.1232 34.464V34.264ZM56.1952 28.072H56.3952C56.3952 26.2934 56.9914 24.7969 57.9986 23.7464C59.0053 22.6965 60.4338 22.08 62.1232 22.08V21.88V21.68C60.3326 21.68 58.7972 22.3355 57.7099 23.4696C56.6231 24.6031 55.9952 26.2026 55.9952 28.072H56.1952ZM62.1232 21.88V22.08C64.0161 22.08 65.5836 22.8271 66.4752 24.016L66.6352 23.896L66.7952 23.776C65.8149 22.4689 64.1184 21.68 62.1232 21.68V21.88ZM66.6352 23.896L66.8352 23.8987L66.8592 22.1467L66.6592 22.144L66.4592 22.1413L66.4352 23.8933L66.6352 23.896ZM62.4112 32.2V32.4C63.6374 32.4 64.6868 31.9548 65.4293 31.1837C66.1712 30.4132 66.5952 29.3296 66.5952 28.072H66.3952H66.1952C66.1952 29.2384 65.8032 30.2188 65.1412 30.9063C64.4797 31.5932 63.5371 32 62.4112 32V32.2ZM66.3952 28.072H66.5952C66.5952 26.8144 66.1712 25.7308 65.4293 24.9603C64.6868 24.1892 63.6374 23.744 62.4112 23.744V23.944V24.144C63.5371 24.144 64.4797 24.5508 65.1412 25.2377C65.8032 25.9252 66.1952 26.9056 66.1952 28.072H66.3952ZM62.4112 23.944V23.744C61.1967 23.744 60.1476 24.1895 59.4025 24.96C58.6577 25.7301 58.2272 26.8136 58.2272 28.072H58.4272H58.6272C58.6272 26.9064 59.0247 25.9259 59.69 25.238C60.3548 24.5505 61.2978 24.144 62.4112 24.144V23.944ZM58.4272 28.072H58.2272C58.2272 29.3304 58.6577 30.4139 59.4025 31.184C60.1476 31.9545 61.1967 32.4 62.4112 32.4V32.2V32C61.2978 32 60.3548 31.5935 59.69 30.906C59.0247 30.2181 58.6272 29.2376 58.6272 28.072H58.4272ZM81.7764 17.2V17H81.5764V17.2H81.7764ZM84.0084 17.2H84.2084V17H84.0084V17.2ZM84.0084 34V34.2H84.2084V34H84.0084ZM82.0164 34L81.8164 34.0027L81.8191 34.2H82.0164V34ZM81.9924 32.248L82.1924 32.2453L82.1842 31.6466L81.8309 32.13L81.9924 32.248ZM81.7764 23.632L81.6239 23.7613L81.9764 24.1772V23.632H81.7764ZM81.7764 17.2V17.4H84.0084V17.2V17H81.7764V17.2ZM84.0084 17.2H83.8084V34H84.0084H84.2084V17.2H84.0084ZM84.0084 34V33.8H82.0164V34V34.2H84.0084V34ZM82.0164 34L82.2164 33.9973L82.1924 32.2453L81.9924 32.248L81.7924 32.2507L81.8164 34.0027L82.0164 34ZM81.9924 32.248L81.8309 32.13C80.9646 33.3156 79.3754 34.064 77.4564 34.064V34.264V34.464C79.4734 34.464 81.1963 33.6764 82.1539 32.366L81.9924 32.248ZM77.4564 34.264V34.064C75.8018 34.064 74.3853 33.4707 73.3822 32.433C72.3789 31.3951 71.7764 29.8992 71.7764 28.072H71.5764H71.3764C71.3764 29.9888 72.01 31.589 73.0946 32.711C74.1795 33.8333 75.703 34.464 77.4564 34.464V34.264ZM71.5764 28.072H71.7764C71.7764 26.2448 72.3789 24.749 73.3822 23.711C74.3853 22.6733 75.8018 22.08 77.4564 22.08V21.88V21.68C75.703 21.68 74.1795 22.3107 73.0946 23.433C72.01 24.555 71.3764 26.1552 71.3764 28.072H71.5764ZM77.4564 21.88V22.08C79.2359 22.08 80.7342 22.712 81.6239 23.7613L81.7764 23.632L81.929 23.5027C80.9466 22.344 79.3249 21.68 77.4564 21.68V21.88ZM81.7764 23.632H81.9764V17.2H81.7764H81.5764V23.632H81.7764ZM77.7924 32.2V32.4C79.007 32.4 80.056 31.9545 80.8012 31.184C81.5459 30.4139 81.9764 29.3304 81.9764 28.072H81.7764H81.5764C81.5764 29.2376 81.1789 30.2181 80.5136 30.906C79.8488 31.5935 78.9059 32 77.7924 32V32.2ZM81.7764 28.072H81.9764C81.9764 26.8136 81.5459 25.7301 80.8012 24.96C80.056 24.1895 79.007 23.744 77.7924 23.744V23.944V24.144C78.9059 24.144 79.8488 24.5505 80.5136 25.238C81.1789 25.9259 81.5764 26.9064 81.5764 28.072H81.7764ZM77.7924 23.944V23.744C76.5779 23.744 75.5288 24.1895 74.7836 24.96C74.0389 25.7301 73.6084 26.8136 73.6084 28.072H73.8084H74.0084C74.0084 26.9064 74.4059 25.9259 75.0712 25.238C75.736 24.5505 76.679 24.144 77.7924 24.144V23.944ZM73.8084 28.072H73.6084C73.6084 29.3304 74.0389 30.4139 74.7836 31.184C75.5288 31.9545 76.5779 32.4 77.7924 32.4V32.2V32C76.679 32 75.736 31.5935 75.0712 30.906C74.4059 30.2181 74.0084 29.2376 74.0084 28.072H73.8084ZM108.316 19.456L108.45 19.605L108.605 19.466L108.46 19.3166L108.316 19.456ZM106.708 20.896L106.564 21.0346L106.698 21.1738L106.842 21.045L106.708 20.896ZM106.876 30.28L107.019 30.1397L106.879 29.9975L106.736 30.1372L106.876 30.28ZM108.412 31.84L108.553 31.9824L108.695 31.8421L108.555 31.6997L108.412 31.84ZM102.124 34.336V34.136C99.6048 34.136 97.4733 33.2479 95.972 31.7437C94.4707 30.2395 93.5885 28.1078 93.5885 25.6H93.3885H93.1885C93.1885 28.2042 94.1062 30.4405 95.6889 32.0263C97.2717 33.6121 99.5081 34.536 102.124 34.536V34.336ZM93.3885 25.6H93.5885C93.5885 23.0922 94.4707 20.9605 95.972 19.4563C97.4733 17.9521 99.6048 17.064 102.124 17.064V16.864V16.664C99.5081 16.664 97.2717 17.5879 95.6889 19.1737C94.1062 20.7595 93.1885 22.9958 93.1885 25.6H93.3885ZM102.124 16.864V17.064C104.472 17.064 106.556 17.931 108.173 19.5954L108.316 19.456L108.46 19.3166C106.765 17.573 104.577 16.664 102.124 16.664V16.864ZM108.316 19.456L108.183 19.307L106.575 20.747L106.708 20.896L106.842 21.045L108.45 19.605L108.316 19.456ZM106.708 20.896L106.853 20.7574C105.636 19.4912 104.047 18.848 102.196 18.848V19.048V19.248C103.946 19.248 105.429 19.8528 106.564 21.0346L106.708 20.896ZM102.196 19.048V18.848C100.241 18.848 98.5735 19.5316 97.3951 20.7255C96.217 21.9192 95.5405 23.6097 95.5405 25.6H95.7405H95.9405C95.9405 23.7023 96.584 22.1168 97.6798 21.0065C98.7755 19.8964 100.336 19.248 102.196 19.248V19.048ZM95.7405 25.6H95.5405C95.5405 27.5903 96.217 29.2808 97.3951 30.4745C98.5735 31.6684 100.241 32.352 102.196 32.352V32.152V31.952C100.336 31.952 98.7755 31.3036 97.6798 30.1935C96.584 29.0832 95.9405 27.4977 95.9405 25.6H95.7405ZM102.196 32.152V32.352C103.998 32.352 105.753 31.6612 107.016 30.4228L106.876 30.28L106.736 30.1372C105.552 31.2988 103.899 31.952 102.196 31.952V32.152ZM106.876 30.28L106.734 30.4203L108.27 31.9803L108.412 31.84L108.555 31.6997L107.019 30.1397L106.876 30.28ZM108.412 31.84L108.272 31.6975C106.655 33.2908 104.571 34.136 102.124 34.136V34.336V34.536C104.67 34.536 106.857 33.6532 108.553 31.9824L108.412 31.84ZM120.518 22.144V21.944H120.32L120.318 22.1413L120.518 22.144ZM122.486 22.144H122.686V21.944H122.486V22.144ZM122.486 34V34.2H122.686V34H122.486ZM120.518 34L120.318 34.0027L120.32 34.2H120.518V34ZM120.494 32.248L120.694 32.2453L120.686 31.6587L120.334 32.128L120.494 32.248ZM120.494 23.896L120.334 24.016L120.686 24.4853L120.694 23.8987L120.494 23.896ZM120.518 22.144V22.344H122.486V22.144V21.944H120.518V22.144ZM122.486 22.144H122.286V34H122.486H122.686V22.144H122.486ZM122.486 34V33.8H120.518V34V34.2H122.486V34ZM120.518 34L120.718 33.9973L120.694 32.2453L120.494 32.248L120.294 32.2507L120.318 34.0027L120.518 34ZM120.494 32.248L120.334 32.128C119.442 33.3169 117.875 34.064 115.982 34.064V34.264V34.464C117.977 34.464 119.673 33.6751 120.654 32.368L120.494 32.248ZM115.982 34.264V34.064C114.292 34.064 112.864 33.4475 111.857 32.3976C110.85 31.3471 110.254 29.8506 110.254 28.072H110.054H109.854C109.854 29.9414 110.482 31.5409 111.568 32.6744C112.656 33.8085 114.191 34.464 115.982 34.464V34.264ZM110.054 28.072H110.254C110.254 26.2934 110.85 24.7969 111.857 23.7464C112.864 22.6965 114.292 22.08 115.982 22.08V21.88V21.68C114.191 21.68 112.656 22.3355 111.568 23.4696C110.482 24.6031 109.854 26.2026 109.854 28.072H110.054ZM115.982 21.88V22.08C117.875 22.08 119.442 22.8271 120.334 24.016L120.494 23.896L120.654 23.776C119.673 22.4689 117.977 21.68 115.982 21.68V21.88ZM120.494 23.896L120.694 23.8987L120.718 22.1467L120.518 22.144L120.318 22.1413L120.294 23.8933L120.494 23.896ZM116.27 32.2V32.4C117.496 32.4 118.545 31.9548 119.288 31.1837C120.03 30.4132 120.454 29.3296 120.454 28.072H120.254H120.054C120.054 29.2384 119.662 30.2188 119 30.9063C118.338 31.5932 117.396 32 116.27 32V32.2ZM120.254 28.072H120.454C120.454 26.8144 120.03 25.7308 119.288 24.9603C118.545 24.1892 117.496 23.744 116.27 23.744V23.944V24.144C117.396 24.144 118.338 24.5508 119 25.2377C119.662 25.9252 120.054 26.9056 120.054 28.072H120.254ZM116.27 23.944V23.744C115.055 23.744 114.006 24.1895 113.261 24.96C112.516 25.7301 112.086 26.8136 112.086 28.072H112.286H112.486C112.486 26.9064 112.883 25.9259 113.548 25.238C114.213 24.5505 115.156 24.144 116.27 24.144V23.944ZM112.286 28.072H112.086C112.086 29.3304 112.516 30.4139 113.261 31.184C114.006 31.9545 115.055 32.4 116.27 32.4V32.2V32C115.156 32 114.213 31.5935 113.548 30.906C112.883 30.2181 112.486 29.2376 112.486 28.072H112.286ZM125.291 32.44L125.126 32.3274L125.02 32.4823L125.168 32.5976L125.291 32.44ZM126.419 30.784L126.551 30.6341L126.381 30.4839L126.254 30.6714L126.419 30.784ZM130.451 28.96L130.475 28.7615L130.475 28.7614L130.451 28.96ZM135.371 23.296L135.54 23.4029L135.641 23.2431L135.487 23.1333L135.371 23.296ZM134.339 24.928L134.223 25.091L134.395 25.2134L134.508 25.0349L134.339 24.928ZM130.643 26.992L130.617 27.1903L130.617 27.1903L130.643 26.992ZM130.619 34.264V34.064C128.648 34.064 126.915 33.455 125.414 32.2824L125.291 32.44L125.168 32.5976C126.739 33.825 128.558 34.464 130.619 34.464V34.264ZM125.291 32.44L125.456 32.5526L126.584 30.8966L126.419 30.784L126.254 30.6714L125.126 32.3274L125.291 32.44ZM126.419 30.784L126.286 30.9339C127.361 31.8832 128.97 32.448 130.667 32.448V32.248V32.048C129.051 32.048 127.541 31.5088 126.551 30.6341L126.419 30.784ZM130.667 32.248V32.448C131.538 32.448 132.267 32.2953 132.786 31.9951C133.313 31.6901 133.627 31.2279 133.627 30.64H133.427H133.227C133.227 31.0601 133.013 31.4019 132.586 31.6489C132.15 31.9007 131.5 32.048 130.667 32.048V32.248ZM133.427 30.64H133.627C133.627 30.3696 133.567 30.1233 133.432 29.9047C133.298 29.6871 133.098 29.5103 132.838 29.3645C132.324 29.0771 131.546 28.8939 130.475 28.7615L130.451 28.96L130.426 29.1585C131.491 29.2901 132.202 29.4669 132.642 29.7135C132.859 29.8347 133.002 29.9684 133.092 30.1146C133.181 30.2597 133.227 30.4304 133.227 30.64H133.427ZM130.451 28.96L130.475 28.7614C128.894 28.5713 127.74 28.1875 126.985 27.6265C126.241 27.0735 125.875 26.3413 125.875 25.408H125.675H125.475C125.475 26.4667 125.9 27.3185 126.747 27.9475C127.582 28.5685 128.816 28.9647 130.427 29.1586L130.451 28.96ZM125.675 25.408H125.875C125.875 24.4239 126.341 23.6004 127.176 23.0158C128.015 22.4277 129.231 22.08 130.715 22.08V21.88V21.68C129.174 21.68 127.871 22.0403 126.946 22.6882C126.016 23.3396 125.475 24.2801 125.475 25.408H125.675ZM130.715 21.88V22.08C132.478 22.08 133.948 22.5254 135.255 23.4587L135.371 23.296L135.487 23.1333C134.106 22.1466 132.552 21.68 130.715 21.68V21.88ZM135.371 23.296L135.202 23.1891L134.17 24.8211L134.339 24.928L134.508 25.0349L135.54 23.4029L135.371 23.296ZM134.339 24.928L134.455 24.765C133.339 23.9712 132.145 23.624 130.811 23.624V23.824V24.024C132.068 24.024 133.179 24.3488 134.223 25.091L134.339 24.928ZM130.811 23.824V23.624C129.837 23.624 129.061 23.763 128.521 24.0493C127.969 24.3422 127.659 24.7944 127.659 25.384H127.859H128.059C128.059 24.9656 128.265 24.6378 128.709 24.4027C129.165 24.161 129.864 24.024 130.811 24.024V23.824ZM127.859 25.384H127.659C127.659 25.6361 127.714 25.8681 127.839 26.076C127.964 26.283 128.151 26.4532 128.394 26.5949C128.875 26.8742 129.605 27.0578 130.617 27.1903L130.643 26.992L130.669 26.7937C129.665 26.6622 129.003 26.4858 128.595 26.2491C128.395 26.1328 128.264 26.006 128.182 25.8695C128.1 25.7339 128.059 25.5759 128.059 25.384H127.859ZM130.643 26.992L130.617 27.1903C132.373 27.4172 133.579 27.7902 134.344 28.3504C135.092 28.8985 135.435 29.6384 135.435 30.664H135.635H135.835C135.835 29.5296 135.446 28.6615 134.58 28.0276C133.731 27.4058 132.441 27.0228 130.668 26.7936L130.643 26.992ZM135.635 30.664H135.435C135.435 31.6615 134.967 32.5035 134.135 33.1027C133.298 33.7051 132.089 34.064 130.619 34.064V34.264V34.464C132.149 34.464 133.447 34.0909 134.369 33.4273C135.295 32.7605 135.835 31.8025 135.835 30.664H135.635ZM149.677 28.96V29.16H149.862L149.877 28.9753L149.677 28.96ZM139.861 28.96V28.76H139.639L139.662 28.9811L139.861 28.96ZM147.517 30.856L147.655 30.711L147.5 30.5636L147.363 30.7284L147.517 30.856ZM148.957 32.224L149.108 32.3553L149.234 32.2109L149.095 32.079L148.957 32.224ZM139.885 27.064L139.688 27.0284L139.646 27.264H139.885V27.064ZM147.565 27.064V27.264H147.786L147.764 27.0441L147.565 27.064ZM143.629 21.904V22.104C145.624 22.104 147.159 22.7597 148.157 23.9242C149.157 25.0909 149.643 26.7971 149.478 28.9447L149.677 28.96L149.877 28.9753C150.047 26.7549 149.549 24.9331 148.461 23.6638C147.371 22.3923 145.714 21.704 143.629 21.704V21.904ZM149.677 28.96V28.76H139.861V28.96V29.16H149.677V28.96ZM139.861 28.96L139.662 28.9811C139.775 30.0496 140.243 30.9216 140.989 31.5246C141.734 32.1259 142.741 32.448 143.917 32.448V32.248V32.048C142.813 32.048 141.9 31.7461 141.241 31.2134C140.583 30.6824 140.163 29.9104 140.06 28.9389L139.861 28.96ZM143.917 32.248V32.448C145.394 32.448 146.924 31.8847 147.671 30.9836L147.517 30.856L147.363 30.7284C146.718 31.5073 145.321 32.048 143.917 32.048V32.248ZM147.517 30.856L147.379 31.001L148.819 32.369L148.957 32.224L149.095 32.079L147.655 30.711L147.517 30.856ZM148.957 32.224L148.806 32.0927C147.723 33.3371 145.863 34.112 143.869 34.112V34.312V34.512C145.956 34.512 147.935 33.7029 149.108 32.3553L148.957 32.224ZM143.869 34.312V34.112C142.005 34.112 140.48 33.509 139.423 32.4628C138.365 31.4168 137.757 29.9108 137.757 28.072H137.557H137.357C137.357 30.0012 137.997 31.6152 139.141 32.7472C140.286 33.879 141.917 34.512 143.869 34.512V34.312ZM137.557 28.072H137.757C137.757 26.2935 138.353 24.804 139.377 23.76C140.4 22.7164 141.865 22.104 143.629 22.104V21.904V21.704C141.769 21.704 140.198 22.3516 139.091 23.48C137.985 24.608 137.357 26.2025 137.357 28.072H137.557ZM143.701 23.896V23.696C142.619 23.696 141.707 24.0014 141.017 24.5797C140.327 25.1579 139.875 25.995 139.688 27.0284L139.885 27.064L140.082 27.0996C140.255 26.141 140.668 25.3941 141.274 24.8863C141.879 24.3786 142.695 24.096 143.701 24.096V23.896ZM139.885 27.064V27.264H147.565V27.064V26.864H139.885V27.064ZM147.565 27.064L147.764 27.0441C147.663 26.0361 147.226 25.1942 146.517 24.606C145.808 24.0189 144.843 23.696 143.701 23.696V23.896V24.096C144.768 24.096 145.638 24.3971 146.261 24.914C146.884 25.4298 147.275 26.1719 147.366 27.0839L147.565 27.064ZM158.15 31.84L157.986 31.725L157.881 31.8746L158.021 31.9927L158.15 31.84ZM159.398 30.064L159.535 29.9187L159.367 29.7597L159.234 29.949L159.398 30.064ZM164.99 26.56L165.019 26.3622L165.019 26.3621L164.99 26.56ZM171.11 19.048L171.271 19.1669L171.384 19.0134L171.236 18.8929L171.11 19.048ZM169.886 20.704L169.759 20.8583L169.921 20.9925L170.047 20.8229L169.886 20.704ZM165.23 24.4L165.198 24.5974L165.198 24.5975L165.23 24.4ZM165.158 34.312V34.112C162.633 34.112 160.112 33.2383 158.279 31.6873L158.15 31.84L158.021 31.9927C159.932 33.6097 162.546 34.512 165.158 34.512V34.312ZM158.15 31.84L158.313 31.955L159.561 30.179L159.398 30.064L159.234 29.949L157.986 31.725L158.15 31.84ZM159.398 30.064L159.26 30.2093C160.648 31.5224 162.956 32.352 165.158 32.352V32.152V31.952C163.04 31.952 160.836 31.1496 159.535 29.9187L159.398 30.064ZM165.158 32.152V32.352C166.525 32.352 167.67 32.0779 168.48 31.5716C169.296 31.0613 169.774 30.312 169.774 29.392H169.574H169.374C169.374 30.152 168.987 30.7827 168.268 31.2324C167.542 31.6861 166.479 31.952 165.158 31.952V32.152ZM169.574 29.392H169.774C169.774 28.9775 169.683 28.6025 169.486 28.2675C169.289 27.9335 168.993 27.6508 168.602 27.4097C167.824 26.9314 166.645 26.603 165.019 26.3622L164.99 26.56L164.961 26.7578C166.575 26.997 167.687 27.3166 168.392 27.7503C168.741 27.9652 168.984 28.2045 169.141 28.4705C169.297 28.7355 169.374 29.0385 169.374 29.392H169.574ZM164.99 26.56L165.019 26.3621C162.749 26.0276 161.177 25.4998 160.174 24.722C159.187 23.9555 158.734 22.9321 158.734 21.544H158.534H158.334C158.334 23.0359 158.829 24.1845 159.929 25.038C161.015 25.8802 162.671 26.4204 164.961 26.7579L164.99 26.56ZM158.534 21.544H158.734C158.734 20.2599 159.356 19.1529 160.443 18.3606C161.532 17.5658 163.09 17.088 164.942 17.088V16.888V16.688C163.025 16.688 161.379 17.1822 160.207 18.0374C159.031 18.8951 158.334 20.1161 158.334 21.544H158.534ZM164.942 16.888V17.088C167.177 17.088 169.34 17.8646 170.984 19.2031L171.11 19.048L171.236 18.8929C169.52 17.4954 167.267 16.688 164.942 16.688V16.888ZM171.11 19.048L170.949 18.9291L169.725 20.5851L169.886 20.704L170.047 20.8229L171.271 19.1669L171.11 19.048ZM169.886 20.704L170.013 20.5497C168.608 19.3913 166.763 18.752 164.966 18.752V18.952V19.152C166.673 19.152 168.427 19.7607 169.759 20.8583L169.886 20.704ZM164.966 18.952V18.752C163.726 18.752 162.66 19.0339 161.896 19.5281C161.13 20.0242 160.662 20.7415 160.662 21.592H160.862H161.062C161.062 20.9065 161.434 20.3038 162.114 19.8639C162.796 19.4221 163.782 19.152 164.966 19.152V18.952ZM160.862 21.592H160.662C160.662 21.9931 160.746 22.358 160.931 22.6859C161.116 23.0133 161.395 23.2928 161.767 23.533C162.506 24.0095 163.632 24.3445 165.198 24.5974L165.23 24.4L165.262 24.2026C163.708 23.9515 162.65 23.6265 161.984 23.197C161.655 22.9842 161.426 22.7492 161.28 22.4893C161.133 22.23 161.062 21.9349 161.062 21.592H160.862ZM165.23 24.4L165.198 24.5975C167.604 24.9805 169.238 25.503 170.269 26.2565C171.281 26.9967 171.726 27.9707 171.726 29.32H171.926H172.126C172.126 27.8613 171.634 26.7593 170.505 25.9335C169.394 25.121 167.679 24.5875 165.261 24.2025L165.23 24.4ZM171.926 29.32H171.726C171.726 30.7662 171.092 31.9554 169.962 32.7891C168.827 33.6268 167.18 34.112 165.158 34.112V34.312V34.512C167.239 34.512 168.977 34.0132 170.2 33.1109C171.428 32.2046 172.126 30.8978 172.126 29.32H171.926ZM181.303 31.768L181.491 31.7018L181.42 31.4999L181.224 31.5842L181.303 31.768ZM181.951 33.616L182.032 33.7988L182.2 33.7239L182.139 33.5498L181.951 33.616ZM175.687 24.088H175.887V23.888H175.687V24.088ZM173.359 24.088H173.159V24.288H173.359V24.088ZM173.359 22.144V21.944H173.159V22.144H173.359ZM175.687 22.144V22.344H175.887V22.144H175.687ZM175.687 18.952L175.665 18.7532L175.487 18.7726V18.952H175.687ZM177.895 18.712H178.095V18.4891L177.873 18.5132L177.895 18.712ZM177.895 22.144H177.695V22.344H177.895V22.144ZM181.495 22.144H181.695V21.944H181.495V22.144ZM181.495 24.088V24.288H181.695V24.088H181.495ZM177.895 24.088V23.888H177.695V24.088H177.895ZM181.303 31.768L181.114 31.8342L181.762 33.6822L181.951 33.616L182.139 33.5498L181.491 31.7018L181.303 31.768ZM181.951 33.616L181.869 33.4332C181.029 33.8066 180.289 33.968 179.431 33.968V34.168V34.368C180.348 34.368 181.144 34.1934 182.032 33.7988L181.951 33.616ZM179.431 34.168V33.968C178.221 33.968 177.347 33.6203 176.771 32.9812C176.192 32.3383 175.887 31.3682 175.887 30.064H175.687H175.487C175.487 31.4238 175.805 32.5057 176.474 33.2488C177.146 33.9957 178.144 34.368 179.431 34.368V34.168ZM175.687 30.064H175.887V24.088H175.687H175.487V30.064H175.687ZM175.687 24.088V23.888H173.359V24.088V24.288H175.687V24.088ZM173.359 24.088H173.559V22.144H173.359H173.159V24.088H173.359ZM173.359 22.144V22.344H175.687V22.144V21.944H173.359V22.144ZM175.687 22.144H175.887V18.952H175.687H175.487V22.144H175.687ZM175.687 18.952L175.708 19.1508L177.916 18.9108L177.895 18.712L177.873 18.5132L175.665 18.7532L175.687 18.952ZM177.895 18.712H177.695V22.144H177.895H178.095V18.712H177.895ZM177.895 22.144V22.344H181.495V22.144V21.944H177.895V22.144ZM181.495 22.144H181.295V24.088H181.495H181.695V22.144H181.495ZM181.495 24.088V23.888H177.895V24.088V24.288H181.495V24.088ZM177.895 24.088H177.695V30.064H177.895H178.095V24.088H177.895ZM177.895 30.064H177.695C177.695 30.7434 177.823 31.3199 178.153 31.7286C178.49 32.146 179.006 32.352 179.695 32.352V32.152V31.952C179.087 31.952 178.703 31.774 178.464 31.4774C178.218 31.1721 178.095 30.7046 178.095 30.064H177.895ZM179.695 32.152V32.352C180.236 32.352 180.864 32.1735 181.381 31.9518L181.303 31.768L181.224 31.5842C180.733 31.7945 180.161 31.952 179.695 31.952V32.152ZM193.093 22.144V21.944H192.893V22.144H193.093ZM195.325 22.144H195.525V21.944H195.325V22.144ZM195.325 34V34.2H195.525V34H195.325ZM193.333 34L193.133 34.0029L193.136 34.2H193.333V34ZM193.309 32.32L193.509 32.3171L193.501 31.7639L193.154 32.1943L193.309 32.32ZM184.141 22.144V21.944H183.941V22.144H184.141ZM186.373 22.144H186.573V21.944H186.373V22.144ZM193.093 22.144V22.344H195.325V22.144V21.944H193.093V22.144ZM195.325 22.144H195.125V34H195.325H195.525V22.144H195.325ZM195.325 34V33.8H193.333V34V34.2H195.325V34ZM193.333 34L193.533 33.9971L193.509 32.3171L193.309 32.32L193.109 32.3229L193.133 34.0029L193.333 34ZM193.309 32.32L193.154 32.1943C192.187 33.3907 190.783 34.016 189.157 34.016V34.216V34.416C190.891 34.416 192.415 33.7453 193.465 32.4457L193.309 32.32ZM189.157 34.216V34.016C187.682 34.016 186.484 33.5006 185.654 32.593C184.821 31.6835 184.341 30.3615 184.341 28.72H184.141H183.941C183.941 30.4385 184.445 31.8645 185.359 32.863C186.274 33.8634 187.584 34.416 189.157 34.416V34.216ZM184.141 28.72H184.341V22.144H184.141H183.941V28.72H184.141ZM184.141 22.144V22.344H186.373V22.144V21.944H184.141V22.144ZM186.373 22.144H186.173V28.576H186.373H186.573V22.144H186.373ZM186.373 28.576H186.173C186.173 29.7474 186.469 30.694 187.041 31.3504C187.617 32.0106 188.45 32.352 189.469 32.352V32.152V31.952C188.544 31.952 187.829 31.6454 187.343 31.0876C186.853 30.526 186.573 29.6846 186.573 28.576H186.373ZM189.469 32.152V32.352C190.599 32.352 191.558 31.9429 192.235 31.2441C192.911 30.546 193.293 29.5703 193.293 28.456H193.093H192.893C192.893 29.4777 192.544 30.35 191.947 30.9659C191.352 31.5811 190.499 31.952 189.469 31.952V32.152ZM193.093 28.456H193.293V22.144H193.093H192.893V28.456H193.093ZM208.442 17.2V17H208.242V17.2H208.442ZM210.674 17.2H210.874V17H210.674V17.2ZM210.674 34V34.2H210.874V34H210.674ZM208.682 34L208.482 34.0027L208.485 34.2H208.682V34ZM208.658 32.248L208.858 32.2453L208.85 31.6466L208.497 32.13L208.658 32.248ZM208.442 23.632L208.289 23.7613L208.642 24.1772V23.632H208.442ZM208.442 17.2V17.4H210.674V17.2V17H208.442V17.2ZM210.674 17.2H210.474V34H210.674H210.874V17.2H210.674ZM210.674 34V33.8H208.682V34V34.2H210.674V34ZM208.682 34L208.882 33.9973L208.858 32.2453L208.658 32.248L208.458 32.2507L208.482 34.0027L208.682 34ZM208.658 32.248L208.497 32.13C207.63 33.3156 206.041 34.064 204.122 34.064V34.264V34.464C206.139 34.464 207.862 33.6764 208.82 32.366L208.658 32.248ZM204.122 34.264V34.064C202.467 34.064 201.051 33.4707 200.048 32.433C199.044 31.3951 198.442 29.8992 198.442 28.072H198.242H198.042C198.042 29.9888 198.676 31.589 199.76 32.711C200.845 33.8333 202.369 34.464 204.122 34.464V34.264ZM198.242 28.072H198.442C198.442 26.2448 199.044 24.749 200.048 23.711C201.051 22.6733 202.467 22.08 204.122 22.08V21.88V21.68C202.369 21.68 200.845 22.3107 199.76 23.433C198.676 24.555 198.042 26.1552 198.042 28.072H198.242ZM204.122 21.88V22.08C205.902 22.08 207.4 22.712 208.289 23.7613L208.442 23.632L208.595 23.5027C207.612 22.344 205.991 21.68 204.122 21.68V21.88ZM208.442 23.632H208.642V17.2H208.442H208.242V23.632H208.442ZM204.458 32.2V32.4C205.673 32.4 206.722 31.9545 207.467 31.184C208.212 30.4139 208.642 29.3304 208.642 28.072H208.442H208.242C208.242 29.2376 207.845 30.2181 207.179 30.906C206.514 31.5935 205.571 32 204.458 32V32.2ZM208.442 28.072H208.642C208.642 26.8136 208.212 25.7301 207.467 24.96C206.722 24.1895 205.673 23.744 204.458 23.744V23.944V24.144C205.571 24.144 206.514 24.5505 207.179 25.238C207.845 25.9259 208.242 26.9064 208.242 28.072H208.442ZM204.458 23.944V23.744C203.243 23.744 202.194 24.1895 201.449 24.96C200.705 25.7301 200.274 26.8136 200.274 28.072H200.474H200.674C200.674 26.9064 201.072 25.9259 201.737 25.238C202.402 24.5505 203.345 24.144 204.458 24.144V23.944ZM200.474 28.072H200.274C200.274 29.3304 200.705 30.4139 201.449 31.184C202.194 31.9545 203.243 32.4 204.458 32.4V32.2V32C203.345 32 202.402 31.5935 201.737 30.906C201.072 30.2181 200.674 29.2376 200.674 28.072H200.474ZM214.367 34H214.167V34.2H214.367V34ZM214.367 22.144V21.944H214.167V22.144H214.367ZM216.599 22.144H216.799V21.944H216.599V22.144ZM216.599 34V34.2H216.799V34H216.599ZM215.495 20.104V19.904C214.735 19.904 214.183 19.3632 214.183 18.64H213.983H213.783C213.783 19.5968 214.527 20.304 215.495 20.304V20.104ZM213.983 18.64H214.183C214.183 17.8907 214.737 17.352 215.495 17.352V17.152V16.952C214.525 16.952 213.783 17.6613 213.783 18.64H213.983ZM215.495 17.152V17.352C216.275 17.352 216.807 17.8886 216.807 18.64H217.007H217.207C217.207 17.6634 216.492 16.952 215.495 16.952V17.152ZM217.007 18.64H216.807C216.807 19.3653 216.277 19.904 215.495 19.904V20.104V20.304C216.489 20.304 217.207 19.5947 217.207 18.64H217.007ZM214.367 34H214.567V22.144H214.367H214.167V34H214.367ZM214.367 22.144V22.344H216.599V22.144V21.944H214.367V22.144ZM216.599 22.144H216.399V34H216.599H216.799V22.144H216.599ZM216.599 34V33.8H214.367V34V34.2H216.599V34ZM231.631 28.96V29.16H231.816L231.83 28.9753L231.631 28.96ZM221.815 28.96V28.76H221.592L221.616 28.9811L221.815 28.96ZM229.471 30.856L229.608 30.711L229.453 30.5636L229.317 30.7284L229.471 30.856ZM230.911 32.224L231.061 32.3553L231.187 32.2109L231.048 32.079L230.911 32.224ZM221.839 27.064L221.642 27.0284L221.599 27.264H221.839V27.064ZM229.519 27.064V27.264H229.74L229.718 27.0441L229.519 27.064ZM225.583 21.904V22.104C227.578 22.104 229.113 22.7597 230.111 23.9242C231.111 25.0909 231.596 26.7971 231.431 28.9447L231.631 28.96L231.83 28.9753C232.001 26.7549 231.502 24.9331 230.414 23.6638C229.324 22.3923 227.668 21.704 225.583 21.704V21.904ZM231.631 28.96V28.76H221.815V28.96V29.16H231.631V28.96ZM221.815 28.96L221.616 28.9811C221.729 30.0496 222.196 30.9216 222.943 31.5246C223.687 32.1259 224.695 32.448 225.871 32.448V32.248V32.048C224.766 32.048 223.854 31.7461 223.194 31.2134C222.537 30.6824 222.116 29.9104 222.013 28.9389L221.815 28.96ZM225.871 32.248V32.448C227.347 32.448 228.878 31.8847 229.625 30.9836L229.471 30.856L229.317 30.7284C228.671 31.5073 227.274 32.048 225.871 32.048V32.248ZM229.471 30.856L229.333 31.001L230.773 32.369L230.911 32.224L231.048 32.079L229.608 30.711L229.471 30.856ZM230.911 32.224L230.76 32.0927C229.677 33.3371 227.816 34.112 225.823 34.112V34.312V34.512C227.909 34.512 229.889 33.7029 231.061 32.3553L230.911 32.224ZM225.823 34.312V34.112C223.958 34.112 222.434 33.509 221.376 32.4628C220.319 31.4168 219.711 29.9108 219.711 28.072H219.511H219.311C219.311 30.0012 219.95 31.6152 221.095 32.7472C222.239 33.879 223.871 34.512 225.823 34.512V34.312ZM219.511 28.072H219.711C219.711 26.2935 220.307 24.804 221.33 23.76C222.354 22.7164 223.818 22.104 225.583 22.104V21.904V21.704C223.723 21.704 222.151 22.3516 221.045 23.48C219.939 24.608 219.311 26.2025 219.311 28.072H219.511ZM225.655 23.896V23.696C224.572 23.696 223.66 24.0014 222.97 24.5797C222.28 25.1579 221.828 25.995 221.642 27.0284L221.839 27.064L222.035 27.0996C222.209 26.141 222.621 25.3941 223.227 24.8863C223.833 24.3786 224.649 24.096 225.655 24.096V23.896ZM221.839 27.064V27.264H229.519V27.064V26.864H221.839V27.064ZM229.519 27.064L229.718 27.0441C229.617 26.0361 229.18 25.1942 228.47 24.606C227.762 24.0189 226.796 23.696 225.655 23.696V23.896V24.096C226.721 24.096 227.591 24.3971 228.215 24.914C228.837 25.4298 229.228 26.1719 229.32 27.0839L229.519 27.064ZM233.552 32.44L233.387 32.3274L233.282 32.4823L233.429 32.5976L233.552 32.44ZM234.68 30.784L234.813 30.6341L234.643 30.4839L234.515 30.6714L234.68 30.784ZM238.712 28.96L238.737 28.7615L238.736 28.7614L238.712 28.96ZM243.632 23.296L243.801 23.4029L243.902 23.2431L243.749 23.1333L243.632 23.296ZM242.6 24.928L242.484 25.091L242.657 25.2134L242.769 25.0349L242.6 24.928ZM238.904 26.992L238.878 27.1903L238.879 27.1903L238.904 26.992ZM238.88 34.264V34.064C236.909 34.064 235.176 33.455 233.676 32.2824L233.552 32.44L233.429 32.5976C235 33.825 236.82 34.464 238.88 34.464V34.264ZM233.552 32.44L233.718 32.5526L234.846 30.8966L234.68 30.784L234.515 30.6714L233.387 32.3274L233.552 32.44ZM234.68 30.784L234.548 30.9339C235.622 31.8832 237.232 32.448 238.928 32.448V32.248V32.048C237.313 32.048 235.803 31.5088 234.813 30.6341L234.68 30.784ZM238.928 32.248V32.448C239.8 32.448 240.529 32.2953 241.048 31.9951C241.575 31.6901 241.888 31.2279 241.888 30.64H241.688H241.488C241.488 31.0601 241.274 31.4019 240.847 31.6489C240.412 31.9007 239.761 32.048 238.928 32.048V32.248ZM241.688 30.64H241.888C241.888 30.3696 241.829 30.1233 241.694 29.9047C241.56 29.6871 241.36 29.5103 241.099 29.3645C240.586 29.0771 239.808 28.8939 238.737 28.7615L238.712 28.96L238.688 29.1585C239.753 29.2901 240.463 29.4669 240.904 29.7135C241.12 29.8347 241.263 29.9684 241.354 30.1146C241.443 30.2597 241.488 30.4304 241.488 30.64H241.688ZM238.712 28.96L238.736 28.7614C237.155 28.5713 236.001 28.1875 235.247 27.6265C234.503 27.0735 234.136 26.3413 234.136 25.408H233.936H233.736C233.736 26.4667 234.162 27.3185 235.008 27.9475C235.843 28.5685 237.077 28.9647 238.689 29.1586L238.712 28.96ZM233.936 25.408H234.136C234.136 24.4239 234.603 23.6004 235.437 23.0158C236.277 22.4277 237.493 22.08 238.976 22.08V21.88V21.68C237.436 21.68 236.132 22.0403 235.208 22.6882C234.278 23.3396 233.736 24.2801 233.736 25.408H233.936ZM238.976 21.88V22.08C240.739 22.08 242.21 22.5254 243.516 23.4587L243.632 23.296L243.749 23.1333C242.367 22.1466 240.814 21.68 238.976 21.68V21.88ZM243.632 23.296L243.463 23.1891L242.431 24.8211L242.6 24.928L242.769 25.0349L243.801 23.4029L243.632 23.296ZM242.6 24.928L242.716 24.765C241.6 23.9712 240.407 23.624 239.072 23.624V23.824V24.024C240.33 24.024 241.441 24.3488 242.484 25.091L242.6 24.928ZM239.072 23.824V23.624C238.099 23.624 237.323 23.763 236.783 24.0493C236.23 24.3422 235.92 24.7944 235.92 25.384H236.12H236.32C236.32 24.9656 236.527 24.6378 236.97 24.4027C237.426 24.161 238.126 24.024 239.072 24.024V23.824ZM236.12 25.384H235.92C235.92 25.6361 235.975 25.8681 236.101 26.076C236.225 26.283 236.412 26.4532 236.656 26.5949C237.136 26.8742 237.866 27.0578 238.878 27.1903L238.904 26.992L238.93 26.7937C237.926 26.6622 237.264 26.4858 236.857 26.2491C236.657 26.1328 236.525 26.006 236.443 25.8695C236.361 25.7339 236.32 25.5759 236.32 25.384H236.12ZM238.904 26.992L238.879 27.1903C240.634 27.4172 241.84 27.7902 242.605 28.3504C243.354 28.8985 243.696 29.6384 243.696 30.664H243.896H244.096C244.096 29.5296 243.707 28.6615 242.842 28.0276C241.993 27.4058 240.703 27.0228 238.93 26.7936L238.904 26.992ZM243.896 30.664H243.696C243.696 31.6615 243.229 32.5035 242.397 33.1027C241.56 33.7051 240.35 34.064 238.88 34.064V34.264V34.464C240.411 34.464 241.709 34.0909 242.63 33.4273C243.556 32.7605 244.096 31.8025 244.096 30.664H243.896Z" fill="white" mask="url(#path-2-outside-1_2212_677)"/>
<path d="M269 36V52H253L269 36Z" fill="#F4FDFB"/>
</svg>
