<svg preserveAspectRatio="none" width="100%" height="100%" overflow="visible" style="display: block;" viewBox="0 0 868.276 600.039" fill="none" xmlns="http://www.w3.org/2000/svg">
<g id="Vector" opacity="0.6">
<path d="M51.6382 0.638239H0.638239V50.5351M51.6382 0.638239V50.5351M51.6382 0.638239H102.638M51.6382 50.5351H0.638239M51.6382 50.5351H102.638M51.6382 50.5351V100.432M0.638239 50.5351V100.432M102.638 0.638239V50.5351M102.638 0.638239H153.638M102.638 50.5351H153.638M102.638 50.5351V100.432M153.638 0.638239V50.5351M153.638 0.638239H204.638M153.638 50.5351H204.638M153.638 50.5351V100.432M204.638 0.638239V50.5351M204.638 0.638239H255.638M204.638 50.5351H255.638M204.638 50.5351V100.432M255.638 0.638239V50.5351M255.638 0.638239H306.638M255.638 50.5351H306.638M255.638 50.5351V100.432M306.638 0.638239V50.5351M306.638 0.638239H357.638M306.638 50.5351H357.638M306.638 50.5351V100.432M357.638 0.638239V50.5351M357.638 0.638239H408.638M357.638 50.5351H408.638M357.638 50.5351V100.432M408.638 0.638239V50.5351M408.638 0.638239H459.638M408.638 50.5351H459.638M408.638 50.5351V100.432M459.638 0.638239V50.5351M459.638 0.638239H510.638M459.638 50.5351H510.638M459.638 50.5351V100.432M510.638 0.638239V50.5351M510.638 0.638239H561.638M510.638 50.5351H561.638M510.638 50.5351V100.432M561.638 0.638239V50.5351M561.638 0.638239H612.638M561.638 50.5351H612.638M561.638 50.5351V100.432M612.638 0.638239V50.5351M612.638 0.638239H663.638M612.638 50.5351H663.638M612.638 50.5351V100.432M663.638 0.638239V50.5351M663.638 0.638239H714.638M663.638 50.5351H714.638M663.638 50.5351V100.432M714.638 0.638239V50.5351M714.638 0.638239H765.638M714.638 50.5351H765.638M714.638 50.5351V100.432M765.638 0.638239V50.5351M765.638 0.638239H816.638M765.638 50.5351H816.638M765.638 50.5351V100.432M816.638 0.638239V50.5351M816.638 0.638239H867.638V50.5351M816.638 50.5351H867.638M816.638 50.5351V100.432M867.638 50.5351V100.432M51.6382 100.432H0.638239M51.6382 100.432H102.638M51.6382 100.432V150.329M0.638239 100.432V150.329M102.638 100.432H153.638M102.638 100.432V150.329M153.638 100.432H204.638M153.638 100.432V150.329M204.638 100.432H255.638M204.638 100.432V150.329M255.638 100.432H306.638M255.638 100.432V150.329M306.638 100.432H357.638M306.638 100.432V150.329M357.638 100.432H408.638M357.638 100.432V150.329M408.638 100.432H459.638M408.638 100.432V150.329M459.638 100.432H510.638M459.638 100.432V150.329M510.638 100.432H561.638M510.638 100.432V150.329M561.638 100.432H612.638M561.638 100.432V150.329M612.638 100.432H663.638M612.638 100.432V150.329M663.638 100.432H714.638M663.638 100.432V150.329M714.638 100.432H765.638M714.638 100.432V150.329M765.638 100.432H816.638M765.638 100.432V150.329M816.638 100.432H867.638M816.638 100.432V150.329M867.638 100.432V150.329M51.6382 150.329H0.638239M51.6382 150.329H102.638M51.6382 150.329V200.226M0.638239 150.329V200.226M102.638 150.329H153.638M102.638 150.329V200.226M153.638 150.329H204.638M153.638 150.329V200.226M204.638 150.329H255.638M204.638 150.329V200.226M255.638 150.329H306.638M255.638 150.329V200.226M306.638 150.329H357.638M306.638 150.329V200.226M357.638 150.329H408.638M357.638 150.329V200.226M408.638 150.329H459.638M408.638 150.329V200.226M459.638 150.329H510.638M459.638 150.329V200.226M510.638 150.329H561.638M510.638 150.329V200.226M561.638 150.329H612.638M561.638 150.329V200.226M612.638 150.329H663.638M612.638 150.329V200.226M663.638 150.329H714.638M663.638 150.329V200.226M714.638 150.329H765.638M714.638 150.329V200.226M765.638 150.329H816.638M765.638 150.329V200.226M816.638 150.329H867.638M816.638 150.329V200.226M867.638 150.329V200.226M51.6382 200.226H0.638239M51.6382 200.226H102.638M51.6382 200.226V250.123M0.638239 200.226V250.123M102.638 200.226H153.638M102.638 200.226V250.123M153.638 200.226H204.638M153.638 200.226V250.123M204.638 200.226H255.638M204.638 200.226V250.123M255.638 200.226H306.638M255.638 200.226V250.123M306.638 200.226H357.638M306.638 200.226V250.123M357.638 200.226H408.638M357.638 200.226V250.123M408.638 200.226H459.638M408.638 200.226V250.123M459.638 200.226H510.638M459.638 200.226V250.123M510.638 200.226H561.638M510.638 200.226V250.123M561.638 200.226H612.638M561.638 200.226V250.123M612.638 200.226H663.638M612.638 200.226V250.123M663.638 200.226H714.638M663.638 200.226V250.123M714.638 200.226H765.638M714.638 200.226V250.123M765.638 200.226H816.638M765.638 200.226V250.123M816.638 200.226H867.638M816.638 200.226V250.123M867.638 200.226V250.123M51.6382 250.123H0.638239M51.6382 250.123H102.638M51.6382 250.123V300.019M0.638239 250.123V300.019M102.638 250.123H153.638M102.638 250.123V300.019M153.638 250.123H204.638M153.638 250.123V300.019M204.638 250.123H255.638M204.638 250.123V300.019M255.638 250.123H306.638M255.638 250.123V300.019M306.638 250.123H357.638M306.638 250.123V300.019M357.638 250.123H408.638M357.638 250.123V300.019M408.638 250.123H459.638M408.638 250.123V300.019M459.638 250.123H510.638M459.638 250.123V300.019M510.638 250.123H561.638M510.638 250.123V300.019M561.638 250.123H612.638M561.638 250.123V300.019M612.638 250.123H663.638M612.638 250.123V300.019M663.638 250.123H714.638M663.638 250.123V300.019M714.638 250.123H765.638M714.638 250.123V300.019M765.638 250.123H816.638M765.638 250.123V300.019M816.638 250.123H867.638M816.638 250.123V300.019M867.638 250.123V300.019M51.6382 300.019H0.638239M51.6382 300.019H102.638M51.6382 300.019V349.916M0.638239 300.019V349.916M102.638 300.019H153.638M102.638 300.019V349.916M153.638 300.019H204.638M153.638 300.019V349.916M204.638 300.019H255.638M204.638 300.019V349.916M255.638 300.019H306.638M255.638 300.019V349.916M306.638 300.019H357.638M306.638 300.019V349.916M357.638 300.019H408.638M357.638 300.019V349.916M408.638 300.019H459.638M408.638 300.019V349.916M459.638 300.019H510.638M459.638 300.019V349.916M510.638 300.019H561.638M510.638 300.019V349.916M561.638 300.019H612.638M561.638 300.019V349.916M612.638 300.019H663.638M612.638 300.019V349.916M663.638 300.019H714.638M663.638 300.019V349.916M714.638 300.019H765.638M714.638 300.019V349.916M765.638 300.019H816.638M765.638 300.019V349.916M816.638 300.019H867.638M816.638 300.019V349.916M867.638 300.019V349.916M51.6382 349.916H0.638239M51.6382 349.916H102.638M51.6382 349.916V399.813M0.638239 349.916V399.813M102.638 349.916H153.638M102.638 349.916V399.813M153.638 349.916H204.638M153.638 349.916V399.813M204.638 349.916H255.638M204.638 349.916V399.813M255.638 349.916H306.638M255.638 349.916V399.813M306.638 349.916H357.638M306.638 349.916V399.813M357.638 349.916H408.638M357.638 349.916V399.813M408.638 349.916H459.638M408.638 349.916V399.813M459.638 349.916H510.638M459.638 349.916V399.813M510.638 349.916H561.638M510.638 349.916V399.813M561.638 349.916H612.638M561.638 349.916V399.813M612.638 349.916H663.638M612.638 349.916V399.813M663.638 349.916H714.638M663.638 349.916V399.813M714.638 349.916H765.638M714.638 349.916V399.813M765.638 349.916H816.638M765.638 349.916V399.813M816.638 349.916H867.638M816.638 349.916V399.813M867.638 349.916V399.813M51.6382 399.813H0.638239M51.6382 399.813H102.638M51.6382 399.813V449.71M0.638239 399.813V449.71M102.638 399.813H153.638M102.638 399.813V449.71M153.638 399.813H204.638M153.638 399.813V449.71M204.638 399.813H255.638M204.638 399.813V449.71M255.638 399.813H306.638M255.638 399.813V449.71M306.638 399.813H357.638M306.638 399.813V449.71M357.638 399.813H408.638M357.638 399.813V449.71M408.638 399.813H459.638M408.638 399.813V449.71M459.638 399.813H510.638M459.638 399.813V449.71M510.638 399.813H561.638M510.638 399.813V449.71M561.638 399.813H612.638M561.638 399.813V449.71M612.638 399.813H663.638M612.638 399.813V449.71M663.638 399.813H714.638M663.638 399.813V449.71M714.638 399.813H765.638M714.638 399.813V449.71M765.638 399.813H816.638M765.638 399.813V449.71M816.638 399.813H867.638M816.638 399.813V449.71M867.638 399.813V449.71M51.6382 449.71H0.638239M51.6382 449.71H102.638M51.6382 449.71V499.607M0.638239 449.71V499.607M102.638 449.71H153.638M102.638 449.71V499.607M153.638 449.71H204.638M153.638 449.71V499.607M204.638 449.71H255.638M204.638 449.71V499.607M255.638 449.71H306.638M255.638 449.71V499.607M306.638 449.71H357.638M306.638 449.71V499.607M357.638 449.71H408.638M357.638 449.71V499.607M408.638 449.71H459.638M408.638 449.71V499.607M459.638 449.71H510.638M459.638 449.71V499.607M510.638 449.71H561.638M510.638 449.71V499.607M561.638 449.71H612.638M561.638 449.71V499.607M612.638 449.71H663.638M612.638 449.71V499.607M663.638 449.71H714.638M663.638 449.71V499.607M714.638 449.71H765.638M714.638 449.71V499.607M765.638 449.71H816.638M765.638 449.71V499.607M816.638 449.71H867.638M816.638 449.71V499.607M867.638 449.71V499.607M51.6382 499.607H0.638239M51.6382 499.607H102.638M51.6382 499.607V549.504M0.638239 499.607V549.504M102.638 499.607H153.638M102.638 499.607V549.504M153.638 499.607H204.638M153.638 499.607V549.504M204.638 499.607H255.638M204.638 499.607V549.504M255.638 499.607H306.638M255.638 499.607V549.504M306.638 499.607H357.638M306.638 499.607V549.504M357.638 499.607H408.638M357.638 499.607V549.504M408.638 499.607H459.638M408.638 499.607V549.504M459.638 499.607H510.638M459.638 499.607V549.504M510.638 499.607H561.638M510.638 499.607V549.504M561.638 499.607H612.638M561.638 499.607V549.504M612.638 499.607H663.638M612.638 499.607V549.504M663.638 499.607H714.638M663.638 499.607V549.504M714.638 499.607H765.638M714.638 499.607V549.504M765.638 499.607H816.638M765.638 499.607V549.504M816.638 499.607H867.638M816.638 499.607V549.504M867.638 499.607V549.504M51.6382 549.504H0.638239M51.6382 549.504H102.638M51.6382 549.504V599.401M0.638239 549.504V599.401H51.6382M102.638 549.504H153.638M102.638 549.504V599.401M153.638 549.504H204.638M153.638 549.504V599.401M204.638 549.504H255.638M204.638 549.504V599.401M255.638 549.504H306.638M255.638 549.504V599.401M306.638 549.504H357.638M306.638 549.504V599.401M357.638 549.504H408.638M357.638 549.504V599.401M408.638 549.504H459.638M408.638 549.504V599.401M459.638 549.504H510.638M459.638 549.504V599.401M510.638 549.504H561.638M510.638 549.504V599.401M561.638 549.504H612.638M561.638 549.504V599.401M612.638 549.504H663.638M612.638 549.504V599.401M663.638 549.504H714.638M663.638 549.504V599.401M714.638 549.504H765.638M714.638 549.504V599.401M765.638 549.504H816.638M765.638 549.504V599.401M816.638 549.504H867.638M816.638 549.504V599.401M867.638 549.504V599.401H816.638M51.6382 599.401H102.638M102.638 599.401H153.638M153.638 599.401H204.638M204.638 599.401H255.638M255.638 599.401H306.638M306.638 599.401H357.638M357.638 599.401H408.638M408.638 599.401H459.638M459.638 599.401H510.638M510.638 599.401H561.638M561.638 599.401H612.638M612.638 599.401H663.638M663.638 599.401H714.638M714.638 599.401H765.638M765.638 599.401H816.638" stroke="url(#paint0_radial_0_304)" style="mix-blend-mode:luminosity" stroke-width="1.27648"/>
</g>
<defs>
<radialGradient id="paint0_radial_0_304" cx="0" cy="0" r="1" gradientUnits="userSpaceOnUse" gradientTransform="translate(434.138 316.012) rotate(90) scale(282.749 434.154)">
<stop stop-color="#444444"/>
<stop offset="1" stop-color="#444444" stop-opacity="0"/>
</radialGradient>
</defs>
</svg>
