<svg width="253" height="52" viewBox="0 0 253 52" fill="none" xmlns="http://www.w3.org/2000/svg">
<rect width="253" height="52" rx="4" fill="#1863DA"/>
<mask id="path-2-outside-1_2203_1146" maskUnits="userSpaceOnUse" x="24" y="16" width="205" height="19" fill="black">
<rect fill="white" x="24" y="16" width="205" height="19"/>
<path d="M38.466 17.2H40.962L34.026 34H31.482L24.522 17.2H27.018L30.114 24.784L32.754 31.312L38.466 17.2ZM44.1565 20.104C43.2925 20.104 42.6445 19.48 42.6445 18.64C42.6445 17.776 43.2925 17.152 44.1565 17.152C45.0445 17.152 45.6685 17.776 45.6685 18.64C45.6685 19.48 45.0445 20.104 44.1565 20.104ZM43.0285 34V22.144H45.2605V34H43.0285ZM54.2438 21.904C58.3238 21.904 60.6278 24.592 60.2918 28.96H50.4758C50.6918 31 52.2518 32.248 54.5318 32.248C55.9718 32.248 57.4358 31.696 58.1318 30.856L59.5718 32.224C58.4438 33.52 56.5238 34.312 54.4838 34.312C50.6678 34.312 48.1718 31.84 48.1718 28.072C48.1718 24.424 50.6198 21.904 54.2438 21.904ZM54.3158 23.896C52.2278 23.896 50.8598 25.072 50.4998 27.064H58.1798C57.9878 25.144 56.5238 23.896 54.3158 23.896ZM78.0152 22.144H80.3672L76.4072 34H73.9592L72.8072 30.544L70.9352 25.336L69.0632 30.544L67.8872 34H65.4392L61.4552 22.144H63.8312L65.2712 26.704L66.6872 31.432L69.9272 22.144H71.9192L75.1112 31.504L78.0152 22.144ZM101.498 34L99.8897 30.328H90.4817L88.8737 34H86.3297L93.8657 17.2H96.5057L104.042 34H101.498ZM95.1857 19.624L91.4417 28.168H98.9297L95.1857 19.624ZM106.291 34V17.2H108.523V34H106.291ZM112.226 34V17.2H114.458V34H112.226ZM132.536 17.2C136.16 17.2 138.488 19.528 138.488 22.96C138.488 26.416 136.16 28.744 132.536 28.744H127.208V34H124.88V17.2H132.536ZM132.416 26.584C134.72 26.584 136.184 25.144 136.184 22.96C136.184 20.776 134.72 19.36 132.416 19.36H127.208V26.584H132.416ZM146.807 21.928C147.935 21.928 149.015 22.288 149.711 22.864L148.703 24.736C148.031 24.304 147.407 24.112 146.687 24.112C144.647 24.112 143.303 25.72 143.303 28.168V34H141.071V22.144H143.063L143.087 24.136C144.023 22.648 145.223 21.928 146.807 21.928ZM156.791 34.264C152.999 34.264 150.527 31.6 150.527 28.072C150.527 24.544 152.999 21.88 156.791 21.88C160.559 21.88 163.031 24.544 163.031 28.072C163.031 31.6 160.559 34.264 156.791 34.264ZM156.791 32.2C159.215 32.2 160.799 30.328 160.799 28.072C160.799 25.816 159.215 23.944 156.791 23.944C154.343 23.944 152.759 25.816 152.759 28.072C152.759 30.328 154.343 32.2 156.791 32.2ZM175.358 17.2H177.59V34H175.598L175.574 32.248C174.662 33.496 173.006 34.264 171.038 34.264C167.63 34.264 165.158 31.816 165.158 28.072C165.158 24.328 167.63 21.88 171.038 21.88C172.862 21.88 174.422 22.528 175.358 23.632V17.2ZM171.374 32.2C173.702 32.2 175.358 30.496 175.358 28.072C175.358 25.648 173.702 23.944 171.374 23.944C169.046 23.944 167.39 25.648 167.39 28.072C167.39 30.496 169.046 32.2 171.374 32.2ZM190.067 22.144H192.299V34H190.307L190.283 32.32C189.275 33.568 187.811 34.216 186.131 34.216C183.083 34.216 181.115 32.08 181.115 28.72V22.144H183.347V28.576C183.347 30.856 184.499 32.152 186.443 32.152C188.603 32.152 190.067 30.592 190.067 28.456V22.144ZM201.456 34.264C197.736 34.264 195.192 31.792 195.192 28.072C195.192 24.4 197.76 21.88 201.432 21.88C203.136 21.88 204.6 22.48 205.872 23.704L204.48 25.192C203.688 24.376 202.608 23.944 201.456 23.944C199.128 23.944 197.424 25.6 197.424 28.072C197.424 30.544 199.104 32.2 201.456 32.2C202.68 32.2 203.808 31.72 204.6 30.88L205.992 32.416C204.696 33.688 203.256 34.264 201.456 34.264ZM215.559 31.768L216.207 33.616C215.343 34 214.575 34.168 213.687 34.168C211.191 34.168 209.943 32.728 209.943 30.064V24.088H207.615V22.144H209.943V18.952L212.151 18.712V22.144H215.751V24.088H212.151V30.064C212.151 31.384 212.655 32.152 213.951 32.152C214.455 32.152 215.055 31.984 215.559 31.768ZM222.982 34.264C220.966 34.264 219.19 33.64 217.654 32.44L218.782 30.784C219.814 31.696 221.374 32.248 223.03 32.248C224.734 32.248 225.79 31.648 225.79 30.64C225.79 29.68 224.95 29.224 222.814 28.96C219.622 28.576 218.038 27.4 218.038 25.408C218.038 23.296 220.054 21.88 223.078 21.88C224.878 21.88 226.39 22.336 227.734 23.296L226.702 24.928C225.622 24.16 224.47 23.824 223.174 23.824C221.254 23.824 220.222 24.376 220.222 25.384C220.222 26.272 220.99 26.728 223.006 26.992C226.534 27.448 227.998 28.504 227.998 30.664C227.998 32.8 225.982 34.264 222.982 34.264Z"/>
</mask>
<path d="M38.466 17.2H40.962L34.026 34H31.482L24.522 17.2H27.018L30.114 24.784L32.754 31.312L38.466 17.2ZM44.1565 20.104C43.2925 20.104 42.6445 19.48 42.6445 18.64C42.6445 17.776 43.2925 17.152 44.1565 17.152C45.0445 17.152 45.6685 17.776 45.6685 18.64C45.6685 19.48 45.0445 20.104 44.1565 20.104ZM43.0285 34V22.144H45.2605V34H43.0285ZM54.2438 21.904C58.3238 21.904 60.6278 24.592 60.2918 28.96H50.4758C50.6918 31 52.2518 32.248 54.5318 32.248C55.9718 32.248 57.4358 31.696 58.1318 30.856L59.5718 32.224C58.4438 33.52 56.5238 34.312 54.4838 34.312C50.6678 34.312 48.1718 31.84 48.1718 28.072C48.1718 24.424 50.6198 21.904 54.2438 21.904ZM54.3158 23.896C52.2278 23.896 50.8598 25.072 50.4998 27.064H58.1798C57.9878 25.144 56.5238 23.896 54.3158 23.896ZM78.0152 22.144H80.3672L76.4072 34H73.9592L72.8072 30.544L70.9352 25.336L69.0632 30.544L67.8872 34H65.4392L61.4552 22.144H63.8312L65.2712 26.704L66.6872 31.432L69.9272 22.144H71.9192L75.1112 31.504L78.0152 22.144ZM101.498 34L99.8897 30.328H90.4817L88.8737 34H86.3297L93.8657 17.2H96.5057L104.042 34H101.498ZM95.1857 19.624L91.4417 28.168H98.9297L95.1857 19.624ZM106.291 34V17.2H108.523V34H106.291ZM112.226 34V17.2H114.458V34H112.226ZM132.536 17.2C136.16 17.2 138.488 19.528 138.488 22.96C138.488 26.416 136.16 28.744 132.536 28.744H127.208V34H124.88V17.2H132.536ZM132.416 26.584C134.72 26.584 136.184 25.144 136.184 22.96C136.184 20.776 134.72 19.36 132.416 19.36H127.208V26.584H132.416ZM146.807 21.928C147.935 21.928 149.015 22.288 149.711 22.864L148.703 24.736C148.031 24.304 147.407 24.112 146.687 24.112C144.647 24.112 143.303 25.72 143.303 28.168V34H141.071V22.144H143.063L143.087 24.136C144.023 22.648 145.223 21.928 146.807 21.928ZM156.791 34.264C152.999 34.264 150.527 31.6 150.527 28.072C150.527 24.544 152.999 21.88 156.791 21.88C160.559 21.88 163.031 24.544 163.031 28.072C163.031 31.6 160.559 34.264 156.791 34.264ZM156.791 32.2C159.215 32.2 160.799 30.328 160.799 28.072C160.799 25.816 159.215 23.944 156.791 23.944C154.343 23.944 152.759 25.816 152.759 28.072C152.759 30.328 154.343 32.2 156.791 32.2ZM175.358 17.2H177.59V34H175.598L175.574 32.248C174.662 33.496 173.006 34.264 171.038 34.264C167.63 34.264 165.158 31.816 165.158 28.072C165.158 24.328 167.63 21.88 171.038 21.88C172.862 21.88 174.422 22.528 175.358 23.632V17.2ZM171.374 32.2C173.702 32.2 175.358 30.496 175.358 28.072C175.358 25.648 173.702 23.944 171.374 23.944C169.046 23.944 167.39 25.648 167.39 28.072C167.39 30.496 169.046 32.2 171.374 32.2ZM190.067 22.144H192.299V34H190.307L190.283 32.32C189.275 33.568 187.811 34.216 186.131 34.216C183.083 34.216 181.115 32.08 181.115 28.72V22.144H183.347V28.576C183.347 30.856 184.499 32.152 186.443 32.152C188.603 32.152 190.067 30.592 190.067 28.456V22.144ZM201.456 34.264C197.736 34.264 195.192 31.792 195.192 28.072C195.192 24.4 197.76 21.88 201.432 21.88C203.136 21.88 204.6 22.48 205.872 23.704L204.48 25.192C203.688 24.376 202.608 23.944 201.456 23.944C199.128 23.944 197.424 25.6 197.424 28.072C197.424 30.544 199.104 32.2 201.456 32.2C202.68 32.2 203.808 31.72 204.6 30.88L205.992 32.416C204.696 33.688 203.256 34.264 201.456 34.264ZM215.559 31.768L216.207 33.616C215.343 34 214.575 34.168 213.687 34.168C211.191 34.168 209.943 32.728 209.943 30.064V24.088H207.615V22.144H209.943V18.952L212.151 18.712V22.144H215.751V24.088H212.151V30.064C212.151 31.384 212.655 32.152 213.951 32.152C214.455 32.152 215.055 31.984 215.559 31.768ZM222.982 34.264C220.966 34.264 219.19 33.64 217.654 32.44L218.782 30.784C219.814 31.696 221.374 32.248 223.03 32.248C224.734 32.248 225.79 31.648 225.79 30.64C225.79 29.68 224.95 29.224 222.814 28.96C219.622 28.576 218.038 27.4 218.038 25.408C218.038 23.296 220.054 21.88 223.078 21.88C224.878 21.88 226.39 22.336 227.734 23.296L226.702 24.928C225.622 24.16 224.47 23.824 223.174 23.824C221.254 23.824 220.222 24.376 220.222 25.384C220.222 26.272 220.99 26.728 223.006 26.992C226.534 27.448 227.998 28.504 227.998 30.664C227.998 32.8 225.982 34.264 222.982 34.264Z" fill="#EBF8F7"/>
<path d="M38.466 17.2V17H38.3312L38.2806 17.125L38.466 17.2ZM40.962 17.2L41.1469 17.2763L41.261 17H40.962V17.2ZM34.026 34V34.2H34.1598L34.2109 34.0763L34.026 34ZM31.482 34L31.2973 34.0765L31.3484 34.2H31.482V34ZM24.522 17.2V17H24.2227L24.3373 17.2765L24.522 17.2ZM27.018 17.2L27.2032 17.1244L27.1524 17H27.018V17.2ZM30.114 24.784L30.2994 24.709L30.2992 24.7084L30.114 24.784ZM32.754 31.312L32.5686 31.387L32.754 31.8453L32.9394 31.387L32.754 31.312ZM38.466 17.2V17.4H40.962V17.2V17H38.466V17.2ZM40.962 17.2L40.7772 17.1237L33.8412 33.9237L34.026 34L34.2109 34.0763L41.1469 17.2763L40.962 17.2ZM34.026 34V33.8H31.482V34V34.2H34.026V34ZM31.482 34L31.6668 33.9235L24.7068 17.1235L24.522 17.2L24.3373 17.2765L31.2973 34.0765L31.482 34ZM24.522 17.2V17.4H27.018V17.2V17H24.522V17.2ZM27.018 17.2L26.8329 17.2756L29.9289 24.8596L30.114 24.784L30.2992 24.7084L27.2032 17.1244L27.018 17.2ZM30.114 24.784L29.9286 24.859L32.5686 31.387L32.754 31.312L32.9394 31.237L30.2994 24.709L30.114 24.784ZM32.754 31.312L32.9394 31.387L38.6514 17.275L38.466 17.2L38.2806 17.125L32.5686 31.237L32.754 31.312ZM43.0285 34H42.8285V34.2H43.0285V34ZM43.0285 22.144V21.944H42.8285V22.144H43.0285ZM45.2605 22.144H45.4605V21.944H45.2605V22.144ZM45.2605 34V34.2H45.4605V34H45.2605ZM44.1565 20.104V19.904C43.3965 19.904 42.8445 19.3632 42.8445 18.64H42.6445H42.4445C42.4445 19.5968 43.1885 20.304 44.1565 20.304V20.104ZM42.6445 18.64H42.8445C42.8445 17.8907 43.3987 17.352 44.1565 17.352V17.152V16.952C43.1863 16.952 42.4445 17.6613 42.4445 18.64H42.6445ZM44.1565 17.152V17.352C44.9361 17.352 45.4685 17.8886 45.4685 18.64H45.6685H45.8685C45.8685 17.6634 45.1528 16.952 44.1565 16.952V17.152ZM45.6685 18.64H45.4685C45.4685 19.3653 44.9383 19.904 44.1565 19.904V20.104V20.304C45.1506 20.304 45.8685 19.5947 45.8685 18.64H45.6685ZM43.0285 34H43.2285V22.144H43.0285H42.8285V34H43.0285ZM43.0285 22.144V22.344H45.2605V22.144V21.944H43.0285V22.144ZM45.2605 22.144H45.0605V34H45.2605H45.4605V22.144H45.2605ZM45.2605 34V33.8H43.0285V34V34.2H45.2605V34ZM60.2918 28.96V29.16H60.477L60.4912 28.9753L60.2918 28.96ZM50.4758 28.96V28.76H50.2535L50.2769 28.9811L50.4758 28.96ZM58.1318 30.856L58.2695 30.711L58.1143 30.5636L57.9778 30.7284L58.1318 30.856ZM59.5718 32.224L59.7226 32.3553L59.8484 32.2109L59.7095 32.079L59.5718 32.224ZM50.4998 27.064L50.303 27.0284L50.2604 27.264H50.4998V27.064ZM58.1798 27.064V27.264H58.4008L58.3788 27.0441L58.1798 27.064ZM54.2438 21.904V22.104C56.2388 22.104 57.7738 22.7597 58.7719 23.9242C59.772 25.0909 60.2576 26.7971 60.0924 28.9447L60.2918 28.96L60.4912 28.9753C60.662 26.7549 60.1636 24.9331 59.0756 23.6638C57.9857 22.3923 56.3288 21.704 54.2438 21.704V21.904ZM60.2918 28.96V28.76H50.4758V28.96V29.16H60.2918V28.96ZM50.4758 28.96L50.2769 28.9811C50.39 30.0496 50.8576 30.9216 51.6041 31.5246C52.3486 32.1259 53.3558 32.448 54.5318 32.448V32.248V32.048C53.4277 32.048 52.5149 31.7461 51.8554 31.2134C51.198 30.6824 50.7775 29.9104 50.6747 28.9389L50.4758 28.96ZM54.5318 32.248V32.448C56.0082 32.448 57.5392 31.8847 58.2858 30.9836L58.1318 30.856L57.9778 30.7284C57.3324 31.5073 55.9354 32.048 54.5318 32.048V32.248ZM58.1318 30.856L57.994 31.001L59.434 32.369L59.5718 32.224L59.7095 32.079L58.2695 30.711L58.1318 30.856ZM59.5718 32.224L59.4209 32.0927C58.3378 33.3371 56.4773 34.112 54.4838 34.112V34.312V34.512C56.5702 34.512 58.5498 33.7029 59.7226 32.3553L59.5718 32.224ZM54.4838 34.312V34.112C52.6197 34.112 51.0952 33.509 50.0374 32.4628C48.9799 31.4168 48.3718 29.9108 48.3718 28.072H48.1718H47.9718C47.9718 30.0012 48.6117 31.6152 49.7561 32.7472C50.9004 33.879 52.5319 34.512 54.4838 34.512V34.312ZM48.1718 28.072H48.3718C48.3718 26.2935 48.9678 24.804 49.9916 23.76C51.015 22.7164 52.4796 22.104 54.2438 22.104V21.904V21.704C52.3839 21.704 50.8125 22.3516 49.706 23.48C48.5998 24.608 47.9718 26.2025 47.9718 28.072H48.1718ZM54.3158 23.896V23.696C53.2335 23.696 52.3215 24.0014 51.6313 24.5797C50.9413 25.1579 50.4897 25.995 50.303 27.0284L50.4998 27.064L50.6966 27.0996C50.8698 26.141 51.2822 25.3941 51.8882 24.8863C52.4941 24.3786 53.3101 24.096 54.3158 24.096V23.896ZM50.4998 27.064V27.264H58.1798V27.064V26.864H50.4998V27.064ZM58.1798 27.064L58.3788 27.0441C58.278 26.0361 57.8411 25.1942 57.1314 24.606C56.4231 24.0189 55.4573 23.696 54.3158 23.696V23.896V24.096C55.3823 24.096 56.2525 24.3971 56.8762 24.914C57.4984 25.4298 57.8896 26.1719 57.9808 27.0839L58.1798 27.064ZM78.0152 22.144V21.944H77.8679L77.8242 22.0847L78.0152 22.144ZM80.3672 22.144L80.5569 22.2074L80.6449 21.944H80.3672V22.144ZM76.4072 34V34.2H76.5513L76.5969 34.0634L76.4072 34ZM73.9592 34L73.7695 34.0632L73.8151 34.2H73.9592V34ZM72.8072 30.544L72.997 30.4807L72.9954 30.4763L72.8072 30.544ZM70.9352 25.336L71.1234 25.2683L70.9352 24.7447L70.747 25.2683L70.9352 25.336ZM69.0632 30.544L68.875 30.4763L68.8739 30.4796L69.0632 30.544ZM67.8872 34V34.2H68.0304L68.0766 34.0644L67.8872 34ZM65.4392 34L65.2496 34.0637L65.2954 34.2H65.4392V34ZM61.4552 22.144V21.944H61.177L61.2656 22.2077L61.4552 22.144ZM63.8312 22.144L64.0219 22.0838L63.9778 21.944H63.8312V22.144ZM65.2712 26.704L65.4628 26.6466L65.4619 26.6438L65.2712 26.704ZM66.6872 31.432L66.4956 31.4894L66.6727 32.0807L66.8761 31.4979L66.6872 31.432ZM69.9272 22.144V21.944H69.7852L69.7384 22.0781L69.9272 22.144ZM71.9192 22.144L72.1085 22.0794L72.0623 21.944H71.9192V22.144ZM75.1112 31.504L74.9219 31.5686L75.1202 32.15L75.3022 31.5633L75.1112 31.504ZM78.0152 22.144V22.344H80.3672V22.144V21.944H78.0152V22.144ZM80.3672 22.144L80.1775 22.0806L76.2175 33.9366L76.4072 34L76.5969 34.0634L80.5569 22.2074L80.3672 22.144ZM76.4072 34V33.8H73.9592V34V34.2H76.4072V34ZM73.9592 34L74.149 33.9368L72.997 30.4808L72.8072 30.544L72.6175 30.6072L73.7695 34.0632L73.9592 34ZM72.8072 30.544L72.9954 30.4763L71.1234 25.2683L70.9352 25.336L70.747 25.4037L72.619 30.6117L72.8072 30.544ZM70.9352 25.336L70.747 25.2683L68.875 30.4763L69.0632 30.544L69.2514 30.6117L71.1234 25.4037L70.9352 25.336ZM69.0632 30.544L68.8739 30.4796L67.6979 33.9356L67.8872 34L68.0766 34.0644L69.2526 30.6084L69.0632 30.544ZM67.8872 34V33.8H65.4392V34V34.2H67.8872V34ZM65.4392 34L65.6288 33.9363L61.6448 22.0803L61.4552 22.144L61.2656 22.2077L65.2496 34.0637L65.4392 34ZM61.4552 22.144V22.344H63.8312V22.144V21.944H61.4552V22.144ZM63.8312 22.144L63.6405 22.2042L65.0805 26.7642L65.2712 26.704L65.4619 26.6438L64.0219 22.0838L63.8312 22.144ZM65.2712 26.704L65.0796 26.7614L66.4956 31.4894L66.6872 31.432L66.8788 31.3746L65.4628 26.6466L65.2712 26.704ZM66.6872 31.432L66.8761 31.4979L70.1161 22.2099L69.9272 22.144L69.7384 22.0781L66.4984 31.3661L66.6872 31.432ZM69.9272 22.144V22.344H71.9192V22.144V21.944H69.9272V22.144ZM71.9192 22.144L71.7299 22.2086L74.9219 31.5686L75.1112 31.504L75.3005 31.4394L72.1085 22.0794L71.9192 22.144ZM75.1112 31.504L75.3022 31.5633L78.2062 22.2033L78.0152 22.144L77.8242 22.0847L74.9202 31.4447L75.1112 31.504ZM101.498 34L101.315 34.0802L101.367 34.2H101.498V34ZM99.8897 30.328L100.073 30.2478L100.02 30.128H99.8897V30.328ZM90.4817 30.328V30.128H90.351L90.2985 30.2478L90.4817 30.328ZM88.8737 34V34.2H89.0045L89.0569 34.0802L88.8737 34ZM86.3297 34L86.1472 33.9181L86.0208 34.2H86.3297V34ZM93.8657 17.2V17H93.7362L93.6832 17.1181L93.8657 17.2ZM96.5057 17.2L96.6882 17.1181L96.6352 17H96.5057V17.2ZM104.042 34V34.2H104.351L104.224 33.9181L104.042 34ZM95.1857 19.624L95.3689 19.5437L95.1857 19.1257L95.0025 19.5437L95.1857 19.624ZM91.4417 28.168L91.2585 28.0877L91.1357 28.368H91.4417V28.168ZM98.9297 28.168V28.368H99.2357L99.1129 28.0877L98.9297 28.168ZM101.498 34L101.681 33.9198L100.073 30.2478L99.8897 30.328L99.7065 30.4082L101.315 34.0802L101.498 34ZM99.8897 30.328V30.128H90.4817V30.328V30.528H99.8897V30.328ZM90.4817 30.328L90.2985 30.2478L88.6905 33.9198L88.8737 34L89.0569 34.0802L90.6649 30.4082L90.4817 30.328ZM88.8737 34V33.8H86.3297V34V34.2H88.8737V34ZM86.3297 34L86.5122 34.0819L94.0482 17.2819L93.8657 17.2L93.6832 17.1181L86.1472 33.9181L86.3297 34ZM93.8657 17.2V17.4H96.5057V17.2V17H93.8657V17.2ZM96.5057 17.2L96.3232 17.2819L103.859 34.0819L104.042 34L104.224 33.9181L96.6882 17.1181L96.5057 17.2ZM104.042 34V33.8H101.498V34V34.2H104.042V34ZM95.1857 19.624L95.0025 19.5437L91.2585 28.0877L91.4417 28.168L91.6249 28.2483L95.3689 19.7043L95.1857 19.624ZM91.4417 28.168V28.368H98.9297V28.168V27.968H91.4417V28.168ZM98.9297 28.168L99.1129 28.0877L95.3689 19.5437L95.1857 19.624L95.0025 19.7043L98.7465 28.2483L98.9297 28.168ZM106.291 34H106.091V34.2H106.291V34ZM106.291 17.2V17H106.091V17.2H106.291ZM108.523 17.2H108.723V17H108.523V17.2ZM108.523 34V34.2H108.723V34H108.523ZM106.291 34H106.491V17.2H106.291H106.091V34H106.291ZM106.291 17.2V17.4H108.523V17.2V17H106.291V17.2ZM108.523 17.2H108.323V34H108.523H108.723V17.2H108.523ZM108.523 34V33.8H106.291V34V34.2H108.523V34ZM112.226 34H112.026V34.2H112.226V34ZM112.226 17.2V17H112.026V17.2H112.226ZM114.458 17.2H114.658V17H114.458V17.2ZM114.458 34V34.2H114.658V34H114.458ZM112.226 34H112.426V17.2H112.226H112.026V34H112.226ZM112.226 17.2V17.4H114.458V17.2V17H112.226V17.2ZM114.458 17.2H114.258V34H114.458H114.658V17.2H114.458ZM114.458 34V33.8H112.226V34V34.2H114.458V34ZM127.208 28.744V28.544H127.008V28.744H127.208ZM127.208 34V34.2H127.408V34H127.208ZM124.88 34H124.68V34.2H124.88V34ZM124.88 17.2V17H124.68V17.2H124.88ZM127.208 19.36V19.16H127.008V19.36H127.208ZM127.208 26.584H127.008V26.784H127.208V26.584ZM132.536 17.2V17.4C134.305 17.4 135.74 17.9673 136.732 18.9361C137.723 19.9046 138.288 21.2905 138.288 22.96H138.488H138.688C138.688 21.1975 138.09 19.7034 137.011 18.6499C135.933 17.5967 134.392 17 132.536 17V17.2ZM138.488 22.96H138.288C138.288 24.6419 137.723 26.0338 136.732 27.0051C135.74 27.9768 134.305 28.544 132.536 28.544V28.744V28.944C134.392 28.944 135.933 28.3472 137.011 27.2909C138.09 26.2342 138.688 24.7341 138.688 22.96H138.488ZM132.536 28.744V28.544H127.208V28.744V28.944H132.536V28.744ZM127.208 28.744H127.008V34H127.208H127.408V28.744H127.208ZM127.208 34V33.8H124.88V34V34.2H127.208V34ZM124.88 34H125.08V17.2H124.88H124.68V34H124.88ZM124.88 17.2V17.4H132.536V17.2V17H124.88V17.2ZM132.416 26.584V26.784C133.61 26.784 134.606 26.4102 135.304 25.7347C136.002 25.0587 136.384 24.098 136.384 22.96H136.184H135.984C135.984 24.006 135.635 24.8573 135.025 25.4473C134.415 26.0378 133.526 26.384 132.416 26.384V26.584ZM136.184 22.96H136.384C136.384 21.8219 136.002 20.8668 135.303 20.1966C134.605 19.5273 133.61 19.16 132.416 19.16V19.36V19.56C133.527 19.56 134.416 19.9007 135.026 20.4854C135.635 21.0692 135.984 21.9141 135.984 22.96H136.184ZM132.416 19.36V19.16H127.208V19.36V19.56H132.416V19.36ZM127.208 19.36H127.008V26.584H127.208H127.408V19.36H127.208ZM127.208 26.584V26.784H132.416V26.584V26.384H127.208V26.584ZM149.711 22.864L149.887 22.9588L149.965 22.8145L149.839 22.7099L149.711 22.864ZM148.703 24.736L148.595 24.9042L148.777 25.0211L148.879 24.8308L148.703 24.736ZM143.303 34V34.2H143.503V34H143.303ZM141.071 34H140.871V34.2H141.071V34ZM141.071 22.144V21.944H140.871V22.144H141.071ZM143.063 22.144L143.263 22.1416L143.261 21.944H143.063V22.144ZM143.087 24.136L142.887 24.1384L142.895 24.8166L143.257 24.2425L143.087 24.136ZM146.807 21.928V22.128C147.898 22.128 148.93 22.4771 149.584 23.0181L149.711 22.864L149.839 22.7099C149.1 22.0989 147.973 21.728 146.807 21.728V21.928ZM149.711 22.864L149.535 22.7692L148.527 24.6412L148.703 24.736L148.879 24.8308L149.887 22.9588L149.711 22.864ZM148.703 24.736L148.811 24.5678C148.111 24.1172 147.449 23.912 146.687 23.912V24.112V24.312C147.365 24.312 147.952 24.4908 148.595 24.9042L148.703 24.736ZM146.687 24.112V23.912C145.61 23.912 144.707 24.3384 144.077 25.0938C143.449 25.8458 143.103 26.9088 143.103 28.168H143.303H143.503C143.503 26.9792 143.83 26.0142 144.384 25.3502C144.935 24.6895 145.724 24.312 146.687 24.312V24.112ZM143.303 28.168H143.103V34H143.303H143.503V28.168H143.303ZM143.303 34V33.8H141.071V34V34.2H143.303V34ZM141.071 34H141.271V22.144H141.071H140.871V34H141.071ZM141.071 22.144V22.344H143.063V22.144V21.944H141.071V22.144ZM143.063 22.144L142.863 22.1464L142.887 24.1384L143.087 24.136L143.287 24.1336L143.263 22.1416L143.063 22.144ZM143.087 24.136L143.257 24.2425C143.712 23.5187 144.225 22.9921 144.807 22.6459C145.387 22.3003 146.047 22.128 146.807 22.128V21.928V21.728C145.983 21.728 145.251 21.9157 144.602 22.3021C143.954 22.6879 143.399 23.2653 142.918 24.0295L143.087 24.136ZM156.791 34.264V34.064C154.944 34.064 153.431 33.416 152.379 32.3505C151.328 31.2844 150.727 29.7885 150.727 28.072H150.527H150.327C150.327 29.8835 150.962 31.4836 152.095 32.6315C153.228 33.78 154.847 34.464 156.791 34.464V34.264ZM150.527 28.072H150.727C150.727 26.3555 151.328 24.8596 152.379 23.7935C153.431 22.728 154.944 22.08 156.791 22.08V21.88V21.68C154.847 21.68 153.228 22.364 152.095 23.5125C150.962 24.6604 150.327 26.2605 150.327 28.072H150.527ZM156.791 21.88V22.08C158.626 22.08 160.133 22.7277 161.182 23.7933C162.23 24.8594 162.831 26.3555 162.831 28.072H163.031H163.231C163.231 26.2605 162.596 24.6606 161.467 23.5127C160.337 22.3643 158.724 21.68 156.791 21.68V21.88ZM163.031 28.072H162.831C162.831 29.7885 162.23 31.2846 161.182 32.3507C160.133 33.4163 158.626 34.064 156.791 34.064V34.264V34.464C158.724 34.464 160.337 33.7797 161.467 32.6313C162.596 31.4834 163.231 29.8835 163.231 28.072H163.031ZM156.791 32.2V32.4C159.339 32.4 160.999 30.425 160.999 28.072H160.799H160.599C160.599 30.231 159.092 32 156.791 32V32.2ZM160.799 28.072H160.999C160.999 25.719 159.339 23.744 156.791 23.744V23.944V24.144C159.092 24.144 160.599 25.913 160.599 28.072H160.799ZM156.791 23.944V23.744C154.22 23.744 152.559 25.7182 152.559 28.072H152.759H152.959C152.959 25.9138 154.466 24.144 156.791 24.144V23.944ZM152.759 28.072H152.559C152.559 30.4258 154.22 32.4 156.791 32.4V32.2V32C154.466 32 152.959 30.2302 152.959 28.072H152.759ZM175.358 17.2V17H175.158V17.2H175.358ZM177.59 17.2H177.79V17H177.59V17.2ZM177.59 34V34.2H177.79V34H177.59ZM175.598 34L175.398 34.0027L175.401 34.2H175.598V34ZM175.574 32.248L175.774 32.2453L175.766 31.6466L175.413 32.13L175.574 32.248ZM175.358 23.632L175.206 23.7613L175.558 24.1772V23.632H175.358ZM175.358 17.2V17.4H177.59V17.2V17H175.358V17.2ZM177.59 17.2H177.39V34H177.59H177.79V17.2H177.59ZM177.59 34V33.8H175.598V34V34.2H177.59V34ZM175.598 34L175.798 33.9973L175.774 32.2453L175.574 32.248L175.374 32.2507L175.398 34.0027L175.598 34ZM175.574 32.248L175.413 32.13C174.546 33.3156 172.957 34.064 171.038 34.064V34.264V34.464C173.055 34.464 174.778 33.6764 175.736 32.366L175.574 32.248ZM171.038 34.264V34.064C169.384 34.064 167.967 33.4707 166.964 32.433C165.961 31.3951 165.358 29.8992 165.358 28.072H165.158H164.958C164.958 29.9888 165.592 31.589 166.676 32.711C167.761 33.8333 169.285 34.464 171.038 34.464V34.264ZM165.158 28.072H165.358C165.358 26.2448 165.961 24.749 166.964 23.711C167.967 22.6733 169.384 22.08 171.038 22.08V21.88V21.68C169.285 21.68 167.761 22.3107 166.676 23.433C165.592 24.555 164.958 26.1552 164.958 28.072H165.158ZM171.038 21.88V22.08C172.818 22.08 174.316 22.712 175.206 23.7613L175.358 23.632L175.511 23.5027C174.528 22.344 172.907 21.68 171.038 21.68V21.88ZM175.358 23.632H175.558V17.2H175.358H175.158V23.632H175.358ZM171.374 32.2V32.4C172.589 32.4 173.638 31.9545 174.383 31.184C175.128 30.4139 175.558 29.3304 175.558 28.072H175.358H175.158C175.158 29.2376 174.761 30.2181 174.096 30.906C173.431 31.5935 172.488 32 171.374 32V32.2ZM175.358 28.072H175.558C175.558 26.8136 175.128 25.7301 174.383 24.96C173.638 24.1895 172.589 23.744 171.374 23.744V23.944V24.144C172.488 24.144 173.431 24.5505 174.096 25.238C174.761 25.9259 175.158 26.9064 175.158 28.072H175.358ZM171.374 23.944V23.744C170.16 23.744 169.111 24.1895 168.366 24.96C167.621 25.7301 167.19 26.8136 167.19 28.072H167.39H167.59C167.59 26.9064 167.988 25.9259 168.653 25.238C169.318 24.5505 170.261 24.144 171.374 24.144V23.944ZM167.39 28.072H167.19C167.19 29.3304 167.621 30.4139 168.366 31.184C169.111 31.9545 170.16 32.4 171.374 32.4V32.2V32C170.261 32 169.318 31.5935 168.653 30.906C167.988 30.2181 167.59 29.2376 167.59 28.072H167.39ZM190.067 22.144V21.944H189.867V22.144H190.067ZM192.299 22.144H192.499V21.944H192.299V22.144ZM192.299 34V34.2H192.499V34H192.299ZM190.307 34L190.107 34.0029L190.11 34.2H190.307V34ZM190.283 32.32L190.483 32.3171L190.476 31.7639L190.128 32.1943L190.283 32.32ZM181.115 22.144V21.944H180.915V22.144H181.115ZM183.347 22.144H183.547V21.944H183.347V22.144ZM190.067 22.144V22.344H192.299V22.144V21.944H190.067V22.144ZM192.299 22.144H192.099V34H192.299H192.499V22.144H192.299ZM192.299 34V33.8H190.307V34V34.2H192.299V34ZM190.307 34L190.507 33.9971L190.483 32.3171L190.283 32.32L190.083 32.3229L190.107 34.0029L190.307 34ZM190.283 32.32L190.128 32.1943C189.162 33.3907 187.757 34.016 186.131 34.016V34.216V34.416C187.866 34.416 189.389 33.7453 190.439 32.4457L190.283 32.32ZM186.131 34.216V34.016C184.656 34.016 183.459 33.5006 182.628 32.593C181.796 31.6835 181.315 30.3615 181.315 28.72H181.115H180.915C180.915 30.4385 181.419 31.8645 182.333 32.863C183.248 33.8634 184.558 34.416 186.131 34.416V34.216ZM181.115 28.72H181.315V22.144H181.115H180.915V28.72H181.115ZM181.115 22.144V22.344H183.347V22.144V21.944H181.115V22.144ZM183.347 22.144H183.147V28.576H183.347H183.547V22.144H183.347ZM183.347 28.576H183.147C183.147 29.7474 183.443 30.694 184.016 31.3504C184.591 32.0106 185.425 32.352 186.443 32.352V32.152V31.952C185.518 31.952 184.804 31.6454 184.317 31.0876C183.828 30.526 183.547 29.6846 183.547 28.576H183.347ZM186.443 32.152V32.352C187.574 32.352 188.533 31.9429 189.209 31.2441C189.885 30.546 190.267 29.5703 190.267 28.456H190.067H189.867C189.867 29.4777 189.518 30.35 188.922 30.9659C188.326 31.5811 187.473 31.952 186.443 31.952V32.152ZM190.067 28.456H190.267V22.144H190.067H189.867V28.456H190.067ZM205.872 23.704L206.018 23.8406L206.153 23.6966L206.011 23.5599L205.872 23.704ZM204.48 25.192L204.337 25.3313L204.483 25.4819L204.626 25.3286L204.48 25.192ZM204.6 30.88L204.749 30.7457L204.603 30.5854L204.455 30.7428L204.6 30.88ZM205.992 32.416L206.133 32.5587L206.27 32.4241L206.141 32.2817L205.992 32.416ZM201.456 34.264V34.064C199.641 34.064 198.128 33.4617 197.07 32.4204C196.011 31.3794 195.392 29.885 195.392 28.072H195.192H194.992C194.992 29.979 195.645 31.5806 196.789 32.7056C197.933 33.8303 199.551 34.464 201.456 34.464V34.264ZM195.192 28.072H195.392C195.392 26.284 196.017 24.789 197.076 23.7412C198.136 22.6932 199.643 22.08 201.432 22.08V21.88V21.68C199.55 21.68 197.937 22.3268 196.795 23.4568C195.652 24.587 194.992 26.188 194.992 28.072H195.192ZM201.432 21.88V22.08C203.083 22.08 204.498 22.6587 205.734 23.8481L205.872 23.704L206.011 23.5599C204.703 22.3013 203.19 21.68 201.432 21.68V21.88ZM205.872 23.704L205.726 23.5674L204.334 25.0554L204.48 25.192L204.626 25.3286L206.018 23.8406L205.872 23.704ZM204.48 25.192L204.624 25.0527C203.792 24.1955 202.659 23.744 201.456 23.744V23.944V24.144C202.558 24.144 203.585 24.5565 204.337 25.3313L204.48 25.192ZM201.456 23.944V23.744C200.244 23.744 199.183 24.1761 198.425 24.9402C197.668 25.7044 197.224 26.7888 197.224 28.072H197.424H197.624C197.624 26.8832 198.033 25.9036 198.709 25.2218C199.386 24.5399 200.341 24.144 201.456 24.144V23.944ZM197.424 28.072H197.224C197.224 29.3544 197.661 30.4389 198.416 31.2035C199.171 31.9682 200.232 32.4 201.456 32.4V32.2V32C200.329 32 199.374 31.6038 198.701 30.9225C198.028 30.2411 197.624 29.2616 197.624 28.072H197.424ZM201.456 32.2V32.4C202.733 32.4 203.914 31.8991 204.746 31.0172L204.6 30.88L204.455 30.7428C203.702 31.5409 202.628 32 201.456 32V32.2ZM204.6 30.88L204.452 31.0143L205.844 32.5503L205.992 32.416L206.141 32.2817L204.749 30.7457L204.6 30.88ZM205.992 32.416L205.852 32.2733C204.594 33.508 203.205 34.064 201.456 34.064V34.264V34.464C203.308 34.464 204.799 33.868 206.133 32.5587L205.992 32.416ZM215.559 31.768L215.748 31.7018L215.677 31.4999L215.481 31.5842L215.559 31.768ZM216.207 33.616L216.289 33.7988L216.457 33.7239L216.396 33.5498L216.207 33.616ZM209.943 24.088H210.143V23.888H209.943V24.088ZM207.615 24.088H207.415V24.288H207.615V24.088ZM207.615 22.144V21.944H207.415V22.144H207.615ZM209.943 22.144V22.344H210.143V22.144H209.943ZM209.943 18.952L209.922 18.7532L209.743 18.7726V18.952H209.943ZM212.151 18.712H212.351V18.4891L212.13 18.5132L212.151 18.712ZM212.151 22.144H211.951V22.344H212.151V22.144ZM215.751 22.144H215.951V21.944H215.751V22.144ZM215.751 24.088V24.288H215.951V24.088H215.751ZM212.151 24.088V23.888H211.951V24.088H212.151ZM215.559 31.768L215.371 31.8342L216.019 33.6822L216.207 33.616L216.396 33.5498L215.748 31.7018L215.559 31.768ZM216.207 33.616L216.126 33.4332C215.286 33.8066 214.546 33.968 213.687 33.968V34.168V34.368C214.605 34.368 215.401 34.1934 216.289 33.7988L216.207 33.616ZM213.687 34.168V33.968C212.478 33.968 211.604 33.6203 211.028 32.9812C210.449 32.3383 210.143 31.3682 210.143 30.064H209.943H209.743C209.743 31.4238 210.062 32.5057 210.731 33.2488C211.403 33.9957 212.401 34.368 213.687 34.368V34.168ZM209.943 30.064H210.143V24.088H209.943H209.743V30.064H209.943ZM209.943 24.088V23.888H207.615V24.088V24.288H209.943V24.088ZM207.615 24.088H207.815V22.144H207.615H207.415V24.088H207.615ZM207.615 22.144V22.344H209.943V22.144V21.944H207.615V22.144ZM209.943 22.144H210.143V18.952H209.943H209.743V22.144H209.943ZM209.943 18.952L209.965 19.1508L212.173 18.9108L212.151 18.712L212.13 18.5132L209.922 18.7532L209.943 18.952ZM212.151 18.712H211.951V22.144H212.151H212.351V18.712H212.151ZM212.151 22.144V22.344H215.751V22.144V21.944H212.151V22.144ZM215.751 22.144H215.551V24.088H215.751H215.951V22.144H215.751ZM215.751 24.088V23.888H212.151V24.088V24.288H215.751V24.088ZM212.151 24.088H211.951V30.064H212.151H212.351V24.088H212.151ZM212.151 30.064H211.951C211.951 30.7434 212.08 31.3199 212.41 31.7286C212.747 32.146 213.263 32.352 213.951 32.352V32.152V31.952C213.344 31.952 212.96 31.774 212.721 31.4774C212.475 31.1721 212.351 30.7046 212.351 30.064H212.151ZM213.951 32.152V32.352C214.493 32.352 215.121 32.1735 215.638 31.9518L215.559 31.768L215.481 31.5842C214.99 31.7945 214.418 31.952 213.951 31.952V32.152ZM217.654 32.44L217.489 32.3274L217.383 32.4823L217.531 32.5976L217.654 32.44ZM218.782 30.784L218.914 30.6341L218.744 30.4839L218.617 30.6714L218.782 30.784ZM222.814 28.96L222.839 28.7615L222.838 28.7614L222.814 28.96ZM227.734 23.296L227.903 23.4029L228.004 23.2431L227.85 23.1333L227.734 23.296ZM226.702 24.928L226.586 25.091L226.758 25.2134L226.871 25.0349L226.702 24.928ZM223.006 26.992L222.98 27.1903L222.98 27.1903L223.006 26.992ZM222.982 34.264V34.064C221.011 34.064 219.278 33.455 217.777 32.2824L217.654 32.44L217.531 32.5976C219.102 33.825 220.921 34.464 222.982 34.464V34.264ZM217.654 32.44L217.819 32.5526L218.947 30.8966L218.782 30.784L218.617 30.6714L217.489 32.3274L217.654 32.44ZM218.782 30.784L218.65 30.9339C219.724 31.8832 221.333 32.448 223.03 32.448V32.248V32.048C221.415 32.048 219.904 31.5088 218.914 30.6341L218.782 30.784ZM223.03 32.248V32.448C223.901 32.448 224.63 32.2953 225.149 31.9951C225.676 31.6901 225.99 31.2279 225.99 30.64H225.79H225.59C225.59 31.0601 225.376 31.4019 224.949 31.6489C224.514 31.9007 223.863 32.048 223.03 32.048V32.248ZM225.79 30.64H225.99C225.99 30.3696 225.93 30.1233 225.796 29.9047C225.661 29.6871 225.461 29.5103 225.201 29.3645C224.687 29.0771 223.909 28.8939 222.839 28.7615L222.814 28.96L222.789 29.1585C223.854 29.2901 224.565 29.4669 225.005 29.7135C225.222 29.8347 225.365 29.9684 225.455 30.1146C225.545 30.2597 225.59 30.4304 225.59 30.64H225.79ZM222.814 28.96L222.838 28.7614C221.257 28.5713 220.103 28.1875 219.348 27.6265C218.604 27.0735 218.238 26.3413 218.238 25.408H218.038H217.838C217.838 26.4667 218.263 27.3185 219.11 27.9475C219.945 28.5685 221.179 28.9647 222.79 29.1586L222.814 28.96ZM218.038 25.408H218.238C218.238 24.4239 218.704 23.6004 219.539 23.0158C220.378 22.4277 221.594 22.08 223.078 22.08V21.88V21.68C221.537 21.68 220.234 22.0403 219.309 22.6882C218.38 23.3396 217.838 24.2801 217.838 25.408H218.038ZM223.078 21.88V22.08C224.841 22.08 226.311 22.5254 227.618 23.4587L227.734 23.296L227.85 23.1333C226.469 22.1466 224.915 21.68 223.078 21.68V21.88ZM227.734 23.296L227.565 23.1891L226.533 24.8211L226.702 24.928L226.871 25.0349L227.903 23.4029L227.734 23.296ZM226.702 24.928L226.818 24.765C225.702 23.9712 224.508 23.624 223.174 23.624V23.824V24.024C224.431 24.024 225.542 24.3488 226.586 25.091L226.702 24.928ZM223.174 23.824V23.624C222.2 23.624 221.424 23.763 220.884 24.0493C220.332 24.3422 220.022 24.7944 220.022 25.384H220.222H220.422C220.422 24.9656 220.628 24.6378 221.072 24.4027C221.528 24.161 222.228 24.024 223.174 24.024V23.824ZM220.222 25.384H220.022C220.022 25.6361 220.077 25.8681 220.202 26.076C220.327 26.283 220.514 26.4532 220.757 26.5949C221.238 26.8742 221.968 27.0578 222.98 27.1903L223.006 26.992L223.032 26.7937C222.028 26.6622 221.366 26.4858 220.958 26.2491C220.758 26.1328 220.627 26.006 220.545 25.8695C220.463 25.7339 220.422 25.5759 220.422 25.384H220.222ZM223.006 26.992L222.98 27.1903C224.736 27.4172 225.942 27.7902 226.707 28.3504C227.455 28.8985 227.798 29.6384 227.798 30.664H227.998H228.198C228.198 29.5296 227.809 28.6615 226.943 28.0276C226.094 27.4058 224.804 27.0228 223.032 26.7936L223.006 26.992ZM227.998 30.664H227.798C227.798 31.6615 227.33 32.5035 226.498 33.1027C225.662 33.7051 224.452 34.064 222.982 34.064V34.264V34.464C224.512 34.464 225.81 34.0909 226.732 33.4273C227.658 32.7605 228.198 31.8025 228.198 30.664H227.998Z" fill="#EBF8F7" mask="url(#path-2-outside-1_2203_1146)"/>
<path d="M253 36V52H237L253 36Z" fill="#EBF8F7"/>
</svg>
