<svg width="344" height="52" viewBox="0 0 344 52" fill="none" xmlns="http://www.w3.org/2000/svg">
<rect width="344" height="52" rx="4" fill="#1863DA"/>
<mask id="path-2-outside-1_3248_106" maskUnits="userSpaceOnUse" x="100" y="16" width="144" height="19" fill="black">
<rect fill="white" x="100" y="16" width="144" height="19"/>
<path d="M114.308 17.2H116.804L109.868 34H107.324L100.364 17.2H102.86L105.956 24.784L108.596 31.312L114.308 17.2ZM119.999 20.104C119.135 20.104 118.487 19.48 118.487 18.64C118.487 17.776 119.135 17.152 119.999 17.152C120.887 17.152 121.511 17.776 121.511 18.64C121.511 19.48 120.887 20.104 119.999 20.104ZM118.871 34V22.144H121.103V34H118.871ZM130.086 21.904C134.166 21.904 136.47 24.592 136.134 28.96H126.318C126.534 31 128.094 32.248 130.374 32.248C131.814 32.248 133.278 31.696 133.974 30.856L135.414 32.224C134.286 33.52 132.366 34.312 130.326 34.312C126.51 34.312 124.014 31.84 124.014 28.072C124.014 24.424 126.462 21.904 130.086 21.904ZM130.158 23.896C128.07 23.896 126.702 25.072 126.342 27.064H134.022C133.83 25.144 132.366 23.896 130.158 23.896ZM153.857 22.144H156.209L152.249 34H149.801L148.649 30.544L146.777 25.336L144.905 30.544L143.729 34H141.281L137.297 22.144H139.673L141.113 26.704L142.529 31.432L145.769 22.144H147.761L150.953 31.504L153.857 22.144ZM171.034 17.2C176.05 17.2 179.482 20.584 179.482 25.6C179.482 30.616 176.05 34 171.034 34H164.794V17.2H171.034ZM171.034 31.816C174.634 31.816 177.106 29.272 177.106 25.6C177.106 21.928 174.61 19.384 171.034 19.384H167.122V31.816H171.034ZM187.741 21.904C191.821 21.904 194.125 24.592 193.789 28.96H183.973C184.189 31 185.749 32.248 188.029 32.248C189.469 32.248 190.933 31.696 191.629 30.856L193.069 32.224C191.941 33.52 190.021 34.312 187.981 34.312C184.165 34.312 181.669 31.84 181.669 28.072C181.669 24.424 184.117 21.904 187.741 21.904ZM187.813 23.896C185.725 23.896 184.357 25.072 183.997 27.064H191.677C191.485 25.144 190.021 23.896 187.813 23.896ZM203.536 31.768L204.184 33.616C203.32 34 202.552 34.168 201.664 34.168C199.168 34.168 197.92 32.728 197.92 30.064V24.088H195.592V22.144H197.92V18.952L200.128 18.712V22.144H203.728V24.088H200.128V30.064C200.128 31.384 200.632 32.152 201.928 32.152C202.432 32.152 203.032 31.984 203.536 31.768ZM216.168 22.144H218.136V34H216.168L216.144 32.248C215.208 33.496 213.576 34.264 211.632 34.264C208.152 34.264 205.704 31.72 205.704 28.072C205.704 24.424 208.152 21.88 211.632 21.88C213.576 21.88 215.208 22.648 216.144 23.896L216.168 22.144ZM211.92 32.2C214.272 32.2 215.904 30.496 215.904 28.072C215.904 25.648 214.272 23.944 211.92 23.944C209.592 23.944 207.936 25.648 207.936 28.072C207.936 30.496 209.592 32.2 211.92 32.2ZM222.981 20.104C222.117 20.104 221.469 19.48 221.469 18.64C221.469 17.776 222.117 17.152 222.981 17.152C223.869 17.152 224.493 17.776 224.493 18.64C224.493 19.48 223.869 20.104 222.981 20.104ZM221.853 34V22.144H224.085V34H221.853ZM227.788 34V17.2H230.02V34H227.788ZM238.14 34.264C236.124 34.264 234.348 33.64 232.812 32.44L233.94 30.784C234.972 31.696 236.532 32.248 238.188 32.248C239.892 32.248 240.948 31.648 240.948 30.64C240.948 29.68 240.108 29.224 237.972 28.96C234.78 28.576 233.196 27.4 233.196 25.408C233.196 23.296 235.212 21.88 238.236 21.88C240.036 21.88 241.548 22.336 242.892 23.296L241.86 24.928C240.78 24.16 239.628 23.824 238.332 23.824C236.412 23.824 235.38 24.376 235.38 25.384C235.38 26.272 236.148 26.728 238.164 26.992C241.692 27.448 243.156 28.504 243.156 30.664C243.156 32.8 241.14 34.264 238.14 34.264Z"/>
</mask>
<path d="M114.308 17.2H116.804L109.868 34H107.324L100.364 17.2H102.86L105.956 24.784L108.596 31.312L114.308 17.2ZM119.999 20.104C119.135 20.104 118.487 19.48 118.487 18.64C118.487 17.776 119.135 17.152 119.999 17.152C120.887 17.152 121.511 17.776 121.511 18.64C121.511 19.48 120.887 20.104 119.999 20.104ZM118.871 34V22.144H121.103V34H118.871ZM130.086 21.904C134.166 21.904 136.47 24.592 136.134 28.96H126.318C126.534 31 128.094 32.248 130.374 32.248C131.814 32.248 133.278 31.696 133.974 30.856L135.414 32.224C134.286 33.52 132.366 34.312 130.326 34.312C126.51 34.312 124.014 31.84 124.014 28.072C124.014 24.424 126.462 21.904 130.086 21.904ZM130.158 23.896C128.07 23.896 126.702 25.072 126.342 27.064H134.022C133.83 25.144 132.366 23.896 130.158 23.896ZM153.857 22.144H156.209L152.249 34H149.801L148.649 30.544L146.777 25.336L144.905 30.544L143.729 34H141.281L137.297 22.144H139.673L141.113 26.704L142.529 31.432L145.769 22.144H147.761L150.953 31.504L153.857 22.144ZM171.034 17.2C176.05 17.2 179.482 20.584 179.482 25.6C179.482 30.616 176.05 34 171.034 34H164.794V17.2H171.034ZM171.034 31.816C174.634 31.816 177.106 29.272 177.106 25.6C177.106 21.928 174.61 19.384 171.034 19.384H167.122V31.816H171.034ZM187.741 21.904C191.821 21.904 194.125 24.592 193.789 28.96H183.973C184.189 31 185.749 32.248 188.029 32.248C189.469 32.248 190.933 31.696 191.629 30.856L193.069 32.224C191.941 33.52 190.021 34.312 187.981 34.312C184.165 34.312 181.669 31.84 181.669 28.072C181.669 24.424 184.117 21.904 187.741 21.904ZM187.813 23.896C185.725 23.896 184.357 25.072 183.997 27.064H191.677C191.485 25.144 190.021 23.896 187.813 23.896ZM203.536 31.768L204.184 33.616C203.32 34 202.552 34.168 201.664 34.168C199.168 34.168 197.92 32.728 197.92 30.064V24.088H195.592V22.144H197.92V18.952L200.128 18.712V22.144H203.728V24.088H200.128V30.064C200.128 31.384 200.632 32.152 201.928 32.152C202.432 32.152 203.032 31.984 203.536 31.768ZM216.168 22.144H218.136V34H216.168L216.144 32.248C215.208 33.496 213.576 34.264 211.632 34.264C208.152 34.264 205.704 31.72 205.704 28.072C205.704 24.424 208.152 21.88 211.632 21.88C213.576 21.88 215.208 22.648 216.144 23.896L216.168 22.144ZM211.92 32.2C214.272 32.2 215.904 30.496 215.904 28.072C215.904 25.648 214.272 23.944 211.92 23.944C209.592 23.944 207.936 25.648 207.936 28.072C207.936 30.496 209.592 32.2 211.92 32.2ZM222.981 20.104C222.117 20.104 221.469 19.48 221.469 18.64C221.469 17.776 222.117 17.152 222.981 17.152C223.869 17.152 224.493 17.776 224.493 18.64C224.493 19.48 223.869 20.104 222.981 20.104ZM221.853 34V22.144H224.085V34H221.853ZM227.788 34V17.2H230.02V34H227.788ZM238.14 34.264C236.124 34.264 234.348 33.64 232.812 32.44L233.94 30.784C234.972 31.696 236.532 32.248 238.188 32.248C239.892 32.248 240.948 31.648 240.948 30.64C240.948 29.68 240.108 29.224 237.972 28.96C234.78 28.576 233.196 27.4 233.196 25.408C233.196 23.296 235.212 21.88 238.236 21.88C240.036 21.88 241.548 22.336 242.892 23.296L241.86 24.928C240.78 24.16 239.628 23.824 238.332 23.824C236.412 23.824 235.38 24.376 235.38 25.384C235.38 26.272 236.148 26.728 238.164 26.992C241.692 27.448 243.156 28.504 243.156 30.664C243.156 32.8 241.14 34.264 238.14 34.264Z" fill="white"/>
<path d="M114.308 17.2V17H114.173L114.123 17.125L114.308 17.2ZM116.804 17.2L116.989 17.2763L117.103 17H116.804V17.2ZM109.868 34V34.2H110.002L110.053 34.0763L109.868 34ZM107.324 34L107.139 34.0765L107.191 34.2H107.324V34ZM100.364 17.2V17H100.065L100.179 17.2765L100.364 17.2ZM102.86 17.2L103.045 17.1244L102.995 17H102.86V17.2ZM105.956 24.784L106.142 24.709L106.141 24.7084L105.956 24.784ZM108.596 31.312L108.411 31.387L108.596 31.8453L108.782 31.387L108.596 31.312ZM114.308 17.2V17.4H116.804V17.2V17H114.308V17.2ZM116.804 17.2L116.619 17.1237L109.683 33.9237L109.868 34L110.053 34.0763L116.989 17.2763L116.804 17.2ZM109.868 34V33.8H107.324V34V34.2H109.868V34ZM107.324 34L107.509 33.9235L100.549 17.1235L100.364 17.2L100.179 17.2765L107.139 34.0765L107.324 34ZM100.364 17.2V17.4H102.86V17.2V17H100.364V17.2ZM102.86 17.2L102.675 17.2756L105.771 24.8596L105.956 24.784L106.141 24.7084L103.045 17.1244L102.86 17.2ZM105.956 24.784L105.771 24.859L108.411 31.387L108.596 31.312L108.782 31.237L106.142 24.709L105.956 24.784ZM108.596 31.312L108.782 31.387L114.494 17.275L114.308 17.2L114.123 17.125L108.411 31.237L108.596 31.312ZM118.871 34H118.671V34.2H118.871V34ZM118.871 22.144V21.944H118.671V22.144H118.871ZM121.103 22.144H121.303V21.944H121.103V22.144ZM121.103 34V34.2H121.303V34H121.103ZM119.999 20.104V19.904C119.239 19.904 118.687 19.3632 118.687 18.64H118.487H118.287C118.287 19.5968 119.031 20.304 119.999 20.304V20.104ZM118.487 18.64H118.687C118.687 17.8907 119.241 17.352 119.999 17.352V17.152V16.952C119.028 16.952 118.287 17.6613 118.287 18.64H118.487ZM119.999 17.152V17.352C120.778 17.352 121.311 17.8886 121.311 18.64H121.511H121.711C121.711 17.6634 120.995 16.952 119.999 16.952V17.152ZM121.511 18.64H121.311C121.311 19.3653 120.781 19.904 119.999 19.904V20.104V20.304C120.993 20.304 121.711 19.5947 121.711 18.64H121.511ZM118.871 34H119.071V22.144H118.871H118.671V34H118.871ZM118.871 22.144V22.344H121.103V22.144V21.944H118.871V22.144ZM121.103 22.144H120.903V34H121.103H121.303V22.144H121.103ZM121.103 34V33.8H118.871V34V34.2H121.103V34ZM136.134 28.96V29.16H136.319L136.333 28.9753L136.134 28.96ZM126.318 28.96V28.76H126.096L126.119 28.9811L126.318 28.96ZM133.974 30.856L134.112 30.711L133.957 30.5636L133.82 30.7284L133.974 30.856ZM135.414 32.224L135.565 32.3553L135.691 32.2109L135.552 32.079L135.414 32.224ZM126.342 27.064L126.145 27.0284L126.103 27.264H126.342V27.064ZM134.022 27.064V27.264H134.243L134.221 27.0441L134.022 27.064ZM130.086 21.904V22.104C132.081 22.104 133.616 22.7597 134.614 23.9242C135.614 25.0909 136.1 26.7971 135.935 28.9447L136.134 28.96L136.333 28.9753C136.504 26.7549 136.006 24.9331 134.918 23.6638C133.828 22.3923 132.171 21.704 130.086 21.704V21.904ZM136.134 28.96V28.76H126.318V28.96V29.16H136.134V28.96ZM126.318 28.96L126.119 28.9811C126.232 30.0496 126.7 30.9216 127.446 31.5246C128.191 32.1259 129.198 32.448 130.374 32.448V32.248V32.048C129.27 32.048 128.357 31.7461 127.698 31.2134C127.04 30.6824 126.62 29.9104 126.517 28.9389L126.318 28.96ZM130.374 32.248V32.448C131.85 32.448 133.381 31.8847 134.128 30.9836L133.974 30.856L133.82 30.7284C133.175 31.5073 131.778 32.048 130.374 32.048V32.248ZM133.974 30.856L133.836 31.001L135.276 32.369L135.414 32.224L135.552 32.079L134.112 30.711L133.974 30.856ZM135.414 32.224L135.263 32.0927C134.18 33.3371 132.32 34.112 130.326 34.112V34.312V34.512C132.412 34.512 134.392 33.7029 135.565 32.3553L135.414 32.224ZM130.326 34.312V34.112C128.462 34.112 126.937 33.509 125.88 32.4628C124.822 31.4168 124.214 29.9108 124.214 28.072H124.014H123.814C123.814 30.0012 124.454 31.6152 125.598 32.7472C126.743 33.879 128.374 34.512 130.326 34.512V34.312ZM124.014 28.072H124.214C124.214 26.2935 124.81 24.804 125.834 23.76C126.857 22.7164 128.322 22.104 130.086 22.104V21.904V21.704C128.226 21.704 126.655 22.3516 125.548 23.48C124.442 24.608 123.814 26.2025 123.814 28.072H124.014ZM130.158 23.896V23.696C129.076 23.696 128.164 24.0014 127.474 24.5797C126.784 25.1579 126.332 25.995 126.145 27.0284L126.342 27.064L126.539 27.0996C126.712 26.141 127.124 25.3941 127.73 24.8863C128.336 24.3786 129.152 24.096 130.158 24.096V23.896ZM126.342 27.064V27.264H134.022V27.064V26.864H126.342V27.064ZM134.022 27.064L134.221 27.0441C134.12 26.0361 133.683 25.1942 132.974 24.606C132.265 24.0189 131.299 23.696 130.158 23.696V23.896V24.096C131.224 24.096 132.095 24.3971 132.718 24.914C133.341 25.4298 133.732 26.1719 133.823 27.0839L134.022 27.064ZM153.857 22.144V21.944H153.71L153.666 22.0847L153.857 22.144ZM156.209 22.144L156.399 22.2074L156.487 21.944H156.209V22.144ZM152.249 34V34.2H152.393L152.439 34.0634L152.249 34ZM149.801 34L149.612 34.0632L149.657 34.2H149.801V34ZM148.649 30.544L148.839 30.4807L148.838 30.4763L148.649 30.544ZM146.777 25.336L146.966 25.2683L146.777 24.7447L146.589 25.2683L146.777 25.336ZM144.905 30.544L144.717 30.4763L144.716 30.4796L144.905 30.544ZM143.729 34V34.2H143.873L143.919 34.0644L143.729 34ZM141.281 34L141.092 34.0637L141.138 34.2H141.281V34ZM137.297 22.144V21.944H137.019L137.108 22.2077L137.297 22.144ZM139.673 22.144L139.864 22.0838L139.82 21.944H139.673V22.144ZM141.113 26.704L141.305 26.6466L141.304 26.6438L141.113 26.704ZM142.529 31.432L142.338 31.4894L142.515 32.0807L142.718 31.4979L142.529 31.432ZM145.769 22.144V21.944H145.627L145.581 22.0781L145.769 22.144ZM147.761 22.144L147.951 22.0794L147.905 21.944H147.761V22.144ZM150.953 31.504L150.764 31.5686L150.962 32.15L151.144 31.5633L150.953 31.504ZM153.857 22.144V22.344H156.209V22.144V21.944H153.857V22.144ZM156.209 22.144L156.02 22.0806L152.06 33.9366L152.249 34L152.439 34.0634L156.399 22.2074L156.209 22.144ZM152.249 34V33.8H149.801V34V34.2H152.249V34ZM149.801 34L149.991 33.9368L148.839 30.4808L148.649 30.544L148.46 30.6072L149.612 34.0632L149.801 34ZM148.649 30.544L148.838 30.4763L146.966 25.2683L146.777 25.336L146.589 25.4037L148.461 30.6117L148.649 30.544ZM146.777 25.336L146.589 25.2683L144.717 30.4763L144.905 30.544L145.094 30.6117L146.966 25.4037L146.777 25.336ZM144.905 30.544L144.716 30.4796L143.54 33.9356L143.729 34L143.919 34.0644L145.095 30.6084L144.905 30.544ZM143.729 34V33.8H141.281V34V34.2H143.729V34ZM141.281 34L141.471 33.9363L137.487 22.0803L137.297 22.144L137.108 22.2077L141.092 34.0637L141.281 34ZM137.297 22.144V22.344H139.673V22.144V21.944H137.297V22.144ZM139.673 22.144L139.483 22.2042L140.923 26.7642L141.113 26.704L141.304 26.6438L139.864 22.0838L139.673 22.144ZM141.113 26.704L140.922 26.7614L142.338 31.4894L142.529 31.432L142.721 31.3746L141.305 26.6466L141.113 26.704ZM142.529 31.432L142.718 31.4979L145.958 22.2099L145.769 22.144L145.581 22.0781L142.341 31.3661L142.529 31.432ZM145.769 22.144V22.344H147.761V22.144V21.944H145.769V22.144ZM147.761 22.144L147.572 22.2086L150.764 31.5686L150.953 31.504L151.143 31.4394L147.951 22.0794L147.761 22.144ZM150.953 31.504L151.144 31.5633L154.048 22.2033L153.857 22.144L153.666 22.0847L150.762 31.4447L150.953 31.504ZM164.794 34H164.594V34.2H164.794V34ZM164.794 17.2V17H164.594V17.2H164.794ZM167.122 19.384V19.184H166.922V19.384H167.122ZM167.122 31.816H166.922V32.016H167.122V31.816ZM171.034 17.2V17.4C173.496 17.4 175.555 18.2297 176.998 19.661C178.441 21.0921 179.282 23.1389 179.282 25.6H179.482H179.682C179.682 23.0451 178.807 20.8919 177.28 19.377C175.753 17.8623 173.588 17 171.034 17V17.2ZM179.482 25.6H179.282C179.282 28.0611 178.441 30.1079 176.998 31.539C175.555 32.9703 173.496 33.8 171.034 33.8V34V34.2C173.588 34.2 175.753 33.3377 177.28 31.823C178.807 30.3081 179.682 28.1549 179.682 25.6H179.482ZM171.034 34V33.8H164.794V34V34.2H171.034V34ZM164.794 34H164.994V17.2H164.794H164.594V34H164.794ZM164.794 17.2V17.4H171.034V17.2V17H164.794V17.2ZM171.034 31.816V32.016C172.883 32.016 174.454 31.3618 175.563 30.2246C176.672 29.0879 177.306 27.4817 177.306 25.6H177.106H176.906C176.906 27.3903 176.304 28.8921 175.277 29.9454C174.25 30.9982 172.785 31.616 171.034 31.616V31.816ZM177.106 25.6H177.306C177.306 23.7178 176.665 22.1116 175.554 20.9752C174.442 19.8384 172.871 19.184 171.034 19.184V19.384V19.584C172.773 19.584 174.238 20.2016 175.268 21.2548C176.298 22.3084 176.906 23.8102 176.906 25.6H177.106ZM171.034 19.384V19.184H167.122V19.384V19.584H171.034V19.384ZM167.122 19.384H166.922V31.816H167.122H167.322V19.384H167.122ZM167.122 31.816V32.016H171.034V31.816V31.616H167.122V31.816ZM193.789 28.96V29.16H193.974L193.989 28.9753L193.789 28.96ZM183.973 28.96V28.76H183.751L183.774 28.9811L183.973 28.96ZM191.629 30.856L191.767 30.711L191.612 30.5636L191.475 30.7284L191.629 30.856ZM193.069 32.224L193.22 32.3553L193.346 32.2109L193.207 32.079L193.069 32.224ZM183.997 27.064L183.8 27.0284L183.758 27.264H183.997V27.064ZM191.677 27.064V27.264H191.898L191.876 27.0441L191.677 27.064ZM187.741 21.904V22.104C189.736 22.104 191.271 22.7597 192.269 23.9242C193.269 25.0909 193.755 26.7971 193.59 28.9447L193.789 28.96L193.989 28.9753C194.16 26.7549 193.661 24.9331 192.573 23.6638C191.483 22.3923 189.826 21.704 187.741 21.704V21.904ZM193.789 28.96V28.76H183.973V28.96V29.16H193.789V28.96ZM183.973 28.96L183.774 28.9811C183.888 30.0496 184.355 30.9216 185.102 31.5246C185.846 32.1259 186.853 32.448 188.029 32.448V32.248V32.048C186.925 32.048 186.012 31.7461 185.353 31.2134C184.695 30.6824 184.275 29.9104 184.172 28.9389L183.973 28.96ZM188.029 32.248V32.448C189.506 32.448 191.037 31.8847 191.783 30.9836L191.629 30.856L191.475 30.7284C190.83 31.5073 189.433 32.048 188.029 32.048V32.248ZM191.629 30.856L191.492 31.001L192.932 32.369L193.069 32.224L193.207 32.079L191.767 30.711L191.629 30.856ZM193.069 32.224L192.918 32.0927C191.835 33.3371 189.975 34.112 187.981 34.112V34.312V34.512C190.068 34.512 192.047 33.7029 193.22 32.3553L193.069 32.224ZM187.981 34.312V34.112C186.117 34.112 184.593 33.509 183.535 32.4628C182.477 31.4168 181.869 29.9108 181.869 28.072H181.669H181.469C181.469 30.0012 182.109 31.6152 183.254 32.7472C184.398 33.879 186.029 34.512 187.981 34.512V34.312ZM181.669 28.072H181.869C181.869 26.2935 182.465 24.804 183.489 23.76C184.513 22.7164 185.977 22.104 187.741 22.104V21.904V21.704C185.881 21.704 184.31 22.3516 183.203 23.48C182.097 24.608 181.469 26.2025 181.469 28.072H181.669ZM187.813 23.896V23.696C186.731 23.696 185.819 24.0014 185.129 24.5797C184.439 25.1579 183.987 25.995 183.8 27.0284L183.997 27.064L184.194 27.0996C184.367 26.141 184.78 25.3941 185.386 24.8863C185.992 24.3786 186.808 24.096 187.813 24.096V23.896ZM183.997 27.064V27.264H191.677V27.064V26.864H183.997V27.064ZM191.677 27.064L191.876 27.0441C191.775 26.0361 191.339 25.1942 190.629 24.606C189.921 24.0189 188.955 23.696 187.813 23.696V23.896V24.096C188.88 24.096 189.75 24.3971 190.374 24.914C190.996 25.4298 191.387 26.1719 191.478 27.0839L191.677 27.064ZM203.536 31.768L203.725 31.7018L203.654 31.4999L203.457 31.5842L203.536 31.768ZM204.184 33.616L204.266 33.7988L204.434 33.7239L204.373 33.5498L204.184 33.616ZM197.92 24.088H198.12V23.888H197.92V24.088ZM195.592 24.088H195.392V24.288H195.592V24.088ZM195.592 22.144V21.944H195.392V22.144H195.592ZM197.92 22.144V22.344H198.12V22.144H197.92ZM197.92 18.952L197.899 18.7532L197.72 18.7726V18.952H197.92ZM200.128 18.712H200.328V18.4891L200.107 18.5132L200.128 18.712ZM200.128 22.144H199.928V22.344H200.128V22.144ZM203.728 22.144H203.928V21.944H203.728V22.144ZM203.728 24.088V24.288H203.928V24.088H203.728ZM200.128 24.088V23.888H199.928V24.088H200.128ZM203.536 31.768L203.348 31.8342L203.996 33.6822L204.184 33.616L204.373 33.5498L203.725 31.7018L203.536 31.768ZM204.184 33.616L204.103 33.4332C203.263 33.8066 202.523 33.968 201.664 33.968V34.168V34.368C202.582 34.368 203.378 34.1934 204.266 33.7988L204.184 33.616ZM201.664 34.168V33.968C200.455 33.968 199.58 33.6203 199.005 32.9812C198.426 32.3383 198.12 31.3682 198.12 30.064H197.92H197.72C197.72 31.4238 198.039 32.5057 198.708 33.2488C199.38 33.9957 200.378 34.368 201.664 34.368V34.168ZM197.92 30.064H198.12V24.088H197.92H197.72V30.064H197.92ZM197.92 24.088V23.888H195.592V24.088V24.288H197.92V24.088ZM195.592 24.088H195.792V22.144H195.592H195.392V24.088H195.592ZM195.592 22.144V22.344H197.92V22.144V21.944H195.592V22.144ZM197.92 22.144H198.12V18.952H197.92H197.72V22.144H197.92ZM197.92 18.952L197.942 19.1508L200.15 18.9108L200.128 18.712L200.107 18.5132L197.899 18.7532L197.92 18.952ZM200.128 18.712H199.928V22.144H200.128H200.328V18.712H200.128ZM200.128 22.144V22.344H203.728V22.144V21.944H200.128V22.144ZM203.728 22.144H203.528V24.088H203.728H203.928V22.144H203.728ZM203.728 24.088V23.888H200.128V24.088V24.288H203.728V24.088ZM200.128 24.088H199.928V30.064H200.128H200.328V24.088H200.128ZM200.128 30.064H199.928C199.928 30.7434 200.057 31.3199 200.387 31.7286C200.723 32.146 201.239 32.352 201.928 32.352V32.152V31.952C201.321 31.952 200.937 31.774 200.698 31.4774C200.452 31.1721 200.328 30.7046 200.328 30.064H200.128ZM201.928 32.152V32.352C202.47 32.352 203.098 32.1735 203.615 31.9518L203.536 31.768L203.457 31.5842C202.967 31.7945 202.395 31.952 201.928 31.952V32.152ZM216.168 22.144V21.944H215.971L215.968 22.1413L216.168 22.144ZM218.136 22.144H218.336V21.944H218.136V22.144ZM218.136 34V34.2H218.336V34H218.136ZM216.168 34L215.968 34.0027L215.971 34.2H216.168V34ZM216.144 32.248L216.344 32.2453L216.336 31.6587L215.984 32.128L216.144 32.248ZM216.144 23.896L215.984 24.016L216.336 24.4853L216.344 23.8987L216.144 23.896ZM216.168 22.144V22.344H218.136V22.144V21.944H216.168V22.144ZM218.136 22.144H217.936V34H218.136H218.336V22.144H218.136ZM218.136 34V33.8H216.168V34V34.2H218.136V34ZM216.168 34L216.368 33.9973L216.344 32.2453L216.144 32.248L215.944 32.2507L215.968 34.0027L216.168 34ZM216.144 32.248L215.984 32.128C215.092 33.3169 213.525 34.064 211.632 34.064V34.264V34.464C213.627 34.464 215.324 33.6751 216.304 32.368L216.144 32.248ZM211.632 34.264V34.064C209.943 34.064 208.514 33.4475 207.507 32.3976C206.5 31.3471 205.904 29.8506 205.904 28.072H205.704H205.504C205.504 29.9414 206.132 31.5409 207.219 32.6744C208.306 33.8085 209.841 34.464 211.632 34.464V34.264ZM205.704 28.072H205.904C205.904 26.2934 206.5 24.7969 207.507 23.7464C208.514 22.6965 209.943 22.08 211.632 22.08V21.88V21.68C209.841 21.68 208.306 22.3355 207.219 23.4696C206.132 24.6031 205.504 26.2026 205.504 28.072H205.704ZM211.632 21.88V22.08C213.525 22.08 215.092 22.8271 215.984 24.016L216.144 23.896L216.304 23.776C215.324 22.4689 213.627 21.68 211.632 21.68V21.88ZM216.144 23.896L216.344 23.8987L216.368 22.1467L216.168 22.144L215.968 22.1413L215.944 23.8933L216.144 23.896ZM211.92 32.2V32.4C213.146 32.4 214.196 31.9548 214.938 31.1837C215.68 30.4132 216.104 29.3296 216.104 28.072H215.904H215.704C215.704 29.2384 215.312 30.2188 214.65 30.9063C213.988 31.5932 213.046 32 211.92 32V32.2ZM215.904 28.072H216.104C216.104 26.8144 215.68 25.7308 214.938 24.9603C214.196 24.1892 213.146 23.744 211.92 23.744V23.944V24.144C213.046 24.144 213.988 24.5508 214.65 25.2377C215.312 25.9252 215.704 26.9056 215.704 28.072H215.904ZM211.92 23.944V23.744C210.705 23.744 209.656 24.1895 208.911 24.96C208.166 25.7301 207.736 26.8136 207.736 28.072H207.936H208.136C208.136 26.9064 208.533 25.9259 209.199 25.238C209.864 24.5505 210.807 24.144 211.92 24.144V23.944ZM207.936 28.072H207.736C207.736 29.3304 208.166 30.4139 208.911 31.184C209.656 31.9545 210.705 32.4 211.92 32.4V32.2V32C210.807 32 209.864 31.5935 209.199 30.906C208.533 30.2181 208.136 29.2376 208.136 28.072H207.936ZM221.853 34H221.653V34.2H221.853V34ZM221.853 22.144V21.944H221.653V22.144H221.853ZM224.085 22.144H224.285V21.944H224.085V22.144ZM224.085 34V34.2H224.285V34H224.085ZM222.981 20.104V19.904C222.221 19.904 221.669 19.3632 221.669 18.64H221.469H221.269C221.269 19.5968 222.013 20.304 222.981 20.304V20.104ZM221.469 18.64H221.669C221.669 17.8907 222.223 17.352 222.981 17.352V17.152V16.952C222.011 16.952 221.269 17.6613 221.269 18.64H221.469ZM222.981 17.152V17.352C223.761 17.352 224.293 17.8886 224.293 18.64H224.493H224.693C224.693 17.6634 223.977 16.952 222.981 16.952V17.152ZM224.493 18.64H224.293C224.293 19.3653 223.763 19.904 222.981 19.904V20.104V20.304C223.975 20.304 224.693 19.5947 224.693 18.64H224.493ZM221.853 34H222.053V22.144H221.853H221.653V34H221.853ZM221.853 22.144V22.344H224.085V22.144V21.944H221.853V22.144ZM224.085 22.144H223.885V34H224.085H224.285V22.144H224.085ZM224.085 34V33.8H221.853V34V34.2H224.085V34ZM227.788 34H227.588V34.2H227.788V34ZM227.788 17.2V17H227.588V17.2H227.788ZM230.02 17.2H230.22V17H230.02V17.2ZM230.02 34V34.2H230.22V34H230.02ZM227.788 34H227.988V17.2H227.788H227.588V34H227.788ZM227.788 17.2V17.4H230.02V17.2V17H227.788V17.2ZM230.02 17.2H229.82V34H230.02H230.22V17.2H230.02ZM230.02 34V33.8H227.788V34V34.2H230.02V34ZM232.812 32.44L232.646 32.3274L232.541 32.4823L232.689 32.5976L232.812 32.44ZM233.94 30.784L234.072 30.6341L233.902 30.4839L233.774 30.6714L233.94 30.784ZM237.972 28.96L237.996 28.7615L237.996 28.7614L237.972 28.96ZM242.892 23.296L243.061 23.4029L243.162 23.2431L243.008 23.1333L242.892 23.296ZM241.86 24.928L241.744 25.091L241.916 25.2134L242.029 25.0349L241.86 24.928ZM238.164 26.992L238.138 27.1903L238.138 27.1903L238.164 26.992ZM238.14 34.264V34.064C236.168 34.064 234.436 33.455 232.935 32.2824L232.812 32.44L232.689 32.5976C234.26 33.825 236.079 34.464 238.14 34.464V34.264ZM232.812 32.44L232.977 32.5526L234.105 30.8966L233.94 30.784L233.774 30.6714L232.646 32.3274L232.812 32.44ZM233.94 30.784L233.807 30.9339C234.882 31.8832 236.491 32.448 238.188 32.448V32.248V32.048C236.572 32.048 235.062 31.5088 234.072 30.6341L233.94 30.784ZM238.188 32.248V32.448C239.059 32.448 239.788 32.2953 240.307 31.9951C240.834 31.6901 241.148 31.2279 241.148 30.64H240.948H240.748C240.748 31.0601 240.534 31.4019 240.107 31.6489C239.671 31.9007 239.021 32.048 238.188 32.048V32.248ZM240.948 30.64H241.148C241.148 30.3696 241.088 30.1233 240.953 29.9047C240.819 29.6871 240.619 29.5103 240.358 29.3645C239.845 29.0771 239.067 28.8939 237.996 28.7615L237.972 28.96L237.947 29.1585C239.012 29.2901 239.723 29.4669 240.163 29.7135C240.38 29.8347 240.523 29.9684 240.613 30.1146C240.702 30.2597 240.748 30.4304 240.748 30.64H240.948ZM237.972 28.96L237.996 28.7614C236.415 28.5713 235.261 28.1875 234.506 27.6265C233.762 27.0735 233.396 26.3413 233.396 25.408H233.196H232.996C232.996 26.4667 233.421 27.3185 234.267 27.9475C235.103 28.5685 236.337 28.9647 237.948 29.1586L237.972 28.96ZM233.196 25.408H233.396C233.396 24.4239 233.862 23.6004 234.697 23.0158C235.536 22.4277 236.752 22.08 238.236 22.08V21.88V21.68C236.695 21.68 235.392 22.0403 234.467 22.6882C233.537 23.3396 232.996 24.2801 232.996 25.408H233.196ZM238.236 21.88V22.08C239.999 22.08 241.469 22.5254 242.776 23.4587L242.892 23.296L243.008 23.1333C241.627 22.1466 240.073 21.68 238.236 21.68V21.88ZM242.892 23.296L242.723 23.1891L241.691 24.8211L241.86 24.928L242.029 25.0349L243.061 23.4029L242.892 23.296ZM241.86 24.928L241.976 24.765C240.859 23.9712 239.666 23.624 238.332 23.624V23.824V24.024C239.589 24.024 240.7 24.3488 241.744 25.091L241.86 24.928ZM238.332 23.824V23.624C237.358 23.624 236.582 23.763 236.042 24.0493C235.49 24.3422 235.18 24.7944 235.18 25.384H235.38H235.58C235.58 24.9656 235.786 24.6378 236.229 24.4027C236.686 24.161 237.385 24.024 238.332 24.024V23.824ZM235.38 25.384H235.18C235.18 25.6361 235.235 25.8681 235.36 26.076C235.485 26.283 235.671 26.4532 235.915 26.5949C236.396 26.8742 237.126 27.0578 238.138 27.1903L238.164 26.992L238.19 26.7937C237.186 26.6622 236.524 26.4858 236.116 26.2491C235.916 26.1328 235.785 26.006 235.703 25.8695C235.621 25.7339 235.58 25.5759 235.58 25.384H235.38ZM238.164 26.992L238.138 27.1903C239.894 27.4172 241.1 27.7902 241.865 28.3504C242.613 28.8985 242.956 29.6384 242.956 30.664H243.156H243.356C243.356 29.5296 242.967 28.6615 242.101 28.0276C241.252 27.4058 239.962 27.0228 238.189 26.7936L238.164 26.992ZM243.156 30.664H242.956C242.956 31.6615 242.488 32.5035 241.656 33.1027C240.819 33.7051 239.61 34.064 238.14 34.064V34.264V34.464C239.67 34.464 240.968 34.0909 241.89 33.4273C242.816 32.7605 243.356 31.8025 243.356 30.664H243.156Z" fill="white" mask="url(#path-2-outside-1_3248_106)"/>
<path d="M344 36V52H328L344 36Z" fill="white"/>
</svg>
